<?xml version="1.0" encoding="utf-8"?>
<!-- Generator: Adobe Illustrator 27.0.0, SVG Export Plug-In . SVG Version: 6.00 Build 0)  -->
<svg version="1.1" id="Groupe_6379" xmlns="http://www.w3.org/2000/svg" xmlns:xlink="http://www.w3.org/1999/xlink" x="0px"
	 y="0px" viewBox="0 0 100 100" style="enable-background:new 0 0 100 100;" xml:space="preserve">
<style type="text/css">
	.st0{clip-path:url(#SVGID_00000114056444375747973850000008188451814694931874_);}
	.st1{fill:#FFDF00;}
	.st2{fill:#61BCA5;}
	.st3{fill:#E82827;}
	.st4{fill:#F87F0B;}
	.st5{fill:#050605;}
</style>
<g id="Groupe_6422" transform="translate(0 0)">
	<g>
		<defs>
			<rect id="SVGID_1_" x="5.7" y="5.5" width="88.5" height="89.1"/>
		</defs>
		<clipPath id="SVGID_00000137847656458247035390000006352670089315263925_">
			<use xlink:href="#SVGID_1_"  style="overflow:visible;"/>
		</clipPath>
		<g id="Groupe_6421" style="clip-path:url(#SVGID_00000137847656458247035390000006352670089315263925_);">
			<path id="Tracé_3714" class="st1" d="M47.7,66.7c0-1.4,1.1-2.6,2.6-2.6c1.4,0,2.6,1.1,2.6,2.6c0,1.4-1.1,2.5-2.5,2.6
				c-0.2,0-0.4,0-0.6-0.1C48.5,68.9,47.7,67.9,47.7,66.7 M41.8,67.3c-1.3-0.6-1.8-2.2-1.1-3.4c0.6-1.3,2.2-1.8,3.4-1.1
				c1.3,0.6,1.8,2.2,1.1,3.4c-0.5,1-1.7,1.6-2.9,1.3C42.2,67.5,42,67.4,41.8,67.3 M55.3,66c-0.7-1.2-0.2-2.8,1-3.5s2.8-0.2,3.5,1
				c0.7,1.2,0.2,2.8-1,3.5c-0.5,0.3-1.2,0.4-1.8,0.3C56.2,67.1,55.6,66.6,55.3,66 M35.2,61.6c-0.8-1.2-0.5-2.8,0.6-3.6
				s2.8-0.5,3.6,0.6c0.8,1.2,0.5,2.8-0.6,3.6c-0.6,0.4-1.4,0.6-2.1,0.4C36.1,62.5,35.6,62.1,35.2,61.6L35.2,61.6z M61.6,61.8
				c-1.2-0.8-1.5-2.4-0.7-3.6c0.8-1.2,2.4-1.5,3.6-0.7c1.2,0.8,1.5,2.4,0.7,3.6c-0.6,0.9-1.7,1.3-2.7,1.1
				C62.2,62.1,61.9,61.9,61.6,61.8z M32,53.4c-0.2-1.4,0.8-2.7,2.2-3s2.7,0.8,3,2.2c0.2,1.4-0.8,2.7-2.2,2.9h0
				C33.5,55.8,32.2,54.8,32,53.4 M63,52.2c0.1-1.4,1.4-2.5,2.8-2.3c1.4,0.1,2.5,1.4,2.3,2.8c-0.1,1.4-1.4,2.5-2.8,2.3h0
				c-0.1,0-0.2,0-0.3-0.1C63.8,54.7,62.9,53.5,63,52.2 M34.5,47.9c-1.3-0.5-2-1.9-1.6-3.3c0.5-1.3,1.9-2,3.2-1.6l0.1,0
				c1.3,0.5,2,1.9,1.6,3.3C37.4,47.7,35.9,48.4,34.5,47.9C34.6,47.9,34.5,47.9,34.5,47.9 M62.2,46c-0.5-1.3,0.1-2.8,1.4-3.4
				c1.3-0.5,2.8,0.1,3.4,1.4c0.5,1.3-0.1,2.8-1.4,3.4c-0.5,0.2-1,0.2-1.6,0.1C63.2,47.3,62.5,46.8,62.2,46L62.2,46z M37.7,40.9
				c-0.9-1.1-0.8-2.7,0.2-3.6c1.1-0.9,2.7-0.8,3.6,0.2c0.9,1.1,0.8,2.7-0.2,3.6c-0.6,0.6-1.5,0.8-2.3,0.6
				C38.5,41.6,38,41.3,37.7,40.9z M58.6,40.8c-1.1-0.9-1.2-2.5-0.3-3.6s2.5-1.2,3.6-0.3c1.1,0.9,1.2,2.5,0.3,3.6
				c-0.6,0.7-1.6,1-2.5,0.8C59.3,41.3,58.9,41.1,58.6,40.8 M43.7,36.2c-0.3-1.4,0.5-2.8,1.9-3.1c1.4-0.3,2.8,0.5,3.1,1.9
				c0.3,1.4-0.5,2.7-1.8,3.1c-0.4,0.1-0.8,0.1-1.2,0C44.7,37.9,43.9,37.2,43.7,36.2 M51,34.8c0.2-1.4,1.6-2.3,3-2.1
				c1.4,0.2,2.3,1.6,2.1,3c0,0.1,0,0.1,0,0.2l0,0.1c-0.2,1.4-1.6,2.3-3,2.1c-1.4-0.2-2.3-1.6-2.1-3C51,35,51,35,51,34.8L51,34.8"/>
			<path id="Tracé_3715" class="st2" d="M47.7,84.9c0-1.4,1.1-2.6,2.6-2.6c1.4,0,2.6,1.1,2.6,2.6s-1.1,2.6-2.6,2.6
				c-0.2,0-0.4,0-0.6-0.1C48.6,87.1,47.7,86.1,47.7,84.9 M33.5,83.5c-1.3-0.6-1.8-2.2-1.1-3.4c0.6-1.3,2.2-1.8,3.4-1.1
				c1.3,0.6,1.8,2.2,1.1,3.4c-0.5,1-1.7,1.6-2.9,1.3C33.8,83.7,33.6,83.6,33.5,83.5z M63.6,81.9c-0.7-1.2-0.2-2.8,1-3.5
				c1.2-0.7,2.8-0.2,3.5,1c0.7,1.2,0.2,2.8-1,3.5c-0.5,0.3-1.2,0.4-1.8,0.3C64.6,83,64,82.6,63.6,81.9z M20.4,72.1
				c-0.8-1.2-0.5-2.8,0.6-3.6c1.2-0.8,2.8-0.5,3.6,0.6c0.8,1.2,0.5,2.8-0.6,3.6c-0.6,0.4-1.4,0.6-2.1,0.4
				C21.3,73,20.7,72.7,20.4,72.1L20.4,72.1z M76.3,71.8c-1.2-0.8-1.5-2.4-0.7-3.6c0.8-1.2,2.4-1.5,3.6-0.7c1.2,0.8,1.5,2.4,0.7,3.6
				c-0.6,0.9-1.7,1.3-2.7,1.1C76.9,72.1,76.6,72,76.3,71.8z M14,55.9c-0.2-1.4,0.8-2.7,2.2-2.9c1.4-0.2,2.7,0.8,2.9,2.2
				c0.2,1.4-0.8,2.7-2.2,2.9h0c-0.3,0-0.6,0-1,0C15,57.8,14.2,57,14,55.9 M80.7,54.1c0.1-1.4,1.4-2.5,2.8-2.3
				c1.4,0.1,2.5,1.4,2.3,2.8c-0.1,1.4-1.4,2.5-2.8,2.3h0c-0.1,0-0.2,0-0.3-0.1C81.4,56.6,80.5,55.4,80.7,54.1 M17.5,41.8
				c-1.4-0.5-2.1-2-1.6-3.3c0.5-1.4,2-2.1,3.3-1.6s2.1,2,1.6,3.3c-0.4,1.2-1.7,1.9-3,1.7C17.7,41.8,17.6,41.8,17.5,41.8 M78.7,39.2
				c-0.5-1.3,0.1-2.8,1.4-3.4c1.3-0.5,2.8,0.1,3.4,1.4c0.5,1.3-0.1,2.8-1.4,3.4c-0.5,0.2-1,0.2-1.6,0.1C79.7,40.6,79,40,78.7,39.2
				 M25.4,27.5c-0.9-1.1-0.8-2.7,0.2-3.6c1.1-0.9,2.7-0.8,3.6,0.2c0.9,1.1,0.8,2.7-0.2,3.6c-0.6,0.6-1.5,0.8-2.3,0.6
				C26.2,28.2,25.8,27.9,25.4,27.5 M70.1,27c-1.1-0.9-1.2-2.5-0.3-3.6c0.9-1.1,2.5-1.2,3.6-0.3c1.1,0.9,1.2,2.5,0.3,3.6
				c-0.6,0.7-1.6,1-2.5,0.8C70.8,27.5,70.4,27.3,70.1,27 M39,18.7c-0.3-1.4,0.5-2.8,1.9-3.1c1.4-0.3,2.8,0.5,3.1,1.9
				c0.3,1.4-0.5,2.7-1.8,3.1c-0.4,0.1-0.8,0.1-1.2,0C40,20.3,39.2,19.6,39,18.7 M55,17.2c0.3-1.4,1.7-2.2,3.1-1.9
				c1.4,0.3,2.2,1.7,1.9,3.1l0,0l0,0c-0.3,1.4-1.7,2.2-3.1,1.9S54.7,18.5,55,17.2L55,17.2"/>
			<path id="Tracé_3716" class="st3" d="M57.5,92.6c-0.3-1.4,0.5-2.8,1.9-3.1c1.4-0.3,2.8,0.5,3.1,1.9c0.3,1.4-0.5,2.8-1.9,3.1
				c-0.2,0-0.4,0.1-0.6,0.1C58.9,94.5,57.8,93.7,57.5,92.6 M39.3,94.5c-1.4-0.3-2.2-1.7-1.9-3.1c0.3-1.4,1.7-2.2,3.1-1.9
				c1.4,0.3,2.2,1.7,1.9,3.1c-0.3,1.1-1.3,1.9-2.5,1.9C39.7,94.5,39.5,94.5,39.3,94.5z M75.9,84.2c-0.9-1.1-0.8-2.7,0.2-3.6
				c1.1-0.9,2.7-0.8,3.6,0.2c0.9,1.1,0.8,2.7-0.2,3.6c-0.5,0.4-1.1,0.7-1.7,0.7C77.1,85.1,76.4,84.7,75.9,84.2z M20.4,84.4
				c-1.1-0.9-1.2-2.6-0.2-3.6c0.9-1.1,2.6-1.2,3.6-0.2c1.1,0.9,1.2,2.6,0.2,3.6c-0.5,0.6-1.2,0.9-1.9,0.9
				C21.5,85.1,20.9,84.8,20.4,84.4z M88.3,68.1c-1.3-0.5-2-2-1.5-3.3c0.5-1.3,2-2,3.3-1.5c1.3,0.5,2,2,1.5,3.3
				c-0.4,1-1.3,1.6-2.4,1.6C88.9,68.3,88.6,68.2,88.3,68.1 M8.3,66.6c-0.5-1.3,0.1-2.8,1.5-3.4c1.3-0.5,2.8,0.1,3.4,1.5
				c0.5,1.3-0.1,2.8-1.5,3.4c0,0,0,0,0,0l0,0c-0.3,0.1-0.6,0.2-0.9,0.2C9.6,68.3,8.7,67.6,8.3,66.6 M89.1,45.8
				c-0.2-1.4,0.8-2.7,2.2-2.9c1.4-0.2,2.7,0.8,2.9,2.2c0.2,1.4-0.8,2.7-2.2,2.9h0c-0.1,0-0.2,0-0.3,0C90.4,48.1,89.3,47.1,89.1,45.8
				z M8,48c-1.4-0.2-2.4-1.5-2.3-2.9c0.2-1.4,1.5-2.4,2.9-2.3c1.4,0.2,2.4,1.5,2.3,2.9c-0.2,1.3-1.3,2.3-2.6,2.3
				C8.2,48.1,8.1,48,8,48 M82.4,27.9c-0.8-1.2-0.5-2.8,0.6-3.6s2.8-0.5,3.6,0.6c0.8,1.2,0.5,2.8-0.6,3.6c-0.4,0.3-1,0.5-1.5,0.5
				C83.7,29,82.9,28.6,82.4,27.9 M13.9,28.5c-1.2-0.8-1.4-2.4-0.6-3.6c0.8-1.2,2.4-1.4,3.6-0.6c1.2,0.8,1.4,2.4,0.6,3.6
				C17,28.6,16.3,29,15.4,29C14.9,29,14.4,28.8,13.9,28.5 M68.3,15.2c-1.3-0.7-1.7-2.2-1.1-3.5s2.2-1.7,3.5-1.1s1.7,2.2,1.1,3.5
				c-0.4,0.8-1.3,1.4-2.3,1.4C69.1,15.5,68.6,15.4,68.3,15.2 M28.2,14.1c-0.6-1.3-0.2-2.8,1.1-3.5s2.8-0.2,3.5,1.1
				c0.6,1.2,0.2,2.8-1.1,3.4c-0.4,0.2-0.8,0.3-1.2,0.3C29.5,15.5,28.6,15,28.2,14.1 M47.4,8.1c0-1.4,1.1-2.6,2.5-2.6
				c1.4,0,2.6,1.1,2.6,2.5c0,0,0,0.1,0,0.1v0.1c0,1.4-1.1,2.6-2.5,2.6c-1.4,0-2.6-1.1-2.6-2.5C47.4,8.2,47.4,8.1,47.4,8.1L47.4,8.1"
				/>
			<path id="Tracé_3717" class="st4" d="M54.3,75.8c-0.4-1.4,0.4-2.8,1.8-3.1s2.8,0.4,3.1,1.8c0.4,1.4-0.4,2.8-1.8,3.1
				c-0.2,0.1-0.4,0.1-0.6,0.1C55.7,77.7,54.6,76.9,54.3,75.8 M44.4,78c-1.4-0.3-2.3-1.7-2-3c0.3-1.4,1.7-2.3,3-2
				c1.4,0.3,2.3,1.7,2,3c-0.2,1.2-1.2,2-2.4,2C44.8,78.1,44.6,78.1,44.4,78 M65.3,70.9c-1-1-0.9-2.7,0.1-3.6c1-1,2.7-0.9,3.6,0.1
				c1,1,0.9,2.6-0.1,3.6c-0.5,0.4-1,0.7-1.7,0.7C66.5,71.7,65.8,71.4,65.3,70.9L65.3,70.9z M32.5,72.3c-1.1-0.9-1.2-2.5-0.3-3.6
				c0.9-1.1,2.5-1.2,3.6-0.3s1.2,2.5,0.3,3.6c-0.5,0.6-1.2,0.9-1.9,0.9C33.6,72.9,33,72.7,32.5,72.3L32.5,72.3z M72.7,61.4
				c-1.3-0.5-2.1-1.9-1.6-3.3c0.5-1.3,1.9-2.1,3.3-1.6c1.3,0.5,2.1,1.9,1.6,3.3c-0.3,1-1.3,1.7-2.3,1.7C73.3,61.5,73,61.5,72.7,61.4
				z M24.7,61.6c-0.6-1.3,0-2.8,1.3-3.4s2.8,0,3.4,1.3c0.6,1.3,0,2.8-1.3,3.4c0,0,0,0,0,0l0,0c-0.3,0.1-0.6,0.2-0.9,0.2
				C26.1,63.2,25.1,62.6,24.7,61.6 M72,47.4c-0.2-1.4,0.7-2.7,2.1-3c1.4-0.2,2.7,0.7,3,2.1c0.2,1.4-0.7,2.7-2.1,3h0
				c-0.1,0-0.2,0-0.3,0C73.3,49.6,72.2,48.7,72,47.4 M25,51.3c-1.4-0.1-2.5-1.4-2.3-2.8c0.1-1.4,1.3-2.4,2.7-2.3l0.1,0
				c1.4,0.1,2.5,1.3,2.4,2.7c-0.1,1.3-1.2,2.4-2.5,2.4C25.2,51.3,25.1,51.3,25,51.3 M67.8,37.4c-0.9-1.1-0.6-2.7,0.5-3.6
				s2.7-0.6,3.6,0.5c0.9,1.1,0.6,2.7-0.5,3.6c-0.4,0.3-0.9,0.5-1.5,0.5C69.1,38.5,68.3,38.1,67.8,37.4 M27.7,39.4
				c-1.2-0.8-1.5-2.4-0.7-3.6s2.4-1.5,3.6-0.7c1.2,0.8,1.5,2.4,0.7,3.6c-0.5,0.7-1.2,1.1-2.1,1.2C28.6,39.9,28.1,39.7,27.7,39.4
				 M59.6,30.5c-1.3-0.6-1.8-2.2-1.2-3.4s2.2-1.8,3.4-1.2c1.3,0.6,1.8,2.2,1.2,3.4c-0.4,0.9-1.3,1.4-2.2,1.4
				C60.4,30.8,60,30.7,59.6,30.5 M35.5,30.3c-0.7-1.2-0.3-2.8,1-3.5c1.2-0.7,2.8-0.3,3.5,1c0.7,1.2,0.3,2.8-1,3.5
				c-0.4,0.2-0.8,0.3-1.2,0.3C36.8,31.6,35.9,31.1,35.5,30.3 M46.6,25.8c-0.1-1.4,1-2.6,2.4-2.7c1.4-0.1,2.6,1,2.7,2.4
				c0,0,0,0.1,0,0.1c0,0,0,0,0,0.1c0.1,1.4-1,2.6-2.4,2.7c-1.4,0.1-2.6-1-2.7-2.4C46.6,25.9,46.6,25.9,46.6,25.8
				C46.6,25.8,46.6,25.8,46.6,25.8"/>
			<path id="Tracé_3718" class="st5" d="M50,42.3c4.5-0.1,8.3,3.6,8.3,8.1s-3.6,8.3-8.1,8.3s-8.3-3.6-8.3-8.1c0,0,0-0.1,0-0.1
				C41.9,46,45.5,42.3,50,42.3C50,42.3,50,42.3,50,42.3"/>
		</g>
	</g>
</g>
</svg>
