<svg id="Layer_1" data-name="Layer 1" xmlns="http://www.w3.org/2000/svg" viewBox="0 0 1000 715"><defs><style>.cls-1{fill:#adcc36;}.cls-2{fill:#eb1b6b;}.cls-3{fill:#676767;}.cls-4{fill:#f08e20;}.cls-5{fill:#56add4;}.cls-6{fill:#02526b;}.cls-7{fill:#04546b;}.cls-8{fill:#f5a81c;}</style></defs><path class="cls-1" d="M0,0H62V354.2c0,14,7.9,21.34,23.1,21.34h21.28V434H79c-45,0-79-19.51-79-75Z"/><path class="cls-2" d="M222.8,153.64H224c12.78-21.33,34-31.08,76-31.08,68.71,0,108.81,40.85,108.81,94.49,0,49.39-34,91.44-100.29,91.44H222.8V340.8c0,29.28,18.85,39.62,63.23,39.62,32.22,0,47.4-6.09,58.36-23.76L393,393.85c-23.7,32.9-57.73,45.1-103.94,45.1-76,0-128.28-25.59-128.28-101.81V126.24h62Zm0,103.64H297c36.44,0,53.47-14.63,53.47-37.18,0-20.73-16.4-39-58.34-39-51.69,0-69.32,5.49-69.32,53.64Z"/><rect class="cls-3" x="293.33" y="483.45" width="65.65" height="65.84"/><rect class="cls-3" x="186.35" y="483.45" width="65.63" height="65.84"/><path class="cls-4" d="M460.8,0h62V270.06H524L642.57,125h74.15L610.33,245.68,731.31,434h-77.8L571.45,289.57,522.81,345v89h-62Z"/><path class="cls-5" d="M938,406.62h-1.22c-12.78,21.33-34,31.08-76,31.08C792.09,437.7,752,396.85,752,343.21c0-49.37,34.07-91.44,100.32-91.44H938V219.46c0-29.26-18.87-39.62-63.25-39.62-32.21,0-47.39,6.09-58.36,23.79l-48.62-37.19c23.72-32.92,57.77-45.12,104-45.12,76,0,128.27,25.6,128.27,101.8V434H938ZM938,303H863.84c-36.47,0-53.49,14.63-53.49,37.19,0,20.72,16.4,39,58.34,39,51.68,0,69.32-5.5,69.32-53.66Z"/><path class="cls-3" d="M598,543.36c-14,0-17.64-11.07-18.15-14.73a3,3,0,0,1,2-3.29c1.74-.37,2.88.59,3.65,2.78,2.53,7,6.79,9.4,12.51,9.4,8.68,0,13-4.6,13-11,0-7.42-4.17-9.42-7.74-11.24L591,508.85c-5.74-3-8.78-7.31-8.78-14.2,0-11.32,8.78-15.16,17.3-15.16,8.84,0,13.8,5.33,14.94,8.19.61,1.57.26,3.58-1.31,4.19s-2.87.16-4-1.39a11.66,11.66,0,0,0-9.64-5.33c-3.83,0-10.88,1-10.88,10,0,3,1.14,6.17,6,8.7l13.2,6.81c3.57,1.82,9.64,5.74,9.64,15.24S611.67,543.36,598,543.36Z"/><path class="cls-3" d="M687.31,543a2.77,2.77,0,0,1-2.77-2.89V513.22c0-8.62-2.71-13.16-11-13.16-7.91,0-10.7,6.62-10.7,13v27.18A2.78,2.78,0,0,1,660,543a2.85,2.85,0,0,1-2.87-2.89V513.3c0-8.62-2.61-13.16-11-13.16-8,0-11.84,6.79-11.84,13.25v26.74a2.88,2.88,0,0,1-2.85,2.89,2.85,2.85,0,0,1-2.87-2.89V497.8a2.86,2.86,0,0,1,5.72-.11v3c2.88-3.66,6-6.26,11.84-6.26,7.56,0,12.25,3,14.67,8.36,2.43-4.27,6.18-8.46,12.7-8.46,12,0,16.77,5.58,16.77,20.21v25.71A2.86,2.86,0,0,1,687.31,543Z"/><path class="cls-3" d="M741.42,538.05a2.91,2.91,0,0,1,0,4.09,2.73,2.73,0,0,1-4-.08c-2.16-1.84-3.91-5.93-3.91-5.93a18.15,18.15,0,0,1-14.06,7.23c-10.35,0-18.34-7.23-18.34-20.31v-8.54c0-13.16,8.25-19.94,18.6-19.94,5,0,9.11,2.26,12.6,5.82v-2.51a2.82,2.82,0,1,1,5.64-.08v31.1a12.9,12.9,0,0,0,3.57,9.15Zm-9.13-24.13c0-8.11-5-13.61-12.6-13.61S707,505.19,707,513.22v11.16c0,8.09,4.87,13.24,12.43,13.24s12.86-5.15,12.86-13.24Z"/><path class="cls-3" d="M776,500.49h-7.13c-6.6,0-11.29,5.85-11.29,15.78v23.86a2.9,2.9,0,0,1-2.87,2.89,2.83,2.83,0,0,1-2.85-2.89V497.69a2.76,2.76,0,0,1,2.85-2.78,2.83,2.83,0,0,1,2.87,2.78v3.42a13,13,0,0,1,11.29-6.38H776a2.77,2.77,0,0,1,2.8,2.8A2.86,2.86,0,0,1,776,500.49Z"/><path class="cls-3" d="M804.58,500.23h-8.49V529c0,7.07,3.73,8.38,5.56,9.5a2.89,2.89,0,0,1,.61,3.76c-.88,1.31-2.36,1.47-4.28.51-4.32-2.16-7.64-7.32-7.64-13.77V500.23h-4a2.73,2.73,0,0,1-2.77-2.78,2.83,2.83,0,0,1,2.87-2.88h3.89V482.9a2.92,2.92,0,0,1,3-2.88,2.78,2.78,0,0,1,2.79,2.88v11.67h8.49a2.89,2.89,0,0,1,2.88,2.88A2.76,2.76,0,0,1,804.58,500.23Z"/><path class="cls-3" d="M873.64,485.76H860v54.46a2.76,2.76,0,0,1-2.79,2.8,2.87,2.87,0,0,1-3-2.8V485.76H840.71a3,3,0,0,1-3-3,2.82,2.82,0,0,1,2.87-2.78h33a2.75,2.75,0,0,1,2.79,2.78A2.9,2.9,0,0,1,873.64,485.76Z"/><path class="cls-3" d="M896.48,543.36c-10.35,0-18.78-6.54-18.78-19.69v-9.32c0-13.16,8.43-20.05,18.78-20.05s18.77,6.89,18.77,20.05v9.32C915.25,536.82,906.82,543.36,896.48,543.36ZM909.26,513c0-8.11-5.32-13-12.78-13s-12.87,4.87-12.87,13v12c0,8.12,5.31,12.57,12.87,12.57s12.78-4.45,12.78-12.57Z"/><path class="cls-3" d="M939.21,555.64c-1.06,2.88-3.32,2.8-5,2.8h-3.91a2.76,2.76,0,0,1-2.85-2.8,2.88,2.88,0,0,1,2.85-2.86h4l4.5-12.91-15.2-41.56a2.85,2.85,0,0,1,1.83-3.66,2.93,2.93,0,0,1,3.57,1.92L942,531.51l12.51-34.78a3,3,0,0,1,3.48-2.16,2.86,2.86,0,0,1,2.08,3.57Z"/><path class="cls-3" d="M982.27,543.36c-7.64,0-13.53-4.08-15.2-5.92a2.81,2.81,0,0,1-.08-4,2.94,2.94,0,0,1,4.07-.1c.88.8,6,4.37,11.4,4.37,9.65,0,11.47-4.53,11.47-8.54,0-3.15-1.82-5.39-5.22-6.46l-13-4.08c-4.16-1.31-8.84-3.48-8.84-11.16,0-9.66,9.47-13.16,15.81-13.16a19.15,19.15,0,0,1,13.9,5.5,2.72,2.72,0,0,1,.08,4,3,3,0,0,1-4.08.08,16.06,16.06,0,0,0-10.17-3.82c-2.61,0-9.66.51-9.66,8,0,3.48,2,4.44,5.06,5.4L989.4,517c7,2.19,10.6,5.85,10.6,12C1000,537,995.31,543.36,982.27,543.36Z"/><path class="cls-6" d="M25.86,641.31c10.27,0,18.3,8,18.3,20.42s-8,20.71-18.3,20.71a16.37,16.37,0,0,1-13.23-6.33v24.67H2.5V642H12.63v5.75A16,16,0,0,1,25.86,641.31Zm-2.67,8.84c-5.43,0-10.56,4.17-10.56,11.73s5.13,11.72,10.56,11.72,10.63-4.32,10.63-11.87S28.68,650.15,23.19,650.15Z"/><path class="cls-6" d="M67.23,641.31a15.88,15.88,0,0,1,13.24,6.33V642h10.2V681.8H80.47V676a15.85,15.85,0,0,1-13.31,6.47c-10.13,0-18.23-8.27-18.23-20.71S57,641.31,67.23,641.31Zm2.61,8.84c-5.43,0-10.56,4-10.56,11.58s5.13,11.87,10.56,11.87,10.63-4.17,10.63-11.72S75.41,650.15,69.84,650.15Z"/><path class="cls-6" d="M110.7,681.8H100.57V642H110.7v6.18A13.91,13.91,0,0,1,123,641.38V652h-2.67c-6,0-9.62,2.3-9.62,10Z"/><path class="cls-7" d="M261.11,639.92c3.05,7,5.74,14.09,8.1,21.05H252.93c2.37-7,5-14,8.18-21.05m26.76,41.89a421.85,421.85,0,0,0-20.26-54.32H254.92a450,450,0,0,0-20.18,54.32h12c1-3.79,2.07-7.65,3.21-11.51H272.2c1.14,3.86,2.29,7.72,3.29,11.51Z"/><path class="cls-7" d="M313.09,636.81c9.48,0,11.46,1.14,11.46,7.27,0,7.65-3.05,8.56-12.15,8.56h-7.11V636.81Zm-19.11,45h11.31V662h10.63c10.85,0,20.11-2.05,20.11-17.42,0-16-9.94-17-21.34-17H294Z"/><polygon class="cls-7" points="342.3 681.81 353.62 681.81 353.62 658.86 377.39 658.86 377.39 649.54 353.62 649.54 353.62 636.81 380.83 636.81 380.83 627.49 342.3 627.49 342.3 681.81"/><path class="cls-7" d="M544.4,681.81H555V657.42c0-12.12-2.68-16.52-13-16.52-7.41,0-10.54,2.28-13.45,6.14v-5.15H518.48v39.92H529.1V662.87c0-9.39.85-13.33,8.42-13.33,6.8,0,6.88,3.18,6.88,9.32Z"/><path class="cls-7" d="M457,681.78V667c0-9.09.77-15.91,9.17-15.91a21.18,21.18,0,0,1,3.37.22V641.25a11.89,11.89,0,0,0-2.76-.23c-5.27,0-7.95,1.67-10.39,5.84v-5h-10v39.92Z"/><path class="cls-7" d="M403.48,681.81H414.8V658.86h23.78v-9.32H414.8V636.81H442v-9.32H403.48Z"/><path class="cls-7" d="M599,655.38c-1.07-9.78-6-14.48-17.66-14.48-15.83,0-19.64,8.64-19.64,21.37,0,11.59,3.13,20.52,19.11,20.52,13.3,0,17.35-6.2,18.19-15.14H588.38c-.31,4-2.29,6.51-8.1,6.51-5.2,0-7.66-2-7.66-12.27s2.46-12.35,8.19-12.35c5.42,0,6.73,2,7.57,5.84H599Z"/><path class="cls-7" d="M617.44,658.1c.38-6.44,2-8.56,8.17-8.56,4.9,0,7.8,1.29,8.26,8.56Zm15.74,12.27c-1.06,3-3.51,3.79-7.57,3.79-6,0-7.86-1.82-8.25-9.39H644.5c0-17.35-4.21-23.87-18.34-23.87-16.68,0-19.73,9.09-19.73,20.53,0,17.13,6.79,21.36,19.27,21.36,10.92,0,17-3.25,18.34-12.42Z"/><path class="cls-7" d="M502.53,641.87v3.84c-2.83-4.09-6.73-5.3-12.31-5.3-11,0-16.74,4.77-16.74,21.14,0,13.71,4,20.76,16.74,20.76,7.49,0,10.32-2.43,11.78-4.4v3.91h10.63v-40Zm-9.4,31.8c-7,0-8.72-3.64-8.72-12.12,0-9.17,2-12.5,9-12.5,6.65,0,8.94,3,8.94,12S500.08,673.67,493.13,673.67Z"/><path class="cls-7" d="M677.41,627.49H666.79v54.32h10.62V659.92c0-7.58,1.45-10.38,8.49-10.38,6.8,0,6.8,2.58,6.8,11.67v20.6h10.63v-22.5c0-12.65-2.45-18.41-14.45-18.41-4.13,0-9,.69-11.47,4.62Z"/><path class="cls-7" d="M782.74,681.83h10.62V657.44c0-12.12-2.67-16.52-13-16.52-7.42,0-10.56,2.28-13.46,6.14v-5.15H756.82v39.92h10.63V662.89c0-9.39.84-13.34,8.41-13.34,6.8,0,6.88,3.19,6.88,9.33Z"/><path class="cls-7" d="M829.85,661.81c0,10.46-3.05,12.35-9,12.35-6.19,0-9-2.11-9-12.57,0-8.41,1.84-12.05,9.26-12.05,6,0,8.71,2.43,8.71,12.27m10.32,20V627.49H829.54v17.89c-1.75-2.28-5-4.48-11.77-4.48-10.39,0-16.82,5.31-16.82,20.84,0,13,4.51,21,17,21.06,5.19,0,9.32-.68,12-4.78v3.79Z"/><rect class="cls-7" x="850.1" y="641.89" width="10.63" height="39.92"/><path class="cls-7" d="M850.82,629.43c-1.53,3.45-.36,7,2.6,7.89s6.58-1.17,8.1-4.63.37-7-2.59-7.89-6.59,1.17-8.11,4.63"/><path class="cls-7" d="M906,655.38c-1.07-9.78-6-14.48-17.66-14.48-15.82,0-19.65,8.64-19.65,21.37,0,11.59,3.13,20.53,19.12,20.53,13.29,0,17.35-6.21,18.19-15.15H895.4c-.3,4-2.29,6.51-8.1,6.51-5.2,0-7.64-2-7.64-12.27s2.44-12.35,8.18-12.35c5.43,0,6.72,2,7.56,5.84H906Z"/><path class="cls-7" d="M968.6,661.59c0-9,2.3-12.05,8.95-12.05,7,0,9,3.33,9,12.5,0,8.48-1.69,12.12-8.71,12.12s-9.26-3.49-9.26-12.57m-10.25-19.7v55.3H969V678.4c1.46,2,4.29,4.4,11.78,4.4,12.7,0,16.74-7,16.74-20.76,0-16.36-5.73-21.14-16.74-21.14-5.59,0-9.48,1.21-12.31,5.31v-4.32Z"/><path class="cls-7" d="M737.75,641.9v3.84c-2.83-4.1-6.73-5.31-12.31-5.31-11,0-16.74,4.77-16.74,21.14,0,13.71,4,20.75,16.74,20.75,7.49,0,10.32-2.42,11.77-4.39v3.91h10.64V641.9Zm-9.41,31.79c-7,0-8.71-3.64-8.71-12.12,0-9.17,2-12.5,9-12.5,6.64,0,8.94,3,8.94,12S735.29,673.69,728.34,673.69Z"/><path class="cls-7" d="M939.15,641.9v3.84c-2.83-4.1-6.72-5.31-12.3-5.31-11,0-16.74,4.77-16.74,21.14,0,13.71,4,20.75,16.74,20.75,7.49,0,10.32-2.42,11.77-4.39v3.91h10.64V641.9Zm-9.4,31.79c-7,0-8.72-3.64-8.72-12.12,0-9.17,2-12.5,9-12.5,6.64,0,8.94,3,8.94,12S936.7,673.69,929.75,673.69Z"/><path class="cls-8" d="M188,651.1a36.4,36.4,0,0,0-23.51,10.07c38.46-18.49,50.92,10.63,51.33,12.18-2-13.23-13.17-22.71-27.82-22.25"/><path class="cls-8" d="M224.61,620.81c-4.17-1.85-9.91.5-12.79,5.26s-1.81,10.12,2.37,12,9.93-.51,12.8-5.25,1.82-10.13-2.38-12"/><path class="cls-7" d="M216.86,654.07c-7-6.57-28.92-32.7-27.06-40.45,2-8.55,10.15-15.37,22.39-19-1.86.31-3.51.63-5,1-13.52,3.37-22.52,10.5-24.7,19.58-1.83,7.63,5.35,16.4,13.34,23.85,4.95,4.6-5.42,1.56-14.18,6.45l0,0c13.82-5.32,40.52,13.52,35.13,8.5"/><path class="cls-7" d="M205.39,684.39c-1.59,11.26-12.11,20.41-23.48,20.41s-19.31-9.15-17.73-20.41S176.29,664,187.67,664s19.3,9.13,17.72,20.42m9.85-7.52c-.65-2.82-13.63-30.35-50.2-13.8a35.51,35.51,0,0,0-11.74,21.32C150.92,701.3,162.82,715,179.89,715s32.84-13.7,35.23-30.61a30.18,30.18,0,0,0,.12-7.52"/></svg>