<?xml version="1.0" encoding="UTF-8"?><svg xmlns="http://www.w3.org/2000/svg" viewBox="0 0 400 400"><defs><style>.cls-1,.cls-2,.cls-3{fill:none;}.cls-4{fill:#06579b;}.cls-4,.cls-5{opacity:.1;}.cls-5,.cls-6{fill:#fff;}.cls-7{fill:#fff3dd;}.cls-8{fill:#edca7c;}.cls-9{fill:#fdeabb;}.cls-10{fill:#99d0ec;}.cls-11{fill:#878786;}.cls-12{fill:#4c4b4c;}.cls-2{stroke:#4c4b4c;stroke-miterlimit:10;stroke-width:7px;}.cls-3{stroke:#f8acae;stroke-linecap:round;stroke-linejoin:round;stroke-width:7.33px;}</style></defs><g id="back"><rect class="cls-10" y="0" width="400" height="400"/><g><circle class="cls-6" cx="37.41" cy="156.36" r="6.27"/><circle class="cls-5" cx="37.41" cy="156.36" r="6.27"/></g><g><circle class="cls-6" cx="91.74" cy="210.7" r="6.27"/><circle class="cls-5" cx="91.74" cy="210.7" r="6.27"/></g><g><circle class="cls-6" cx="215.14" cy="334.1" r="6.27"/><circle class="cls-5" cx="215.14" cy="334.1" r="6.27"/></g><g><circle class="cls-6" cx="156.29" cy="134.75" r="6.27"/><circle class="cls-5" cx="156.29" cy="134.75" r="6.27"/></g><g><circle class="cls-6" cx="159.27" cy="108.47" r="3.29"/><circle class="cls-5" cx="159.27" cy="108.47" r="3.29"/></g><g><circle class="cls-6" cx="88.77" cy="123.44" r="3.29"/><circle class="cls-5" cx="88.77" cy="123.44" r="3.29"/></g><g><circle class="cls-6" cx="328.58" cy="160.82" r="3.29"/><circle class="cls-5" cx="328.58" cy="160.82" r="3.29"/></g><g><circle class="cls-6" cx="260.61" cy="105.18" r="6.27"/><circle class="cls-5" cx="260.61" cy="105.18" r="6.27"/></g><g><circle class="cls-6" cx="126.73" cy="289.35" r="3.29"/><circle class="cls-5" cx="126.73" cy="289.35" r="3.29"/></g><g><circle class="cls-6" cx="325.29" cy="273.41" r="6.27"/><circle class="cls-5" cx="325.29" cy="273.41" r="6.27"/></g><g><circle class="cls-6" cx="284.27" cy="171.05" r="1.65"/><circle class="cls-5" cx="284.27" cy="171.05" r="1.65"/></g><g><circle class="cls-6" cx="307.75" cy="216.92" r="1.65"/><circle class="cls-5" cx="307.75" cy="216.92" r="1.65"/></g><g><circle class="cls-6" cx="283.84" cy="48.65" r="1.65"/><circle class="cls-5" cx="283.84" cy="48.65" r="1.65"/></g><g><circle class="cls-6" cx="205.61" cy="89.49" r="1.65"/><circle class="cls-5" cx="205.61" cy="89.49" r="1.65"/></g><g><circle class="cls-6" cx="258.78" cy="255.19" r="1.65"/><circle class="cls-5" cx="258.78" cy="255.19" r="1.65"/></g><g><circle class="cls-6" cx="212.97" cy="296.15" r="1.65"/><circle class="cls-5" cx="212.97" cy="296.15" r="1.65"/></g><g><circle class="cls-6" cx="186.77" cy="322.35" r="1.65"/><circle class="cls-5" cx="186.77" cy="322.35" r="1.65"/></g><g><circle class="cls-6" cx="264.81" cy="286.2" r="1.65"/><circle class="cls-5" cx="264.81" cy="286.2" r="1.65"/></g><g><circle class="cls-6" cx="186.37" cy="44.9" r="3.29"/><circle class="cls-4" cx="186.37" cy="44.9" r="3.29"/></g></g><g id="Layer_1"><rect id="Rectangle_47" class="cls-1" x="-1.76" y="10.42" width="403.51" height="379.16"/><g id="_9EApff"><g><path class="cls-9" d="m258.21,153.83s-.01-.04-.01-.04c.06,1.44.71,2.68,1.28,3.96,3.73,8.44,5.67,17.31,5.97,26.51.36,11.12-1.6,21.79-5.99,32.08-6.23,14.65-16.25,25.96-29.62,34.32-15.19,9.5-31.91,12.88-49.53,10.38-13.95-1.98-26.61-7.45-37.52-16.7-2.06-1.75-3.6-4.3-6.49-5-.11-.18-.23-.36-.34-.54.24-.62.4-1.2-.62-1.16-4.94-7.94-7.99-16.63-9.34-25.79-1.62-10.97-1.18-21.92,2.05-32.64,5.95-19.78,17.96-34.7,35.98-44.77,13.44-7.51,27.97-10.3,43.17-8.79,18.06,1.79,33.61,9.24,46.29,22.36,1.46,1.51,3.34,2.7,4.14,4.8.2.35.39.69.59,1.03Zm-58.76,66.91c-8.94-.04-16.52,7.39-16.37,16.33.15,9.18,6.64,16.85,17.02,16.57,9.16-.25,15.78-6.94,15.98-16.5.19-9.02-7.41-16.36-16.63-16.4Zm-16.45-85.69c-3.93-.24-7.13.96-10.14,2.74-6.18,3.66-11.95,7.94-17.7,12.22-2.98,2.22-5.78,4.7-7.3,8.3-.97,2.31-.78,4.41.69,6.32,1.49,1.92,3.49,2.57,5.96,2.05,4.4-.92,8.15-3.15,11.74-5.7,3.42-2.43,6.82-4.72,10.98-5.91,5.61-1.59,9.77-5.34,12.65-10.38,2.79-4.88.33-9.3-5.25-9.65-.65-.04-1.31,0-1.62,0Zm-24.02,87.3c.39-1.83-.44-3.75-1.29-5.6-2.06-4.49-6.07-6.64-10.92-6.02-2.73.35-5.72,3.43-6.26,6.8-.59,3.7-.09,7.22,2.29,10.35,2.66,3.51,6.69,5.16,10.28,4.01,3.61-1.16,5.9-4.72,5.91-9.55Zm66.17-75.41c.28-5.76-4.71-9.39-8.75-9.41-6.33-.02-9.69,4.39-9.78,9.6-.09,5.15,4.27,9.29,9.51,9.23,5.01-.06,9.02-4.25,9.03-9.43Zm9.1,25.74c3.85-.04,6.11-2.35,6-6.12-.09-3.16-2.82-5.76-6.04-5.74-3.23.02-6.1,2.7-6.12,5.71-.02,3.56,2.61,6.19,6.15,6.15Zm.28,59.64c0-2.46-2.37-4.75-4.93-4.76-2.65-.01-4.52,1.86-4.58,4.58-.06,2.77,1.94,4.95,4.56,4.95,2.53,0,4.95-2.33,4.95-4.77Zm-82.05-33.96c-1.82.18-3,1.07-3.08,2.94-.08,1.93,1.18,3.07,2.89,3.01,1.62-.05,3.08-1.18,3.18-2.95.1-1.84-1.25-2.73-2.99-3Zm16.99,45.44c-.41-1.1-.75-2.25-2.2-2.15-1.28.09-2.05.87-2.09,2.17-.04,1.29.92,1.9,1.95,1.97,1.27.09,1.87-.96,2.34-2Zm72.43-95.1c-.04-1.42-.89-1.91-2.17-1.85-1.44.07-1.78.99-1.77,2.26.01,1.36.78,1.7,1.96,1.65,1.35-.05,2.03-.68,1.99-2.06Zm-33.04,22.22c-.85,0-1.62.45-1.72,1.73-.11,1.41.73,2.02,1.95,2.15,1.2.13,1.9-.49,1.98-1.74.08-1.35-.52-2.08-2.21-2.14Zm-13.44-21.89c1.28-.13,1.72-.92,1.68-2.1-.05-1.26-.76-1.83-1.97-1.82-1.21,0-2.02.59-1.91,1.85.11,1.24.89,1.99,2.21,2.08Z"/><path class="cls-8" d="m136.3,239.35c2.89.7,4.43,3.25,6.49,5,10.91,9.25,23.57,14.72,37.52,16.7,17.62,2.5,34.33-.88,49.53-10.38,13.37-8.36,23.39-19.68,29.62-34.32,4.38-10.3,6.35-20.97,5.99-32.08-.3-9.2-2.24-18.06-5.97-26.51-.56-1.27-1.22-2.52-1.28-3.96,4.45,4.16,7.24,9.47,9.57,14.91,12,28.11,9.04,54.76-10.04,78.59-15.59,19.47-36.69,28.7-61.77,27.31-25.83-1.43-45.66-13.54-59.65-35.26Z"/><path class="cls-11" d="m135.34,237.65c1.01-.04.86.54.62,1.16-.21-.39-.41-.77-.62-1.16Z"/><path class="cls-11" d="m258.21,153.83c-.2-.34-.39-.69-.59-1.03.37.25.63.56.59,1.03Z"/><path class="cls-9" d="m199.45,220.74c9.23.04,16.82,7.38,16.63,16.4-.2,9.56-6.82,16.24-15.98,16.5-10.39.29-16.87-7.39-17.02-16.57-.15-8.94,7.43-16.37,16.37-16.33Z"/><path class="cls-7" d="m183,135.05c.32,0,.97-.04,1.62,0,5.58.35,8.05,4.77,5.25,9.65-2.88,5.03-7.04,8.78-12.65,10.38-4.17,1.18-7.56,3.48-10.98,5.91-3.58,2.55-7.33,4.77-11.74,5.7-2.47.52-4.48-.13-5.96-2.05-1.47-1.9-1.66-4.01-.69-6.32,1.52-3.61,4.32-6.09,7.3-8.3,5.75-4.28,11.52-8.56,17.7-12.22,3.01-1.78,6.22-2.98,10.14-2.74Z"/><path class="cls-8" d="m158.99,222.35c-.01,4.83-2.29,8.39-5.91,9.55-3.59,1.15-7.61-.5-10.28-4.01-2.37-3.13-2.88-6.65-2.29-10.35.54-3.37,3.53-6.45,6.26-6.8,4.85-.63,8.86,1.52,10.92,6.02.85,1.85,1.68,3.78,1.29,5.6Z"/><path class="cls-8" d="m225.15,146.94c0,5.18-4.02,9.37-9.03,9.43-5.23.06-9.6-4.08-9.51-9.23.09-5.21,3.45-9.62,9.78-9.6,4.04.01,9.03,3.65,8.75,9.41Z"/><path class="cls-8" d="m234.26,172.68c-3.54.04-6.17-2.59-6.15-6.15.02-3.01,2.89-5.69,6.12-5.71,3.22-.02,5.95,2.58,6.04,5.74.11,3.77-2.15,6.08-6,6.12Z"/><path class="cls-8" d="m234.53,232.32c0,2.44-2.42,4.76-4.95,4.77-2.62,0-4.63-2.17-4.56-4.95.06-2.72,1.93-4.59,4.58-4.58,2.56.01,4.94,2.3,4.93,4.76Z"/><path class="cls-8" d="m152.49,198.35c1.74.28,3.09,1.16,2.99,3-.1,1.77-1.56,2.9-3.18,2.95-1.71.06-2.97-1.08-2.89-3.01.08-1.87,1.26-2.76,3.08-2.94Z"/><path class="cls-8" d="m169.47,243.79c-.47,1.04-1.07,2.1-2.34,2-1.03-.08-1.99-.69-1.95-1.97.04-1.3.81-2.08,2.09-2.17,1.45-.11,1.79,1.04,2.2,2.15Z"/><path class="cls-8" d="m241.9,148.69c.05,1.37-.64,2-1.99,2.05-1.18.04-1.95-.29-1.96-1.65,0-1.26.34-2.19,1.77-2.26,1.29-.06,2.13.43,2.17,1.85Z"/><path class="cls-8" d="m208.87,170.91c1.69.06,2.29.79,2.21,2.14-.08,1.25-.77,1.87-1.98,1.74-1.22-.13-2.06-.74-1.95-2.15.1-1.27.86-1.72,1.72-1.73Z"/><path class="cls-8" d="m195.42,149.02c-1.32-.09-2.1-.84-2.21-2.08-.11-1.25.71-1.84,1.91-1.85,1.21,0,1.92.56,1.97,1.82.04,1.18-.4,1.97-1.68,2.1Z"/></g></g><circle id="Ellipse_85" class="cls-2" cx="200" cy="200" r="76.56"/><g><circle id="Oval_2_Copy_3" class="cls-12" cx="165.16" cy="182.62" r="12.23"/><circle id="Oval_2_Copy_3-2" class="cls-12" cx="234.84" cy="182.62" r="12.23"/><path id="Oval_2_Copy_3-3" class="cls-3" d="m190.42,219.56c0,5.55,4.5,10.05,10.05,10.05h0c5.55,0,10.05-4.5,10.05-10.05h0"/></g></g></svg>