<?xml version="1.0" encoding="UTF-8"?><svg xmlns="http://www.w3.org/2000/svg" viewBox="0 0 400 400"><defs><style>.cls-1{fill:#ffd69f;}.cls-2{fill:none;}.cls-2,.cls-3{stroke-linecap:round;}.cls-2,.cls-3,.cls-4{stroke:#4b4b4b;stroke-width:7px;}.cls-2,.cls-4{stroke-miterlimit:10;}.cls-3{fill:#85c441;stroke-linejoin:round;}.cls-4{fill:#ed5123;}</style></defs><g id="back"><rect class="cls-1" y="0" width="400" height="400"/></g><g id="Layer_1"><g id="Group_16"><path id="Rectangle_28" class="cls-4" d="m118.7,225.13c-23.57-46.58,10.28-101.64,62.48-101.64h37.85c52.19,0,85.94,55.18,62.15,101.64l-38.58,75.37c-8.25,16.12-24.84,26.27-42.95,26.27h0c-18.1,0-34.66-10.18-42.83-26.33l-38.11-75.31Z"/><path id="Line_2" class="cls-2" d="m142.46,182.94v8.95"/><path id="Line_2_Copy_2" class="cls-2" d="m175.7,199.56v8.95"/><path id="Line_2_Copy_3" class="cls-2" d="m198.71,162.48v8.95"/><path id="Line_2_Copy_6" class="cls-2" d="m201.27,234.08v8.95"/><path id="Line_2_Copy_7" class="cls-2" d="m150.13,228.96v8.95"/><path id="Line_2_Copy_8" class="cls-2" d="m174.42,268.6v8.95"/><path id="Line_2_Copy_9" class="cls-2" d="m252.41,228.96v8.95"/><path id="Line_2_Copy_10" class="cls-2" d="m228.12,268.6v8.95"/><path id="Line_2_Copy_11" class="cls-2" d="m201.27,298v8.95"/><path id="Line_2_Copy_4" class="cls-2" d="m226.84,199.56v8.95"/><path id="Line_2_Copy_5" class="cls-2" d="m256.24,182.94v8.95"/><g id="Group_7"><path id="Combined_Shape" class="cls-3" d="m201.75,116.9c-11.71-3.43-23.56-6.62-32.74-10.66,2.67,6.8,7.13,12.75,12.92,17.21-14.89,5.82-26.19,13.43-26.05,25.99,12.02-9.49,29.87-11.27,45.94-16.35,16.29,5.08,34.37,6.86,46.39,16.35.15-12.62-11.46-20.24-26.64-26.08,5.69-4.47,10.07-10.38,12.71-17.12-9.18,4.04-20.94,7.23-32.53,10.66Z"/><path id="Path_117" class="cls-2" d="m202.62,119.47s-3.3-28.84,8.63-46.24"/></g></g></g></svg>