<?xml version="1.0" encoding="UTF-8"?><svg id="Layer_1" xmlns="http://www.w3.org/2000/svg" viewBox="0 0 400 400"><defs><style>.cls-1{fill:#f8e610;}.cls-2{fill:#67c8f2;}.cls-3{fill:#ef4036;}.cls-4{fill:#4274b9;}</style></defs><g id="Groupe_7491"><path id="Tracé_2280-2" class="cls-1" d="m277.74,287.93h1.25c10.24,0,20.48.05,30.73-.04,2.43-.02,3.42,1.53,2.74,3.68-1.68,5.28-3.19,10.61-4.78,15.92-1.41,5.14-6.13,8.66-11.45,8.56-16.03,0-32.05,0-48.08,0-5.33.11-10.05-3.41-11.46-8.55-1.61-5.33-3.15-10.69-4.81-16.01-.68-2.16.43-3.61,2.64-3.6,12.47.07,24.94.04,37.41.04h1.26v-1.32c0-18.16,0-36.32,0-54.47,0-.32-.02-.65,0-.97.02-.97.66-1.82,1.58-2.11.92-.31,1.94.02,2.49.82,2.08,2.64,4.16,5.27,6.24,7.91,7.29,9.26,14.58,18.53,21.87,27.79,1.56,1.99,1.01,3.64-1.42,4.2-8.28,1.93-16.57,3.85-24.85,5.76-1.36.31-1.36.3-1.36,1.74v10.65h0Z"/><path id="Tracé_2281-2" class="cls-1" d="m251.39,279.42h-10.56c-1.91,0-2.78-.89-2.73-2.8.21-6.69,2.4-12.76,5.95-18.36,5.04-7.96,11.76-14.26,19.53-19.5.96-.8,2.39-.67,3.19.3.6.72.69,1.74.23,2.56-3.44,8.12-4.77,16.98-3.88,25.75.34,2.98.84,5.93,1.49,8.85.38,1.93-.5,3.19-2.47,3.2-3.59,0-7.17,0-10.76,0Z"/><path id="Tracé_2280-3" class="cls-2" d="m277.74,142.93h1.25c10.24,0,20.48.05,30.73-.04,2.43-.02,3.42,1.53,2.74,3.68-1.68,5.28-3.19,10.61-4.78,15.92-1.41,5.14-6.13,8.66-11.45,8.56-16.03,0-32.05,0-48.08,0-5.33.11-10.05-3.41-11.46-8.55-1.61-5.33-3.15-10.69-4.81-16.01-.68-2.16.43-3.61,2.64-3.6,12.47.07,24.94.04,37.41.04h1.26v-1.32c0-18.16,0-36.32,0-54.47,0-.32-.02-.65,0-.97.02-.97.66-1.82,1.58-2.11.92-.31,1.94.02,2.49.82,2.08,2.64,4.16,5.27,6.24,7.91,7.29,9.26,14.58,18.53,21.87,27.79,1.56,1.99,1.01,3.64-1.42,4.2-8.28,1.93-16.57,3.85-24.85,5.76-1.36.31-1.36.3-1.36,1.74v10.65h0Z"/><path id="Tracé_2281-3" class="cls-2" d="m251.39,134.42h-10.56c-1.91,0-2.78-.89-2.73-2.8.21-6.69,2.4-12.76,5.95-18.36,5.04-7.96,11.76-14.26,19.53-19.5.96-.8,2.39-.67,3.19.3.6.72.69,1.74.23,2.56-3.44,8.12-4.77,16.98-3.88,25.75.34,2.98.84,5.93,1.49,8.85.38,1.93-.5,3.19-2.47,3.2-3.59,0-7.17,0-10.76,0Z"/><path id="Tracé_2280-4" class="cls-4" d="m133.4,287.93h1.25c10.24,0,20.48.05,30.73-.04,2.43-.02,3.42,1.53,2.74,3.68-1.68,5.28-3.19,10.61-4.78,15.92-1.41,5.14-6.13,8.66-11.45,8.56-16.03,0-32.05,0-48.08,0-5.33.11-10.05-3.41-11.46-8.55-1.61-5.33-3.15-10.69-4.81-16.01-.68-2.16.43-3.61,2.64-3.6,12.47.07,24.94.04,37.41.04h1.26v-1.32c0-18.16,0-36.32,0-54.47,0-.32-.02-.65,0-.97.02-.97.66-1.82,1.58-2.11.92-.31,1.94.02,2.49.82,2.08,2.64,4.16,5.27,6.24,7.91,7.29,9.26,14.58,18.53,21.87,27.79,1.56,1.99,1.01,3.64-1.42,4.2-8.28,1.93-16.57,3.85-24.85,5.76-1.36.31-1.36.3-1.36,1.74v10.65h0Z"/><path id="Tracé_2281-4" class="cls-4" d="m107.05,279.42h-10.56c-1.91,0-2.78-.89-2.73-2.8.21-6.69,2.4-12.76,5.95-18.36,5.04-7.96,11.76-14.26,19.53-19.5.96-.8,2.39-.67,3.19.3.6.72.69,1.74.23,2.56-3.44,8.12-4.77,16.98-3.88,25.75.34,2.98.84,5.93,1.49,8.85.38,1.93-.5,3.19-2.47,3.2-3.59,0-7.17,0-10.76,0Z"/><path id="Tracé_2280-5" class="cls-3" d="m133.4,142.93h1.25c10.24,0,20.48.05,30.73-.04,2.43-.02,3.42,1.53,2.74,3.68-1.68,5.28-3.19,10.61-4.78,15.92-1.41,5.14-6.13,8.66-11.45,8.56-16.03,0-32.05,0-48.08,0-5.33.11-10.05-3.41-11.46-8.55-1.61-5.33-3.15-10.69-4.81-16.01-.68-2.16.43-3.61,2.64-3.6,12.47.07,24.94.04,37.41.04h1.26v-1.32c0-18.16,0-36.32,0-54.47,0-.32-.02-.65,0-.97.02-.97.66-1.82,1.58-2.11.92-.31,1.94.02,2.49.82,2.08,2.64,4.16,5.27,6.24,7.91,7.29,9.26,14.58,18.53,21.87,27.79,1.56,1.99,1.01,3.64-1.42,4.2-8.28,1.93-16.57,3.85-24.85,5.76-1.36.31-1.36.3-1.36,1.74v10.65h0Z"/><path id="Tracé_2281-5" class="cls-3" d="m107.05,134.42h-10.56c-1.91,0-2.78-.89-2.73-2.8.21-6.69,2.4-12.76,5.95-18.36,5.04-7.96,11.76-14.26,19.53-19.5.96-.8,2.39-.67,3.19.3.6.72.69,1.74.23,2.56-3.44,8.12-4.77,16.98-3.88,25.75.34,2.98.84,5.93,1.49,8.85.38,1.93-.5,3.19-2.47,3.2-3.59,0-7.17,0-10.76,0Z"/></g></svg>