<?xml version="1.0" encoding="UTF-8"?>
<svg width="202px" height="198px" viewBox="0 0 202 198" version="1.1" xmlns="http://www.w3.org/2000/svg" xmlns:xlink="http://www.w3.org/1999/xlink">
    <title>cherry</title>
    <g id="Page-1" stroke="none" stroke-width="1" fill="none" fill-rule="evenodd" stroke-linecap="round">
        <g id="cherry" transform="translate(4.000000, 4.000000)" stroke="#4B4B4B" stroke-width="7">
            <g id="Group">
                <g id="cerise_copy_3" transform="translate(0.000000, 13.000000)">
                    <g id="Group_13" transform="translate(0.000000, 90.000000)">
                        <path d="M46.77,82.67 C74.02,90.4 93.16,68.04 93.16,42.42 C93.16,16.8 84.48,-8.86 46.77,3.63 C13.51,-9.81 0.38,16.8 0.38,42.42 C0.38,68.04 16.41,91.53 46.77,82.67 L46.77,82.67 Z" id="Oval_39" fill="#F05B34" fill-rule="nonzero" stroke-linejoin="round"></path>
                        <path d="M26.93,10.42 C18.69,17.23 13.82,27.29 13.59,37.98" id="Oval_39-2"></path>
                    </g>
                    <g id="Group_13_Copy" transform="translate(100.000000, 86.000000)">
                        <path d="M56.17,85.26 C84.46,86.66 98.08,60.57 92.32,35.61 C86.56,10.65 72.33,-12.4 38.39,8.25 C2.96,2.64 -3.85,31.52 1.91,56.48 C7.67,81.44 28.57,100.73 56.17,85.26 Z" id="Oval_39-3" fill="#F05B34" fill-rule="nonzero" stroke-linejoin="round"></path>
                        <path d="M20.59,19.32 C14.09,27.81 11.61,38.71 13.79,49.18" id="Oval_39-4"></path>
                    </g>
                    <g id="Group_3" transform="translate(46.000000, 0.000000)">
                        <path d="M0.33,93.1 C0.33,64.27 21.4,43.18 63.53,12.8 C68.02,9.56 65.95,0.01 65.95,0.01" id="Path_112"></path>
                        <path d="M91.34,93.1 C75.25,72.58 65.71,43.33 65.71,12.38" id="Path_112-2"></path>
                    </g>
                </g>
                <path d="M111.7,24.99 C91.41,-16.5 50.67,6.64 50.67,6.64 C50.67,6.64 85.92,42.92 111.7,24.99 Z" id="Path_120" fill="#A7C950" fill-rule="nonzero" stroke-linejoin="round"></path>
            </g>
        </g>
    </g>
</svg>