<?xml version="1.0" encoding="UTF-8"?>
<svg width="172px" height="244px" viewBox="0 0 172 244" version="1.1" xmlns="http://www.w3.org/2000/svg" xmlns:xlink="http://www.w3.org/1999/xlink">
    <title>avocado</title>
    <g id="Page-1" stroke="none" stroke-width="1" fill="none" fill-rule="evenodd">
        <g id="avocado" transform="translate(3.000000, 4.000000)" fill-rule="nonzero">
            <g id="Group">
                <path d="M82.71,235.56 L82.13,235.56 C36.99,235.09 0.54,198.89 0.54,154.31 C0.54,136.98 7.79,99.35 17.64,80.38 C42.96,20.04 48.24,0.44 82.58,0.44 C116.92,0.44 125.2,32.17 145.89,83.09 C155.79,102.81 165.48,138.22 165.48,154.31 C165.48,199.19 128.56,235.56 83.01,235.56 L82.72,235.56 L82.71,235.56 Z" id="Combined_Shape" stroke="#4B4B4B" stroke-width="7" fill="#A7C850"></path>
                <path d="M83.74,219.07 L83.26,219.07 C45.98,218.68 15.87,188.78 15.87,151.95 C15.87,137.64 21.86,106.56 29.99,90.89 C50.9,41.05 55.27,24.86 83.63,24.86 C111.99,24.86 118.83,51.07 135.92,93.13 C144.1,109.42 152.1,138.67 152.1,151.95 C152.1,189.02 121.6,219.07 83.98,219.07 L83.74,219.07 L83.74,219.07 Z" id="Combined_Shape-2" fill="#E2E046"></path>
                <path d="M84.22,193.890118 C103.85,193.94 119.81,178.07 119.86,158.44 C119.86,138.86 102.05,96.89 84.22,96.89 C66.39,96.89 48.58,138.86 48.58,158.44 C48.63,178.07 64.58,193.94 84.22,193.890118 L84.22,193.890118 Z" id="Oval_2" stroke="#4B4B4B" stroke-width="7" fill="#AB752A"></path>
            </g>
        </g>
    </g>
</svg>