<?xml version="1.0" encoding="UTF-8"?><svg xmlns="http://www.w3.org/2000/svg" viewBox="0 0 400 400"><defs><style>.cls-1,.cls-2{fill:#a9703e;}.cls-3,.cls-4{fill:#a96f3d;}.cls-5{fill:#83b7b3;}.cls-6{fill:#4b4b4b;}.cls-2,.cls-4,.cls-7,.cls-8{stroke:#4b4b4b;stroke-linecap:round;stroke-linejoin:round;stroke-width:7px;}.cls-7{fill:#eacaa2;}.cls-8{fill:none;}</style></defs><g id="back"><rect class="cls-5" x="0" width="400" height="400"/></g><g id="Layer_1"><g><g><g><g id="_123_bear"><path id="Path_25" class="cls-1" d="m212.78,213.04c-14.08,14.86-34.75,15.84-40.42,15.84s-30.35.5-39.04-3.71c-6.25-3.23-12.19-7.02-17.77-11.31l15.91-29.17,30.18-11.42,39.58,6.77s23.39,20.49,11.55,32.99Z"/><path id="Path_22" class="cls-4" d="m256.55,201.1c25.93-6.7,46.24,5.35,54.58,5.35s24.25-11.72,24.25-18.94-13.63-10.49-17.89-16.25c-4.26-5.76-10.95-17.75-15.93-18.73-4.98-.99-16.03-2.73-16.03-2.73,0,0-3.57-8.06-8.58-8.06s-6.43,11.08-9.72,10.66c-3.29-.41-48.6-13.82-80.7-19.65-32.11-5.84-88.37-9.6-102.43,17.05-14.05,26.65,3.55,68.15,7.78,77.21,4.22,9.06,0,43.35,0,43.35l36.22,1.08s9.22-14.66-9.11-18.3c-7.55-15.12,5.61-34.72,5.61-34.72,0,0,25.54-12.21,26.05-26.29"/><path id="Path_23" class="cls-8" d="m125.56,221.87c42.56,18.76,81.12-2.01,81.12-2.01"/><path id="Path_24" class="cls-2" d="m189.16,191.02c0,14.7,19.51,24.59,19.51,35.18v45.25l40.81-.04s7.77-18.1-15.94-18.1c0-4.51,1.41-22.57,4.44-30.1,3.03-7.52,20.46-17.31,20.46-35.76"/><ellipse id="Oval_7" class="cls-6" cx="303.84" cy="171.04" rx="2.71" ry="2.73"/></g><path class="cls-4" d="m81.67,157.55c0,2.68-1.72,3.03-3.24,3.78-2.65,1.31-5.62,1.81-8.3,3.03-2.69,1.22-5.24,3.48-5.48,6.44-.19,2.3,1.08,4.49,2.71,6.11,2.3,2.27,9.97,8.72,15.87,4.58"/></g><path class="cls-7" d="m319.05,173.21c4.27,2.78,8.43,5.74,12.46,8.87,1.36,1.06,2.77,2.22,3.31,3.86.68,2.06-.2,4.3-1.34,6.14-2.48,4-6.19,7.07-9.99,9.84-2.91,2.12-6.09,4.17-9.68,4.47-5.94.5-10.4-1.81-15.97-3.21"/><path class="cls-3" d="m302.9,200.01c-.77.37-1.65.69-2.44.37-.96-.39-1.44-1.57-1.61-2.68-.48-2.99.5-6.03,1.8-8.7,1.61-3.27,3.76-6.21,6.3-8.66,1.3-1.26,2.7-2.38,4.19-3.36,1.01-.67,3.21-2.46,4.45-2.23,5.14.96-2.52,15.92-4.03,17.96-2.33,3.13-5.29,5.69-8.65,7.29Z"/><path class="cls-6" d="m334.37,185.89c-.54-.92-1.74-1.41-2.77-1.12s-1.8,1.33-1.78,2.4c.01.72.33,1.39.68,2.02.27.5.6,1.03,1.13,1.26.91.39,1.99-.34,2.33-1.26s.17-1.96,0-2.93"/></g><circle id="Ellipse_792" class="cls-6" cx="303.41" cy="170.99" r="4.16"/></g></g></svg>