<?xml version="1.0" encoding="UTF-8"?><svg id="Layer_1" xmlns="http://www.w3.org/2000/svg" xmlns:xlink="http://www.w3.org/1999/xlink" viewBox="0 0 400 400"><defs><style>.cls-1,.cls-2,.cls-3,.cls-4,.cls-5{fill:none;}.cls-2{clip-path:url(#clippath-1);}.cls-6{fill:#f4b243;}.cls-7,.cls-8{fill:#fff;}.cls-9{fill:#ef4735;}.cls-10{fill:#939393;}.cls-11{fill:#08579b;}.cls-12{fill:#6dceef;}.cls-3,.cls-8,.cls-4{stroke:#08579b;stroke-width:4.1px;}.cls-8,.cls-4{stroke-linecap:round;stroke-linejoin:round;}.cls-5{clip-path:url(#clippath);}</style><clipPath id="clippath"><rect class="cls-1" x="91.73" y="117.59" width="216.54" height="164.82"/></clipPath><clipPath id="clippath-1"><rect class="cls-1" x="91.73" y="117.59" width="216.54" height="164.82"/></clipPath></defs><g id="Groupe_7363"><g id="Groupe_7345"><path id="Tracé_4316" class="cls-9" d="m198.05,120.45l37.13,67.31h-74.26l37.13-67.31Z"/></g><g class="cls-5"><g id="Groupe_7353"><g id="Groupe_7346"><path id="Tracé_4317" class="cls-4" d="m198.05,120.45l37.13,67.31h-74.26l37.13-67.31Z"/></g><g id="Groupe_7347"><path id="Tracé_4318" class="cls-11" d="m206.84,171.44c2.7,0,4.89,2.28,4.89,5.1,0,0,0,0,0,0,0,2.82-2.18,5.1-4.88,5.1,0,0,0,0,0,0-2.7,0-4.89-2.28-4.89-5.1,0,0,0,0,0,0,0-2.82,2.19-5.1,4.89-5.1h0"/></g><g id="Groupe_7348"><path id="Tracé_4319" class="cls-11" d="m189.25,171.44c2.7,0,4.89,2.28,4.89,5.1,0,0,0,0,0,0,0,2.82-2.18,5.1-4.88,5.1,0,0,0,0,0,0-2.7,0-4.89-2.28-4.89-5.1,0,0,0,0,0,0,0-2.82,2.19-5.1,4.89-5.1h0"/></g><g id="Groupe_7349"><path id="Tracé_4320" class="cls-12" d="m128.67,120.45c17.81,0,32.25,15.07,32.25,33.66s-14.44,33.66-32.25,33.66-32.25-15.07-32.25-33.66h0c0-18.59,14.44-33.66,32.25-33.66h0"/></g><g id="Groupe_7350"><path id="Tracé_4321" class="cls-3" d="m128.67,120.45c17.81,0,32.25,15.07,32.25,33.66s-14.44,33.66-32.25,33.66-32.25-15.07-32.25-33.66h0c0-18.59,14.44-33.66,32.25-33.66h0Z"/></g><g id="Groupe_7351"><path id="Tracé_4322" class="cls-11" d="m146.26,151.04c2.7,0,4.89,2.28,4.89,5.1,0,0,0,0,0,0,0,2.82-2.18,5.1-4.88,5.1,0,0,0,0,0,0-2.7,0-4.89-2.28-4.89-5.1,0,0,0,0,0,0,0-2.82,2.19-5.1,4.89-5.1h0"/></g><g id="Groupe_7352"><path id="Tracé_4323" class="cls-11" d="m128.67,151.04c2.7,0,4.89,2.28,4.89,5.1,0,0,0,0,0,0,0,2.82-2.18,5.1-4.88,5.1,0,0,0,0,0,0-2.7,0-4.89-2.28-4.89-5.1,0,0,0,0,0,0,0-2.82,2.19-5.1,4.89-5.1h0"/></g></g></g><path id="Tracé_4325" class="cls-6" d="m244.95,124.52h60.58v63.24h-60.58v-63.24Z"/><g class="cls-2"><g id="Groupe_7360"><path id="Tracé_4326" class="cls-4" d="m244.95,124.52h60.58v63.24h-60.58v-63.24Z"/><g id="Groupe_7354"><path id="Tracé_4327" class="cls-11" d="m279.15,146.96c2.7,0,4.89,2.28,4.89,5.1,0,0,0,0,0,0,0,2.82-2.18,5.1-4.88,5.1,0,0,0,0,0,0-2.7,0-4.89-2.28-4.89-5.1,0,0,0,0,0,0,0-2.82,2.19-5.1,4.89-5.1h0"/></g><g id="Groupe_7355"><path id="Tracé_4328" class="cls-11" d="m261.56,146.96c2.7,0,4.89,2.28,4.89,5.1,0,0,0,0,0,0,0,2.82-2.18,5.1-4.88,5.1,0,0,0,0,0,0-2.7,0-4.89-2.28-4.89-5.1,0,0,0,0,0,0,0-2.82,2.19-5.1,4.89-5.1h0"/></g><g id="Groupe_7356"><path id="Tracé_4329" class="cls-10" d="m102.28,202.04h195.43c4.32,0,7.82,3.65,7.82,8.16v61.2c0,4.51-3.5,8.16-7.82,8.16H102.28c-4.32,0-7.82-3.65-7.82-8.16h0v-61.2c0-4.51,3.5-8.16,7.82-8.16h0"/></g><g id="Groupe_7357"><path id="Tracé_4330" class="cls-4" d="m102.28,202.04h195.43c4.32,0,7.82,3.65,7.82,8.16v61.2c0,4.51-3.5,8.16-7.82,8.16H102.28c-4.32,0-7.82-3.65-7.82-8.16h0v-61.2c0-4.51,3.5-8.16,7.82-8.16h0Z"/></g><g id="Groupe_7358"><path id="Tracé_4331" class="cls-7" d="m199.02,212.24c14.57,0,26.38,12.33,26.38,27.54h0c0,15.21-11.81,27.54-26.38,27.54h0c-14.57,0-26.38-12.33-26.38-27.54h0c0-15.21,11.81-27.54,26.38-27.54h0"/></g><g id="Groupe_7359"><path id="Tracé_4332" class="cls-3" d="m199.02,212.24c14.57,0,26.38,12.33,26.38,27.54h0c0,15.21-11.81,27.54-26.38,27.54h0c-14.57,0-26.38-12.33-26.38-27.54h0c0-15.21,11.81-27.54,26.38-27.54h0Z"/></g></g></g><path id="Tracé_4334" class="cls-8" d="m104.24,212.24h52.77v55.08h-52.77v-55.08Z"/><g id="Groupe_7361"><path id="Tracé_4335" class="cls-7" d="m264.49,212.24l31.27,55.08h-62.54l31.27-55.08Z"/></g><g id="Groupe_7362"><path id="Tracé_4336" class="cls-4" d="m264.49,212.24l31.27,55.08h-62.54l31.27-55.08Z"/></g></g></svg>