<?xml version="1.0" encoding="UTF-8"?><svg xmlns="http://www.w3.org/2000/svg" viewBox="0 0 400 400"><defs><style>.cls-1{fill:#fff;}.cls-2{fill:#83b7b3;}.cls-3{fill:#4b4b4b;}.cls-4{fill:#f58a43;stroke:#4b4b4b;stroke-miterlimit:10;stroke-width:7px;}</style></defs><g id="back"><rect class="cls-2" y="0" width="400" height="400"/></g><g id="Layer_1"><g><g><path class="cls-4" d="m295.29,159.82h.03c2.77-.51,10.17,3.36,17.02-.21,10.79-5.58,4.97-7.95.68-9.9-4.28-1.95-15.62-5.75-16.61-16-.41-5.81-4.09-10.89-9.49-13.08,0,0,3.94-20.07.21-21.2-3.73-1.13-16.99,12.47-20.55,15.62-12.13,0-24.97,15.93-25.28,34.46-.31,18.74-10.04,32.44-19.87,36.51-40.14,13.12-53.54,34.08-57.89,54.26v.03c-1.55,7.85-2.23,15.84-2.02,23.84-.03,5.82.61,11.62,1.88,17.3l-.51-.51s-.03-.04-.03-.07c-6.06-6.34-14.08-23.33-8.43-53.64,5.72-30.73-6.1-61.28-40.45-68.13-10.56-1.88-21.36-1.91-31.93-.11-.63.11-.77.95-.21,1.26,9.58,5.41,16.89,14.14,20.52,24.57,3.76,9.52,4.6,19.94,2.43,29.94-9.18,34.8-11.85,85.87,55.11,85.87h66.69c5.24,0,12.16,0,12.16-4.93,0-2.19-3.12-3.77-6.92-4.93v-.03c-2.57-.79-5.48-1.4-7.98-1.92-2.07-.25-4.1-.78-6.03-1.58,3.44-.38,6.82-1.16,10.07-2.33,4.46-1.51,8.63-3.79,12.3-6.75,7.46-6.04,11.99-14.97,12.43-24.56,0,0,26.85,46.76,35.38,46.89,8.53.14,14.45,0,19.87,0,3.11.45,5.99-1.71,6.44-4.82,0,0,0,0,0-.01.07-.5.07-1.01,0-1.51,0-3.67-5.41-5.38-8.46-5.38-2.81,0-9.08.79-12.74-4.32-18.46-23.7-17.71-41.79-17.71-51.24.03-3.99,1.21-7.89,3.39-11.23,13.39-23.84,15.17-27.57,15.24-36.48.07-8.91-6.58-17.61-7.78-19.46s2.98-5,9.01-6.23Z"/><path class="cls-1" d="m136.37,173.32c-3.74-4.46-10.7-7.84-16.22-9.51-9.85-2.98-20-4.01-30.15-2.53-.56.08-.74.82-.29,1.16,9.96,7.51,16.32,16.98,19.48,35.23.15.86,2.09.1,2.94-.02s1.64-.52,2.41-.92c7.52-3.97,14.83-8.97,19.47-16.19.88-1.37,1.67-2.83,2.02-4.43"/></g><circle id="Ellipse_792" class="cls-3" cx="284.82" cy="136.93" r="4.16"/><path class="cls-3" d="m316.34,152.98c.43-1-.48-2.23-1.56-2.31s-2.09.78-2.41,1.82-.07,2.18.44,3.15c.44.84,1.15,1.63,2.09,1.8,1.73.3,3.1-1.77,2.82-3.5-.28-1.73-1.6-3.08-2.86-4.3"/></g></g></svg>