<?xml version="1.0" encoding="UTF-8"?><svg id="Layer_4" xmlns="http://www.w3.org/2000/svg" viewBox="0 0 1024 1024"><defs><style>.cls-1{fill:#adcb38;}.cls-1,.cls-2,.cls-3,.cls-4{stroke-width:10.37px;}.cls-1,.cls-2,.cls-3,.cls-4,.cls-5,.cls-6,.cls-7{stroke-linejoin:round;}.cls-1,.cls-2,.cls-3,.cls-4,.cls-5,.cls-6,.cls-7,.cls-8{stroke-linecap:round;}.cls-1,.cls-7{stroke:#adcb38;}.cls-2{fill:#55acd3;}.cls-2,.cls-6{stroke:#55acd3;}.cls-3{fill:#ee8e22;}.cls-3,.cls-8{stroke:#ee8e22;}.cls-4{fill:#e8206c;}.cls-4,.cls-5{stroke:#e8206c;}.cls-5,.cls-6,.cls-7,.cls-8{fill:none;stroke-width:20.74px;}.cls-9,.cls-10{fill:#424344;}.cls-10{stroke:#424344;stroke-width:.69px;}.cls-10,.cls-8{stroke-miterlimit:10;}</style></defs><path class="cls-7" d="m422.92,80.21C241.87,118.4,101.33,266.34,74.11,451.19"/><path class="cls-5" d="m600.73,80.21c181.05,38.2,321.59,186.13,348.8,370.99"/><path class="cls-6" d="m424.14,950.31c-181.05-38.2-321.59-186.13-348.8-370.99"/><path class="cls-8" d="m601.96,950.31c181.05-38.2,321.59-186.13,348.8-370.99"/><polygon class="cls-4" points="984.84 392.61 952.26 475.68 888.93 409.47 984.84 392.61"/><polygon class="cls-3" points="677.07 976.22 590.91 953 649.74 882.76 677.07 976.22"/><polygon class="cls-1" points="352.05 47.78 437.19 74.48 375.55 142.27 352.05 47.78"/><polygon class="cls-2" points="39.16 649.22 71.74 566.15 135.07 632.36 39.16 649.22"/><path class="cls-9" d="m781.63,494.84c-.05-23.77-13.8-38.08-37.47-38.61-19.31-.43-30.89-10.67-37.57-28.03-6.08-15.8-3.55-29.41,8.65-41.42,6.73-6.62,11.05-14.69,10.81-24.84.38-8.43-2.53-16.14-8.24-22.43-8.9-9.8-18.22-19.22-27.56-28.61-17.78-17.87-36.59-18.14-55.48-1.1-9.09,8.2-19.5,12.48-31.85,9.23-22.99-6.05-35.98-17.82-36.05-43.79-.04-16.95-13.1-30.29-30.02-32.05-14.39-1.5-28.84-.61-43.26-.56-24.02.08-38.23,14.28-38.63,38.37-.27,16.29-8.24,27.16-22.86,33.42-18.16,7.79-33.23,5.89-43.97-5.25-15.86-16.45-37.51-16.65-53.76-.41-8.7,8.7-17.33,17.48-25.93,26.28-15.21,15.58-15.01,36.06.26,51.75,6.4,6.58,11.01,14.28,11.22,23.75.51,22.71-14.17,46.41-42,45.88-19.72-.37-33.14,12.17-34.83,31.77-1.17,13.63-.71,27.41-.66,41.12.09,24.64,13.96,38.63,38.6,39.12,19.06.38,29.36,11.73,35.84,28.12,5.99,15.16,3.02,29.2-8.8,40.79-14.01,13.73-14.9,34.68-1.62,49.01,9.48,10.24,19.3,20.2,29.39,29.84,15.45,14.77,36.82,14.01,51.83-1.15,6.87-6.94,15.31-11.38,25.17-11.39,25.21-.03,42.23,16.4,43.51,41.41,1.18,22.93,15.43,36.53,38.37,36.56,12.31.02,24.61.04,36.92,0,21.87-.08,37.05-14.23,36.78-36.13-.33-27.78,25.07-40.84,44.85-41.17,11.8-.2,19.35,7.37,27.54,14.21,14.15,11.83,33.7,11.07,46.96-1.7,9.89-9.52,19.67-19.17,29.1-29.12,14.32-15.1,14.48-35.65-.29-50.09-18.25-17.85-14.5-39.06-.81-57.39,7.68-10.28,19.25-12.7,31.59-13.01,20.01-.51,33.9-14.76,34.21-34.76.2-12.54.07-25.09.04-37.63Zm-269.87,175.31c-88.32-.24-158.1-70.25-157.87-158.39.24-88.38,70.1-158.04,158.35-157.91,88.23.13,158.1,70.24,157.86,158.39-.24,88.35-70.23,158.14-158.35,157.91Z"/><path class="cls-10" d="m481.51,501.88c-1.1-1.56-2.2-3.12-3.28-4.7-2.12-3.09-9.95-10.33-15.49-10.33-1.08,0-2.04.26-2.87.77-.62.38-1.23.77-1.84,1.16l-1.16.76c-12.21,8.16-22.69,19.18-31.95,33.59-.51.8-.9,2.16.17,4.1,2.43,4.45,11.39,9.92,16.25,9.92,2.02,0,3.02-.89,3.5-1.65,7.54-11.74,15.58-20.88,24.52-27.91,2.84,4.63,4.65,8.73,5.68,12.78.88,3.48,4.23,6.63,10.23,9.62.53.27,4.65,2.01,7.33,2.01,1.22,0,2.12-.36,2.67-1.07.35-.45.71-1.25.4-2.46-2.57-10.16-8.47-18.51-14.18-26.59Z"/><path class="cls-10" d="m599.07,523.13c-9.26-14.4-19.73-25.42-31.95-33.59l-1.16-.76c-.61-.39-1.22-.78-1.84-1.16-.83-.51-1.79-.77-2.87-.77-5.54,0-13.36,7.24-15.48,10.33-1.08,1.57-2.18,3.13-3.27,4.68-5.71,8.08-11.62,16.44-14.19,26.61-.31,1.21.05,2.01.4,2.46.55.71,1.45,1.07,2.67,1.07,2.9,0,7.29-1.99,7.33-2.01,6-2.99,9.35-6.13,10.23-9.62,1.03-4.05,2.84-8.14,5.68-12.78,8.94,7.03,16.98,16.17,24.52,27.91.48.75,1.48,1.65,3.5,1.65,4.86,0,13.82-5.47,16.25-9.92,1.06-1.95.68-3.3.17-4.1Z"/></svg>