<?xml version="1.0" encoding="UTF-8"?>
<svg width="141px" height="91px" viewBox="0 0 141 91" version="1.1" xmlns="http://www.w3.org/2000/svg" xmlns:xlink="http://www.w3.org/1999/xlink">
    <title>commands</title>
    <g id="Page-1" stroke="none" stroke-width="1" fill="none" fill-rule="evenodd">
        <g id="commands" transform="translate(1.000000, 1.000000)" stroke="#08579B" stroke-width="3.58974359">
            <path d="M31.1589744,34.7846154 C30.9435897,32.5589744 32.5589744,30.6205128 34.7846154,30.4051282 C35.0717949,30.4051282 35.3589744,30.4051282 35.6102564,30.4051282 L43.1846154,30.4051282 L43.1846154,23.1897436 C43.1128205,22.0051282 43.5076923,20.8564103 44.2974359,19.9589744 C45.1230769,19.1333333 46.2717949,18.6666667 47.4564103,18.7384615 C48.6051282,18.6666667 49.7538462,19.0974359 50.5435897,19.9589744 C51.3333333,20.8564103 51.7282051,22.0051282 51.6564103,23.1897436 L51.6564103,30.4051282 L58.7282051,30.4051282 C60.0205128,30.3333333 61.2769231,30.7282051 62.2461538,31.5897436 C63.1076923,32.4512821 63.5384615,33.6 63.4666667,34.8205128 C63.5384615,36.0410256 63.0717949,37.2615385 62.2461538,38.1230769 C61.2769231,38.9846154 60.0205128,39.4153846 58.7282051,39.3435897 L51.6205128,39.3435897 L51.6205128,46.5230769 C51.6923077,47.7076923 51.2974359,48.8923077 50.5076923,49.7897436 C49.6820513,50.6153846 48.5692308,51.0102564 47.4205128,50.974359 C46.2358974,51.0461538 45.0871795,50.6153846 44.2615385,49.7897436 C43.4717949,48.8923077 43.0769231,47.7076923 43.1487179,46.5230769 L43.1487179,39.3076923 L35.574359,39.3076923 C34.3538462,39.3794872 33.1692308,38.9487179 32.2717949,38.0871795 C31.4820513,37.1897436 31.0512821,36.0051282 31.1230769,34.7846154 M77.6102564,41.2820513 C77.574359,39.3794872 78.2923077,37.5487179 79.6564103,36.2205128 C80.9487179,34.8923077 82.7794872,34.1384615 84.6461538,34.174359 C86.5128205,34.1384615 88.3076923,34.8923077 89.6,36.2205128 C90.9282051,37.5487179 91.6461538,39.3794872 91.6102564,41.2820513 C91.6461538,45.0871795 88.6307692,48.2102564 84.825641,48.2461538 C84.7538462,48.2461538 84.7179487,48.2461538 84.6461538,48.2461538 C82.7794872,48.2820513 80.9846154,47.5641026 79.6564103,46.2358974 C78.3282051,44.9435897 77.574359,43.1487179 77.6102564,41.2820513 M91.1794872,27.3897436 C91.1435897,25.4871795 91.8615385,23.6923077 93.1897436,22.3282051 C94.4820513,21 96.2769231,20.2461538 98.1435897,20.2820513 C100.046154,20.2461538 101.841026,20.9641026 103.169231,22.3282051 C104.497436,23.6564103 105.215385,25.4871795 105.179487,27.3897436 C105.251282,31.1948718 102.235897,34.3179487 98.4666667,34.425641 C98.3589744,34.425641 98.2512821,34.425641 98.1794872,34.425641 C96.3128205,34.4615385 94.5179487,33.7435897 93.225641,32.4153846 C91.8974359,31.0871795 91.1794872,29.2564103 91.2153846,27.3897436 M19.4923077,87.3384615 C22.5076923,87.4461538 25.4871795,86.8 28.1794872,85.5076923 C30.7282051,84.1076923 32.9538462,82.2410256 34.7487179,79.9435897 L43.1487179,69.7487179 C43.6512821,69.1025641 44.2974359,68.5641026 45.0153846,68.2051282 C45.625641,67.8461538 46.3435897,67.6666667 47.0615385,67.6666667 L91.8615385,67.6666667 C92.5794872,67.6666667 93.2615385,67.8461538 93.9076923,68.2051282 C94.625641,68.6 95.3076923,69.1384615 95.8461538,69.7487179 L104.246154,79.9435897 C106.005128,82.2410256 108.266667,84.1076923 110.815385,85.5076923 C113.507692,86.8 116.487179,87.4461538 119.466667,87.3384615 C122.841026,87.4102564 126.215385,86.6205128 129.194872,85.0410256 C131.923077,83.5333333 134.184615,81.3076923 135.65641,78.5435897 C137.271795,75.4923077 138.061538,72.0820513 137.953846,68.6358974 C137.953846,66.0512821 137.666667,63.4666667 137.164103,60.9538462 C136.661538,58.225641 135.94359,55.3538462 135.046154,52.3025641 C134.076923,49.1076923 132.928205,45.5897436 131.528205,41.7846154 C130.128205,37.9794872 128.65641,34.1384615 127.076923,30.2974359 C125.497436,26.4205128 123.917949,22.8307692 122.302564,19.4564103 C121.153846,16.9794872 119.861538,14.5384615 118.425641,12.2051282 C117.241026,10.3025641 115.625641,8.65128205 113.758974,7.43076923 C111.317949,5.95897436 108.625641,4.95384615 105.825641,4.41538462 C100.620513,3.3025641 95.3794872,2.47692308 90.0666667,1.93846154 C83.2102564,1.25641026 76.2820513,0.933333333 69.3897436,0.969230769 C62.4974359,0.933333333 55.6051282,1.25641026 48.7487179,1.93846154 C43.4717949,2.44102564 38.2307692,3.26666667 33.025641,4.41538462 C30.225641,4.95384615 27.5333333,5.95897436 25.0564103,7.43076923 C23.1538462,8.65128205 21.574359,10.3025641 20.3897436,12.2051282 C19.2051282,14.1435897 17.8769231,16.5487179 16.4769231,19.4564103 C14.9333333,22.8307692 13.3538462,26.4205128 11.774359,30.2974359 C10.1948718,34.174359 8.72307692,37.9794872 7.32307692,41.7846154 C5.92307692,45.5897436 4.77435897,49.1076923 3.80512821,52.3025641 C2.94358974,55.3538462 2.22564103,58.225641 1.72307692,60.9538462 C1.22051282,63.5025641 0.969230769,66.0871795 0.933333333,68.6717949 C0.861538462,72.1179487 1.65128205,75.5282051 3.23076923,78.5794872 C4.7025641,81.3076923 6.96410256,83.5692308 9.69230769,85.0769231 C12.6717949,86.6564103 16.0102564,87.4461538 19.3487179,87.374359" id="Tracé_4231"></path>
        </g>
    </g>
</svg>