<?xml version="1.0" encoding="UTF-8"?>
<svg width="320px" height="210px" viewBox="0 0 320 210" version="1.1" xmlns="http://www.w3.org/2000/svg" xmlns:xlink="http://www.w3.org/1999/xlink">
    <title>avatar_leka_explorer</title>
    <g id="Page-1" stroke="none" stroke-width="1" fill="none" fill-rule="evenodd">
        <g id="discover" transform="translate(3.000000, 4.000000)">
            <ellipse id="Oval_7_Copy_4" stroke="#000000" stroke-width="9.71" fill="#000000" fill-rule="nonzero" stroke-linecap="round" stroke-linejoin="round" cx="178.4" cy="129.82" rx="7.79" ry="7.76"></ellipse>
            <path d="M59.53,72.54 C32.18,107.07 38.01,157.24 72.54,184.58 C86.63,195.74 104.08,201.81 122.06,201.81 L122.06,201.81 C166.14,201.78 201.85,166.03 201.820019,121.95 C201.820019,112.22 200.03,102.57 196.55,93.49" id="Oval_10" stroke="#000000" stroke-width="7" fill="#FFFFFF" fill-rule="nonzero"></path>
            <line x1="120.33" y1="130.73" x2="137.67" y2="130.73" id="Line" stroke="#000000" stroke-width="6.94" stroke-linecap="round" stroke-linejoin="round"></line>
            <path d="M42.16,100.37 C25.14,100.37 10.88,94.76 3.85,83.89 C-3.18,73.02 0.89,58.87 8.05,56.41 C15.21,53.95 34.37,57.1 46.08,62.53 C57.79,67.96 95.13,88.35 99.33,90.21 C110.11,94.84 121.51,97.9 133.16,99.3 C146.8,100.36 185.66,100.09 196.82,89.02 C207.98,77.95 228.79,68.76 226.38,58.91 C223.97,49.06 218.53,37.94 209.98,40.24 C201.44,42.54 178.44,58.03 172.98,60.29 C167.52,62.54 119.79,73.29 113.38,72.74 C106.97,72.19 61.51,58.93 61.51,58.93 C61.51,58.93 50.28,90.22 42.16,100.38 L42.16,100.37 Z" id="Path_22" fill="#114C3F" fill-rule="nonzero"></path>
            <g id="Group" stroke="#000000" stroke-linecap="round" stroke-width="6.94">
                <path d="M40.08,100.33 C15.49,105.01 -9.17,77.5 4.68,60.32 C18.53,43.14 52.82,66.77 77.03,78.82 C101.23,90.87 122.9,100.32 152.8,100.32 C182.7,100.32 223.08,81.03 224.95,56.15 C226.83,31.28 188.32,41.09 174.22,60.31" id="Path_21"></path>
                <path d="M110.35,74.94 C110.35,74.94 186.43,73.52 174.31,51.74 C162.2,29.96 128.33,-2.28 116.09,0.59 C103.85,3.46 103,10.01 92.09,14.55 C81.18,19.1 73.42,17.44 66.17,21.24 C58.92,25.03 60.49,60.37 60.49,60.37" id="Path_24" fill="#114C3F" fill-rule="nonzero" stroke-linejoin="round"></path>
            </g>
            <ellipse id="Oval_Copy" stroke="#000000" stroke-width="10.4" fill="#000000" fill-rule="nonzero" cx="239.97" cy="127.61" rx="13.87" ry="19.42"></ellipse>
            <polygon id="Rectangle_91" stroke="#000000" stroke-width="6.94" fill="#000000" fill-rule="nonzero" stroke-linecap="round" stroke-linejoin="round" points="181.33 120.86 233.74 114.72 235.37 142 181.33 137.5 181.33 120.85"></polygon>
            <polygon id="Rectangle_4" stroke="#000000" stroke-width="6.94" fill="#000000" fill-rule="nonzero" stroke-linecap="round" stroke-linejoin="round" points="240.39 109.85 291.21 101.71 291.21 155.11 236.5 143.87 240.39 109.85"></polygon>
            <ellipse id="Oval" stroke="#000000" stroke-width="6.94" fill="#9BCADF" fill-rule="nonzero" cx="289.62" cy="129" rx="23.17" ry="27.74"></ellipse>
            <ellipse id="Oval_65" stroke="#000000" stroke-width="3.47" fill="#000000" fill-rule="nonzero" cx="178.49" cy="129" rx="13.87" ry="13.56"></ellipse>
        </g>
    </g>
</svg>