<?xml version="1.0" encoding="UTF-8"?><svg xmlns="http://www.w3.org/2000/svg" viewBox="0 0 400 400"><defs><style>.cls-1,.cls-2{fill:#e4a65c;}.cls-3{fill:#83b7b3;}.cls-4,.cls-5{fill:#754d25;}.cls-6,.cls-7{fill:#4b4b4b;}.cls-5,.cls-7,.cls-2,.cls-8{stroke:#4b4b4b;stroke-linecap:round;stroke-linejoin:round;stroke-width:7px;}.cls-8{fill:none;}</style></defs><g id="back"><rect class="cls-3" x="0" width="400" height="400"/></g><g id="Layer_1"><g><path id="Path_34" class="cls-1" d="m267.51,188.72c10.32,10.68,12.32,26.33,8.76,33.94-3.56,7.62-12.34,18.94-12.34,31.54-.1,6.23.17,12.46.81,18.66,0,0,20.46-1.46,19.1,17.79h-32.68l-2.25-64.05s-9.75,24.38-50.85,6.97c-37.18-15.76-57.12-16.02-57.12-16.02l-10.03-17.07,63.67-28.91,33.36-14.52s29.27,20.97,39.58,31.66Z"/><path id="Path_31" class="cls-1" d="m264.07,176.68c4.24,19.66-25.07,34.25-43.98,34.25,4.8-12.83.55-27.67-1.68-48.4-3.52-32.73,33.1-45.85,42.16-48.61,9.06-2.75,28.41-4.81,43.2,7.14,14.78,11.95,15.59,17.41,15.59,20.16s15.94,15.67,13.93,18.67c-2.01,3-9.15,23.36-15.03,23.36s-26.5-9.13-26.5-9.13"/><path id="Path_37" class="cls-4" d="m305.45,122.59c-10.26,0-22.32,13.62-25.27,29.14-2.95,15.53,11.91,44.93,11.91,44.93l-4.53,21.01-7.38,10.21-7.15,3.53,5.07-15.39-5.06-21.37-9.39-9.6s-4.14,35.53-20.21,30.99c-4.69-8.12-.58-8.84-12.06-25.5-11.47-16.66-13.4-33.17-11.47-40.85,1.92-7.69,14.6-26.36,30.7-33.26,16.1-6.9,43.41-10.23,54.84,6.18Z"/><path id="Path_34-2" class="cls-8" d="m267.5,188.3c10.32,10.73,12.34,26.43,8.76,34.1-3.58,7.67-12.34,19.02-12.34,31.66-.1,6.26.17,12.51.81,18.74,0,0,20.47-1.47,19.11,17.86h-32.7l-.7-65.89s-15.27,27.58-47.49,9.88c-28.58-15.7-59.93-14.31-59.93-14.31"/><path id="Path_31-2" class="cls-8" d="m264.08,175.59c4.24,19.55-4.63,39.88-23.54,39.88,4.8-12.76-19.9-33.33-22.12-53.94-3.52-32.56,32.51-47.59,41.56-50.32,9.05-2.74,39-3.27,45.51,10.42,14.78,11.88,13.87,15.97,13.87,18.7s15.94,15.58,13.93,18.56c-2.01,2.98-9.17,22.73-15.03,23.23-6.14.52-32.51-7.59-32.43-7.75"/><circle id="Oval_10" class="cls-7" cx="305.45" cy="145.2" r="2.15"/><path id="Path_32" class="cls-8" d="m279.06,151.67c-2.91,9.24,6.6,24.66,10.53,37.27,3.92,12.61,4.05,28.2-16.3,42.55"/><path id="Path_33" class="cls-8" d="m280.67,130.86c-7.54-10.31-19.91,1.93-13.12,8.96"/><path id="Path_35" class="cls-2" d="m162.99,214.19c-10.33,0-11.61-5.69-27.41,14.73-13.61,17.58-16.62,24.69-22.44,27.76-5.83,3.07-3.95,16.12-3.95,16.12,0,0,13.96.32,16.77,5.49,2.8,5.17,0,13.47,0,13.47h-32.07s-2.24-49.37,1.33-52.39c3.56-3.02,8.1,13.32,8.1-19.85s5.99-41.13,18.94-44.11c20.67-4.75,32.1,1.91,51.43,3.09,13.21.41,30.48-14.4,43.18-18.05"/><path id="Path_36" class="cls-8" d="m109.74,183.17c-15.07,1.49-15.1,23.07-16.21,38.9-1.1,15.65-4.32,26.66-20.72,25.51"/><path class="cls-5" d="m78.73,245.84c1.8,2.34,1.66,5.75.34,8.39s-3.63,4.64-6.01,6.39-4.9,3.35-6.91,5.51c.43-4.25.86-8.5,1.29-12.75.48-4.73,5.78-14.7,11.3-7.54Z"/><path class="cls-5" d="m250.74,115.58c-10.98,2.62-21.68,6.35-30.46,13.43-8.78,7.09-15.55,17-17.59,28.1,5.94-10.15,15.84-17.92,27.12-21.28"/><path class="cls-5" d="m256.72,115.13c-6.29-.5-.06-.43-15.11-5.41,8.45-2.89,20.53-.82,25.4.57"/><path class="cls-5" d="m282.34,175.06c6.27,3.48,15.36,18.99,16.05,27.28.06.77-.95,1.13-1.4.5-2.55-3.59-4.69-3.82-7.63-5.12"/><path class="cls-5" d="m290,198.75c2.58,1.94,6.36,20.01.81,28.75-.48.75-1.63.46-1.71-.43-.53-6.05-.86-8.9-3.97-9.52"/><path class="cls-4" d="m266.39,117.71c-.9.98-2.62.65-3.53-.32s-1.2-2.35-1.46-3.65c-.07-.34-.13-.71.01-1.03.25-.55.97-.65,1.58-.68,2.22-.11,4.44-.22,6.65-.02,1.25.11,2.7.48,3.17,1.64.36.91-.05,1.94-.62,2.73-1.11,1.55-2.87,2.62-4.75,2.89"/><path class="cls-6" d="m332.22,156.95l.72-.6c-3.56-.47-7.13-.95-10.69-1.42,1.08,3.77,3.54,7.12,6.8,9.29,2.58-2.06,4.33-5.13,4.81-8.39"/></g></g></svg>