<?xml version="1.0" encoding="UTF-8"?>
<svg width="139px" height="171px" viewBox="0 0 139 171" version="1.1" xmlns="http://www.w3.org/2000/svg" xmlns:xlink="http://www.w3.org/1999/xlink">
    <title>accompanying</title>
    <g id="Page-1" stroke="none" stroke-width="1" fill="none" fill-rule="evenodd">
        <g id="accompanying">
            <g id="Groupe_7047">
                <g id="Groupe_7019" transform="translate(16.000000, 116.000000)" stroke-width="4.66666667">
                    <g id="Groupe_7010">
                        <path d="M106.033333,52.14 C105.706667,23.2533333 82.0933333,0.06 53.2066667,0.2 C24.32,0.0133333333 0.706666667,23.2533333 0.38,52.14" id="Tracé_4219" stroke="#707071"></path>
                        <path d="M106.033333,52.14 C105.706667,23.2533333 82.0933333,0.06 53.2066667,0.2 C24.32,0.0133333333 0.706666667,23.2533333 0.38,52.14" id="Tracé_4220" stroke="#08579B" stroke-linecap="round" stroke-linejoin="round"></path>
                    </g>
                </g>
                <g id="Groupe_7020">
                    <g id="Ellipse_464" transform="translate(0.000000, 47.666667)">
                        <circle id="Oval" cx="9.52" cy="10.2466667" r="9.52"></circle>
                        <circle id="Oval" stroke="#08579B" stroke-width="4.66666667" cx="9.52" cy="10.2466667" r="7.18666667"></circle>
                    </g>
                    <g id="Ellipse_465" transform="translate(118.666667, 47.666667)">
                        <circle id="Oval" cx="10.18" cy="10.2466667" r="9.52"></circle>
                        <circle id="Oval" stroke="#08579B" stroke-width="4.66666667" cx="10.18" cy="10.2466667" r="7.18666667"></circle>
                    </g>
                    <g id="Tracé_4209" transform="translate(13.333333, 0.000000)">
                        <path d="M55.8266667,0 C86.44,0 111.173333,24.78 111.173333,55.3466667 C111.173333,85.9133333 86.3933333,110.693333 55.8266667,110.693333 C25.26,110.693333 0.48,85.9133333 0.48,55.3466667 C0.48,24.78 25.26,0 55.8266667,0 L55.8266667,0 Z" id="Path"></path>
                        <path d="M55.8266667,4.66666667 C42.2933333,4.66666667 29.5533333,9.94 19.9866667,19.5066667 C10.42,29.0733333 5.14666667,41.8133333 5.14666667,55.3466667 C5.14666667,68.88 10.42,81.62 19.9866667,91.1866667 C29.5533333,100.753333 42.2933333,106.026667 55.8266667,106.026667 C69.36,106.026667 82.1,100.753333 91.6666667,91.1866667 C101.233333,81.62 106.506667,68.88 106.506667,55.3466667 C106.506667,41.8133333 101.233333,29.0733333 91.6666667,19.5066667 C82.1,9.94 69.36,4.66666667 55.8266667,4.66666667 M55.8266667,0 C86.3933333,0 111.173333,24.78 111.173333,55.3466667 C111.173333,85.9133333 86.3933333,110.693333 55.8266667,110.693333 C25.26,110.693333 0.48,85.9133333 0.48,55.3466667 C0.48,24.78 25.26,0 55.8266667,0 Z" id="Shape" fill="#08579B" fill-rule="nonzero"></path>
                    </g>
                    <path d="M26.74,46.0133333 C26.74,46.0133333 45.9666667,25.76 63.2333333,35.42 C80.5,45.08 80.9666667,30.0533333 80.9666667,30.0533333 C82.2733333,35.4666667 87.7333333,38.78 93.1,37.4733333 C94.5933333,37.1 95.9933333,36.4 97.2066667,35.42 C109.573333,27.9533333 119.373333,40.1333333 119.373333,40.1333333" id="Tracé_1793" stroke="#08579B" stroke-width="4.66666667" stroke-linecap="round" stroke-linejoin="round"></path>
                    <g id="Ellipse_888" transform="translate(81.333333, 51.333333)">
                        <circle id="Oval" fill="#08579B" fill-rule="nonzero" cx="6.58666667" cy="6.62666667" r="6.39333333"></circle>
                        <circle id="Oval" stroke="#08579B" stroke-width="4.66666667" stroke-linecap="round" stroke-linejoin="round" cx="6.58666667" cy="6.62666667" r="4.06"></circle>
                    </g>
                    <g id="Ellipse_889" transform="translate(46.666667, 51.333333)">
                        <circle id="Oval" fill="#08579B" fill-rule="nonzero" cx="6.90666667" cy="6.62666667" r="6.39333333"></circle>
                        <circle id="Oval" stroke="#08579B" stroke-width="4.66666667" stroke-linecap="round" stroke-linejoin="round" cx="6.90666667" cy="6.62666667" r="4.06"></circle>
                    </g>
                </g>
            </g>
            <circle id="Ellipse_890" stroke="#08579B" stroke-width="4.66666667" cx="88.2" cy="58.3333333" r="11.6666667"></circle>
            <circle id="Ellipse_891" stroke="#08579B" stroke-width="4.66666667" cx="52.9666667" cy="58.38" r="11.6666667"></circle>
            <line x1="98.5133333" y1="57.8666667" x2="120.68" y2="50.7733333" id="Ligne_2" stroke="#08579B" stroke-width="4.66666667"></line>
            <path d="M64.4933333,59.36 C66.8266667,56 71.4,55.16 74.76,57.4466667 C75.46,57.9133333 76.0666667,58.52 76.5333333,59.1733333" id="Tracé_4210" stroke="#08579B" stroke-width="4.66666667"></path>
            <line x1="40.74" y1="58.38" x2="17.64" y2="52.4066667" id="Tracé_4211" stroke="#08579B" stroke-width="4.66666667"></line>
        </g>
    </g>
</svg>