<?xml version="1.0" encoding="UTF-8"?><svg xmlns="http://www.w3.org/2000/svg" viewBox="0 0 400 400"><defs><style>.cls-1,.cls-2,.cls-3{fill:none;}.cls-2{stroke-width:7.63px;}.cls-2,.cls-4,.cls-5,.cls-6,.cls-7{stroke-miterlimit:10;}.cls-2,.cls-5,.cls-3{stroke:#4c4b4c;}.cls-8{fill:#959cce;}.cls-9,.cls-5,.cls-6{fill:#2c1a12;}.cls-10,.cls-4{fill:#763d37;}.cls-4{stroke:#4d4b4d;stroke-width:7px;}.cls-5,.cls-3{stroke-width:7.74px;}.cls-6{stroke:#2c1a12;}.cls-6,.cls-7{stroke-width:3px;}.cls-7{fill:#681b25;stroke:#681b25;}.cls-3{stroke-linecap:round;stroke-linejoin:round;}</style></defs><g id="back"><rect class="cls-8" x="0" width="400" height="400"/></g><g id="Layer_6"><circle class="cls-5" cx="200" cy="173.92" r="97.57"/><g><g><rect id="Rectangle_47" class="cls-1" x="21.42" y="16.35" width="403.51" height="379.16"/><g><path id="Tracé_124" class="cls-10" d="m200.38,123.44c50.27,0,91.03,34.28,91.03,76.56s-40.75,76.56-91.03,76.56-91.03-34.28-91.03-76.56h0c0-42.28,40.75-76.56,91.03-76.56"/><path id="Ellipse_85" class="cls-2" d="m291.41,200c0,42.28-40.76,76.56-91.03,76.56s-91.03-34.28-91.03-76.56"/><path class="cls-9" d="m169.97,190.41c-.04-1.9.14-3.76.91-5.53.39-.9.94-1.68,1.73-2.26.73-.54,1.45-.62,2.36-.2,1.45.68,2.28,1.77,2.76,3.22,1.02,3.04.87,6.05-.22,9.04-.28.77-.74,1.43-1.34,2-1.49,1.43-3.44,1.29-4.7-.36-.88-1.16-1.35-2.5-1.49-3.94-.06-.65-.01-1.31-.01-1.96Z"/><path class="cls-9" d="m225.31,190.41c-.04-1.9.14-3.76.91-5.53.39-.9.94-1.68,1.73-2.26.73-.54,1.45-.62,2.36-.2,1.45.68,2.28,1.77,2.76,3.22,1.02,3.04.87,6.05-.22,9.04-.28.77-.74,1.43-1.34,2-1.49,1.43-3.44,1.29-4.7-.36-.88-1.16-1.35-2.5-1.49-3.94-.06-.65-.01-1.31-.01-1.96Z"/><path class="cls-7" d="m200.48,244.47c-3.41.22-6.66-.36-9.83-1.36-2.89-.91-5.63-2.2-8.03-4.1-.23-.18-.44-.4-.64-.61-.61-.65-.62-1.16-.07-1.72.5-.51.84-.5,1.53.08,1.01.85,2.07,1.64,3.2,2.34,2.42,1.5,5.06,2.38,7.82,2.94,1.37.28,2.75.46,4.15.49.8.02,1.6.22,2.41.19,5.37-.21,10.5-1.32,15.23-3.95.52-.29,1.02-.59,1.54-.87.16-.09.33-.19.5-.22.31-.07.68-.19.89.18.16.29.03.58-.2.8-.34.34-.65.7-1.06.97-3.18,2.1-6.65,3.46-10.38,4.22-2.35.48-4.71.82-7.07.63Z"/><path class="cls-6" d="m200.42,212.4c-1.39-.09-2.72.15-4.01.55-1.18.37-2.29.9-3.27,1.67-.09.07-.18.16-.26.25-.25.26-.25.47-.03.7.2.21.34.2.62-.03.41-.35.84-.67,1.3-.95.99-.61,2.06-.97,3.19-1.2.56-.11,1.12-.19,1.69-.2.33,0,.65-.09.98-.08,2.19.08,4.28.54,6.21,1.61.21.12.42.24.63.36.07.04.13.08.21.09.13.03.28.08.36-.07.07-.12.01-.24-.08-.33-.14-.14-.27-.28-.43-.39-1.3-.85-2.71-1.41-4.23-1.72-.96-.19-1.92-.33-2.88-.26Z"/><circle class="cls-4" cx="302.07" cy="194.68" r="11.43"/></g><circle class="cls-4" cx="97.97" cy="195.53" r="11.43"/></g><path class="cls-9" d="m287.1,206.97c-8.28,13.44-42.73,31.87-42.73,31.87,0,0-9.06,5.65-13.96-2.24-4.9-7.89-12.38-10.55-12.38-10.55.91-3.91-3.32-4.9-7.98-6.07-4.65-1.16-9.22,1.41-9.22,1.41-5.07-2.41-8.47-1.58-8.47-1.58-9.14.75-9.03,5.7-9.03,5.7-5.63,2.92-4.17.63-15.42,12.71-11.25,12.09-55.01-30.42-55.01-30.42.83,11.88,7.29,33.96,33.13,50.84,25.84,16.88,57.72,16.04,57.72,16.04,0,0,18.75,2.29,51.26-16.46,32.51-18.75,32.09-51.26,32.09-51.26Zm-72.11,43.28h-29.97c-4.54,0-8.26-3.72-8.26-8.26s3.72-8.26,8.26-8.26h29.97c4.54,0,8.26,3.72,8.26,8.26s-3.72,8.26-8.26,8.26Z"/></g><path class="cls-9" d="m190.87,130.5c-4.5,5.4,18.47,6.87,86.44,32.65l15.91,5.8-19.56-45.03-56.27-15.89s-58.21-2.54-26.53,22.47Z"/><path class="cls-9" d="m199.21,131.82s-65.31,34.32-85.02,32.91c-19.72-1.41,19.25-35.21,19.25-35.21l56.33-24.88,9.44,27.18Z"/><path class="cls-3" d="m109.11,189.85s7.91-23.74,10.99-25.05,60.22-19.34,74.72-30.33c0,0,79.56,30.33,86.59,30.33,0,0,9.67,19.34,8.79,21.98"/></g></svg>