<?xml version="1.0" encoding="UTF-8"?>
<svg width="140px" height="128px" viewBox="0 0 140 128" version="1.1" xmlns="http://www.w3.org/2000/svg" xmlns:xlink="http://www.w3.org/1999/xlink">
    <title>stories</title>
    <g id="Page-1" stroke="none" stroke-width="1" fill="none" fill-rule="evenodd">
        <g id="stories" transform="translate(2.000000, 2.000000)" stroke="#08579B" stroke-width="3.88888889">
            <path d="M7.34444444,123.622222 L18.2722222,123.622222 C20.0611111,123.738889 21.85,123.116667 23.1722222,121.872222 C24.4166667,120.55 25.0388889,118.761111 24.9222222,116.972222 L24.9222222,23.3277778 C25.0388889,21.5388889 24.4166667,19.75 23.1722222,18.4277778 C21.85,17.1833333 20.0611111,16.5611111 18.2722222,16.6777778 L7.34444444,16.6777778 C5.55555556,16.5611111 3.76666667,17.1833333 2.44444444,18.4277778 C1.2,19.75 0.577777778,21.5388889 0.694444444,23.3277778 L0.694444444,116.933333 C0.577777778,118.722222 1.2,120.511111 2.44444444,121.833333 C3.76666667,123.077778 5.55555556,123.7 7.34444444,123.583333 M38.4944444,123.583333 L61.5166667,123.583333 C63.3444444,123.7 65.1333333,123.077778 66.4944444,121.833333 C67.7388889,120.511111 68.3611111,118.722222 68.2444444,116.933333 L68.2444444,42.2277778 C68.3611111,40.4 67.7388889,38.65 66.4944444,37.2888889 C65.1333333,36.0444444 63.3444444,35.4222222 61.5166667,35.5388889 L38.4944444,35.5388889 C35.15,35.1888889 32.1555556,37.6388889 31.8444444,40.9833333 C31.8055556,41.3722222 31.8055556,41.8 31.8444444,42.1888889 L31.8444444,116.933333 C31.4944444,120.277778 33.9444444,123.272222 37.2888889,123.622222 C37.6777778,123.661111 38.1055556,123.661111 38.4944444,123.622222 M44.4444444,56.3833333 C43.3944444,56.3833333 42.3833333,55.9944444 41.6444444,55.2555556 C40.9055556,54.5555556 40.5166667,53.5444444 40.5166667,52.5333333 C40.5166667,51.5222222 40.9055556,50.55 41.6444444,49.85 C42.3833333,49.1111111 43.3944444,48.7222222 44.4444444,48.7611111 L55.7222222,48.7611111 C57.7833333,48.7222222 59.4555556,50.3555556 59.4944444,52.4166667 C59.4944444,52.4555556 59.4944444,52.4944444 59.4944444,52.5722222 C59.4944444,53.5833333 59.1055556,54.5555556 58.4055556,55.2944444 C57.7055556,56.0333333 56.7333333,56.4611111 55.7222222,56.4222222 L44.4444444,56.4222222 L44.4444444,56.3833333 Z M44.4444444,110.477778 C43.3944444,110.477778 42.3833333,110.088889 41.6444444,109.35 C40.9055556,108.65 40.5166667,107.638889 40.5166667,106.627778 C40.5166667,105.616667 40.9055556,104.644444 41.6444444,103.944444 C42.3833333,103.205556 43.3944444,102.816667 44.4444444,102.855556 L55.7222222,102.855556 C57.7833333,102.816667 59.4555556,104.45 59.4944444,106.511111 C59.4944444,106.55 59.4944444,106.588889 59.4944444,106.666667 C59.4944444,107.677778 59.1055556,108.65 58.4055556,109.388889 C57.7055556,110.127778 56.7333333,110.555556 55.7222222,110.516667 L44.4444444,110.516667 L44.4444444,110.477778 Z M81.7777778,123.622222 L96.0888889,123.622222 C97.9166667,123.738889 99.7055556,123.116667 101.066667,121.872222 C102.311111,120.55 102.933333,118.761111 102.816667,116.972222 L102.816667,7.42222222 C102.933333,5.63333333 102.311111,3.84444444 101.066667,2.52222222 C99.7055556,1.27777778 97.9166667,0.655555556 96.0888889,0.772222222 L81.7777778,0.772222222 C79.95,0.655555556 78.1611111,1.27777778 76.8388889,2.52222222 C75.6333333,3.84444444 75.0111111,5.63333333 75.1277778,7.42222222 L75.1277778,116.972222 C75.0111111,118.761111 75.6333333,120.55 76.8388889,121.872222 C78.1611111,123.116667 79.95,123.738889 81.7777778,123.622222 M120.511111,123.816667 L130,122.416667 C131.788889,122.261111 133.461111,121.405556 134.666667,120.044444 C135.716667,118.566667 136.105556,116.738889 135.755556,114.988889 L124.516667,22.1222222 C124.438889,20.2944444 123.622222,18.6222222 122.261111,17.3777778 C120.783333,16.2888889 118.916667,15.9 117.127778,16.2888889 L107.638889,17.6888889 C105.85,17.8055556 104.138889,18.6611111 102.972222,20.0222222 C101.922222,21.5 101.533333,23.3277778 101.883333,25.1166667 L113.122222,117.944444 C113.2,119.772222 114.016667,121.444444 115.377778,122.688889 C116.855556,123.777778 118.722222,124.166667 120.511111,123.777778" id="Tracé_4238"></path>
        </g>
    </g>
</svg>