<?xml version="1.0" encoding="UTF-8"?><svg xmlns="http://www.w3.org/2000/svg" viewBox="0 0 400 400"><defs><style>.cls-1,.cls-2{fill:none;}.cls-2{stroke-width:7.63px;}.cls-2,.cls-3,.cls-4,.cls-5,.cls-6{stroke-miterlimit:10;}.cls-2,.cls-3,.cls-7{stroke:#4c4b4c;}.cls-8,.cls-4{fill:#f8bc98;}.cls-9,.cls-5{fill:#6f4b26;}.cls-10{fill:#959cce;}.cls-3,.cls-4{stroke-width:7px;}.cls-3,.cls-7{fill:#c5c3c5;}.cls-4{stroke:#4d4b4d;}.cls-5{stroke:#6f4b26;}.cls-5,.cls-6{stroke-width:3px;}.cls-6{fill:#f9b09d;stroke:#681b25;}.cls-7{stroke-linecap:round;stroke-linejoin:round;stroke-width:6.74px;}</style></defs><g id="back"><rect class="cls-10" x="0" width="400" height="400"/></g><g id="Layer_1"><rect id="Rectangle_47" class="cls-1" x="9.93" y="14.02" width="403.51" height="379.16"/><rect id="Rectangle_47-2" class="cls-1" x="21.42" y="16.35" width="403.51" height="379.16"/></g><g id="Layer_6"><g><circle class="cls-3" cx="200" cy="124.89" r="28.73"/><path id="Tracé_124" class="cls-8" d="m200.38,150.72c50.27,0,91.03,34.28,91.03,76.56s-40.75,76.56-91.03,76.56-91.03-34.28-91.03-76.56h0c0-42.28,40.75-76.56,91.03-76.56"/><ellipse id="Ellipse_85" class="cls-2" cx="200.38" cy="227.27" rx="91.03" ry="76.56"/><path class="cls-9" d="m169.97,217.68c-.04-1.9.14-3.76.91-5.53.39-.9.94-1.68,1.73-2.26.73-.54,1.45-.62,2.36-.2,1.45.68,2.28,1.77,2.76,3.22,1.02,3.04.87,6.05-.22,9.04-.28.77-.74,1.43-1.34,2-1.49,1.43-3.44,1.29-4.7-.36-.88-1.16-1.35-2.5-1.49-3.94-.06-.65-.01-1.31-.01-1.96Z"/><path class="cls-9" d="m225.31,217.68c-.04-1.9.14-3.76.91-5.53.39-.9.94-1.68,1.73-2.26.73-.54,1.45-.62,2.36-.2,1.45.68,2.28,1.77,2.76,3.22,1.02,3.04.87,6.05-.22,9.04-.28.77-.74,1.43-1.34,2-1.49,1.43-3.44,1.29-4.7-.36-.88-1.16-1.35-2.5-1.49-3.94-.06-.65-.01-1.31-.01-1.96Z"/><path class="cls-6" d="m200.48,271.74c-3.41.22-6.66-.36-9.83-1.36-2.89-.91-5.63-2.2-8.03-4.1-.23-.18-.44-.4-.64-.61-.61-.65-.62-1.16-.07-1.72.5-.51.84-.5,1.53.08,1.01.85,2.07,1.64,3.2,2.34,2.42,1.5,5.06,2.38,7.82,2.94,1.37.28,2.75.46,4.15.49.8.02,1.6.22,2.41.19,5.37-.21,10.5-1.32,15.23-3.95.52-.29,1.02-.59,1.54-.87.16-.09.33-.19.5-.22.31-.07.68-.19.89.18.16.29.03.58-.2.8-.34.34-.65.7-1.06.97-3.18,2.1-6.65,3.46-10.38,4.22-2.35.48-4.71.82-7.07.63Z"/><path class="cls-5" d="m200.42,239.67c-1.39-.09-2.72.15-4.01.55-1.18.37-2.29.9-3.27,1.67-.09.07-.18.16-.26.25-.25.26-.25.47-.03.7.2.21.34.2.62-.03.41-.35.84-.67,1.3-.95.99-.61,2.06-.97,3.19-1.2.56-.11,1.12-.19,1.69-.2.33,0,.65-.09.98-.08,2.19.08,4.28.54,6.21,1.61.21.12.42.24.63.36.07.04.13.08.21.09.13.03.28.08.36-.07.07-.12.01-.24-.08-.33-.14-.14-.27-.28-.43-.39-1.3-.85-2.71-1.41-4.23-1.72-.96-.19-1.92-.33-2.88-.26Z"/><circle class="cls-4" cx="97.93" cy="221.96" r="11.43"/><circle class="cls-4" cx="302.07" cy="221.96" r="11.43"/><path class="cls-7" d="m223.27,167.38l9.47,25.77c.36.98,1.25,1.66,2.28,1.76l24.95,2.38c.68.06,1.31.38,1.76.89l14.11,15.85c.43.48,1.02.8,1.67.88l10.32,1.37c1.61.21,3.05-1.02,3.06-2.65.15-14.16-3.66-73.27-77.13-78.26-81.48-5.53-99.76,32.82-102.13,82.08-.09,1.89,1.73,3.32,3.54,2.72,5.49-1.82,15.66-6.32,20.15-15.72.42-.87,1.28-1.44,2.25-1.5,6.71-.41,33.19-1.99,63.2-3.6.98-.05,1.85-.63,2.28-1.5l15.25-30.76c1.06-2.13,4.15-1.96,4.97.27Z"/></g></g></svg>