<?xml version="1.0" encoding="UTF-8"?><svg xmlns="http://www.w3.org/2000/svg" xmlns:xlink="http://www.w3.org/1999/xlink" viewBox="0 0 400 400"><defs><style>.cls-1,.cls-2{fill:none;}.cls-3{clip-path:url(#clippath);}.cls-4{fill:#f8acae;}.cls-5{fill:#f6917e;}.cls-6,.cls-7{fill:#fff;}.cls-8{fill:#1a1818;}.cls-9{fill:#4c4b4c;}.cls-10{clip-path:url(#clippath-1);}.cls-11{clip-path:url(#clippath-2);}.cls-7{stroke:#4c4b4c;stroke-miterlimit:10;stroke-width:7px;}.cls-12{stroke-linecap:round;stroke-linejoin:round;stroke-width:3.58px;}.cls-12,.cls-2{stroke:#000;}.cls-2{stroke-width:7.17px;}</style><clipPath id="clippath"><rect class="cls-1" x="158.79" y="205.89" width="82.42" height="36.84"/></clipPath><clipPath id="clippath-1"><rect class="cls-1" x="177.45" y="233.31" width="44.05" height="24.6"/></clipPath><clipPath id="clippath-2"><rect class="cls-1" x="87.08" y="44.27" width="226.83" height="125.24"/></clipPath></defs><g id="back"><rect class="cls-5" y="0" width="400" height="400"/></g><g id="Layer_1"><g id="Groupe_86"><circle id="Oval_2_Copy_3" cx="165.99" cy="198.99" r="11.95"/><g><g id="Group_10"><circle id="Oval_Copy_2" class="cls-7" cx="200" cy="200" r="77.04"/></g><path id="Tracé_50" class="cls-2" d="m177.45,187.52l44.41-61.45"/><path id="Tracé_51" class="cls-2" d="m157.31,206.58l-29.38,17.44"/><path id="Tracé_52" class="cls-12" d="m186.99,195.46c-.72-9.35.97-14.51-16.13-13.87s-23.43,8.46-23.43,8.46c0,0-9.47,9.72,2.35,20.66s17.4,8.21,26.69,4.39c9.3-3.81,11.23-10.3,10.51-19.65Z"/><g id="Groupe_35"><g class="cls-3"><g id="Groupe_34"><path id="Tracé_60" class="cls-9" d="m200.02,230.33c-12.51,8.24-29.65,6.02-34.06-1.52,8.15-2.37,15.58-6.75,21.6-12.74,4.45-3.96,7.75-3.89,12.45-.51,3.35-3.34,8.76-3.33,12.1.01.21.21.4.42.58.65,5.93,5.94,13.28,10.27,21.36,12.57-4.61,7.84-22.13,9.54-34.02,1.53"/></g></g></g><g id="Groupe_37"><g class="cls-10"><g id="Groupe_36"><path id="Tracé_61" class="cls-4" d="m199.48,250.74c-6.24-.02-11.29-5.1-11.28-11.34,0-1.39,1.12-2.51,2.51-2.51h0c1.38,0,1.51,1.55,2.42,2.59,2.95,3.35,2.89,3.67,6.35,3.67,2.72.39,5.33-1.18,6.27-3.76.72-1.19,1.12-2.51,2.51-2.51s2.51,1.12,2.51,2.51c.01,6.25-5.05,11.33-11.29,11.34,0,0,0,0,0,0"/></g></g></g><circle id="Oval_2_Copy_3-2" class="cls-9" cx="233.58" cy="199.47" r="11.95"/></g><g id="Groupe_33"><g class="cls-11"><g id="Groupe_32"><path id="Tracé_54" class="cls-8" d="m197.2,50.95h8.58l.85.16c3.41.6,6.87.99,10.21,1.83,6.55,1.56,12.59,4.77,17.56,9.32,4.16,3.93,7.63,8.53,10.25,13.62,2.95,5.59,5.68,11.28,8.54,16.91,1.9,3.91,4.4,7.5,7.39,10.66,5.44,6.48,14.21,9.1,22.31,6.68,3.71-1.08,7.41-2.2,11.14-3.23,2.91-.97,5.96-1.44,9.03-1.37,1.32-.04,2.53.72,3.06,1.93v1.57c-.63,1.53-1.39,3-2.29,4.39-2.45,3.3-5.07,6.46-7.86,9.48-7.01,7.3-14.21,14.41-21.3,21.63-3.86,3.73-7.44,7.74-10.71,11.99-.36.64-1.13.92-1.82.66-3.68-.87-7.36-1.73-11.07-2.51-8.24-1.75-16.56-3.04-24.94-3.85-5.89-.53-11.79-1.08-17.7-1.31-11.95-.51-23.93-.02-35.79,1.49-5.94.78-11.88,1.68-17.77,2.78-5.06.95-10.06,2.24-15.07,3.42-.57.2-1.19-.02-1.51-.53-1.34-1.81-2.77-3.55-4.3-5.21-4.96-5.18-9.96-10.32-15.01-15.41-6.23-6.31-12.67-12.42-18.28-19.3-1.86-2.06-3.35-4.43-4.4-7-.78-1.35-.31-3.07,1.04-3.85.52-.3,1.12-.42,1.71-.36,3.07-.08,6.12.39,9.03,1.36,3.58.99,7.13,2.15,10.72,3.12,2.53.8,5.19,1.15,7.84,1.06,3.89-.31,7.61-1.71,10.75-4.02,4.94-3.72,8.89-8.59,11.5-14.19,2.92-5.79,5.63-11.7,8.6-17.47,2.51-4.99,5.97-9.44,10.2-13.09,6.9-5.68,15.23-9.35,24.07-10.61,1.79-.3,3.63-.5,5.45-.74m33.77,39.15c.09-.46.18-.91.25-1.37.31-1.58.22-3.22-.27-4.75-.3-1.56-1.8-2.57-3.35-2.28-.62.12-1.18.44-1.6.91-2.02,1.89-3.24,4.48-3.43,7.24-.03.35-.19.68-.44.92-1.3.82-2.66,1.56-4.02,2.34-4.05-9.37-14.93-13.68-24.3-9.63-4.33,1.87-7.78,5.33-9.64,9.66-.9-.52-1.73-1.05-2.61-1.49-1.14-.57-2.15-1.16-1.94-2.69,0-.2-.04-.4-.11-.59-.39-2.28-1.56-4.36-3.31-5.88-1.09-1.11-2.87-1.13-3.98-.05-.37.37-.64.83-.77,1.34-.56,1.57-.69,3.27-.36,4.9.08.48.17.95.26,1.43l-.2-.19c-1.49.87-3.05,1.65-4.46,2.66-1.24.73-1.85,2.19-1.5,3.58.43,1.25,1.55,2.12,2.87,2.24,2.45.5,4.99.19,7.24-.89.34-.16.72-.18,1.08-.06,1.99,1.09,3.96,2.23,5.9,3.4.31.23.52.55.61.92.19.79.24,1.61.4,2.4.5,2.36,1.48,4.59,2.87,6.56-2.11,1.22-4.19,2.38-6.23,3.62-.64.44-1.46.5-2.15.14-2.43-1.2-5.24-1.39-7.8-.52-1.5.39-2.4,1.93-2,3.43.12.45.35.87.67,1.21.52.67,1.15,1.23,1.87,1.68,1.13.68,2.37,1.19,3.62,1.79-.06.22-.1.45-.13.68-.11,1.5-.12,3-.04,4.5.03,1.36.9,2.56,2.19,3.01,1.32.32,2.7-.19,3.49-1.29,1.57-1.59,2.53-3.69,2.72-5.92.07-1.16.81-2.16,1.9-2.56,1.2-.62,2.35-1.32,3.58-2.02.13,6.54,4.99,12.02,11.47,12.93,3.06.46,6.18-.19,8.8-1.84,3.9-2.37,6.31-6.58,6.39-11.14,1.61.92,3.09,1.79,4.59,2.63.44.21.72.65.72,1.14.13,2.83,1.38,5.49,3.49,7.38,1.03,1.12,2.78,1.2,3.9.17.39-.36.67-.83.81-1.35.35-1.22.54-2.49.54-3.76-.02-.81-.12-1.62-.29-2.41,1.57-.89,3.09-1.62,4.45-2.58,1.24-.7,1.91-2.1,1.68-3.5-.32-1.59-1.64-2.06-2.99-2.45-.17-.04-.34-.08-.51-.1-2.23-.31-4.51.03-6.55.98-.32.13-.8.3-1.04.16-2.37-1.3-4.7-2.67-7.07-4.03.1-.19.16-.33.24-.44,1.7-2.62,2.73-5.63,3-8.74.07-.29.25-.54.51-.7,1.95-1.16,3.91-2.3,5.9-3.41.3-.11.63-.12.94-.02,1.56.52,3.16.92,4.78,1.2,1.33.08,2.66-.14,3.9-.64,1.38-.43,2.16-1.9,1.73-3.28-.13-.41-.35-.78-.65-1.08-.87-.93-1.86-1.74-2.95-2.39-.83-.44-1.71-.8-2.61-1.08"/><path id="Tracé_56" class="cls-6" d="m230.98,90.1c.9.28,1.77.64,2.61,1.08,1.09.65,2.09,1.46,2.95,2.39,1.03,1.02,1.03,2.68,0,3.71-.3.3-.67.53-1.08.65-1.24.5-2.57.72-3.9.64-1.62-.28-3.22-.68-4.78-1.2-.31-.1-.64-.09-.94.02-1.98,1.11-3.94,2.25-5.9,3.41-.26.15-.44.4-.51.7-.26,3.12-1.29,6.12-3,8.74-.08.12-.13.25-.24.44,2.37,1.37,4.7,2.73,7.07,4.03.25.14.72-.03,1.04-.16,2.05-.95,4.32-1.29,6.55-.98.17.02.34.06.51.1,1.35.39,2.68.86,2.99,2.45.23,1.4-.44,2.8-1.68,3.5-1.36.96-2.87,1.69-4.45,2.58.17.79.27,1.6.29,2.41,0,1.27-.18,2.54-.54,3.76-.38,1.47-1.88,2.36-3.35,1.99-.52-.13-.99-.41-1.35-.81-2.1-1.89-3.36-4.55-3.49-7.38,0-.49-.28-.93-.72-1.14-1.5-.83-2.98-1.7-4.59-2.63-.08,4.56-2.49,8.77-6.39,11.14-2.62,1.65-5.74,2.3-8.8,1.84-6.48-.91-11.34-6.39-11.47-12.93-1.23.7-2.38,1.39-3.58,2.02-1.09.4-1.84,1.4-1.9,2.56-.19,2.23-1.15,4.33-2.72,5.92-.79,1.1-2.17,1.61-3.49,1.29-1.29-.45-2.16-1.65-2.19-3.01-.08-1.5-.07-3,.04-4.5.02-.23.06-.46.13-.68-1.25-.61-2.49-1.12-3.62-1.79-.72-.45-1.35-1.02-1.87-1.68-1.06-1.13-1-2.91.13-3.97.34-.32.75-.55,1.21-.67,2.57-.87,5.38-.68,7.8.52.69.35,1.51.3,2.15-.14,2.04-1.24,4.12-2.4,6.23-3.62-1.39-1.97-2.36-4.2-2.87-6.56-.16-.8-.21-1.62-.4-2.4-.09-.37-.3-.7-.61-.92-1.94-1.17-3.91-2.31-5.9-3.4-.35-.12-.74-.1-1.07.06-2.25,1.08-4.79,1.39-7.24.89-1.31-.12-2.43-.99-2.87-2.24-.35-1.4.26-2.85,1.5-3.58,1.4-1,2.96-1.79,4.45-2.66l.2.19c-.09-.48-.18-.95-.26-1.43-.33-1.64-.2-3.33.36-4.9.37-1.51,1.9-2.43,3.41-2.06.51.13.97.39,1.34.77,1.75,1.53,2.92,3.61,3.31,5.9.07.19.11.39.11.59-.22,1.53.8,2.13,1.94,2.69.88.44,1.72.97,2.61,1.49,4.03-9.38,14.9-13.71,24.28-9.68,4.33,1.86,7.79,5.31,9.66,9.64,1.36-.78,2.71-1.52,4.02-2.34.26-.24.42-.57.44-.92.18-2.76,1.41-5.35,3.43-7.24,1.05-1.18,2.87-1.29,4.05-.23.47.42.79.98.91,1.6.49,1.54.58,3.17.27,4.75-.07.46-.16.91-.25,1.37m-37.77,16.73c3.66-.04,6.59-3.03,6.56-6.69-.04-3.66-3.03-6.59-6.69-6.56s-6.59,3.03-6.56,6.69c0,0,0,.01,0,.02.05,3.65,3.04,6.58,6.69,6.54m15.94,0c3.66-.01,6.61-2.99,6.6-6.65-.01-3.66-2.99-6.61-6.65-6.6-3.66.01-6.61,2.99-6.6,6.65,0,0,0,.01,0,.02,0,3.62,2.92,6.57,6.55,6.58.03,0,.07,0,.1,0m-12.21,5.82h8.46l-4.24-6.81-4.22,6.81"/><path id="Tracé_57" class="cls-8" d="m193.21,106.83c-3.66,0-6.63-2.95-6.64-6.61,0-3.66,2.95-6.63,6.61-6.64,3.66,0,6.63,2.95,6.64,6.61v.02c0,3.65-2.95,6.62-6.61,6.63"/><path id="Tracé_58" class="cls-8" d="m209.14,106.82c-3.66-.01-6.61-2.99-6.6-6.64.01-3.66,2.99-6.61,6.64-6.6,3.63.01,6.58,2.95,6.6,6.59.03,3.65-2.91,6.63-6.56,6.66-.03,0-.06,0-.09,0"/><path id="Tracé_59" class="cls-8" d="m196.93,112.64l4.22-6.81,4.24,6.81h-8.46Z"/></g></g></g></g></g></svg>