<?xml version="1.0" encoding="UTF-8"?><svg xmlns="http://www.w3.org/2000/svg" viewBox="0 0 400 400"><defs><style>.cls-1{fill:#ffd69f;}.cls-2{fill:#b8d542;}.cls-2,.cls-3{stroke:#4b4b4b;stroke-linecap:round;stroke-linejoin:round;stroke-width:7px;}.cls-3{fill:none;}</style></defs><g id="back"><rect class="cls-1" y="0" width="400" height="400"/></g><g id="Layer_1"><g id="Groupe_53"><path id="Path" class="cls-2" d="m183.29,319.18c0-1.93-1.35-5.26-4.06-9.97-4.06-7.06-28.25-3.53-38.56-7.82-6.87-2.86-11.43-8.73-13.68-17.6-15.81,0-32.96-7.55-42.35-17.98-9.39-10.43-18.04-40.89-3.22-58.09,14.81-17.2,16.79-8.38,32.27-31.22-6.12-23.29-8.64-41.25-2.33-53.28,6.31-12.02,26.88-26.77,44.59-15.75,3.66-31.09,45.16-34.82,58.56-12.09,16.93-16.79,37.75-8.7,47.63,0,9.88,8.7,7.47,19.95,19.71,40.3,21.57-5.69,35.68,2.87,41.15,14.76s2.99,28.53-13.18,46.81c13.61,20.52,18.54,26.05,16.18,44.38s-13.5,31.19-39.32,36.74c0,6.73-2.29,13.54-6.87,20.44-6.87,10.34-28.37,6.06-37.65,6.88-6.19.55-11.58,5.05-16.19,13.5h-42.67Z"/><path id="Path_3" class="cls-2" d="m193.33,319.19c-4.39-19.75-4.53-28.46-21.11-33.4-16.58-4.94-31.17-16.5-31.83-39.37-25.28,0-49.67-21.05-46.77-56.69,1.93-23.76,15.22-35.63,39.87-35.63,6.55-17.02,17.22-26.6,32-28.75,14.78-2.15,26.47,1.2,35.06,10.04"/><path id="Path_2" class="cls-2" d="m222.76,318.81c0-21.42-10.18-42.45,6.25-43.36s38.76-8.83,46.81-39.6c21.76-6.49,39.83-24.54,39.83-42.19s-19.22-37.91-19.22-37.91c0,0-5.42-38.3-38.67-43.88-33.26-5.58-53.13,12.33-58.06,25.32-4.93,12.98-4.92,34.27-4.92,34.27,0,0-39.91,7.65-38.84,42.06,1.07,34.41,33.91,42.46,38.84,54.92,4.93,12.46,10.35,50.37,10.35,50.37h17.64Z"/><path id="Path_4" class="cls-3" d="m214.44,262.63c.12-24.05,7.77-47.46,21.88-66.93,11.85-16.38,11.85-37.25,11.85-37.25"/><path id="Path_5" class="cls-3" d="m201.54,197.15c7.41,4.25,17.14,20.64,16.86,37.7"/><path id="Path_6" class="cls-3" d="m236.26,196.16c10.26-11.72,30.04-19.84,41.67-19.84"/></g></g></svg>