<?xml version="1.0" encoding="UTF-8"?>
<svg width="76px" height="77px" viewBox="0 0 76 77" version="1.1" xmlns="http://www.w3.org/2000/svg" xmlns:xlink="http://www.w3.org/1999/xlink">
    <title>first_connection</title>
    <g id="Page-1" stroke="none" stroke-width="1" fill="none" fill-rule="evenodd">
        <g id="first_connection" transform="translate(2.000000, 2.000000)" fill="#000000" fill-rule="nonzero" stroke="#000000" stroke-width="4">
            <g id="Groupe_7027">
                <path d="M0,28.3 C0,32.1 0.7,35.8 2.2,39.2 C3.6,42.6 5.7,45.6 8.3,48.2 C10.9,50.8 13.9,52.9 17.3,54.3 C20.8,55.8 24.5,56.5 28.2,56.5 C31.5,56.5 34.8,55.9 37.9,54.8 C40.9,53.7 43.7,52.1 46.2,50 L68,71.9 C68.2,72.1 68.4,72.3 68.7,72.4 C69,72.5 69.3,72.6 69.6,72.6 C70.2,72.6 70.9,72.4 71.3,71.9 C71.7,71.4 71.9,70.9 71.9,70.3 C71.9,70 71.8,69.7 71.7,69.5 C71.6,69.2 71.4,69 71.2,68.8 L49.4,46.9 C51.6,44.4 53.4,41.5 54.6,38.4 C55.8,35.2 56.5,31.8 56.5,28.3 C56.5,24.6 55.8,20.8 54.3,17.4 C52.9,14 50.8,11 48.2,8.4 C45.6,5.8 42.6,3.7 39.2,2.3 C35.7,0.8 32,0.1 28.3,0.1 C24.5,0.1 20.8,0.8 17.4,2.3 C14,3.7 11,5.8 8.4,8.4 C5.8,11 3.7,14 2.3,17.4 C0.7,20.8 0,24.5 0,28.3 M2.2,28.3 C2.2,24.8 2.9,21.4 4.2,18.3 C6.9,12 11.9,7 18.2,4.3 C21.4,2.9 24.8,2.2 28.3,2.3 C31.8,2.3 35.2,3 38.3,4.3 C44.5,7 49.5,12 52.2,18.2 C53.6,21.4 54.3,24.8 54.2,28.2 C54.2,31.7 53.5,35.1 52.2,38.3 C49.5,44.5 44.5,49.5 38.3,52.2 C35.1,53.6 31.7,54.3 28.3,54.2 C24.8,54.2 21.4,53.5 18.2,52.2 C12,49.5 7,44.5 4.3,38.3 C2.9,35.2 2.2,31.7 2.2,28.3" id="Tracé_4224"></path>
            </g>
        </g>
    </g>
</svg>