<?xml version="1.0" encoding="UTF-8"?>
<svg width="230px" height="214px" viewBox="0 0 230 214" version="1.1" xmlns="http://www.w3.org/2000/svg" xmlns:xlink="http://www.w3.org/1999/xlink">
    <title>banana</title>
    <g id="Page-1" stroke="none" stroke-width="1" fill="none" fill-rule="evenodd">
        <g id="banana" transform="translate(3.000000, 4.000000)" stroke="#4B4B4B" stroke-width="7">
            <g id="Group">
                <g id="banane" stroke-linecap="round" stroke-linejoin="round">
                    <path d="M196.98,0.24 C194.77,-0.06 192.73,1.48 192.43,3.69 C192.42,3.8 192.4,3.9 192.4,4.01 L190.77,32.91 C190.77,32.91 183.15,36.6 180.65,41.72 C178.16,46.84 168.48,110.85 114.65,133.04 C60.82,155.23 17.11,117.93 3.98,127.8 C-9.15,137.67 16.16,205.34 100.72,205.8 C185.27,206.26 214.87,137.3 221,108.64 C227.13,79.98 220.71,36.61 207.73,34.59 L212.05,6.45 C212.39,4.24 210.88,2.18 208.67,1.84 C208.65,1.84 208.63,1.84 208.61,1.84 L197,0.24 L196.98,0.24 Z" id="Path_2" fill="#F7E613" fill-rule="nonzero"></path>
                    <path d="M206.39,80.62 C199.93,118.44 178.68,148.33 152.14,166.38 C125.6,184.43 75.25,192.35 32.91,163.77" id="Path_3"></path>
                </g>
                <path d="M25.48,132.46 C12.52,128.38 4.03,143.21 9.8,156.25 C15.58,169.29 0.13,144.15 0.69,137.48 C1.25,130.81 3.79,125.53 7.34,125.53 C10.89,125.53 38.43,136.54 25.48,132.46 L25.48,132.46 Z" id="Path_111" fill="#4B4B4B" fill-rule="nonzero"></path>
            </g>
        </g>
    </g>
</svg>