<?xml version="1.0" encoding="UTF-8"?><svg id="Layer_1" xmlns="http://www.w3.org/2000/svg" viewBox="0 0 400 400"><defs><style>.cls-1{fill:#f8e610;}.cls-2{fill:#67c8f2;}.cls-3{fill:#ef4036;}.cls-3,.cls-4{stroke:#ef4034;stroke-linecap:round;stroke-linejoin:round;stroke-width:7.73px;}.cls-4{fill:none;}</style></defs><g id="Groupe_7664"><g id="Groupe_2835"><g id="Group_55"><g id="sun"><g id="Group"><path id="Line" class="cls-1" d="m293.47,91.49v90.35c.03,3.64,3.01,6.57,6.65,6.54,3.64.03,6.62-2.9,6.65-6.54v-90.35c-.03-3.64-3.01-6.57-6.65-6.54-3.64-.03-6.62,2.9-6.65,6.54Z"/><path id="Line-2" class="cls-1" d="m344.92,130.75h-90.85c-3.64-.03-6.62,2.9-6.65,6.54.03,3.64,3.01,6.57,6.65,6.54h90.85c3.64.03,6.62-2.9,6.65-6.54-.03-3.64-3.01-6.57-6.65-6.54Z"/></g><g id="Group-2"><path id="Line-3" class="cls-1" d="m263.27,109.03l63.89,63.89c2.6,2.55,6.77,2.52,9.33-.08,2.6-2.55,2.63-6.73.08-9.33l-63.89-63.89c-2.6-2.55-6.77-2.52-9.33.08-2.6,2.55-2.63,6.73-.08,9.33Z"/><path id="Line-4" class="cls-1" d="m327.41,100.4l-64.24,64.24c-2.6,2.55-2.63,6.73-.08,9.33,2.6,2.55,6.77,2.52,9.33-.08l64.24-64.24c2.6-2.55,2.63-6.73.08-9.33-2.6-2.55-6.77-2.52-9.33.08Z"/></g><ellipse id="Oval_22_Copy_2" class="cls-1" cx="299.54" cy="137.8" rx="32.16" ry="31.62"/></g></g></g><g id="Group_56"><path id="Oval_12" class="cls-3" d="m125.18,155.55c0-21.19-17.18-38.38-38.38-38.38s-38.38,17.18-38.38,38.38"/><path id="Line_7" class="cls-4" d="m48.43,155.55h95.94"/></g><path id="Path_97_Copy_2" class="cls-2" d="m190.92,72.65s-79.16,95.48,1.4,95.48-1.4-95.48-1.4-95.48Z"/><rect id="Rectangle_1431" class="cls-2" x="147.64" y="242.33" width="90.18" height="85.02" rx="18.04" ry="18.04"/></g></svg>