<?xml version="1.0" encoding="UTF-8"?><svg id="Layer_1" xmlns="http://www.w3.org/2000/svg" viewBox="0 0 400 400"><defs><style>.cls-1{fill:#fff;stroke:#3a3a3a;stroke-linecap:round;stroke-linejoin:round;stroke-width:6.27px;}.cls-2{fill:#4974ba;stroke:#4974ba;}.cls-2,.cls-3,.cls-4,.cls-5{stroke-miterlimit:10;stroke-width:3px;}.cls-3{fill:#6abf67;stroke:#6abf67;}.cls-4{fill:#ef4036;stroke:#ef4036;}.cls-5{fill:#f7e501;stroke:#f7e501;}</style></defs><g id="Groupe_4987"><g id="Ellipse_1074"><circle class="cls-1" cx="200" cy="106.4" r="44.09"/><circle class="cls-1" cx="200" cy="106.4" r="43.18"/></g></g><g id="Groupe_4988"><g id="Ellipse_1074-2"><circle class="cls-1" cx="200" cy="293.6" r="44.09"/><circle class="cls-1" cx="200" cy="293.6" r="43.18"/></g></g><g id="Groupe_7352"><g id="Ellipse_1074-3"><circle class="cls-1" cx="293.6" cy="200" r="44.09"/><circle class="cls-1" cx="293.6" cy="200" r="43.18"/></g></g><g id="Groupe_7353"><g id="Ellipse_1074-4"><circle class="cls-1" cx="106.4" cy="200" r="44.09"/><circle class="cls-1" cx="106.4" cy="200" r="43.18"/></g></g><g id="Groupe_7464-2"><path id="Tracé_4336-2" class="cls-5" d="m121.81,203.24c.02,2.07-.39,4.11-1.19,6.02-1.57,3.7-4.52,6.65-8.22,8.23-1.89.81-3.93,1.22-5.99,1.2-2.06.02-4.1-.39-5.99-1.2-1.83-.78-3.5-1.91-4.91-3.32-1.41-1.41-2.53-3.08-3.31-4.91-.8-1.9-1.21-3.95-1.19-6.02-.01-.44.15-.86.46-1.17.32-.31.75-.48,1.19-.46.42-.02.82.15,1.1.46.28.32.43.74.42,1.17-.01,1.64.31,3.27.95,4.78,1.25,2.94,3.59,5.28,6.53,6.52,1.5.64,3.12.96,4.76.95,1.63.01,3.25-.31,4.76-.95,2.94-1.25,5.28-3.59,6.52-6.52,1.27-3.05,1.27-6.48,0-9.54-1.25-2.94-3.59-5.28-6.52-6.52-1.5-.64-3.12-.96-4.76-.95-.57,0-1.12.02-1.64.06-.49.03-.98.1-1.47.21l4.66,4.59c.61.62.62,1.62.01,2.24-.29.3-.7.46-1.11.45-.42.03-.83-.14-1.13-.44l-7-6.98c-.29-.31-.45-.72-.44-1.15,0-.42.15-.82.44-1.13l7-7.06c.29-.33.71-.51,1.15-.49.42,0,.81.17,1.09.47.3.31.46.73.45,1.16,0,.2-.04.41-.11.6-.08.2-.19.37-.33.53l-4.04,3.97c.4-.07.8-.13,1.21-.17.41-.04.83-.06,1.26-.06,2.06-.02,4.1.39,5.99,1.19,3.7,1.57,6.65,4.52,8.22,8.23.8,1.9,1.21,3.94,1.19,5.99"/></g><g id="Groupe_7466"><path id="Tracé_4337" class="cls-2" d="m200,122.84c.48.01.94-.16,1.28-.5.34-.33.52-.79.51-1.27v-22.01l-.22-5.43-1.15.4,6.71,7.44,3.16,3.07c.16.15.35.27.55.35.22.09.45.13.68.13.47.01.92-.17,1.24-.51.32-.33.5-.78.49-1.24,0-.49-.21-.96-.55-1.3l-11.37-11.39c-.61-.73-1.7-.83-2.44-.21-.08.06-.15.14-.21.21l-11.37,11.39c-.35.35-.54.81-.55,1.3,0,.46.16.91.49,1.24.32.34.77.52,1.24.51.23,0,.47-.04.68-.13.21-.08.39-.2.55-.35l3.16-3.07,6.69-7.44-1.13-.4-.22,5.43v22.02c-.02.48.17.94.51,1.27.34.33.8.51,1.28.5"/></g><g id="Groupe_7464-2-2"><path id="Tracé_4336-2-2" class="cls-4" d="m278.19,203.24c-.02,2.07.39,4.11,1.19,6.02,1.57,3.7,4.52,6.65,8.22,8.23,1.89.81,3.93,1.22,5.99,1.2,2.06.02,4.1-.39,5.99-1.2,1.83-.78,3.5-1.91,4.91-3.32,1.41-1.41,2.53-3.08,3.31-4.91.8-1.9,1.21-3.95,1.19-6.02.01-.44-.15-.86-.46-1.17-.32-.31-.75-.48-1.19-.46-.42-.02-.82.15-1.1.46-.28.32-.43.74-.42,1.17.01,1.64-.31,3.27-.95,4.78-1.25,2.94-3.59,5.28-6.53,6.52-1.5.64-3.12.96-4.76.95-1.63.01-3.25-.31-4.76-.95-2.94-1.25-5.28-3.59-6.52-6.52-1.27-3.05-1.27-6.48,0-9.54,1.25-2.94,3.59-5.28,6.52-6.52,1.5-.64,3.12-.96,4.76-.95.57,0,1.12.02,1.64.06.49.03.98.1,1.47.21l-4.66,4.59c-.61.62-.62,1.62-.01,2.24.29.3.7.46,1.11.45.42.03.83-.14,1.13-.44l7-6.98c.29-.31.45-.72.44-1.15,0-.42-.15-.82-.44-1.13l-7-7.06c-.29-.33-.71-.51-1.15-.49-.42,0-.81.17-1.09.47-.3.31-.46.73-.45,1.16,0,.2.04.41.11.6.08.2.19.37.33.53l4.04,3.97c-.4-.07-.8-.13-1.21-.17-.41-.04-.83-.06-1.26-.06-2.06-.02-4.1.39-5.99,1.19-3.7,1.57-6.65,4.52-8.22,8.23-.8,1.9-1.21,3.94-1.19,5.99"/></g><g id="Groupe_7466-2"><path id="Tracé_4337-2" class="cls-3" d="m200,277.16c.48-.01.94.16,1.28.5.34.33.52.79.51,1.27v22.01l-.22,5.43-1.15-.4,6.71-7.44,3.16-3.07c.16-.15.35-.27.55-.35.22-.09.45-.13.68-.13.47-.01.92.17,1.24.51.32.33.5.78.49,1.24,0,.49-.21.96-.55,1.3l-11.37,11.39c-.61.73-1.7.83-2.44.21-.08-.06-.15-.14-.21-.21l-11.37-11.39c-.35-.35-.54-.81-.55-1.3,0-.46.16-.91.49-1.24.32-.34.77-.52,1.24-.51.23,0,.47.04.68.13.21.08.39.2.55.35l3.16,3.07,6.69,7.44-1.13.4-.22-5.43v-22.02c-.02-.48.17-.94.51-1.27.34-.33.8-.51,1.28-.5"/></g></svg>