<?xml version="1.0" encoding="UTF-8"?><svg xmlns="http://www.w3.org/2000/svg" viewBox="0 0 400 400"><defs><style>.cls-1{fill:#ffd69f;}.cls-2{fill:#f7bf33;}.cls-2,.cls-3,.cls-4{stroke:#4b4b4b;stroke-linecap:round;stroke-linejoin:round;stroke-width:7px;}.cls-3{fill:#a7c850;}.cls-4{fill:none;}</style></defs><g id="back"><rect class="cls-1" x="0" y="0" width="400" height="400"/></g><g id="Layer_1"><g id="Groupe_2520"><path id="Tracé_2642" class="cls-2" d="m193.7,74.23c24.15,0,43.73,39.61,43.73,88.47s-19.58,88.47-43.73,88.47-43.73-39.61-43.73-88.47c0-27.02,5.99-51.21,15.58-67.71,7.47-12.85,17.35-20.76,28.15-20.76Z"/><path id="Tracé_2645" class="cls-4" d="m152.16,170.7c5.87-5.54,14.33-7.36,21.97-4.73,3.32,1.2,6.52,3.47,7.69,6.87-.06-2.45,2.13-4.3,4.25-5.43,3.6-2.08,7.84-2.77,11.92-1.94,4.15.98,7.34,4.31,8.12,8.5.35-2.54,1.86-4.78,4.07-6.06,2.18-1.23,4.6-1.97,7.09-2.19,3.24-.57,6.58-.3,9.69.77,4.5,1.8,7.64,6.1,9.5,10.67"/><path id="Tracé_2683" class="cls-4" d="m157.85,204.56c5.87-5.54,14.33-7.36,21.97-4.73,3.32,1.2,6.52,3.47,7.69,6.87-.06-2.45,2.13-4.3,4.25-5.43,3.6-2.08,7.84-2.77,11.92-1.94,4.15.98,7.34,4.31,8.12,8.5.35-2.54,1.86-4.78,4.07-6.06,2.18-1.23,4.6-1.97,7.09-2.19,3.24-.57,6.58-.3,9.69.77,4.5,1.8,7.64,6.1,9.5,10.67"/><path id="Tracé_2646" class="cls-4" d="m154.36,132.93c5.5-5.51,13.68-7.35,21.01-4.73,3.36,1.07,6.06,3.59,7.36,6.87-.06-2.45,2.04-4.3,4.07-5.43,3.41-2.08,7.49-2.77,11.4-1.94,4.04,1.05,7.08,4.38,7.76,8.5.32-2.51,1.75-4.73,3.9-6.06,2.07-1.22,4.39-1.97,6.78-2.19,3.1-.57,6.3-.3,9.27.77,4.3,1.8,7.31,6.1,9.08,10.67"/><path id="Tracé_2647" class="cls-4" d="m162.67,101.67c4.45-5.51,11.3-7.41,17.06-4.73,2.91,1.29,5.1,3.8,5.97,6.87.12-2.25,1.36-4.29,3.3-5.43,2.84-1.93,6.15-2.94,9.25-1.94,3.55,1.4,5.99,4.7,6.3,8.5.18-2.37,1.33-4.56,3.16-6.06,1.61-1.2,3.51-1.95,5.5-2.19,2.53-.57,5.17-.3,7.53.77,3.49,1.8,5.93,6.1,7.37,10.67"/><g id="Groupe_2521"><path id="Tracé_2649" class="cls-3" d="m99.95,162.7c36.59-.26,72.74,19.01,92.93,49.53,7.14,10.79,12.32,22.74,18.48,34.12,5.71,10.56,12.31,20.79,15.91,32.24,3.59,11.46,3.77,24.73-2.93,34.69-8.1,12.07-26.05,16.17-38.59,8.82-11.8-6.91-17.1-20.98-20.73-34.16-8.35-30.38-12.86-63.11-31.76-88.31-8.95-11.94-21.73-27.53-33.31-36.94"/><path id="Tracé_2682" class="cls-3" d="m300.05,162.7c-36.59-.26-72.74,19.01-92.93,49.53-7.14,10.79-12.32,22.74-18.48,34.13-5.71,10.56-12.31,20.79-15.91,32.24-3.59,11.46-3.77,24.73,2.93,34.69,8.1,12.07,26.05,16.17,38.59,8.82,11.8-6.91,17.1-20.98,20.73-34.16,8.35-30.38,12.86-63.11,31.76-88.31,8.95-11.94,21.73-27.53,33.31-36.94"/></g></g></g></svg>