<?xml version="1.0" encoding="utf-8"?>
<!-- Generator: Adobe Illustrator 27.0.0, SVG Export Plug-In . SVG Version: 6.00 Build 0)  -->
<svg version="1.1" id="Groupe_6379" xmlns="http://www.w3.org/2000/svg" xmlns:xlink="http://www.w3.org/1999/xlink" x="0px"
	 y="0px" viewBox="0 0 100 100" style="enable-background:new 0 0 100 100;" xml:space="preserve">
<style type="text/css">
	.st0{clip-path:url(#SVGID_00000088114517653536266870000006087071330383050412_);}
	.st1{fill:none;stroke:#574192;stroke-width:3.44;stroke-miterlimit:10;}
	.st2{fill:none;stroke:#E82827;stroke-width:3.44;stroke-miterlimit:10;}
	.st3{fill:none;stroke:#FFDF00;stroke-width:3.44;stroke-miterlimit:10;}
	.st4{fill:none;stroke:#61BCA5;stroke-width:3.44;stroke-miterlimit:10;}
	.st5{fill:#050605;}
</style>
<g id="Groupe_6426" transform="translate(0 0)">
	<g>
		<defs>
			<rect id="SVGID_1_" x="5.4" y="5.3" width="89.2" height="89.4"/>
		</defs>
		<clipPath id="SVGID_00000055700065146545294800000008817039774444259261_">
			<use xlink:href="#SVGID_1_"  style="overflow:visible;"/>
		</clipPath>
		<g id="Groupe_6425" style="clip-path:url(#SVGID_00000055700065146545294800000008817039774444259261_);">
			<path id="Tracé_3724" class="st1" d="M50,93c23.7,0,43-19.2,43-42.9c0-23.7-19.2-43-42.9-43c-23.7,0-43,19.2-43,42.9
				c0,0,0,0,0,0.1v0C7.1,73.7,26.2,92.9,50,93L50,93z"/>
			<path id="Tracé_3725" class="st2" d="M50.1,65.9c8.7,0,15.8-7.1,15.9-15.8s-7.1-15.8-15.8-15.9s-15.8,7.1-15.9,15.8c0,0,0,0,0,0
				C34.3,58.9,41.4,65.9,50.1,65.9z"/>
			<path id="Tracé_3726" class="st3" d="M50.1,75.4c13.9,0,25.2-11.3,25.2-25.2C75.3,36.2,64,25,50.1,25S24.9,36.3,24.9,50.2
				c0,10.1,6,19.2,15.3,23.2C43.3,74.7,46.7,75.4,50.1,75.4z"/>
			<path id="Tracé_3727" class="st4" d="M50.2,84.5c18.9,0,34.3-15.3,34.4-34.2c0-18.9-15.3-34.3-34.2-34.4
				C31.4,15.9,16,31.2,16,50.2c0,0,0,0,0,0.1v0C16,69.2,31.3,84.5,50.2,84.5C50.2,84.5,50.2,84.5,50.2,84.5z"/>
			<path id="Tracé_3728" class="st5" d="M49.9,41.6c4.6,0,8.3,3.7,8.3,8.3c0,4.6-3.7,8.3-8.3,8.3c-4.6,0-8.3-3.7-8.3-8.3
				c0,0,0,0,0,0C41.6,45.3,45.3,41.6,49.9,41.6L49.9,41.6"/>
		</g>
	</g>
</g>
</svg>
