<?xml version="1.0" encoding="UTF-8"?><svg id="Layer_1" xmlns="http://www.w3.org/2000/svg" viewBox="0 0 400 400"><defs><style>.cls-1{fill:none;}.cls-1,.cls-2{isolation:isolate;}.cls-3{fill:#f8e610;}.cls-2{fill:#08579b;font-family:SFCompactRounded-Regular, 'SF Compact Rounded';font-size:85.68px;}</style></defs><g id="Groupe_7505"><g id="Groupe_2524"><g id="Group_55-10"><g id="sun-10"><g id="Group-23"><path id="Line-45" class="cls-3" d="m100.73,89.56v45.61c.02,1.84,1.52,3.32,3.36,3.3h0c1.84.02,3.34-1.46,3.36-3.3,0,0,0,0,0,0v-45.61c-.02-1.84-1.52-3.32-3.36-3.3,0,0,0,0,0,0-1.84-.02-3.34,1.46-3.36,3.3,0,0,0,0,0,0Z"/><path id="Line-46" class="cls-3" d="m126.7,109.38h-45.85c-1.84-.02-3.34,1.46-3.36,3.3,0,0,0,0,0,0,.02,1.84,1.52,3.32,3.36,3.3,0,0,0,0,0,0h45.85c1.84.02,3.34-1.46,3.36-3.3h0c-.02-1.84-1.52-3.32-3.36-3.31,0,0,0,0,0,0Z"/></g><g id="Group-24"><path id="Line-47" class="cls-3" d="m85.49,98.42l32.25,32.25c1.31,1.29,3.42,1.27,4.71-.04h0c1.31-1.29,1.33-3.4.04-4.71,0,0,0,0,0,0l-32.25-32.25c-1.31-1.29-3.42-1.27-4.71.04,0,0,0,0,0,0-1.31,1.29-1.33,3.4-.04,4.71,0,0,0,0,0,0Z"/><path id="Line-48" class="cls-3" d="m117.86,94.06l-32.42,32.42c-1.31,1.29-1.33,3.4-.04,4.71,0,0,0,0,0,0,1.31,1.29,3.42,1.27,4.71-.04,0,0,0,0,0,0l32.42-32.42c1.31-1.29,1.33-3.4.04-4.71,0,0,0,0,0,0-1.31-1.29-3.42-1.27-4.71.04,0,0,0,0,0,0Z"/></g><ellipse id="Oval_22_Copy_2-12" class="cls-3" cx="103.79" cy="112.94" rx="16.23" ry="15.96"/></g></g></g><g id="Groupe_2547"><g id="Group_55-11"><g id="sun-11"><g id="Group-25"><path id="Line-49" class="cls-3" d="m256.27,89.56v45.61c.02,1.84,1.52,3.32,3.36,3.3h0c1.84.02,3.34-1.46,3.36-3.3,0,0,0,0,0,0v-45.61c-.02-1.84-1.52-3.32-3.36-3.3,0,0,0,0,0,0-1.84-.02-3.34,1.46-3.36,3.3,0,0,0,0,0,0Z"/><path id="Line-50" class="cls-3" d="m282.24,109.38h-45.85c-1.84-.02-3.34,1.46-3.36,3.3,0,0,0,0,0,0,.02,1.84,1.52,3.32,3.36,3.3,0,0,0,0,0,0h45.85c1.84.02,3.34-1.46,3.36-3.3h0c-.02-1.84-1.52-3.32-3.36-3.31,0,0,0,0,0,0Z"/></g><g id="Group-26"><path id="Line-51" class="cls-3" d="m241.03,98.42l32.25,32.25c1.31,1.29,3.42,1.27,4.71-.04h0c1.31-1.29,1.33-3.4.04-4.71,0,0,0,0,0,0l-32.25-32.25c-1.31-1.29-3.42-1.27-4.71.04,0,0,0,0,0,0-1.31,1.29-1.33,3.4-.04,4.71,0,0,0,0,0,0Z"/><path id="Line-52" class="cls-3" d="m273.41,94.06l-32.42,32.42c-1.31,1.29-1.33,3.4-.04,4.71,0,0,0,0,0,0,1.31,1.29,3.42,1.27,4.71-.04,0,0,0,0,0,0l32.42-32.42c1.31-1.29,1.33-3.4.04-4.71,0,0,0,0,0,0-1.31-1.29-3.42-1.27-4.71.04,0,0,0,0,0,0Z"/></g><ellipse id="Oval_22_Copy_2-13" class="cls-3" cx="259.34" cy="112.94" rx="16.23" ry="15.96"/></g></g></g><g id="sun-12"><g id="Group-27"><path id="Line-53" class="cls-3" d="m256.27,204.24v45.61c.02,1.84,1.52,3.32,3.36,3.3h0c1.84.02,3.34-1.46,3.36-3.3,0,0,0,0,0,0v-45.61c-.02-1.84-1.52-3.32-3.36-3.3,0,0,0,0,0,0-1.84-.02-3.34,1.46-3.36,3.3,0,0,0,0,0,0Z"/><path id="Line-54" class="cls-3" d="m282.24,224.06h-45.85c-1.84-.02-3.34,1.46-3.36,3.3,0,0,0,0,0,0,.02,1.84,1.52,3.32,3.36,3.3,0,0,0,0,0,0h45.85c1.84.02,3.34-1.46,3.36-3.3h0c-.02-1.84-1.52-3.32-3.36-3.31,0,0,0,0,0,0Z"/></g><g id="Group-28"><path id="Line-55" class="cls-3" d="m241.03,213.09l32.25,32.25c1.31,1.29,3.42,1.27,4.71-.04h0c1.31-1.29,1.33-3.4.04-4.71,0,0,0,0,0,0l-32.25-32.25c-1.31-1.29-3.42-1.27-4.71.04,0,0,0,0,0,0-1.31,1.29-1.33,3.4-.04,4.71,0,0,0,0,0,0Z"/><path id="Line-56" class="cls-3" d="m273.41,208.74l-32.42,32.42c-1.31,1.29-1.33,3.4-.04,4.71,0,0,0,0,0,0,1.31,1.29,3.42,1.27,4.71-.04,0,0,0,0,0,0l32.42-32.42c1.31-1.29,1.33-3.4.04-4.71,0,0,0,0,0,0-1.31-1.29-3.42-1.27-4.71.04,0,0,0,0,0,0Z"/></g><ellipse id="Oval_22_Copy_2-14" class="cls-3" cx="259.34" cy="227.62" rx="16.23" ry="15.96"/></g><g id="sun-13"><g id="Group-29"><path id="Line-57" class="cls-3" d="m256.27,278.06v45.61c.02,1.84,1.52,3.32,3.36,3.3h0c1.84.02,3.34-1.46,3.36-3.3,0,0,0,0,0,0v-45.61c-.02-1.84-1.52-3.32-3.36-3.3,0,0,0,0,0,0-1.84-.02-3.34,1.46-3.36,3.3,0,0,0,0,0,0Z"/><path id="Line-58" class="cls-3" d="m282.24,297.87h-45.85c-1.84-.02-3.34,1.46-3.36,3.3,0,0,0,0,0,0,.02,1.84,1.52,3.32,3.36,3.3,0,0,0,0,0,0h45.85c1.84.02,3.34-1.46,3.36-3.3h0c-.02-1.84-1.52-3.32-3.36-3.31,0,0,0,0,0,0Z"/></g><g id="Group-30"><path id="Line-59" class="cls-3" d="m241.03,286.91l32.25,32.25c1.31,1.29,3.42,1.27,4.71-.04h0c1.31-1.29,1.33-3.4.04-4.71,0,0,0,0,0,0l-32.25-32.25c-1.31-1.29-3.42-1.27-4.71.04,0,0,0,0,0,0-1.31,1.29-1.33,3.4-.04,4.71,0,0,0,0,0,0Z"/><path id="Line-60" class="cls-3" d="m273.41,282.56l-32.42,32.42c-1.31,1.29-1.33,3.4-.04,4.71,0,0,0,0,0,0,1.31,1.29,3.42,1.27,4.71-.04,0,0,0,0,0,0l32.42-32.42c1.31-1.29,1.33-3.4.04-4.71,0,0,0,0,0,0-1.31-1.29-3.42-1.27-4.71.04,0,0,0,0,0,0Z"/></g><ellipse id="Oval_22_Copy_2-15" class="cls-3" cx="259.34" cy="301.43" rx="16.23" ry="15.96"/></g><g id="Groupe_2548"><g id="Group_55-12"><g id="sun-14"><g id="Group-31"><path id="Line-61" class="cls-3" d="m330.09,89.56v45.61c.02,1.84,1.52,3.32,3.36,3.3h0c1.84.02,3.34-1.46,3.36-3.3,0,0,0,0,0,0v-45.61c-.02-1.84-1.52-3.32-3.36-3.3,0,0,0,0,0,0-1.84-.02-3.34,1.46-3.36,3.3,0,0,0,0,0,0Z"/><path id="Line-62" class="cls-3" d="m356.06,109.38h-45.85c-1.84-.02-3.34,1.46-3.36,3.3,0,0,0,0,0,0,.02,1.84,1.52,3.32,3.36,3.3,0,0,0,0,0,0h45.85c1.84.02,3.34-1.46,3.36-3.3h0c-.02-1.84-1.52-3.32-3.36-3.31,0,0,0,0,0,0Z"/></g><g id="Group-32"><path id="Line-63" class="cls-3" d="m314.85,98.42l32.25,32.25c1.31,1.29,3.42,1.27,4.71-.04h0c1.31-1.29,1.33-3.4.04-4.71,0,0,0,0,0,0l-32.25-32.25c-1.31-1.29-3.42-1.27-4.71.04,0,0,0,0,0,0-1.31,1.29-1.33,3.4-.04,4.71,0,0,0,0,0,0Z"/><path id="Line-64" class="cls-3" d="m347.22,94.06l-32.42,32.42c-1.31,1.29-1.33,3.4-.04,4.71,0,0,0,0,0,0,1.31,1.29,3.42,1.27,4.71-.04,0,0,0,0,0,0l32.42-32.42c1.31-1.29,1.33-3.4.04-4.71,0,0,0,0,0,0-1.31-1.29-3.42-1.27-4.71.04,0,0,0,0,0,0Z"/></g><ellipse id="Oval_22_Copy_2-16" class="cls-3" cx="333.15" cy="112.94" rx="16.23" ry="15.96"/></g></g></g><g id="sun-15"><g id="Group-33"><path id="Line-65" class="cls-3" d="m330.09,204.24v45.61c.02,1.84,1.52,3.32,3.36,3.3h0c1.84.02,3.34-1.46,3.36-3.3,0,0,0,0,0,0v-45.61c-.02-1.84-1.52-3.32-3.36-3.3,0,0,0,0,0,0-1.84-.02-3.34,1.46-3.36,3.3,0,0,0,0,0,0Z"/><path id="Line-66" class="cls-3" d="m356.06,224.06h-45.85c-1.84-.02-3.34,1.46-3.36,3.3,0,0,0,0,0,0,.02,1.84,1.52,3.32,3.36,3.3,0,0,0,0,0,0h45.85c1.84.02,3.34-1.46,3.36-3.3h0c-.02-1.84-1.52-3.32-3.36-3.31,0,0,0,0,0,0Z"/></g><g id="Group-34"><path id="Line-67" class="cls-3" d="m314.85,213.09l32.25,32.25c1.31,1.29,3.42,1.27,4.71-.04h0c1.31-1.29,1.33-3.4.04-4.71,0,0,0,0,0,0l-32.25-32.25c-1.31-1.29-3.42-1.27-4.71.04,0,0,0,0,0,0-1.31,1.29-1.33,3.4-.04,4.71,0,0,0,0,0,0Z"/><path id="Line-68" class="cls-3" d="m347.22,208.74l-32.42,32.42c-1.31,1.29-1.33,3.4-.04,4.71,0,0,0,0,0,0,1.31,1.29,3.42,1.27,4.71-.04,0,0,0,0,0,0l32.42-32.42c1.31-1.29,1.33-3.4.04-4.71,0,0,0,0,0,0-1.31-1.29-3.42-1.27-4.71.04,0,0,0,0,0,0Z"/></g><ellipse id="Oval_22_Copy_2-17" class="cls-3" cx="333.15" cy="227.62" rx="16.23" ry="15.96"/></g><g id="sun-16"><g id="Group-35"><path id="Line-69" class="cls-3" d="m330.09,278.06v45.61c.02,1.84,1.52,3.32,3.36,3.3h0c1.84.02,3.34-1.46,3.36-3.3,0,0,0,0,0,0v-45.61c-.02-1.84-1.52-3.32-3.36-3.3,0,0,0,0,0,0-1.84-.02-3.34,1.46-3.36,3.3,0,0,0,0,0,0Z"/><path id="Line-70" class="cls-3" d="m356.06,297.87h-45.85c-1.84-.02-3.34,1.46-3.36,3.3,0,0,0,0,0,0,.02,1.84,1.52,3.32,3.36,3.3,0,0,0,0,0,0h45.85c1.84.02,3.34-1.46,3.36-3.3h0c-.02-1.84-1.52-3.32-3.36-3.31,0,0,0,0,0,0Z"/></g><g id="Group-36"><path id="Line-71" class="cls-3" d="m314.85,286.91l32.25,32.25c1.31,1.29,3.42,1.27,4.71-.04h0c1.31-1.29,1.33-3.4.04-4.71,0,0,0,0,0,0l-32.25-32.25c-1.31-1.29-3.42-1.27-4.71.04,0,0,0,0,0,0-1.31,1.29-1.33,3.4-.04,4.71,0,0,0,0,0,0Z"/><path id="Line-72" class="cls-3" d="m347.22,282.56l-32.42,32.42c-1.31,1.29-1.33,3.4-.04,4.71,0,0,0,0,0,0,1.31,1.29,3.42,1.27,4.71-.04,0,0,0,0,0,0l32.42-32.42c1.31-1.29,1.33-3.4.04-4.71,0,0,0,0,0,0-1.31-1.29-3.42-1.27-4.71.04,0,0,0,0,0,0Z"/></g><ellipse id="Oval_22_Copy_2-18" class="cls-3" cx="333.15" cy="301.43" rx="16.23" ry="15.96"/></g><g id="sun-17"><g id="Group-37"><path id="Line-73" class="cls-3" d="m63.82,204.24v45.61c.02,1.84,1.52,3.32,3.36,3.3h0c1.84.02,3.34-1.46,3.36-3.3,0,0,0,0,0,0v-45.61c-.02-1.84-1.52-3.32-3.36-3.3,0,0,0,0,0,0-1.84-.02-3.34,1.46-3.36,3.3,0,0,0,0,0,0Z"/><path id="Line-74" class="cls-3" d="m89.79,224.06h-45.85c-1.84-.02-3.34,1.46-3.36,3.3,0,0,0,0,0,0,.02,1.84,1.52,3.32,3.36,3.3,0,0,0,0,0,0h45.85c1.84.02,3.34-1.46,3.36-3.3h0c-.02-1.84-1.52-3.32-3.36-3.31,0,0,0,0,0,0Z"/></g><g id="Group-38"><path id="Line-75" class="cls-3" d="m48.58,213.09l32.25,32.25c1.31,1.29,3.42,1.27,4.71-.04h0c1.31-1.29,1.33-3.4.04-4.71,0,0,0,0,0,0l-32.25-32.25c-1.31-1.29-3.42-1.27-4.71.04,0,0,0,0,0,0-1.31,1.29-1.33,3.4-.04,4.71,0,0,0,0,0,0Z"/><path id="Line-76" class="cls-3" d="m80.96,208.74l-32.42,32.42c-1.31,1.29-1.33,3.4-.04,4.71,0,0,0,0,0,0,1.31,1.29,3.42,1.27,4.71-.04,0,0,0,0,0,0l32.42-32.42c1.31-1.29,1.33-3.4.04-4.71,0,0,0,0,0,0-1.31-1.29-3.42-1.27-4.71.04,0,0,0,0,0,0Z"/></g><ellipse id="Oval_22_Copy_2-19" class="cls-3" cx="66.89" cy="227.62" rx="16.23" ry="15.96"/></g><g id="sun-18"><g id="Group-39"><path id="Line-77" class="cls-3" d="m137.64,204.24v45.61c.02,1.84,1.52,3.32,3.36,3.3h0c1.84.02,3.34-1.46,3.36-3.3,0,0,0,0,0,0v-45.61c-.02-1.84-1.52-3.32-3.36-3.3,0,0,0,0,0,0-1.84-.02-3.34,1.46-3.36,3.3,0,0,0,0,0,0Z"/><path id="Line-78" class="cls-3" d="m163.61,224.06h-45.85c-1.84-.02-3.34,1.46-3.36,3.3,0,0,0,0,0,0,.02,1.84,1.52,3.32,3.36,3.3,0,0,0,0,0,0h45.85c1.84.02,3.34-1.46,3.36-3.3h0c-.02-1.84-1.52-3.32-3.36-3.31,0,0,0,0,0,0Z"/></g><g id="Group-40"><path id="Line-79" class="cls-3" d="m122.4,213.09l32.25,32.25c1.31,1.29,3.42,1.27,4.71-.04h0c1.31-1.29,1.33-3.4.04-4.71,0,0,0,0,0,0l-32.25-32.25c-1.31-1.29-3.42-1.27-4.71.04,0,0,0,0,0,0-1.31,1.29-1.33,3.4-.04,4.71,0,0,0,0,0,0Z"/><path id="Line-80" class="cls-3" d="m154.77,208.74l-32.42,32.42c-1.31,1.29-1.33,3.4-.04,4.71,0,0,0,0,0,0,1.31,1.29,3.42,1.27,4.71-.04,0,0,0,0,0,0l32.42-32.42c1.31-1.29,1.33-3.4.04-4.71,0,0,0,0,0,0-1.31-1.29-3.42-1.27-4.71.04,0,0,0,0,0,0Z"/></g><ellipse id="Oval_22_Copy_2-20" class="cls-3" cx="140.7" cy="227.62" rx="16.23" ry="15.96"/></g><g id="sun-19"><g id="Group-41"><path id="Line-81" class="cls-3" d="m100.73,278.06v45.61c.02,1.84,1.52,3.32,3.36,3.3h0c1.84.02,3.34-1.46,3.36-3.3,0,0,0,0,0,0v-45.61c-.02-1.84-1.52-3.32-3.36-3.3,0,0,0,0,0,0-1.84-.02-3.34,1.46-3.36,3.3,0,0,0,0,0,0Z"/><path id="Line-82" class="cls-3" d="m126.7,297.87h-45.85c-1.84-.02-3.34,1.46-3.36,3.3,0,0,0,0,0,0,.02,1.84,1.52,3.32,3.36,3.3,0,0,0,0,0,0h45.85c1.84.02,3.34-1.46,3.36-3.3h0c-.02-1.84-1.52-3.32-3.36-3.31,0,0,0,0,0,0Z"/></g><g id="Group-42"><path id="Line-83" class="cls-3" d="m85.49,286.91l32.25,32.25c1.31,1.29,3.42,1.27,4.71-.04h0c1.31-1.29,1.33-3.4.04-4.71,0,0,0,0,0,0l-32.25-32.25c-1.31-1.29-3.42-1.27-4.71.04,0,0,0,0,0,0-1.31,1.29-1.33,3.4-.04,4.71,0,0,0,0,0,0Z"/><path id="Line-84" class="cls-3" d="m117.86,282.56l-32.42,32.42c-1.31,1.29-1.33,3.4-.04,4.71,0,0,0,0,0,0,1.31,1.29,3.42,1.27,4.71-.04,0,0,0,0,0,0l32.42-32.42c1.31-1.29,1.33-3.4.04-4.71,0,0,0,0,0,0-1.31-1.29-3.42-1.27-4.71.04,0,0,0,0,0,0Z"/></g><ellipse id="Oval_22_Copy_2-21" class="cls-3" cx="103.79" cy="301.43" rx="16.23" ry="15.96"/></g><g id="_1" class="cls-1"><text class="cls-2" transform="translate(84.61 135.28)"><tspan x="0" y="0">1</tspan></text></g><g id="_3" class="cls-1"><text class="cls-2" transform="translate(83.95 288.19)"><tspan x="0" y="0">3</tspan></text></g><g id="_2-2" class="cls-1"><text class="cls-2" transform="translate(273.76 135.28)"><tspan x="0" y="0">2</tspan></text></g><g id="_4" class="cls-1"><text class="cls-2" transform="translate(273.76 288.19)"><tspan x="0" y="0">4</tspan></text></g></g></svg>