<?xml version="1.0" encoding="UTF-8"?><svg xmlns="http://www.w3.org/2000/svg" viewBox="0 0 400 400"><defs><style>.cls-1{fill:#b5ca4b;}.cls-1,.cls-2,.cls-3,.cls-4,.cls-5,.cls-6,.cls-7,.cls-8,.cls-9,.cls-10,.cls-11,.cls-12,.cls-13,.cls-14,.cls-15,.cls-16,.cls-17,.cls-18,.cls-19{stroke:#4b4b4b;stroke-width:7px;}.cls-2,.cls-4,.cls-5,.cls-6,.cls-7,.cls-8,.cls-9,.cls-10,.cls-11,.cls-12,.cls-13,.cls-14,.cls-15,.cls-16,.cls-17,.cls-18,.cls-19{fill:#4b4b4b;}.cls-20{fill:#ffd69f;}.cls-21{fill:#fdefc6;}.cls-3{fill:#ab8755;stroke-linecap:round;stroke-linejoin:round;}.cls-4{stroke-miterlimit:4;}.cls-5{stroke-miterlimit:4;}.cls-6{stroke-miterlimit:4;}.cls-7{stroke-miterlimit:4;}.cls-8{stroke-miterlimit:4;}.cls-9{stroke-miterlimit:4;}.cls-10{stroke-miterlimit:4;}.cls-11{stroke-miterlimit:4;}.cls-12{stroke-miterlimit:4;}.cls-13{stroke-miterlimit:4;}.cls-14{stroke-miterlimit:4;}.cls-15{stroke-miterlimit:4;}.cls-16{stroke-miterlimit:4;}.cls-17{stroke-miterlimit:4;}.cls-18{stroke-miterlimit:4;}.cls-19{stroke-miterlimit:4;}</style></defs><g id="back"><rect class="cls-20" y="0" width="400" height="400"/></g><g id="Layer_1"><g><g id="Groupe_56-2"><path id="Combined_Shape-4" class="cls-3" d="m236.65,272.09c-29.99-10.16-51.98-43.49-51.98-83.05s22.15-73.13,52.31-83.16c2.47-5.93,9.78-10.23,18.41-10.23s15.63,4.12,18.25,9.86c30.74,9.55,53.46,43.33,53.46,83.53s-22.54,73.71-53.09,83.41c-2.25,6.19-9.73,10.74-18.61,10.74-9.05,0-16.65-4.73-18.74-11.11Z"/></g><g id="Ellipse_1100"><circle class="cls-1" cx="149.07" cy="228.19" r="76.15"/></g><g id="Groupe_3370"><path id="Tracé_3530-2" class="cls-2" d="m201.67,226.97c-.01,1.8-1.04,2.84-2.73,2.43-1.96-.51-3.89-1.14-5.78-1.89-.87-.33-.9-1.09-.04-1.44,1.89-.82,3.85-1.49,5.85-2.01,1.57-.37,2.71,1.02,2.69,2.9Z"/><path id="Tracé_3543-2" class="cls-13" d="m196.45,251.88c-.99,1.5-2.42,1.82-3.62.56-1.37-1.5-2.64-3.08-3.82-4.73-.55-.75-.16-1.4.75-1.23,2.04.35,4.04.85,6,1.5,1.52.55,1.72,2.33.68,3.9Z"/><path id="Tracé_3544-2" class="cls-12" d="m182.52,269.69c-1.58.86-2.99.47-3.45-1.21-.5-1.96-.89-3.96-1.15-5.97-.14-.92.51-1.32,1.24-.73,1.64,1.26,3.17,2.65,4.59,4.14,1.09,1.2.42,2.86-1.23,3.77Z"/><path id="Tracé_3545-2" class="cls-10" d="m160.21,279.91c-1.8-.04-2.82-1.09-2.39-2.77.55-1.95,1.21-3.87,1.99-5.74.34-.87,1.1-.88,1.44-.01.79,1.91,1.43,3.87,1.91,5.88.34,1.58-1.06,2.69-2.95,2.64Z"/><path id="Tracé_3546-2" class="cls-15" d="m98.21,214.95c-.63,1.68-.05,3.02,1.67,3.25,2.01.23,4.04.33,6.07.31.93,0,1.23-.69.55-1.33-1.48-1.44-3.06-2.77-4.74-3.97-1.34-.91-2.89-.02-3.56,1.75Z"/><path id="Tracé_3547-2" class="cls-19" d="m98.4,241.91c.51,1.73,1.78,2.44,3.29,1.59,1.74-1.03,3.42-2.17,5.03-3.41.74-.55.57-1.29-.36-1.39-2.05-.26-4.11-.37-6.17-.32-1.61.08-2.32,1.73-1.79,3.54Z"/><path id="Tracé_3548-2" class="cls-11" d="m111.8,263.48c1.04,1.47,2.48,1.73,3.63.43,1.31-1.55,2.53-3.17,3.64-4.86.52-.76.12-1.41-.8-1.2-2.02.42-4.01.99-5.94,1.71-1.5.6-1.63,2.39-.54,3.93Z"/><path id="Tracé_3549-2" class="cls-17" d="m135.23,278.03c1.76.39,3-.37,2.98-2.11-.06-2.03-.24-4.05-.54-6.05-.12-.92-.86-1.12-1.39-.36-1.22,1.66-2.32,3.41-3.27,5.24-.71,1.45.39,2.87,2.22,3.28Z"/><path id="Tracé_3550-2" class="cls-8" d="m194.21,200.16c-.94-1.54-2.35-1.9-3.59-.68-1.42,1.45-2.75,2.98-3.98,4.59-.58.73-.21,1.4.71,1.25,2.05-.27,4.07-.7,6.05-1.29,1.54-.5,1.8-2.27.81-3.88Z"/><path id="Tracé_3551-2" class="cls-6" d="m175.78,181.81c-1.62-.78-3.01-.31-3.38,1.38-.4,1.99-.68,4-.83,6.02-.09.92.58,1.29,1.28.66,1.57-1.34,3.03-2.81,4.37-4.37,1.02-1.25.27-2.88-1.43-3.69Z"/><path id="Tracé_3552-2" class="cls-7" d="m149.88,175.17c-1.8.08-2.8,1.14-2.34,2.81.58,1.94,1.28,3.85,2.09,5.71.36.86,1.12.86,1.44-.01.75-1.92,1.36-3.9,1.8-5.91.31-1.59-1.12-2.67-3-2.59Z"/><path id="Tracé_3553-2" class="cls-9" d="m107.93,195.16c-1.17,1.37-1.08,2.83.46,3.63,1.82.9,3.69,1.69,5.6,2.36.87.32,1.4-.23.97-1.06-.89-1.86-1.93-3.65-3.1-5.35-.95-1.31-2.71-1.01-3.94.42Z"/><path id="Tracé_3563" class="cls-4" d="m125.01,181.45c-1.47,1.04-1.73,2.48-.43,3.63,1.55,1.31,3.17,2.53,4.86,3.65.76.52,1.41.12,1.2-.79-.42-2.02-.99-4.01-1.71-5.94-.6-1.5-2.39-1.63-3.92-.54Z"/></g><circle class="cls-21" cx="148.53" cy="227.95" r="22.66"/><g id="Groupe_3369"><path id="Tracé_3530" class="cls-2" d="m175.74,228.11c-.02,2.12-1.22,3.34-3.21,2.86-2.31-.6-4.58-1.34-6.79-2.22-1.02-.38-1.06-1.28-.04-1.69,2.23-.96,4.53-1.75,6.88-2.36,1.85-.43,3.19,1.2,3.17,3.42Z"/><path id="Tracé_3543" class="cls-13" d="m172.27,242.84c-1.17,1.77-2.85,2.14-4.25.65-1.61-1.76-3.11-3.62-4.49-5.57-.65-.88-.19-1.65.89-1.45,2.39.41,4.75,1,7.06,1.77,1.79.65,2.02,2.74.8,4.59Z"/><path id="Tracé_3544" class="cls-12" d="m161.55,252.8c-1.86,1.01-3.52.55-4.06-1.42-.59-2.31-1.04-4.66-1.35-7.02-.16-1.08.6-1.55,1.46-.86,1.92,1.48,3.73,3.11,5.4,4.87,1.28,1.41.5,3.37-1.45,4.43Z"/><path id="Tracé_3545" class="cls-5" d="m147.33,255.77c-2.11-.16-3.25-1.45-2.63-3.4.76-2.26,1.66-4.47,2.69-6.62.45-1,1.35-.97,1.69.07.81,2.29,1.43,4.64,1.88,7.03.3,1.88-1.42,3.09-3.63,2.92Z"/><path id="Tracé_3546" class="cls-8" d="m123.28,213.99c-1.08,1.82-.67,3.49,1.28,4.11,2.29.67,4.61,1.2,6.97,1.59,1.08.2,1.57-.55.91-1.43-1.41-1.97-2.98-3.83-4.68-5.57-1.36-1.32-3.35-.62-4.48,1.3Z"/><path id="Tracé_3547" class="cls-18" d="m119.63,227.98c.09,2.11,1.34,3.29,3.31,2.75,2.28-.68,4.52-1.5,6.71-2.46,1.01-.42,1.02-1.32-.02-1.69-2.26-.88-4.58-1.59-6.95-2.12-1.86-.37-3.14,1.31-3.05,3.52Z"/><path id="Tracé_3548" class="cls-16" d="m123.49,241.97c1.07,1.82,2.73,2.28,4.21.88,1.7-1.68,3.29-3.45,4.77-5.32.69-.84.28-1.64-.81-1.49-2.41.28-4.8.75-7.14,1.39-1.82.55-2.16,2.63-1.04,4.54Z"/><path id="Tracé_3549" class="cls-14" d="m133.79,252.31c1.89.95,3.53.43,4.01-1.56.51-2.33.88-4.69,1.1-7.06.12-1.08-.66-1.53-1.49-.81-1.87,1.55-3.62,3.24-5.23,5.06-1.23,1.45-.38,3.38,1.61,4.37Z"/><path id="Tracé_3550" class="cls-8" d="m171.84,213.75c-1.1-1.81-2.77-2.23-4.22-.8-1.67,1.7-3.23,3.51-4.68,5.4-.68.86-.25,1.64.83,1.47,2.41-.32,4.78-.83,7.11-1.52,1.81-.58,2.11-2.67.96-4.56Z"/><path id="Tracé_3551" class="cls-6" d="m160.63,202.63c-1.91-.91-3.54-.36-3.98,1.63-.47,2.34-.8,4.7-.98,7.08-.1,1.09.68,1.52,1.5.78,1.84-1.58,3.56-3.3,5.14-5.15,1.2-1.47.32-3.39-1.68-4.35Z"/><path id="Tracé_3552" class="cls-7" d="m146.45,199.47c-2.11.09-3.3,1.34-2.75,3.31.68,2.29,1.5,4.53,2.46,6.71.42,1.01,1.32,1.02,1.69-.01.88-2.26,1.59-4.59,2.12-6.96.37-1.86-1.31-3.14-3.53-3.05Z"/><path id="Tracé_3553" class="cls-4" d="m132.5,203.71c-1.72,1.23-2.03,2.92-.5,4.27,1.82,1.54,3.73,2.98,5.72,4.29.9.62,1.66.14,1.41-.93-.49-2.38-1.16-4.71-2.01-6.99-.71-1.76-2.81-1.92-4.62-.64Z"/></g></g></g></svg>