<?xml version="1.0" encoding="UTF-8"?><svg xmlns="http://www.w3.org/2000/svg" viewBox="0 0 400 400"><defs><style>.cls-1{fill:#ffd69f;}.cls-2{stroke-miterlimit:10;}.cls-2,.cls-3,.cls-4{fill:none;}.cls-2,.cls-3,.cls-4,.cls-5,.cls-6{stroke:#4b4b4b;stroke-linecap:round;stroke-width:7px;}.cls-3{stroke-miterlimit:10;}.cls-4{stroke-miterlimit:10;}.cls-5{fill:#a7c950;}.cls-5,.cls-6{stroke-linejoin:round;}.cls-6{fill:#f05b34;}</style></defs><g id="back"><rect class="cls-1" y="0" width="400" height="400"/></g><g id="Layer_1"><g><g id="cerise_copy_3"><g id="Group_13"><path id="Oval_39" class="cls-6" d="m149.77,290.67c27.25,7.73,46.39-14.63,46.39-40.25s-8.68-51.28-46.39-38.79c-33.26-13.44-46.39,13.17-46.39,38.79s16.03,49.11,46.39,40.25Z"/><path id="Oval_39-2" class="cls-2" d="m129.93,218.42c-8.24,6.81-13.11,16.87-13.34,27.56"/></g><g id="Group_13_Copy"><path id="Oval_39-3" class="cls-6" d="m259.17,289.26c28.29,1.4,41.91-24.69,36.15-49.65s-19.99-48.01-53.93-27.36c-35.43-5.61-42.24,23.27-36.48,48.23,5.76,24.96,26.66,44.25,54.26,28.78Z"/><path id="Oval_39-4" class="cls-3" d="m223.59,223.32c-6.5,8.49-8.98,19.39-6.8,29.86"/></g><g id="Group_3"><path id="Path_112" class="cls-4" d="m149.33,211.1c0-28.83,21.07-49.92,63.2-80.3,4.49-3.24,2.42-12.79,2.42-12.79"/><path id="Path_112-2" class="cls-4" d="m240.34,211.1c-16.09-20.52-25.63-49.77-25.63-80.72"/></g></g><path id="Path_120" class="cls-5" d="m214.7,129.99c-20.29-41.49-61.03-18.35-61.03-18.35,0,0,35.25,36.28,61.03,18.35Z"/></g></g></svg>