<?xml version="1.0" encoding="UTF-8"?><svg xmlns="http://www.w3.org/2000/svg" viewBox="0 0 400 400"><defs><style>.cls-1{fill:#c0cedc;}.cls-2{fill:#4d4b4d;}.cls-3{stroke-linecap:square;stroke-width:6.49px;}.cls-3,.cls-4,.cls-5,.cls-6,.cls-7,.cls-8,.cls-9,.cls-10,.cls-11{stroke:#4d4b4d;}.cls-3,.cls-4,.cls-5,.cls-6,.cls-8,.cls-9,.cls-11{stroke-miterlimit:10;}.cls-3,.cls-10,.cls-11{fill:none;}.cls-4,.cls-8{fill:#69c6f1;}.cls-5{fill:#fff;}.cls-6,.cls-9{fill:#f8bc96;}.cls-7{fill:#d8d8d8;}.cls-7,.cls-8,.cls-9,.cls-10,.cls-11{stroke-width:6.99px;}.cls-7,.cls-10{stroke-linecap:round;stroke-linejoin:round;}</style></defs><g id="back"><rect class="cls-1" x="0" width="400" height="400"/></g><g id="Layer_6"><g id="Group"><g id="Group_2"><circle id="Oval_51" class="cls-9" cx="117.63" cy="226.21" r="9.98"/><circle id="Oval_51_Copy" class="cls-9" cx="282.37" cy="226.21" r="9.98"/><circle id="Oval_10" class="cls-5" cx="200" cy="221.22" r="72.39"/><circle id="Oval_10-2" class="cls-6" cx="200" cy="221.22" r="72.39"/><circle id="Oval_52" class="cls-8" cx="200" cy="136.35" r="29.95"/><path id="Path_3" class="cls-4" d="m135.71,188.55c7.08-15.97,31.25-33.82,51.78-38.74,20.54-4.92,36.42-1.87,56.28,14.37,19.86,16.24,22.14,26.71,22.14,26.71,0,0-32.73,14.61-58.27,14.6-25.54,0-64.84-3.22-71.93-16.95Z"/><circle id="Oval_10-3" class="cls-11" cx="200" cy="221.22" r="72.39"/><ellipse id="Oval_7_Copy_4" class="cls-2" cx="225.01" cy="228.26" rx="7.06" ry="7.04"/><ellipse id="Oval_7_Copy_5" class="cls-2" cx="176.2" cy="228.26" rx="7.06" ry="7.04"/><path id="Path_6" class="cls-10" d="m135.36,190.8c33.84,22.82,107.48,12.2,120.79,3.66"/></g><g id="Group_2_Copy_4"><ellipse id="Oval_7_Copy_4-2" class="cls-7" cx="235.29" cy="228.71" rx="22.13" ry="22.47"/><ellipse id="Oval_7_Copy_5-2" class="cls-7" cx="167.21" cy="228.71" rx="22.13" ry="22.47"/><path id="Line" class="cls-3" d="m191.04,228.01c3.05-2,6.57-3.19,10.21-3.45,3.64.26,7.16,1.45,10.21,3.45"/></g></g></g></svg>