<?xml version="1.0" encoding="UTF-8"?><svg xmlns="http://www.w3.org/2000/svg" viewBox="0 0 400 400"><defs><style>.cls-1{fill:#ffd69f;}.cls-2{fill:#a7c850;}.cls-2,.cls-3,.cls-4{stroke:#4b4b4b;stroke-width:7px;}.cls-2,.cls-4{stroke-linecap:round;stroke-linejoin:round;}.cls-3{fill:#6f8939;stroke-miterlimit:10;}.cls-4{fill:none;}</style></defs><g id="back"><rect class="cls-1" y="0" width="400" height="400"/></g><g id="Layer_1"><g id="Group-2"><path id="Path_239" class="cls-3" d="m151.36,202.42l25.58,112.98c1.22,5.39,6.01,9.21,11.53,9.21h24.87c5.58,0,10.4-3.9,11.57-9.36l24.01-112.83h-21.46l-11.14,42.25c-1.69,6.38-7.46,10.83-14.06,10.83h0c-6.43,0-11.88-4.73-12.78-11.09l-5.97-41.98h-32.14Z"/><path id="Combined_Shape-2" class="cls-2" d="m243.92,207.32l-11.01-1.93c-7.3,7.59-19.14,12.53-32.49,12.53-14.13,0-26.56-5.53-33.72-13.88l-13.04,5.24c-5.11,11.43-16.5,18.75-29.03,18.65-17.38,0-31.47-13.62-31.47-30.43,0-4.59,1.06-9.12,3.12-13.22-8.43-7.22-13.89-18.77-13.89-31.8,0-21.87,15.39-39.59,34.37-39.59,2.67,0,5.32.35,7.89,1.05-.02-.35-.02-.7-.02-1.05,0-14.73,14.09-26.68,31.47-26.68,6.73-.05,13.34,1.83,19.03,5.43,2.85-9.35,12.9-16.26,24.87-16.26s21.41,6.5,24.59,15.42c5.38-3.04,11.47-4.62,17.65-4.59,17.38,0,31.47,11.94,31.47,26.68,0,.52-.02,1.04-.05,1.56,3.09-1.03,6.32-1.56,9.58-1.56,18.98,0,34.37,17.73,34.37,39.59,0,13.62-5.98,25.65-15.08,32.77,1.75,3.84,2.66,8.02,2.65,12.24,0,16.8-14.09,30.43-31.47,30.43-13.29.13-25.23-8.13-29.8-20.61Z"/><path id="Oval_2-2" class="cls-4" d="m225.76,154.99h0c-4.21-9.45-13.81-14.35-21.46-10.94-4.32,1.92-7.29,6.23-8.01,11.65l-.56,4.14c-9-7.28-12.69-8.49-21.31-4.65-8.63,3.84-11.85,15.42-7.19,25.87"/></g></g></svg>