<?xml version="1.0" encoding="UTF-8"?><svg xmlns="http://www.w3.org/2000/svg" viewBox="0 0 400 400"><defs><style>.cls-1,.cls-2,.cls-3,.cls-4,.cls-5{fill:none;}.cls-2{stroke:#fff;}.cls-2,.cls-6,.cls-7,.cls-8,.cls-3,.cls-4{stroke-width:7px;}.cls-6,.cls-9,.cls-7,.cls-10,.cls-8,.cls-11,.cls-12,.cls-4{stroke:#4c4b4c;}.cls-6,.cls-7{fill:#fff;}.cls-13{fill:#f6917e;}.cls-14{fill:#4c4b4c;}.cls-15{fill:#7c5555;}.cls-9{stroke-width:8.47px;}.cls-9,.cls-10,.cls-8,.cls-11,.cls-12,.cls-4,.cls-16,.cls-5{stroke-linecap:round;}.cls-9,.cls-10,.cls-8,.cls-11,.cls-12,.cls-4,.cls-5{stroke-linejoin:round;}.cls-9,.cls-10,.cls-11,.cls-12{fill:#db2827;}.cls-7,.cls-3{stroke-miterlimit:10;}.cls-10{stroke-width:6.89px;}.cls-8{fill:#2b3c8c;}.cls-11{stroke-width:6.07px;}.cls-12{stroke-width:6.07px;}.cls-3{stroke:#030202;}.cls-16{stroke:#000;}.cls-5{stroke:#f8acae;stroke-width:7.33px;}</style></defs><g id="back"><rect class="cls-13" y="0" width="400" height="400"/></g><g id="Layer_1"><path class="cls-15" d="m264.68,266.35c-16.82-1.52-31.67-7.68-44.97-18.73-2.75,2.87-5.48,5.73-8.23,8.58-1.45,1.51-2.75,2.89-3.22,5.23-.88,4.41-5.35,6.96-9.92,6.27-4.08-.61-7.4-4.51-7.43-8.72-.03-4.35,3.34-8.16,7.74-8.78.58-.08,1.28-.22,1.67-.6,3.57-3.47,7.09-6.99,10.72-10.59-11.1-13.11-17.41-28.13-19-45.41-2.58,0-5.13,0-7.69,0-1.51,0-3.03.03-4.54,0-2.18-.05-4.1.24-6.12,1.5-3.07,1.9-6.46,1.52-9.43-.7-2.94-2.21-4.18-5.91-3.26-9.43.88-3.36,3.65-5.79,7.08-6.34,2.71-.43,5.07.26,7.21,1.92.33.26.77.54,1.16.54,5.14.04,10.28.02,15.58.02,1.55-17.02,7.76-31.96,18.92-45.32-1.3-1.16-2.62-2.27-3.86-3.47-1.85-1.79-3.66-3.62-5.46-5.46-1.48-1.5-2.91-2.73-5.24-3.17-4.31-.81-6.92-5.36-6.27-9.96.59-4.14,4.39-7.36,8.7-7.39,4.36-.02,8.07,3.22,8.78,7.51.15.91.64,1.91,1.28,2.58,3.46,3.65,7.01,7.21,10.57,10.85,13.25-11.13,28.24-17.38,45.36-18.95,0-2.62,0-5.12,0-7.63,0-1.79-.03-3.59.01-5.38.04-1.74-.21-3.26-1.26-4.83-2.46-3.69-1.47-8.77,1.92-11.48,3.46-2.77,8.54-2.62,11.69.36,3.21,3.03,3.61,8.15,1.03,11.82-.53.75-.89,1.79-.91,2.7-.09,4.75-.04,9.51-.04,14.43,17.18,1.56,32.25,7.87,45.48,19.07,3.86-3.91,7.68-7.76,11.45-11.65.38-.39.55-1.07.64-1.65.74-4.89,4.55-7.99,9.55-7.73,4.16.22,7.83,4.02,8.02,8.29.21,4.81-3.03,8.72-7.75,9.45-.61.09-1.32.33-1.75.75-3.8,3.71-7.55,7.48-11.43,11.34,10.77,13.02,17.04,27.88,18.55,44.92,2.82,0,5.55,0,8.28,0,1.4,0,2.8.02,4.2,0,2.08-.03,4.01-.02,5.99-1.37,3.07-2.09,6.54-1.77,9.6.39,3.06,2.16,4.07,5.33,3.42,8.89-.64,3.53-2.86,5.94-6.38,6.85-2.71.7-5.3.27-7.67-1.41-.67-.47-1.6-.79-2.42-.8-4.92-.07-9.85-.04-15.01-.04-1.54,16.99-7.78,31.98-18.8,45.12,1.73,1.77,3.43,3.52,5.15,5.26,1.14,1.16,2.3,2.3,3.44,3.45,1.45,1.45,2.82,2.67,5.12,3.07,4.22.72,6.91,5.11,6.44,9.51-.45,4.17-4.04,7.5-8.39,7.78-4.23.27-8.28-2.73-9.03-6.93-.28-1.54-.94-2.63-2.01-3.69-3.17-3.15-6.28-6.37-9.51-9.66-13.17,11.02-28.09,17.28-45.23,18.82,0,4.26.03,8.44-.01,12.62-.02,2.2.25,4.15,1.58,6.12,2.02,3,1.31,7.29-1.18,10.12-2.29,2.6-6.57,3.56-9.88,2.22-3.47-1.41-5.81-4.9-5.45-8.63.16-1.61.68-3.32,1.53-4.69.7-1.13,1-2.14.98-3.4-.04-4.2-.02-8.4-.04-12.6,0-.55-.06-1.1-.1-1.76Zm-40.67-121.3c-9.76,11.07-15.22,23.88-16.22,38.78.76.04,1.3.09,1.85.09,10.98,0,21.95,0,32.93,0,1.9,0,3.81.04,5.71-.04.43-.02,1.08-.37,1.22-.73,1.2-2.98,2.3-6,3.47-9.11-9.45-9.46-19.16-19.18-28.96-28.99Zm50.44,105.35c10.71.88,31.63-7.89,38.76-16.11-9.8-9.79-19.6-19.58-29.2-29.17-2.63,1.09-5.19,2.31-7.86,3.2-1.28.42-1.75.82-1.75,2.23.07,12.7.04,25.4.04,38.1,0,.55,0,1.1,0,1.76Zm-66.67-59.62c1.01,14.89,6.37,27.64,15.95,38.53,9.87-9.85,19.64-19.59,29.19-29.13-1.09-2.71-2.29-5.35-3.18-8.1-.37-1.14-.84-1.33-1.86-1.33-11.98.03-23.96.02-35.94.03-1.28,0-2.56,0-4.16,0Zm20.8,43.46c11.41,9.99,24.16,15.33,38.81,16.35.09-.45.19-.72.19-.98,0-13.26.02-26.52-.03-39.79,0-.43-.62-1.04-1.1-1.25-2.29-.99-4.7-1.74-6.93-2.86-1.06-.54-1.57-.52-2.38.3-6.18,6.24-12.4,12.45-18.64,18.63-3.21,3.18-6.5,6.29-9.92,9.6Zm105.72-50.32c-1.08-14.93-6.4-27.69-16.03-38.58-.25.04-.32.03-.35.06-9.55,9.52-19.1,19.04-28.6,28.6-.27.27-.23,1.07-.05,1.52.9,2.27,2.07,4.45,2.78,6.78.39,1.28.8,1.66,2.09,1.65,12.7-.05,25.4-.03,38.11-.03.6,0,1.2,0,2.06,0Zm-21.21-43.79c-11.06-9.69-23.81-15.01-38.65-16,0,1.52,0,2.8,0,4.07,0,11.98,0,23.96.04,35.95,0,.58.34,1.5.77,1.68,2.85,1.22,5.77,2.28,8.73,3.42,9.51-9.51,19.23-19.23,29.11-29.11Zm5.31,89.12c9.59-11.04,14.9-23.73,15.87-38.47-.9,0-1.5,0-2.1,0-10.14,0-20.27,0-30.41-.01-2.69,0-5.38-.04-8.06.03-.49.01-1.25.34-1.4.71-1.12,2.77-2.11,5.59-3.16,8.45,9.58,9.59,19.34,19.36,29.27,29.29Zm-50.9-105.15c-14.73,1.07-27.45,6.31-38.26,15.8,9.86,9.87,19.58,19.59,29.13,29.15,2.52-1.01,5-2.18,7.6-2.97,1.27-.38,1.66-.79,1.66-2.09-.05-12.7-.03-25.41-.04-38.11,0-.49-.05-.99-.09-1.77Zm2.65,48.74c-7.35-.03-14.31,6.91-13.75,15.35.54,8.04,7.66,14.19,15.62,13.56,8.09-.64,14.01-7.68,13.39-15.93-.57-7.52-7.71-13.6-15.26-12.98Z"/><g><circle id="Ellipse_85" class="cls-3" cx="200" cy="200" r="76.56"/><rect id="Rectangle_47" class="cls-1" x="-20" y="-20.2" width="403.51" height="379.16"/><path class="cls-8" d="m158.96,238.65l-45.24,20.22s34.03,24.42,82.87,31.23l-37.63-51.45Z"/><path class="cls-8" d="m237.14,238.65l45.24,20.22s-34.03,24.42-82.87,31.23l37.63-51.45Z"/><g><polygon class="cls-9" points="214.2 305.48 183.33 305.48 183.33 294.24 183.33 283.01 214.2 283.01 214.2 305.48"/><path class="cls-11" d="m197.94,306.04s-21.11,10.91-20.21,81.17l-19.54-29.51s1.57-28.92,25.38-53.1l14.37,1.44Z"/><path class="cls-12" d="m199.36,306.04s21.11,10.91,20.21,81.17l19.54-29.51s-1.57-28.92-25.38-53.1l-14.37,1.44Z"/><polygon class="cls-10" points="170.21 283.75 187.33 298.04 198.85 293.48 187.33 277.27 170.21 283.75"/><polygon class="cls-10" points="228.4 283.75 211.28 298.04 199.77 293.48 211.28 277.27 228.4 283.75"/></g><g><circle id="Ellipse_85-2" class="cls-7" cx="200" cy="200" r="76.56"/><g><circle id="Oval_2_Copy_3" class="cls-14" cx="167.19" cy="182.27" r="12.23"/><circle id="Oval_2_Copy_3-2" class="cls-14" cx="235.34" cy="182.27" r="12.23"/><path id="Oval_2_Copy_3-3" class="cls-5" d="m191.77,219.56c0,5.55,4.5,10.05,10.05,10.05h0c5.55,0,10.05-4.5,10.05-10.05h0"/></g></g><g><g><path class="cls-6" d="m271.73,146.5s46.51-11.17-5.81-42.81c-52.32-31.63-81.92-23.25-108.87-11.63-26.95,11.63-58.66,33.82-37,48.62,21.67,14.8,151.68,5.81,151.68,5.81Z"/><path class="cls-8" d="m130.62,138.04v25.37s84.56-8.98,140.58,0v-25.37s-70.29-19.55-140.58,0Z"/></g><path class="cls-16" d="m202.99,101.28c-.63.06-1.1.6-1.08,1.23.17,3.83.27,7.58.57,11.31.18,2.24,3.57,3.33,5.73,1.85,1.01-.69,1.75-1.76,2.84-2.9l-.32-.07c-.84-.17-1.22-1.16-.72-1.86.54-.75,1.16-1.41,1.9-1.98.66-.5,1.62-.13,1.84.67.41,1.47.33,2.98.02,4.58-.51-.32-.93-.58-1.33-.83-.07.06-.12.08-.12.11-1.15,3.99-3.99,6.11-7.76,7.47-1.1.4-2.03,1.24-3.01,2.07-.5.42-1.22.33-1.65-.16-1.12-1.24-2.73-2.02-4.48-2.65-2.93-1.05-4.89-3.09-5.86-6.06-.08-.26-.22-.5-.37-.83-.44.3-.82.56-1.32.9-.38-1.59-.43-3.09-.03-4.59.21-.8,1.17-1.19,1.83-.69,1.2.91,2.09,2.1,2.84,3.48-.58.14-1.06.25-1.55.36,1.18,2.85,3.41,4.09,5.98,3.38,1.17-.32,2.11-1.04,2.19-2.27.25-3.74.39-7.49.57-11.31.03-.62-.43-1.16-1.04-1.23-1.06-.12-2.06-.24-3.06-.31-.24-.02-.54.26-.77.45-.79.67-1.59.74-2.35.01-.74-.7-.68-1.5-.08-2.26.52-.66,1.36-.69,2.15-.26s2.23.61,3.12.48c.23-.03.46-.07.69-.11.5-.09,1.4-.31,1.4-.46,0-.73.7-1.69-.45-2.2-.14-.06-.33-.36-.29-.47.41-1.08-.46-1.44-1.03-2.01-1.7-1.67-1.68-4.26.01-5.89,1.69-1.62,4.3-1.49,5.88.29,1.55,1.75,1.32,4.37-.54,5.85-.52.41-1.02.73-.74,1.54.07.19-.26.51-.4.78-.16.31-.44.62-.46.93-.06,1.56-.04,1.55,1.54,1.66.6.04,1.2.1,1.79.19.72.11,1.33.1,1.94-.5.69-.68,1.58-.54,2.23.2.6.69.62,1.49-.01,2.17-.66.72-1.57.85-2.24.17-.62-.63-1.2-.59-1.93-.48-.66.1-1.33.16-2.07.22Zm-.47-7.96c1.3-1.37,1.35-2.95.19-4.07-1.14-1.1-2.91-1.05-3.95.12-1.05,1.17-.92,2.75.31,3.9.89-1.11,2.64-1.12,3.45.06Z"/><path class="cls-2" d="m269.94,149.2s-74.32-10.29-138.27,0"/><path class="cls-4" d="m130.62,138.04v25.37s84.56-8.98,140.58,0v-25.37s-70.29-19.55-140.58,0Z"/></g></g></g></svg>