<?xml version="1.0" encoding="UTF-8"?><svg xmlns="http://www.w3.org/2000/svg" viewBox="0 0 400 400"><defs><style>.cls-1,.cls-2{fill:none;}.cls-2{stroke:#4c4b4c;stroke-width:7.63px;}.cls-2,.cls-3,.cls-4,.cls-5{stroke-miterlimit:10;}.cls-6,.cls-3{fill:#bc6e3a;}.cls-7{fill:#959cce;}.cls-8{fill:#2c170d;}.cls-3{stroke:#4d4b4d;stroke-width:7px;}.cls-4{fill:#2c1910;stroke:#2c1910;}.cls-4,.cls-5{stroke-width:3px;}.cls-5{fill:#681b25;stroke:#681b25;}</style></defs><g id="back"><rect class="cls-7" x="0" width="400" height="400"/></g><g id="Layer_1"><rect id="Rectangle_47" class="cls-1" x="21.42" y="16.35" width="403.51" height="379.16"/></g><g id="Layer_6"><g><path class="cls-8" d="m307.36,193.45s1.74-73.55-90.52-82.22c-92.26-8.66-123.25,81.6-123.25,81.6l15.1,5.93,197.34,8.48,1.33-13.79Z"/><polygon class="cls-8" points="92.02 214.92 91.6 275.8 146.05 277.22 125.78 256.57 113.97 235.92 109.94 217.99 99.46 217.64 92.02 214.92"/><polygon class="cls-8" points="309.97 214.92 310.4 275.8 255.95 277.22 276.21 256.57 288.02 235.92 292.05 217.99 302.54 217.64 309.97 214.92"/><g><path id="Tracé_124" class="cls-6" d="m200.38,136.38c50.27,0,91.03,34.28,91.03,76.56s-40.75,76.56-91.03,76.56-91.03-34.28-91.03-76.56h0c0-42.28,40.75-76.56,91.03-76.56"/><ellipse id="Ellipse_85" class="cls-2" cx="200.38" cy="212.93" rx="91.03" ry="76.56"/><path class="cls-8" d="m169.97,203.34c-.04-1.9.14-3.76.91-5.53.39-.9.94-1.68,1.73-2.26.73-.54,1.45-.62,2.36-.2,1.45.68,2.28,1.77,2.76,3.22,1.02,3.04.87,6.05-.22,9.04-.28.77-.74,1.43-1.34,2-1.49,1.43-3.44,1.29-4.7-.36-.88-1.16-1.35-2.5-1.49-3.94-.06-.65-.01-1.31-.01-1.96Z"/><path class="cls-8" d="m225.31,203.34c-.04-1.9.14-3.76.91-5.53.39-.9.94-1.68,1.73-2.26.73-.54,1.45-.62,2.36-.2,1.45.68,2.28,1.77,2.76,3.22,1.02,3.04.87,6.05-.22,9.04-.28.77-.74,1.43-1.34,2-1.49,1.43-3.44,1.29-4.7-.36-.88-1.16-1.35-2.5-1.49-3.94-.06-.65-.01-1.31-.01-1.96Z"/><path class="cls-5" d="m200.48,257.4c-3.41.22-6.66-.36-9.83-1.36-2.89-.91-5.63-2.2-8.03-4.1-.23-.18-.44-.4-.64-.61-.61-.65-.62-1.16-.07-1.72.5-.51.84-.5,1.53.08,1.01.85,2.07,1.64,3.2,2.34,2.42,1.5,5.06,2.38,7.82,2.94,1.37.28,2.75.46,4.15.49.8.02,1.6.22,2.41.19,5.37-.21,10.5-1.32,15.23-3.95.52-.29,1.02-.59,1.54-.87.16-.09.33-.19.5-.22.31-.07.68-.19.89.18.16.29.03.58-.2.8-.34.34-.65.7-1.06.97-3.18,2.1-6.65,3.46-10.38,4.22-2.35.48-4.71.82-7.07.63Z"/><path class="cls-4" d="m200.42,225.33c-1.39-.09-2.72.15-4.01.55-1.18.37-2.29.9-3.27,1.67-.09.07-.18.16-.26.25-.25.26-.25.47-.03.7.2.21.34.2.62-.03.41-.35.84-.67,1.3-.95.99-.61,2.06-.97,3.19-1.2.56-.11,1.12-.19,1.69-.2.33,0,.65-.09.98-.08,2.19.08,4.28.54,6.21,1.61.21.12.42.24.63.36.07.04.13.08.21.09.13.03.28.08.36-.07.07-.12.01-.24-.08-.33-.14-.14-.27-.28-.43-.39-1.3-.85-2.71-1.41-4.23-1.72-.96-.19-1.92-.33-2.88-.26Z"/><circle class="cls-3" cx="97.93" cy="207.62" r="11.43"/><circle class="cls-3" cx="302.07" cy="207.62" r="11.43"/></g><path class="cls-8" d="m157.87,148.2s-32.88,45.67-43.26,48.18c-10.38,2.51-21.02-3.54-21.02-3.54l48.59-57.28,15.69,12.64Z"/><path class="cls-8" d="m145.82,149.31s56.53,5.68,86.49-4.94c29.96-10.62-74.24-17.48-74.24-17.48l-12.26,22.42Z"/><path class="cls-8" d="m293.02,195.22s-34.76-16.03-66.68-54.5c-31.92-38.47,68.11,30.66,68.11,30.66l-1.43,23.84Z"/><path class="cls-2" d="m292.03,195.94c-8.06-5.17-48.17-31.41-60.47-48.98-.91-1.3-2.52-1.91-4.07-1.55-9.74,2.27-44.19,9.56-68.33,5.3-1.56-.28-3.12.42-3.97,1.75-6.4,10.06-32.72,50.31-42.95,48.14-7.2-1.53-12.61-4.12-15.7-5.88-1.74-.99-2.46-3.12-1.66-4.96,5.56-12.8,29.08-61.56,68.13-70.92.27-.06.52-.15.77-.27,3.78-1.87,38.6-17.81,89.7,1.13,46.02,17.06,52.74,58.39,53.72,70.42.16,1.92-1.11,3.65-2.98,4.11l-9.15,2.23c-1.04.25-2.14.07-3.04-.51Z"/><path class="cls-2" d="m90.62,217.11v53.8c0,2.7,2.19,4.88,4.88,4.88h48.36s-16.07-15.21-21.89-23.72c-5.82-8.52-11.74-25.66-13.01-33.47"/><path class="cls-2" d="m310.05,217.11v53.8c0,2.7-2.19,4.88-4.88,4.88h-48.36s16.07-15.21,21.89-23.72c5.82-8.52,11.74-25.66,13.01-33.47"/></g></g></svg>