<?xml version="1.0" encoding="UTF-8"?><svg id="Layer_1" xmlns="http://www.w3.org/2000/svg" viewBox="0 0 400 400"><defs><style>.cls-1{fill:#f8e610;}.cls-2{fill:#67c8f2;}</style></defs><path id="Path_97_Copy_2" class="cls-2" d="m261.36,72.31s-79.16,95.48,1.4,95.48-1.4-95.48-1.4-95.48Z"/><g id="Groupe_2843"><g id="Group_55"><g id="sun"><g id="Group"><path id="Line" class="cls-1" d="m147.84,74.08v90.35c.03,3.64,3.01,6.57,6.65,6.54,3.64.03,6.62-2.9,6.65-6.54v-90.35c-.03-3.64-3.01-6.57-6.65-6.54-3.64-.03-6.62,2.9-6.65,6.54Z"/><path id="Line-2" class="cls-1" d="m199.29,113.34h-90.85c-3.64-.03-6.62,2.9-6.65,6.54.03,3.64,3.01,6.57,6.65,6.54h90.85c3.64.03,6.62-2.9,6.65-6.54-.03-3.64-3.01-6.57-6.65-6.54Z"/></g><g id="Group-2"><path id="Line-3" class="cls-1" d="m117.64,91.62l63.89,63.89c2.6,2.55,6.77,2.52,9.33-.08,2.6-2.55,2.63-6.73.08-9.33l-63.89-63.89c-2.6-2.55-6.77-2.52-9.33.08-2.6,2.55-2.63,6.73-.08,9.33Z"/><path id="Line-4" class="cls-1" d="m181.79,82.99l-64.24,64.24c-2.6,2.55-2.63,6.73-.08,9.33,2.6,2.55,6.77,2.52,9.33-.08l64.24-64.24c2.6-2.55,2.63-6.73.08-9.33-2.6-2.55-6.77-2.52-9.33.08Z"/></g><ellipse id="Oval_22_Copy_2" class="cls-1" cx="153.91" cy="120.39" rx="32.16" ry="31.62"/></g></g></g><rect id="Rectangle_1435" class="cls-2" x="105.4" y="244.86" width="90.18" height="87.6" rx="18.04" ry="18.04"/><rect id="Rectangle_1436" class="cls-1" x="205.89" y="244.86" width="90.18" height="87.6" rx="18.04" ry="18.04"/></svg>