<?xml version="1.0" encoding="UTF-8"?><svg id="Layer_1" xmlns="http://www.w3.org/2000/svg" xmlns:xlink="http://www.w3.org/1999/xlink" viewBox="0 0 12.71 22.27"><defs><style>.cls-1{fill:none;}.cls-2{clip-path:url(#clippath);}.cls-3{fill:#08579b;}</style><clipPath id="clippath"><rect class="cls-1" x="0" y="0" width="12.71" height="22.26"/></clipPath></defs><g id="Groupe_6907"><g class="cls-2"><g id="Groupe_6907-2"><path id="Tracé_4181" class="cls-3" d="m5.37,13.7c-.12.08-.24.17-.35.27-1.13,1.07-2.25,2.14-3.37,3.22-.16.15-.31.19-.46.04-.38-.36-.75-.74-1.12-1.12-.12-.13-.09-.25.05-.38,1.43-1.36,2.86-2.72,4.29-4.09.4-.38.4-.64,0-1.03C2.99,9.26,1.57,7.91.15,6.56c-.17-.16-.19-.3-.04-.45.34-.36.69-.72,1.06-1.05.21-.19.29-.16.5.05,1.12,1.06,2.23,2.12,3.35,3.18.11.08.22.15.34.21.03-.13.04-.26.05-.39,0-2.49,0-4.99,0-7.48-.04-.25.1-.48.33-.58.24-.11.52-.05.7.14,2.02,1.93,4.04,3.86,6.06,5.79.22.17.27.48.11.71-.03.04-.07.08-.12.11l-3.99,3.82c-.07.07-.14.14-.2.22-.14.16-.14.4,0,.56.06.08.13.15.2.22,1.32,1.27,2.64,2.53,3.96,3.8.25.16.32.48.16.73-.04.06-.09.12-.16.16-2,1.91-4,3.82-6,5.74-.18.19-.45.27-.7.18-.25-.07-.4-.32-.37-.57v-7.63c0-.09-.02-.18-.03-.32m2.2,4.33c.07-.03.13-.07.19-.11.6-.57,1.2-1.14,1.79-1.72.19-.19.19-.5,0-.69-.56-.55-1.13-1.08-1.7-1.62-.07-.05-.15-.08-.24-.1-.03.08-.05.15-.06.23v3.73c0,.09.02.18.03.27m-.01-13.83c-.01.15-.02.23-.03.31,0,1.22,0,2.44,0,3.66.01.1.04.2.07.29.09-.05.18-.09.27-.14.03-.02.06-.04.08-.07.51-.49,1.02-.97,1.53-1.46.22-.19.25-.52.06-.74-.02-.02-.04-.04-.07-.06-.55-.53-1.11-1.07-1.66-1.6-.08-.07-.17-.13-.26-.19"/></g></g></g></svg>