<?xml version="1.0" encoding="UTF-8"?><svg id="Layer_1" xmlns="http://www.w3.org/2000/svg" xmlns:xlink="http://www.w3.org/1999/xlink" viewBox="0 0 400 400"><defs><style>.cls-1,.cls-2,.cls-3,.cls-4,.cls-5,.cls-6{fill:none;}.cls-7{fill:#fff;}.cls-8{fill:#3a3a3a;}.cls-2,.cls-3,.cls-4{stroke:#3a3a3a;}.cls-2,.cls-3,.cls-4,.cls-6{stroke-width:7.09px;}.cls-2,.cls-3,.cls-6{stroke-linecap:round;}.cls-2,.cls-4{stroke-miterlimit:10;}.cls-3{stroke-linejoin:round;}.cls-5{clip-path:url(#clippath);}.cls-6{stroke:#fff;}</style><clipPath id="clippath"><rect class="cls-1" x="70.62" y="28.78" width="258.75" height="342.44"/></clipPath></defs><g id="Groupe_7649"><g class="cls-5"><g id="Groupe_7456"><path id="Tracé_4497" class="cls-8" d="m199.48,309.71V86.42c-61.66-.35-111.93,49.36-112.27,111.01-.35,61.66,49.36,111.93,111.01,112.27.42,0,.84,0,1.26,0"/><path id="Tracé_4498" class="cls-4" d="m199.48,309.71V86.42c-61.66-.35-111.93,49.36-112.27,111.01-.35,61.66,49.36,111.93,111.01,112.27.42,0,.84,0,1.26,0Z"/><path id="Tracé_4499" class="cls-7" d="m199.48,309.71V86.42c61.66.35,111.36,50.61,111.01,112.27-.34,61.17-49.85,110.67-111.01,111.01Z"/><path id="Tracé_4500" class="cls-4" d="m199.48,309.71V86.42c61.66.35,111.36,50.61,111.01,112.27-.34,61.17-49.85,110.67-111.01,111.01Z"/><path id="Tracé_4501" class="cls-8" d="m238.05,198.06c6,.02,10.84,4.9,10.82,10.89-.02,6-4.9,10.84-10.89,10.82-5.98-.02-10.82-4.88-10.82-10.86.01-6.01,4.89-10.87,10.9-10.86"/><path id="Tracé_4502" class="cls-3" d="m238.05,198.06c6,.02,10.84,4.9,10.82,10.89-.02,6-4.9,10.84-10.89,10.82-5.98-.02-10.82-4.88-10.82-10.86.01-6.01,4.89-10.87,10.9-10.86Z"/><path id="Tracé_4503" class="cls-7" d="m162.78,198.06c6,.02,10.84,4.9,10.82,10.89s-4.9,10.84-10.9,10.82c-5.98-.02-10.82-4.88-10.82-10.86,0-6,4.86-10.86,10.86-10.86.01,0,.03,0,.04,0Z"/><path id="Tracé_4504" class="cls-6" d="m162.78,198.06c6,.02,10.84,4.9,10.82,10.89s-4.9,10.84-10.9,10.82c-5.98-.02-10.82-4.88-10.82-10.86,0-6,4.86-10.86,10.86-10.86.01,0,.03,0,.04,0Z"/><line id="Ligne_18" class="cls-2" x1="197.55" y1="45.99" x2="197.55" y2="354.01"/></g></g></g></svg>