<?xml version="1.0" encoding="UTF-8"?><svg xmlns="http://www.w3.org/2000/svg" viewBox="0 0 400 400"><defs><style>.cls-1{fill:#ffd69f;}.cls-2{fill:none;stroke-miterlimit:10;}.cls-2,.cls-3,.cls-4{stroke:#4b4b4b;stroke-linecap:round;stroke-width:7px;}.cls-3{fill:#7b64ab;}.cls-3,.cls-4{stroke-linejoin:round;}.cls-4{fill:#a7c950;}</style></defs><g id="back"><rect class="cls-1" y="0" width="400" height="400"/></g><g id="Layer_1"><g id="Group-3"><path id="Oval" class="cls-3" d="m161.7,325.05c32.11,0,55.06-21.26,75.9-45.27,20.84-24.01,31.79-39.4,39.58-56.81,7.79-17.42,24.81-80.72,24.81-80.72l-43.06-28.18s-42.61,31.52-64.33,42.64c-10.86,5.56-25.24,11.92-32.92,13.92-59.11,15.38-77.28,34.57-77.28,77.21.02,42.66,34.62,77.23,77.28,77.21h0Z"/><path id="Combined_Shape-3" class="cls-4" d="m296.28,161c-3.01-2.19-4.84-5.64-4.97-9.36-6.4,1.85-13.09-1.85-14.94-8.25-.28-.96-.43-1.95-.47-2.94-6.41,1.84-13.1-1.85-14.94-8.26-.42-1.45-.56-2.96-.42-4.46-6.14,2.63-13.26-.21-15.89-6.35-1.69-3.95-1.17-8.5,1.39-11.96,1.24-1.71,2.9-3.07,4.82-3.95,4.14-2.29,8.47-4.22,12.94-5.77,0,0,22.04-6.6,35.96,3.52,13.92,10.12,15.47,33.87,15.47,33.87,0,0,.39,8.01.22,12.16,1,6.67-3.59,12.89-10.27,13.9-3.13.47-6.33-.3-8.91-2.14Z"/><path id="Line_36" class="cls-2" d="m302.74,101.75s7.64-7.25,8.41-12.71c.77-5.46-4.64-14.08-4.64-14.08"/></g></g></svg>