<?xml version="1.0" encoding="utf-8"?>
<!-- Generator: Adobe Illustrator 27.2.0, SVG Export Plug-In . SVG Version: 6.00 Build 0)  -->
<svg version="1.1" id="Layer_2_00000010295217383441175230000015627880593330873770_"
	 xmlns="http://www.w3.org/2000/svg" xmlns:xlink="http://www.w3.org/1999/xlink" x="0px" y="0px" viewBox="0 0 25.3 11.2"
	 style="enable-background:new 0 0 25.3 11.2;" xml:space="preserve">
<style type="text/css">
	.st0{clip-path:url(#SVGID_00000145050982643961159530000003783235290593105289_);}
	.st1{fill:#666767;}
	.st2{fill:#8DC640;}
</style>
<g id="Layer_1-2">
	<g id="Groupe_7119">
		<g>
			<defs>
				<rect id="SVGID_1_" width="25.3" height="11.2"/>
			</defs>
			<clipPath id="SVGID_00000019677270756447835550000001423614840287518116_">
				<use xlink:href="#SVGID_1_"  style="overflow:visible;"/>
			</clipPath>
			<g style="clip-path:url(#SVGID_00000019677270756447835550000001423614840287518116_);">
				<g id="Groupe_7106">
					<path id="Tracé_4244" class="st1" d="M4.5,11.2h14.2c0.7,0,1.5-0.1,2.2-0.2c0.5-0.1,1-0.4,1.3-0.7s0.6-0.8,0.7-1.3
						c0.1-0.7,0.2-1.5,0.2-2.2V4.5c0-0.7,0-1.5-0.2-2.2c-0.1-0.5-0.4-1-0.7-1.3c-0.4-0.4-0.8-0.6-1.3-0.7C20.1,0.1,19.4,0,18.7,0
						H4.4C3.7,0,3,0.1,2.3,0.2C1.8,0.4,1.3,0.6,1,1C0.6,1.3,0.3,1.8,0.2,2.3C0.1,3,0,3.7,0,4.4v2.3C0,7.4,0,8.2,0.2,8.9
						c0.1,0.5,0.4,0.9,0.7,1.3c0.4,0.4,0.8,0.6,1.3,0.7C3,11.1,3.7,11.2,4.5,11.2 M4.2,10.6c-0.6,0-1.2-0.1-1.7-0.2
						c-0.4-0.1-0.8-0.3-1.2-0.6C1.1,9.5,0.8,9.1,0.7,8.7C0.6,8.1,0.5,7.5,0.5,6.9V4.4c0-0.6,0.1-1.2,0.2-1.8C0.8,2.1,1,1.7,1.3,1.4
						C1.7,1,2.1,0.8,2.5,0.7c0.6-0.1,1.2-0.2,1.8-0.2h14.5c0.6,0,1.2,0.1,1.7,0.2c0.4,0.1,0.8,0.3,1.1,0.6c0.3,0.3,0.5,0.7,0.6,1.1
						c0.1,0.6,0.2,1.1,0.2,1.7v2.7c0,0.6,0,1.2-0.2,1.7c-0.1,0.4-0.3,0.8-0.6,1.1c-0.3,0.3-0.7,0.5-1.1,0.6
						c-0.6,0.1-1.1,0.2-1.7,0.2L4.2,10.6L4.2,10.6z M23.9,7.6c0.2,0,0.5-0.1,0.6-0.3c0.5-0.4,0.8-1.1,0.8-1.8c0-0.7-0.3-1.3-0.8-1.8
						c-0.2-0.2-0.4-0.2-0.6-0.3V7.6L23.9,7.6z"/>
					<path id="Tracé_4245" class="st2" d="M4.2,9.9h0.2C5.3,10,6.1,9.8,6.8,9.3C7.3,8.6,7.5,7.8,7.4,7V4.2c0-0.5,0-1-0.2-1.5
						C7.2,2.4,7,2.1,6.8,1.9C6.1,1.4,5.3,1.2,4.4,1.3H4.3c-0.5,0-1,0-1.6,0.1C2.4,1.5,2.1,1.6,1.9,1.9C1.6,2.1,1.5,2.5,1.4,2.8
						c-0.1,0.5-0.2,1-0.1,1.6V7c0,0.5,0,1,0.1,1.5c0.1,0.3,0.2,0.6,0.5,0.9C2.5,9.8,3.4,10,4.2,9.9"/>
				</g>
			</g>
		</g>
	</g>
</g>
</svg>
