<svg xmlns="http://www.w3.org/2000/svg" xmlns:xlink="http://www.w3.org/1999/xlink" width="100" height="100" viewBox="0 0 100 100">
  <defs>
    <clipPath id="clip-standard-remote">
      <rect width="100" height="100"/>
    </clipPath>
  </defs>
  <g id="standard-remote" clip-path="url(#clip-standard-remote)">
    <rect width="100" height="100" fill="#fff"/>
    <g id="remotes-menu-button-normal" transform="translate(5 30)">
      <g id="remote_logo" data-name="remote logo">
        <path id="Combined_Shape" data-name="Combined Shape" d="M55.394,33.661A38.691,38.691,0,0,0,44.5,31.5,34.2,34.2,0,0,0,34.934,33.3,20,20,0,1,1,20,0q.784,0,1.553.059h46.9Q69.216,0,70,0A20,20,0,1,1,55.394,33.661Z" fill="#fff" stroke="#000" stroke-linecap="round" stroke-linejoin="round" stroke-miterlimit="10" stroke-width="2.8"/>
      </g>
    </g>
    <circle id="Oval_Copy" data-name="Oval Copy" cx="9" cy="9" r="9" transform="translate(15 41)" fill="#9b9b9b" stroke="#000" stroke-miterlimit="10" stroke-width="3"/>
    <g id="Rectangle_4_Copy" data-name="Rectangle 4 Copy" transform="translate(20 30)" fill="#d8d8d8" stroke="#000" stroke-miterlimit="10" stroke-width="3">
      <rect width="8" height="24" rx="4" stroke="none"/>
      <rect x="1.5" y="1.5" width="5" height="21" rx="2.5" fill="none"/>
    </g>
    <circle id="Oval_4_Copy" data-name="Oval 4 Copy" cx="9" cy="9" r="9" transform="translate(15 24)" fill="#ff3b30" stroke="#000" stroke-miterlimit="10" stroke-width="3"/>
    <path id="Path_2_Copy" data-name="Path 2 Copy" d="M.073,4.016A4.165,4.165,0,0,1,1.475,0" transform="translate(21.439 28) rotate(21)" fill="none" stroke="#000" stroke-linecap="round" stroke-linejoin="round" stroke-miterlimit="10" stroke-width="3"/>
    <path id="Combined_Shape-2" data-name="Combined Shape" d="M.129,14v0A2.993,2.993,0,0,0,3,11,3,3,0,0,0,0,8,5.007,5.007,0,0,0,5,3a3,3,0,1,1,6,0,10.929,10.929,0,0,1-3.222,7.778A10.935,10.935,0,0,1,.129,14Z" transform="translate(76 47)" fill="#007aff" stroke="#000" stroke-miterlimit="10" stroke-width="2"/>
    <path id="Combined_Shape_Copy_2" data-name="Combined Shape Copy 2" d="M.129,14v0A2.993,2.993,0,0,0,3,11,3,3,0,0,0,0,8,5.007,5.007,0,0,0,5,3a3,3,0,1,1,6,0,10.929,10.929,0,0,1-3.222,7.778A10.935,10.935,0,0,1,.129,14Z" transform="translate(73 50) rotate(-90)" fill="#b5ef41" stroke="#000" stroke-miterlimit="10" stroke-width="2"/>
    <path id="Combined_Shape_Copy" data-name="Combined Shape Copy" d="M.129,14v0A2.993,2.993,0,0,0,3,11,3,3,0,0,0,0,8,5.007,5.007,0,0,0,5,3a3,3,0,1,1,6,0,10.929,10.929,0,0,1-3.222,7.778A10.935,10.935,0,0,1,.129,14Z" transform="translate(79 50) rotate(90)" fill="#ff4237" stroke="#000" stroke-miterlimit="10" stroke-width="2"/>
    <path id="Combined_Shape_Copy_3" data-name="Combined Shape Copy 3" d="M.129,14v0A2.993,2.993,0,0,0,3,11,3,3,0,0,0,0,8,5.007,5.007,0,0,0,5,3a3,3,0,1,1,6,0,10.929,10.929,0,0,1-3.222,7.778A10.935,10.935,0,0,1,.129,14Z" transform="translate(76 53) rotate(180)" fill="#f8e71c" stroke="#000" stroke-miterlimit="10" stroke-width="2"/>
    <path id="Line_Copy" data-name="Line Copy" d="M0,0-3,3" transform="translate(54 53)" fill="none" stroke="#000" stroke-linecap="round" stroke-miterlimit="10" stroke-width="3"/>
    <path id="Line_Copy_2" data-name="Line Copy 2" d="M0,0-3,3" transform="translate(49 53)" fill="none" stroke="#000" stroke-linecap="round" stroke-miterlimit="10" stroke-width="3"/>
  </g>
</svg>
