<?xml version="1.0" encoding="UTF-8"?>
<svg width="258px" height="210px" viewBox="0 0 258 210" version="1.1" xmlns="http://www.w3.org/2000/svg" xmlns:xlink="http://www.w3.org/1999/xlink">
    <title>watermelon</title>
    <g id="Page-1" stroke="none" stroke-width="1" fill="none" fill-rule="evenodd">
        <g id="watermelon" transform="translate(3.000000, 3.000000)" fill-rule="nonzero">
            <g id="Group">
                <path d="M2.12,184.58 C-0.71,188.81 0.42,194.53 4.65,197.36 C5.26,197.77 5.92,198.1 6.61,198.36 L245.31,200.41 C250.1,198.71 252.61,193.44 250.91,188.65 C250.67,187.97 250.34,187.31 249.95,186.71 L129.36,1.92 C128.54,0.67 126.86,0.33 125.61,1.15 C125.31,1.34 125.06,1.6 124.86,1.89 L2.13,184.59 L2.12,184.58 Z" id="Oval_97_Copy_2" stroke="#4B4B4B" stroke-width="7" fill="#F16465"></path>
                <path d="M245.33,203.29 L245.33,203.29 L6.6,201.21 C1.75,199.36 -0.68,193.92 1.17,189.07 C1.42,188.43 1.73,187.81 2.11,187.24 L13.53,169.97 L238.92,172.19 L249.97,189.39 C252.78,193.76 251.51,199.58 247.13,202.39 C246.56,202.75 245.96,203.06 245.33,203.29 L245.33,203.29 L245.33,203.29 Z" id="Combined_Shape-2" stroke="#4B4B4B" stroke-width="7" fill="#FDE9E8" stroke-linecap="round" stroke-linejoin="round"></path>
                <path d="M245.32,203.3 L6.6,201.22 C1.75,199.37 -0.68,193.93 1.17,189.08 C1.42,188.44 1.73,187.82 2.11,187.25 L16.53,165.45 L235.8,167.36 L249.96,189.4 C252.77,193.77 251.5,199.59 247.13,202.4 C246.56,202.76 245.96,203.07 245.32,203.3 L245.32,203.3 L245.32,203.3 Z" id="Combined_Shape-3" stroke="#4B4B4B" stroke-width="7" fill="#86C143" stroke-linejoin="round"></path>
                <g id="Rectangle_130" transform="translate(122.000000, 137.000000)" fill="#4B4B4B">
                    <path d="M5.66,0.89 C6.45,0.89 7.16,1.36 7.48,2.08 L11.2,10.5 C12.83,14.2 10.12,18.36 6.08,18.36 C2.04,18.36 -0.88,14.2 0.64,10.36 L3.9,2.09 C4.19,1.36 4.89,0.88 5.67,0.88 L5.66,0.89 Z" id="Path"></path>
                </g>
                <g id="Rectangle_130_Copy_5" transform="translate(120.000000, 51.000000)" fill="#4B4B4B">
                    <path d="M6.36,0.05 C7.15,0.05 7.86,0.52 8.18,1.24 L11.9,9.66 C13.53,13.36 10.82,17.52 6.78,17.52 C2.74,17.52 -0.18,13.36 1.34,9.52 L4.6,1.25 C4.89,0.52 5.59,0.04 6.37,0.04 L6.36,0.05 Z" id="Path"></path>
                </g>
                <g id="Rectangle_130_Copy" transform="translate(96.000000, 96.000000)" fill="#4B4B4B">
                    <path d="M8.79,0.86 C9.56,1.02 10.16,1.63 10.32,2.4 L12.2,11.41 C13.03,15.37 9.51,18.88 5.55,18.03 C1.51,17.17 -0.39,12.52 1.89,9.08 L6.8,1.67 C7.23,1.02 8.02,0.7 8.78,0.86 L8.79,0.86 Z" id="Path"></path>
                </g>
                <g id="Rectangle_130_Copy_3" transform="translate(57.000000, 134.000000)" fill="#4B4B4B">
                    <path d="M9.31,0.11 C10.06,0.34 10.61,0.99 10.7,1.78 L11.79,10.92 C12.27,14.94 8.46,18.12 4.59,16.94 C0.64,15.73 -0.85,10.93 1.72,7.7 L7.25,0.75 C7.74,0.14 8.55,-0.11 9.3,0.11 L9.31,0.11 Z" id="Path"></path>
                </g>
                <g id="Rectangle_130_Copy_2" transform="translate(144.000000, 97.000000)" fill="#4B4B4B">
                    <path d="M3.85,0.63 C4.62,0.47 5.42,0.77 5.88,1.41 L11.27,8.87 C13.64,12.15 11.85,16.78 7.89,17.63 C3.93,18.48 0.22,15.01 0.9,10.94 L2.37,2.18 C2.5,1.41 3.09,0.79 3.85,0.63 L3.85,0.63 Z" id="Path"></path>
                </g>
                <g id="Rectangle_130_Copy_4" transform="translate(189.000000, 134.000000)" fill="#4B4B4B">
                    <path d="M2.62,0.28 C3.37,0.05 4.19,0.28 4.71,0.88 L10.73,7.85 C13.38,10.91 12,15.68 8.13,16.87 C4.18,18.08 0.26,14.93 0.59,10.81 L1.29,1.95 C1.35,1.17 1.88,0.51 2.63,0.28 L2.62,0.28 Z" id="Path"></path>
                </g>
            </g>
        </g>
    </g>
</svg>