<?xml version="1.0" encoding="UTF-8"?><svg id="Layer_1" xmlns="http://www.w3.org/2000/svg" viewBox="0 0 400 400"><defs><style>.cls-1{fill:#f8e610;}.cls-2{fill:#67c8f2;}</style></defs><g id="Groupe_2882"><g id="Groupe_2881"><g id="Groupe_2880"><g id="Group_55"><g id="sun"><g id="Group"><path id="Line" class="cls-1" d="m300.1,152.38v95.25c.03,3.84,3.17,6.93,7.01,6.9,3.84.03,6.98-3.06,7.01-6.9v-95.25c-.03-3.84-3.17-6.93-7.01-6.9-3.84-.03-6.98,3.06-7.01,6.9Z"/><path id="Line-2" class="cls-1" d="m354.34,193.76h-95.77c-3.84-.03-6.98,3.06-7.01,6.9.03,3.84,3.17,6.93,7.01,6.9h95.77c3.84.03,6.98-3.06,7.01-6.9-.03-3.84-3.17-6.93-7.01-6.9Z"/></g><g id="Group-2"><path id="Line-3" class="cls-1" d="m268.27,170.86l67.35,67.35c2.74,2.69,7.14,2.66,9.84-.08,2.74-2.69,2.77-7.1.08-9.84l-67.35-67.35c-2.74-2.69-7.14-2.66-9.84.08-2.74,2.69-2.77,7.1-.08,9.84Z"/><path id="Line-4" class="cls-1" d="m335.89,161.77l-67.72,67.72c-2.74,2.69-2.77,7.1-.08,9.84,2.74,2.69,7.14,2.66,9.84-.08l67.72-67.72c2.74-2.69,2.77-7.1.08-9.84-2.74-2.69-7.14-2.66-9.84.08Z"/></g><ellipse id="Oval_22_Copy_2" class="cls-1" cx="306.5" cy="201.19" rx="33.9" ry="33.33"/></g><path id="Path_97_Copy_2" class="cls-2" d="m75.3,150.26s-83.45,100.66,1.48,100.66-1.48-100.66-1.48-100.66Z"/><path id="Path_97_Copy_2-2" class="cls-2" d="m190.4,150.26s-83.45,100.66,1.48,100.66-1.48-100.66-1.48-100.66Z"/></g></g></g></g></svg>