<?xml version="1.0" encoding="UTF-8"?><svg xmlns="http://www.w3.org/2000/svg" viewBox="0 0 400 400"><defs><style>.cls-1,.cls-2,.cls-3{fill:none;}.cls-2{stroke:#4c4b4c;}.cls-2,.cls-3{stroke-width:7.09px;}.cls-4,.cls-5,.cls-6{opacity:.1;}.cls-4,.cls-7{fill:#f7c1c1;}.cls-5,.cls-8{fill:#cfeafa;}.cls-6,.cls-9{fill:#f6917e;}.cls-10{fill:#eec540;}.cls-11{fill:#fff;}.cls-12{fill:#9bcadf;}.cls-13{fill:#4c4b4c;}.cls-14{fill:#c4c4c4;isolation:isolate;opacity:.4;}.cls-3{stroke:#f8acae;stroke-linecap:round;stroke-linejoin:round;}</style></defs><g id="back"><rect class="cls-9" y="0" width="400" height="400"/><g><circle class="cls-9" cx="37.41" cy="156.36" r="6.27"/><circle class="cls-6" cx="37.41" cy="156.36" r="6.27"/></g><g><circle class="cls-9" cx="63.72" cy="229.17" r="6.27"/><circle class="cls-6" cx="63.72" cy="229.17" r="6.27"/></g><g><circle class="cls-8" cx="215.14" cy="334.1" r="6.27"/><circle class="cls-5" cx="215.14" cy="334.1" r="6.27"/></g><g><circle class="cls-7" cx="156.29" cy="134.75" r="6.27"/><circle class="cls-4" cx="156.29" cy="134.75" r="6.27"/></g><g><circle class="cls-8" cx="159.27" cy="108.47" r="3.29"/><circle class="cls-5" cx="159.27" cy="108.47" r="3.29"/></g><g><circle class="cls-8" cx="88.77" cy="123.44" r="3.29"/><circle class="cls-5" cx="88.77" cy="123.44" r="3.29"/></g><g><circle class="cls-8" cx="186.37" cy="44.9" r="3.29"/><circle class="cls-5" cx="186.37" cy="44.9" r="3.29"/></g><g><circle class="cls-9" cx="328.58" cy="160.82" r="3.29"/><circle class="cls-6" cx="328.58" cy="160.82" r="3.29"/></g><g><circle class="cls-8" cx="260.61" cy="105.18" r="6.27"/><circle class="cls-5" cx="260.61" cy="105.18" r="6.27"/></g><g><circle class="cls-9" cx="126.73" cy="289.35" r="3.29"/><circle class="cls-6" cx="126.73" cy="289.35" r="3.29"/></g><g><circle class="cls-9" cx="325.29" cy="273.41" r="6.27"/><circle class="cls-6" cx="325.29" cy="273.41" r="6.27"/></g><g><circle class="cls-9" cx="284.27" cy="171.05" r="1.65"/><circle class="cls-6" cx="284.27" cy="171.05" r="1.65"/></g><g><circle class="cls-9" cx="307.75" cy="216.92" r="1.65"/><circle class="cls-6" cx="307.75" cy="216.92" r="1.65"/></g><g><circle class="cls-8" cx="283.84" cy="48.65" r="1.65"/><circle class="cls-5" cx="283.84" cy="48.65" r="1.65"/></g><g><circle class="cls-8" cx="205.61" cy="89.49" r="1.65"/><circle class="cls-5" cx="205.61" cy="89.49" r="1.65"/></g><g><circle class="cls-9" cx="258.78" cy="255.19" r="1.65"/><circle class="cls-6" cx="258.78" cy="255.19" r="1.65"/></g><g><circle class="cls-8" cx="212.97" cy="296.15" r="1.65"/><circle class="cls-5" cx="212.97" cy="296.15" r="1.65"/></g><g><circle class="cls-8" cx="186.77" cy="322.35" r="1.65"/><circle class="cls-5" cx="186.77" cy="322.35" r="1.65"/></g><g><circle class="cls-9" cx="264.81" cy="286.2" r="1.65"/><circle class="cls-6" cx="264.81" cy="286.2" r="1.65"/></g><rect id="Rectangle_47" class="cls-9" x="-1.76" y="10.42" width="403.51" height="379.16"/></g><g id="Layer_1"><g id="Groupe_85"><ellipse id="Ellipse_15" class="cls-12" cx="198.23" cy="203.54" rx="88.6" ry="95.69"/><path id="Tracé_43" class="cls-11" d="m222.91,114.04l-6.7,46.43-14.29-3.69-26.01,1.86-5.2-43.64,17.01-3.62h22.06l13.13,2.65Z"/><g id="Ellipse_20"><ellipse class="cls-1" cx="198.23" cy="203.54" rx="88.6" ry="95.69"/><ellipse class="cls-2" cx="198.23" cy="203.54" rx="85.06" ry="92.15"/></g><path id="Tracé_44" class="cls-2" d="m217.04,158.5l5.6-41.31"/><path id="Tracé_45" class="cls-2" d="m176.57,158.5l-5.6-41.31"/><g id="Rectangle_14"><path class="cls-12" d="m104.31,178.73h0c6.85,0,12.4,5.55,12.4,12.4v31.9c0,6.85-5.55,12.4-12.4,12.4h0c-6.85,0-12.4-5.55-12.4-12.4v-31.9c0-6.85,5.55-12.4,12.4-12.4Z"/><path class="cls-2" d="m104.31,182.28h0c4.89,0,8.86,3.97,8.86,8.86v31.9c0,4.89-3.97,8.86-8.86,8.86h0c-4.89,0-8.86-3.97-8.86-8.86v-31.9c0-4.89,3.97-8.86,8.86-8.86Z"/></g><g id="Rectangle_14-2"><path class="cls-12" d="m291.34,178.73h0c6.85,0,12.4,5.55,12.4,12.4v31.9c0,6.85-5.55,12.4-12.4,12.4h0c-6.85,0-12.4-5.55-12.4-12.4v-31.9c0-6.85,5.55-12.4,12.4-12.4Z"/><path class="cls-2" d="m291.34,182.28h0c4.89,0,8.86,3.97,8.86,8.86v31.9c0,4.89-3.97,8.86-8.86,8.86h0c-4.89,0-8.86-3.97-8.86-8.86v-31.9c0-4.89,3.97-8.86,8.86-8.86Z"/></g><path id="Tracé_46" class="cls-2" d="m96.39,216.62h14.51"/><path id="Tracé_47" class="cls-2" d="m285.56,216.62h14.51"/><path id="Tracé_48" class="cls-2" d="m292.15,183.07v-66.75"/><g id="Ellipse_21"><circle class="cls-10" cx="292.15" cy="116.71" r="15.95"/><circle class="cls-2" cx="292.15" cy="116.71" r="12.4"/></g><ellipse id="Ellipse_22" class="cls-11" cx="196.54" cy="215.95" rx="74.43" ry="62.02"/><ellipse id="Ellipse_23" class="cls-14" cx="196.81" cy="215.95" rx="74.43" ry="62.02"/><circle id="Oval_2_Copy_3" class="cls-13" cx="164.49" cy="204.21" r="11.82"/><circle id="Oval_2_Copy_3-2" class="cls-13" cx="229.13" cy="204.21" r="11.82"/><path id="Oval_2_Copy_3-3" class="cls-3" d="m188.9,239.9c0,5.37,4.35,9.71,9.71,9.71h0c5.37,0,9.71-4.35,9.71-9.71h0"/><g id="Ellipse_24"><ellipse class="cls-1" cx="196.54" cy="215.95" rx="74.43" ry="62.02"/><ellipse class="cls-2" cx="196.54" cy="215.95" rx="70.88" ry="58.48"/></g><path id="Tracé_49" class="cls-11" d="m162.33,191.26c-2.4-1.43-4.61-2.8-6.87-4.08-2.51-1.43-2.68-2.19-.61-4.23,5.67-5.74,12.61-10.06,20.26-12.62,5.06-1.58,10.2-2.91,15.39-3.97,3.45-.75,4.02-.1,4.22,3.41.33,5.76.32,5.71-5.36,6.69-9.41,1.59-18.09,6.07-24.85,12.8-.7.68-1.44,1.31-2.19,2"/><g id="Groupe_29"><path id="Polygone_1" class="cls-10" d="m196.04,131.33c.2-.34.63-.45.97-.25.1.06.19.15.25.25l6.23,10.5c.2.34.08.77-.26.97-.11.06-.23.09-.35.09h-12.47c-.39,0-.71-.32-.7-.71,0-.12.03-.24.09-.35l6.23-10.5Z"/><path id="Polygone_2" class="cls-10" d="m202.63,134.68c.39,0,.71.33.7.72,0,.12-.03.24-.09.34l-5.97,10.65c-.2.34-.63.46-.97.26-.11-.06-.2-.15-.26-.26l-6.23-10.8c-.19-.34-.07-.77.27-.97.11-.06.23-.09.35-.09l12.21.15Z"/></g></g></g></svg>