<?xml version="1.0" encoding="UTF-8"?><svg id="Layer_1" xmlns="http://www.w3.org/2000/svg" xmlns:xlink="http://www.w3.org/1999/xlink" viewBox="0 0 400 400"><defs><style>.cls-1,.cls-2,.cls-3,.cls-4,.cls-5,.cls-6{fill:none;}.cls-7,.cls-8,.cls-9,.cls-2,.cls-3,.cls-4,.cls-5{stroke-width:5px;}.cls-7,.cls-8,.cls-9,.cls-3{stroke:#06579b;}.cls-7,.cls-8,.cls-9,.cls-3,.cls-4{stroke-linecap:round;stroke-linejoin:round;}.cls-7,.cls-10{fill:#ee3425;}.cls-8,.cls-11{fill:#fff;}.cls-9{fill:#feffff;}.cls-2{stroke-linecap:square;}.cls-2,.cls-4,.cls-5{stroke:#08579b;}.cls-12{fill:#0d0d0d;}.cls-6{clip-path:url(#clippath);}</style><clipPath id="clippath"><rect class="cls-1" x="115.78" y="87.97" width="168.44" height="224.07"/></clipPath></defs><g id="Groupe_7376"><path id="Tracé_4349" class="cls-9" d="m213.98,201.52l-10.82-3.71,44.74-27.72c2.64-1.64,6.06.26,6.06,3.37v19.84l-39.98,8.21Z"/></g><g id="Groupe_7378"><path id="Tracé_4351" class="cls-8" d="m226.53,196.03l-8.94-2.58,39.69-20.67c2.66-1.39,5.84.54,5.84,3.55v13.38l-36.6,6.33Z"/></g><g id="Groupe_7372"><path id="Tracé_4345" class="cls-3" d="m183.82,201.52l-39.97-8.21v-19.83c0-3.11,3.41-5.01,6.06-3.37l44.74,27.72-10.82,3.69Z"/></g><polygon class="cls-10" points="213.7 294.42 204.28 299.92 194.32 299.92 185.59 295.93 186.16 197.22 194.32 197.41 204.72 197.97 210.71 196.13 213.7 294.42"/><g class="cls-6"><g id="Groupe_7370"><g id="Groupe_7364-2"><path id="Tracé_4337" class="cls-11" d="m198.9,102.49c22.28.02,40.34,18.08,40.34,40.37,0,22.28-18.05,40.35-40.34,40.37-22.28-.02-40.33-18.09-40.33-40.37,0-22.28,18.05-40.35,40.33-40.37"/></g><g id="Groupe_7365"><path id="Tracé_4338" class="cls-5" d="m198.9,102.49c22.28.02,40.34,18.08,40.34,40.37,0,22.28-18.05,40.35-40.34,40.37-22.28-.02-40.33-18.09-40.33-40.37,0-22.28,18.05-40.35,40.33-40.37Z"/></g><g id="Groupe_7366"><path id="Tracé_4339" class="cls-12" d="m213.6,147.55c3.45,0,6.25,2.81,6.24,6.27,0,3.45-2.79,6.25-6.24,6.26-3.46,0-6.26-2.8-6.26-6.26,0,0,0,0,0,0,0-3.46,2.8-6.27,6.26-6.27h0"/></g><g id="Groupe_7367"><path id="Tracé_4340" class="cls-12" d="m185.46,147.55c3.45,0,6.25,2.81,6.24,6.27,0,3.45-2.79,6.25-6.24,6.26-3.46,0-6.26-2.8-6.26-6.26,0,0,0,0,0,0,0-3.46,2.8-6.27,6.26-6.27h0"/></g><g id="Groupe_7368"><path id="Tracé_4341" class="cls-5" d="m184.83,140.04c6.22,0,11.26,5.05,11.25,11.27h0c0,6.22-5.04,11.26-11.25,11.26-6.22,0-11.26-5.05-11.25-11.26,0-6.22,5.04-11.26,11.25-11.27h0Zm30.02,0c6.22,0,11.27,5.03,11.28,11.26,0,6.22-5.03,11.27-11.26,11.28-6.22,0-11.27-5.03-11.28-11.26,0,0,0,0,0-.01,0-6.22,5.04-11.26,11.25-11.27,0,0,0,0,0,0Z"/></g><g id="Groupe_7369"><path id="Tracé_4342" class="cls-4" d="m173.36,150.54s-10.32-15.56-12.97-18.77c-.5-.97-1.69-1.35-2.66-.85,0,0,0,0,0,0-.53.28-.91.78-1.03,1.37m69.17,17.15s5.17-7.65,7.07-10.42c2.59-3.74,4.34-6.16,5.25-7.26,1.98-2.36,2.69-.24,2.69,0"/></g></g></g><g id="Groupe_7371"><path id="Tracé_4344" class="cls-2" d="m197.98,150.76h5.5"/></g><g id="Groupe_7374"><path id="Tracé_4347" class="cls-3" d="m171.27,196.03l-36.6-6.33v-13.39c0-2.99,3.18-4.92,5.83-3.54l39.7,20.68-8.93,2.58Z"/></g><path class="cls-7" d="m130.74,176.46l57.16,18.67v102.96s-59.76-21.62-59.76-21.62c-1.58-.57-2.64-2.08-2.64-3.76v-92.45c0-2.72,2.66-4.65,5.24-3.8Z"/><path class="cls-7" d="m267.87,176.46l-57.16,18.67v102.96s59.76-21.62,59.76-21.62c1.58-.57,2.64-2.08,2.64-3.76v-92.45c0-2.72-2.66-4.65-5.24-3.8Z"/><path class="cls-3" d="m187.89,195.13s10.47,6.22,22.82,0"/><path class="cls-3" d="m187.89,298.16s10.47,6.22,22.82,0"/></svg>