<?xml version="1.0" encoding="UTF-8"?><svg xmlns="http://www.w3.org/2000/svg" viewBox="0 0 400 400"><defs><style>.cls-1{fill:#ffd69f;}.cls-2{stroke-miterlimit:10;}.cls-2,.cls-3,.cls-4{stroke:#4b4b4b;stroke-width:7px;}.cls-2,.cls-4{fill:none;stroke-linecap:round;}.cls-3{fill:#efb34b;stroke-miterlimit:10;}.cls-4{stroke-linejoin:round;}</style></defs><g id="back"><rect class="cls-1" y="0" width="400" height="400"/></g><g id="Layer_1"><g id="Groupe_50"><g id="Group_2"><path id="Combined_Shape" class="cls-3" d="m75.24,196.27c0-48.38,40.19-88.99,94.45-100.2l3.93-6.62c1.69-2.84,7.2-4.81,13.48-4.81h25.1c6.12,0,11.53,1.87,13.36,4.6l4.51,6.77c54.37,11.14,94.68,51.8,94.68,100.25,0,57.03-55.86,103.28-124.76,103.28s-124.76-46.24-124.76-103.27Z"/><g id="Group"><path id="Oval_38" class="cls-2" d="m186.77,272.54c-18.85-46.11-19.9-97.57-2.96-144.41"/><path id="Oval_38-2" class="cls-2" d="m214.63,272.55c18.85-46.11,19.9-97.57,2.96-144.41"/><path id="Oval_38-3" class="cls-2" d="m249.66,271.14c19.02-23.82,28.39-48.22,28.93-72.57.44-26-8.37-51.3-24.87-71.4"/><path id="Oval_38-4" class="cls-2" d="m152.76,271.14c-19.02-23.82-28.39-48.22-28.93-72.57-.44-26,8.37-51.3,24.87-71.4"/></g><path id="Path_236" class="cls-4" d="m199.39,300.76l10.95,13.39"/><path id="Path_236-2" class="cls-4" d="m199.39,299.54l-10.95,13.39"/><path id="Path_237" class="cls-4" d="m200.61,315.36v-15.82"/></g></g></g></svg>