<?xml version="1.0" encoding="UTF-8"?><svg id="Layer_1" xmlns="http://www.w3.org/2000/svg" viewBox="0 0 400 400"><defs><style>.cls-1{fill:#f8e610;}.cls-2{fill:#67c8f2;}.cls-3,.cls-4,.cls-5,.cls-6{stroke-linecap:round;}.cls-3,.cls-4,.cls-6{stroke-linejoin:round;}.cls-3,.cls-5{stroke:#282c6c;stroke-width:5.15px;}.cls-3,.cls-5,.cls-6{fill:none;}.cls-4{fill:#ef4036;}.cls-4,.cls-6{stroke:#ef4034;stroke-width:7.73px;}.cls-5{stroke-miterlimit:10;}</style></defs><g id="Groupe_2864"><g id="Groupe_2863"><g id="Group_55"><g id="sun"><g id="Group"><path id="Line" class="cls-1" d="m300.33,99.05v95.25c.03,3.84,3.17,6.93,7.01,6.9,3.84.03,6.98-3.06,7.01-6.9v-95.25c-.03-3.84-3.17-6.93-7.01-6.9-3.84-.03-6.98,3.06-7.01,6.9Z"/><path id="Line-2" class="cls-1" d="m354.57,140.43h-95.77c-3.84-.03-6.98,3.06-7.01,6.9.03,3.84,3.17,6.93,7.01,6.9h95.77c3.84.03,6.98-3.06,7.01-6.9-.03-3.84-3.17-6.93-7.01-6.9Z"/></g><g id="Group-2"><path id="Line-3" class="cls-1" d="m268.5,117.54l67.35,67.35c2.74,2.69,7.14,2.66,9.84-.08,2.74-2.69,2.77-7.1.08-9.84l-67.35-67.35c-2.74-2.69-7.14-2.66-9.84.08-2.74,2.69-2.77,7.1-.08,9.84Z"/><path id="Line-4" class="cls-1" d="m336.11,108.45l-67.72,67.72c-2.74,2.69-2.77,7.1-.08,9.84,2.74,2.69,7.14,2.66,9.84-.08l67.72-67.72c2.74-2.69,2.77-7.1.08-9.84-2.74-2.69-7.14-2.66-9.84.08Z"/></g><ellipse id="Oval_22_Copy_2" class="cls-1" cx="306.73" cy="147.87" rx="33.9" ry="33.33"/></g></g><path id="Line_8" class="cls-5" d="m109.09,224.57l41.11,30.53"/><path id="Path_9" class="cls-3" d="m147.8,235.4l5.77,22.66-23.27.28"/></g><g id="Group_56"><path id="Oval_12" class="cls-4" d="m119.32,180.96c0-22.34-18.11-40.45-40.45-40.45s-40.45,18.11-40.45,40.45h0"/><path id="Line_7" class="cls-6" d="m38.42,180.97h101.14"/></g><path id="Path_97_Copy_2" class="cls-2" d="m198.93,89.54s-83.45,100.66,1.48,100.66-1.48-100.66-1.48-100.66Z"/><g id="Group_56-2"><path id="Oval_12-2" class="cls-4" d="m248.81,310.45c0-22.34-18.11-40.45-40.45-40.45s-40.45,18.11-40.45,40.45h0"/><path id="Line_7-2" class="cls-6" d="m167.91,310.46h101.14"/></g></g></svg>