<?xml version="1.0" encoding="UTF-8"?><svg xmlns="http://www.w3.org/2000/svg" viewBox="0 0 400 400"><defs><style>.cls-1{fill:#83b7b3;}.cls-2{fill:#4b4b4b;}.cls-3{fill:#d8d9d8;stroke:#4b4b4b;stroke-linecap:round;stroke-linejoin:round;stroke-width:7px;}</style></defs><g id="back"><rect class="cls-1" x="0" width="400" height="400"/></g><g id="Layer_1"><g><g><g><path id="Tracé_159" class="cls-3" d="m109.34,245.38s-14.72-17.93-19.68-9.68c-2.32,3.86-4.38,66.76,39.67,42.92"/><path id="Tracé_166" class="cls-3" d="m243.56,139.41s-59.85-67.4-62.69-40.39"/><path class="cls-3" d="m289.53,148.32s-24-25.73-51.15-10c0,0-71.17-55.46-80.03-42.02,0,0-5.72,14.29,15.15,24.87,20.87,10.58,52.88,26.3,52.88,26.3,0,0-9.52,13.34-7.43,29.14l-93.27,56.08,66.95,53.79c33.1,1.32,55.04-37.36,55.04-37.36-1.7,14.75,5.17,46.23,7.82,50.02,2.65,3.78,14.31,8.61,24.34,7.86.05,0,.1,0,.15,0,5.44-.2,9.69-4.77,9.5-10.21,1.52-15.13-17.4-11.54-17.4-11.54l-2.25-40.51c7.38-12.13,2.92-24.31-.07-30.08l-6.43-5.64c15.98,1.92,35.83.84,45.39-13.36,0,0,13.15-18.47-19.17-47.33Z"/><circle id="Oval_12" class="cls-2" cx="275.9" cy="165.62" r="2.87"/><path id="Tracé_168" class="cls-3" d="m181.67,227.74s34.42,0,32.91,32.15c0,0-.38,22.7-32.91,24.97h33.66s8.82-1.1,10.02,10.21c1.21,11.31-1.43,12.25-8.32,12.25h-82.84c-4.65.49-8.81-2.87-9.3-7.52-.07-.69-.06-1.39.04-2.08.76-10.21,9.64-7.19,3.02-22.7-6.62-15.51-24.77-23.51-20.87-53.49,3.9-29.98,26.9-39.84,47.64-43.33,20.74-3.49,63.66,0,63.66,0"/></g><path class="cls-2" d="m310.02,176.86c-1.71-1.32-4.45-.48-5.59,1.36s-.91,4.26.03,6.21,2.49,3.51,4.02,5.04c2.48-3.46,2.64-8.43.38-12.04"/></g><circle id="Ellipse_792" class="cls-2" cx="275.6" cy="165.65" r="4.16"/></g></g></svg>