<?xml version="1.0" encoding="UTF-8"?><svg xmlns="http://www.w3.org/2000/svg" viewBox="0 0 400 400"><defs><style>.cls-1{fill:#c0cedc;}.cls-2{fill:#4d4b4d;}.cls-3{fill:#69c6f1;}.cls-3,.cls-4,.cls-5,.cls-6,.cls-7{stroke:#4d4b4d;}.cls-3,.cls-4,.cls-5,.cls-7{stroke-miterlimit:10;}.cls-4,.cls-5{fill:#f8bc96;}.cls-5,.cls-6,.cls-7{stroke-width:6.99px;}.cls-6{stroke-linecap:round;stroke-linejoin:round;}.cls-6,.cls-7{fill:none;}</style></defs><g id="back"><rect class="cls-1" x="0" width="400" height="400"/></g><g id="Layer_6"><g id="Group_Copy_2"><circle id="Oval_10" class="cls-4" cx="200" cy="200.47" r="72.39"/><path id="Path_7" class="cls-3" d="m137.57,187.78c9.76-9.77,26.65-23.49,38.72-24.86,12.07-1.37,8.54,14.54,23.39,14.54s12.98-12.65,12.98-12.65c0,0-1.13,13.52,12.45,13.52s6.09-18.2,18.68-15.12,24.24,13.67,24.24,13.67c0,0-14.39-28.5-33.87-41.67-19.48-13.17-56.41-8.61-70.51,2.21-14.1,10.82-34,33.16-34,43.27s-1.84,16.86,7.92,7.1Z"/><circle id="Oval_10-2" class="cls-7" cx="200" cy="200.47" r="72.39"/><ellipse id="Oval_7_Copy_4" class="cls-2" cx="225.01" cy="207.51" rx="7.06" ry="7.04"/><ellipse id="Oval_7_Copy_5" class="cls-2" cx="176.2" cy="207.51" rx="7.06" ry="7.04"/><path id="Path_8" class="cls-6" d="m139.55,186.52c7.74-9.42,23.3-22.12,36.19-22.12s11.77,12.99,22.3,12.99,15.37-11.66,15.37-11.66c0,0,0,11.95,10.14,11.8s11.35-15,22.4-11.8c8.04,2.76,15.6,6.74,22.43,11.8"/><circle id="Oval_51" class="cls-5" cx="117.63" cy="205.47" r="9.98"/><circle id="Oval_51_Copy" class="cls-5" cx="282.37" cy="205.47" r="9.98"/></g></g></svg>