<?xml version="1.0" encoding="UTF-8"?><svg id="Layer_1" xmlns="http://www.w3.org/2000/svg" viewBox="0 0 400 400"><defs><style>.cls-1{fill:#f8e610;}.cls-2{stroke-linejoin:round;}.cls-2,.cls-3{fill:none;stroke:#282c6c;stroke-linecap:round;stroke-width:5.15px;}.cls-3{stroke-miterlimit:10;}</style></defs><g id="Groupe_2849"><g id="Groupe_2848"><g id="Groupe_2847"><g id="Group_55"><g id="sun"><g id="Group"><path id="Line" class="cls-1" d="m268.18,220.84v95.25c.03,3.84,3.17,6.93,7.01,6.9,3.84.03,6.98-3.06,7.01-6.9v-95.25c-.03-3.84-3.17-6.93-7.01-6.9-3.84-.03-6.98,3.06-7.01,6.9Z"/><path id="Line-2" class="cls-1" d="m322.42,262.22h-95.77c-3.84-.03-6.98,3.06-7.01,6.9.03,3.84,3.17,6.93,7.01,6.9h95.77c3.84.03,6.98-3.06,7.01-6.9-.03-3.84-3.17-6.93-7.01-6.9Z"/></g><g id="Group-2"><path id="Line-3" class="cls-1" d="m236.35,239.32l67.35,67.35c2.74,2.69,7.14,2.66,9.84-.08,2.74-2.69,2.77-7.1.08-9.84l-67.35-67.35c-2.74-2.69-7.14-2.66-9.84.08-2.74,2.69-2.77,7.1-.08,9.84Z"/><path id="Line-4" class="cls-1" d="m303.97,230.23l-67.72,67.72c-2.74,2.69-2.77,7.1-.08,9.84,2.74,2.69,7.14,2.66,9.84-.08l67.72-67.72c2.74-2.69,2.77-7.1.08-9.84-2.74-2.69-7.14-2.66-9.84.08Z"/></g><ellipse id="Oval_22_Copy_2" class="cls-1" cx="274.58" cy="269.65" rx="33.9" ry="33.33"/></g><g id="sun-2"><g id="Group-3"><path id="Line-5" class="cls-1" d="m119.11,83.92v95.25c.03,3.84,3.17,6.93,7.01,6.9,3.84.03,6.98-3.06,7.01-6.9v-95.25c-.03-3.84-3.17-6.93-7.01-6.9-3.84-.03-6.98,3.06-7.01,6.9Z"/><path id="Line-6" class="cls-1" d="m173.35,125.3h-95.77c-3.84-.03-6.98,3.06-7.01,6.9.03,3.84,3.17,6.93,7.01,6.9h95.77c3.84.03,6.98-3.06,7.01-6.9-.03-3.84-3.17-6.93-7.01-6.9Z"/></g><g id="Group-4"><path id="Line-7" class="cls-1" d="m87.27,102.4l67.35,67.35c2.74,2.69,7.14,2.66,9.84-.08,2.74-2.69,2.77-7.1.08-9.84l-67.35-67.35c-2.74-2.69-7.14-2.66-9.84.08-2.74,2.69-2.77,7.1-.08,9.84Z"/><path id="Line-8" class="cls-1" d="m154.89,93.31l-67.72,67.72c-2.74,2.69-2.77,7.1-.08,9.84,2.74,2.69,7.14,2.66,9.84-.08l67.72-67.72c2.74-2.69,2.77-7.1.08-9.84-2.74-2.69-7.14-2.66-9.84.08Z"/></g><ellipse id="Oval_22_Copy_2-2" class="cls-1" cx="125.51" cy="132.73" rx="33.9" ry="33.33"/></g></g><g id="Groupe_2846"><path id="Line_8" class="cls-3" d="m167.76,188.23l35.92,36.25"/><path id="Path_9" class="cls-2" d="m204.59,204.34l2.56,23.25-23.08-2.96"/></g></g></g></g></svg>