<?xml version="1.0" encoding="UTF-8"?>
<svg width="28px" height="28px" viewBox="0 0 28 28" version="1.1" xmlns="http://www.w3.org/2000/svg" xmlns:xlink="http://www.w3.org/1999/xlink">
    <title>button_notification</title>
    <g id="Page-1" stroke="none" stroke-width="1" fill="none" fill-rule="evenodd">
        <g id="button_notification" fill-rule="nonzero">
            <path d="M14,0 C21.7319865,0 28,6.2680135 28,14 C28,21.7319865 21.7319865,28 14,28 C6.2680135,28 0,21.7319865 0,14 C0,6.2680135 6.2680135,0 14,0" id="Tracé_3696" fill="#EF7820"></path>
            <path d="M13.2600127,19.4 C12.9660478,19.1151279 12.9152408,18.6618639 13.1388393,18.3189773 C13.3624379,17.9760908 13.7977001,17.8397957 14.1769284,17.9939171 C14.5561567,18.1480385 14.7729394,18.54933 14.6939495,18.9509867 C14.6149596,19.3526434 14.2623617,19.6419603 13.8530127,19.641 C13.6306196,19.6456079 13.416141,19.5584421 13.2600127,19.4 M13.1940127,9 L14.5120127,9 L14.4240127,16.061 L13.2820127,16.061 L13.1940127,9 Z" id="Tracé_3697" fill="#FFFFFF"></path>
        </g>
    </g>
</svg>