<?xml version="1.0" encoding="UTF-8"?><svg xmlns="http://www.w3.org/2000/svg" viewBox="0 0 400 400"><defs><style>.cls-1,.cls-2{fill:#d7dfea;}.cls-3{fill:#83b7b3;}.cls-4{fill:#4b4b4b;}.cls-5{fill:#84869c;}.cls-5,.cls-6,.cls-2,.cls-7{stroke-miterlimit:10;}.cls-5,.cls-6,.cls-2,.cls-7,.cls-8{stroke:#4b4b4b;stroke-width:7px;}.cls-6{fill:#f5b26a;}.cls-7,.cls-8{fill:none;}.cls-8{stroke-linecap:round;stroke-linejoin:round;}</style></defs><g id="back"><rect class="cls-3" y="0" width="400" height="400"/></g><g id="Layer_1"><g><path id="Path_275" class="cls-6" d="m185.2,204.59v-107.27c0-3.11-2.52-5.63-5.63-5.63,0,0-.01,0-.02,0h-38.17c-3.11,0-5.63,2.52-5.63,5.63v31.25c0,1.04-.85,1.88-1.88,1.88-.34,0-.68-.09-.97-.27l-3.94-2.4c-1.31-.8-3.02-.4-3.84.89l-4.81,7.51c-.84,1.31-.46,3.05.84,3.89l10.31,6.69c2.68,1.74,4.29,4.72,4.28,7.92v148c0,3.11,2.52,5.63,5.63,5.63h38.18c3.11,0,5.63-2.52,5.63-5.63l.02-98.08Z"/><circle id="Oval_Copy" class="cls-5" cx="258.98" cy="141.1" r="21.16"/><circle id="Oval_Copy_2" class="cls-5" cx="193.14" cy="127.93" r="21.16"/><circle id="Oval_2" class="cls-2" cx="193.14" cy="127.93" r="7.05"/><circle id="Oval_2_Copy" class="cls-2" cx="258.98" cy="141.1" r="7.05"/><path id="Path_272" class="cls-1" d="m229.97,184.9l-15.04,1.52c-3.69.37-7.16,1.94-9.87,4.47l-10.15,9.5c-6.82,6.38-15.1,10.99-24.11,13.45l-33.7,9.19c-7,1.91-11.18,9.07-9.39,16.1h0c1.8,7.07,8.87,11.43,16,9.88l42.22-9.23-1.08,14.23c-.18,2.34-2.13,4.14-4.47,4.14h0l-6.09,10.45v28.23l4.36,5.98,5.89,1.51,5.46-4.01,5.6-16.01,4.12,9c1.53,3.35,4.29,5.98,7.7,7.35l1.08.44c2.77,1.12,5.8,1.48,8.76,1.06l5.68-.82c4.51-.65,26.12-16.09,28.81-19.78l7.45-13.75c10.89-37.82-18.91-83.09-18.91-83.09l-10.3.21Z"/><circle id="Oval" class="cls-2" cx="222.77" cy="155.68" r="35.75"/><path id="Path_273" class="cls-8" d="m224.15,276.44v-1.31c0-13.88-11.25-25.13-25.13-25.13h0c-13.88,0-25.13,11.25-25.13,25.13v19.76c0,4.45,3.25,8.23,7.65,8.9h0c4.35.66,8.49-2.08,9.6-6.33l3.56-13.69c.13-.5.64-.81,1.14-.68.32.08.58.33.67.65l2.31,7.84c1.93,6.56,7.96,11.07,14.8,11.07h2c8.74,0,17.19-3.13,23.82-8.82l4.38-3.76c9.45-8.11,15.67-19.35,17.51-31.67l.51-3.49c2.2-14.74.14-29.8-5.93-43.4l-11.7-26.2"/><path id="Path_272-2" class="cls-8" d="m229.97,200.27l-9.65-6.18c-6.52-4.17-15.04-3.39-20.69,1.89l-4.72,4.42c-6.82,6.38-15.1,10.99-24.11,13.45l-33.7,9.18c-7,1.91-11.18,9.07-9.39,16.1h0c1.8,7.07,8.87,11.43,16,9.88l44.16-9.66c9.26-2.02,17.69-6.8,24.18-13.69l5.89-6.25"/><circle id="Oval_84" class="cls-4" cx="211.01" cy="141.1" r="3.29"/><circle id="Oval_84_Copy" class="cls-4" cx="240.17" cy="148.63" r="3.29"/><path id="Path_274" class="cls-7" d="m190.66,237.93v13.46"/><path class="cls-5" d="m223.95,149.74h0c3.8.88,6.16,4.66,5.29,8.46l-1.48,6.41c-.88,3.8-4.66,6.16-8.46,5.29h0c-3.8-.88-6.16-4.66-5.29-8.46l1.48-6.41c.88-3.8,4.66-6.16,8.46-5.29Z"/></g></g></svg>