<?xml version="1.0" encoding="UTF-8"?><svg xmlns="http://www.w3.org/2000/svg" viewBox="0 0 400 400"><defs><style>.cls-1{fill:#fff;}.cls-2{fill:#3a3b3a;}.cls-3{fill:#83b7b3;}.cls-4{fill:#ed5324;stroke:#4b4b4b;stroke-linecap:round;stroke-linejoin:round;stroke-width:7px;}</style></defs><g id="back"><rect class="cls-3" y="0" width="400" height="400"/></g><g id="Layer_1"><g><g id="Groupe_2508"><circle id="Ellipse_743" class="cls-4" cx="226.24" cy="152.77" r="20.24"/><circle id="Ellipse_744" class="cls-1" cx="226.24" cy="152.78" r="14.24"/><circle id="Ellipse_746" class="cls-4" cx="173.72" cy="152.98" r="20.24"/><circle id="Ellipse_747" class="cls-1" cx="173.72" cy="152.98" r="14.24"/><circle id="Ellipse_35" class="cls-2" cx="172.66" cy="147.49" r="4.18"/><circle id="Ellipse_750" class="cls-2" cx="227.19" cy="147.49" r="4.18"/></g><path class="cls-4" d="m334.05,236.07c-1.88-4.35-5.19-7.92-9.37-10.13-11.8-7.5-25.32-11.86-39.28-12.67-1.42-.18-2.84-.21-4.25-.1-1.25-5.6-3.34-10.97-6.16-16.02,12.94-6.03,22.19-18.37,24.01-32.99-.06-2.16.58-4.29,1.82-6.06,1.36-1.14,2.98-1.93,4.72-2.31,8.59-3.39,14.89-10.88,16.75-19.92,1.72-8.97.53-18.25-3.41-26.49-9.05,7.45-16.27,16.87-21.14,27.54-1.64-12.14-4.08-24.17-7.3-35.99-6.21,1.95-11.54,6.03-15.05,11.53-8.23,12.9-4.44,30.02,8.45,38.25,1.39.69,2.59,1.7,3.5,2.96.47.96.72,2.02.73,3.1.47,13.04-8.04,24.72-20.6,28.25l-.15,1.17c-15.9-18.65-42.8-30.91-73.3-30.91-24.4,0-46.49,7.85-62.5,20.53-12.06-3.83-20.16-15.25-19.69-27.97,0-1.07.26-2.13.73-3.1.91-1.26,2.11-2.27,3.5-2.96,12.9-8.23,16.68-25.35,8.45-38.25-3.5-5.49-8.83-9.57-15.04-11.53-3.22,11.82-5.66,23.85-7.3,35.99-4.86-10.67-12.09-20.08-21.14-27.54-3.94,8.24-5.13,17.52-3.41,26.49,1.86,9.04,8.16,16.54,16.75,19.92,1.74.38,3.35,1.17,4.72,2.31,1.24,1.77,1.88,3.89,1.82,6.06,1.62,13.03,9.15,24.25,19.93,30.8-2.67,3.12-5.04,6.42-7.06,9.87-5.82-1.32-11.91-1.18-17.72.47-7.91,2.28-15.37,5.92-22.03,10.76-2.47,1.52-4.66,3.45-6.48,5.72-1.82,2.31-2.5,5.32-1.84,8.18.78,2.89,3.55,4.79,6.53,4.47,2.54-.48,4.24-2.79,5.95-4.73,6.95-7.8,17.23-11.78,27.63-10.69l2.53-2.13c-1.38,4.26-2.27,8.68-2.62,13.21-1.57-.04-3.14.14-4.66.56-2.4.76-4.68,1.82-6.81,3.16-4.02,2.33-7.97,4.78-11.83,7.36-3.12,1.82-5.83,4.26-7.96,7.18-2.13,3.01-2.37,6.96-.62,10.2,2.01,2.92,5.8,4.02,9.05,2.62,3.16-1.47,4.77-4.92,7.02-7.57,4.11-4.86,10.3-7.04,16.65-8.4.96,4.99,2.59,9.8,4.8,14.39-5.31,2.87-10.25,6.39-14.68,10.49-3.96,3.1-7.55,6.64-10.69,10.56-3.16,3.96-4.86,8.89-4.82,13.96-.12,3.19,1.66,6.15,4.54,7.54,2.78.65,5.68-.38,7.43-2.62,1.68-2.22,3.07-4.64,4.15-7.21,4.76-9.18,12.8-16.16,22.44-19.65,15.77,19.31,43.14,32.08,74.27,32.08,28.16,0,53.25-10.45,69.45-26.74,3.34,1.12,6.62,2.43,9.83,3.91,6.43,3,11.7,8.04,15,14.32,2.45,5.19,3.03,11.15,5.92,16.1,1.1,2.25,3.13,3.92,5.55,4.58,2.61.3,5.17-.88,6.63-3.07,1.4-2.18,2.14-4.71,2.11-7.3.38-11.35-7.13-21.56-15.93-28.73-5.94-4.83-12.57-8.72-19.65-11.56,2.12-3.32,3.92-6.79,5.36-10.38,5.46.26,10.72,1.43,15.18,4.52,6.95,4.81,10.34,13.15,15.35,19.96,1.43,1.96,3.48,3.98,5.88,3.72,2.4-.27,3.94-2.7,4.62-5.02,1.77-7.98-.96-16.3-7.12-21.67-6.13-5.2-13.43-8.85-21.28-10.64-3.09-.87-6.21-1.62-9.35-2.27.35-1.93.59-3.88.74-5.86l4.53.2c10,.44,20.95,1.28,28.16,8.21,2.07,1.98,3.71,4.39,5.84,6.32,2.02,2.1,4.89,3.16,7.79,2.88,4.62-.83,6.84-6.74,5.37-11.2Z"/></g></g></svg>