<?xml version="1.0" encoding="UTF-8"?><svg xmlns="http://www.w3.org/2000/svg" viewBox="0 0 400 400"><defs><style>.cls-1,.cls-2{fill:#fff;}.cls-3,.cls-4{fill:#898a95;}.cls-5{fill:#83b7b3;}.cls-6{fill:#4b4b4b;}.cls-7{fill:none;stroke-miterlimit:10;}.cls-7,.cls-8,.cls-4,.cls-2{stroke:#4b4b4b;stroke-linecap:round;stroke-width:7px;}.cls-8{fill:#5e606c;}.cls-8,.cls-4,.cls-2{stroke-linejoin:round;}</style></defs><g id="back"><rect class="cls-5" y="0" width="400" height="400"/></g><g id="Layer_1"><g><g id="_82_elephant"><g id="Groupe_4"><path id="Tracé_59" class="cls-4" d="m236.03,186.93s12.4,60.96,12.57,67.82c.17,6.85.71,19.26,3.85,22.02,3.14,2.76,6.3,4.56,5.8,9.13-.5,4.57-35.63,0-35.63,0,1.83-4.34,4.18-8.45,6.99-12.23,3-3.1,3.7-20.7-13.63-42.67"/><path id="Tracé_60" class="cls-4" d="m106.64,233.38s-5.77,30.95-2.88,35.19c3,3.66,6.34,7.03,9.96,10.08,1.65,2.22,2.21,5.07,1.51,7.74h-35.4s-1.88-2.9,0-4.99c2.98-5.28,5.01-11.05,5.98-17.03.44-4.43-5.2-59.85-5.2-59.85"/><path id="Tracé_61" class="cls-7" d="m76.64,159.46s-13.53,23.6-7.46,68.62"/></g><path id="Tracé_69" class="cls-3" d="m229.76,195.29l-8.36-4.88-89.86,22.99v4.88l14.6.19,83.62-23.17Z"/><path id="Tracé_64" class="cls-4" d="m130.53,216.59h0c-.47,3.97,1.59,21.67,1.06,30.01-.53,8.35,17.62,33.49,18.68,34.18,1.07.68-.29,5.01-.29,5.01l-31.9.61s-1.67-3.49-.53-5.62c1.14-2.13-.48-20.55-.48-20.55-3.46-27.67-21.4-36.86-21.4-36.86-24.19-14.24-22.48-61.03-17.32-68.16,5.15-7.14,30.76-42.58,59.18-34.57,28.42,8,30.95-1.55,45.73-.36.31.03.63.04,1.2.06,15.15.51,51.54-13.72,75.58-5.92,24.56,7.97,35.05,51.16,35.05,51.16,1.88,2.64,3.47,5.48,4.72,8.47"/><path id="Tracé_66" class="cls-4" d="m130.52,220.31s52.33,2.44,60.99-5.21c0,0,3.88,8.44,4.94,10.97,1.05,2.52,3.37,38.45,3.8,40.97s-6.06,14.84-5.76,15.44c.3.59-.6,3.71.6,3.86,1.21.15,28.97,0,28.97,0,0,0,2.41-5.34.9-6.38-1.51-1.04-9.2-7.72-8.75-11.87.23-2.08,1.22-17.03,3.67-33.18,2.45-16.15,6.35-33.47,12.38-40.23"/><path id="Tracé_68" class="cls-4" d="m302.94,185.09s7.23,33.6-7.37,44.17c-7.86,6.19-19.12,5.47-26.13-1.67,0,0-6.81-9.31-5.7-12.92,1.11-3.61,6.26-3.48,9.59.7,3.34,4.17,9.18,13.07,16.13,4.73,6.95-8.34,3.23-32.62-7.36-37.72"/><path id="Tracé_70" class="cls-1" d="m254.84,185.61l-1.39-7.48c2.23-1.07,4.72-1.24,7.04-.49,4.21,1.18,10.76,3.54,10.76,3.54l-16.42,4.44Z"/><path id="Tracé_71" class="cls-2" d="m275.09,169.99s31.28,18.87,57.29-7.55c0,0-7.82,26.15-43.14,22.24,0,0-19.95-6.6-27.36-8.49s-10.99,1.71-10.99,1.71"/><circle id="Oval_90" class="cls-6" cx="273.78" cy="150.44" r="4.44"/><path id="Tracé_65" class="cls-8" d="m244.53,127.43s-18.6-28.14-41.97-1.67c0,0-12.16,17.88-8.35,37.44,3.81,19.55,63.9,50.55,58.42,23.61-3.7-19.64-6.41-39.46-8.11-59.37"/></g><path class="cls-6" d="m264.92,178.3l.22-.1c.79-.36,1.17-1.15,1.07-1.96-.21-1.58.67-3.12,2.37-3.95,2.15-1.05,5.11-.75,7.15.58.8.52,1.89.46,2.65-.12l.04-.03c1.13-.87,1.06-2.51-.15-3.29-3.39-2.2-8.11-2.63-11.78-.83-3.39,1.66-5.16,4.84-4.76,8.07.17,1.43,1.81,2.27,3.19,1.64Z"/></g></g></svg>