<?xml version="1.0" encoding="UTF-8"?><svg xmlns="http://www.w3.org/2000/svg" viewBox="0 0 400 400"><defs><style>.cls-1{fill:#ffd69f;}.cls-2{fill:none;stroke-miterlimit:10;}.cls-2,.cls-3{stroke:#4b4b4b;stroke-linecap:round;stroke-width:7px;}.cls-3{fill:#b8d542;stroke-linejoin:round;}</style></defs><g id="back"><rect class="cls-1" y="0" width="400" height="400"/></g><g id="Layer_1"><g><g id="Group_4"><path id="Path_113" class="cls-3" d="m186.06,143.94c-20.98-8.99-49.63-4.1-62.5,20.04-16.21,30.41-.38,76.89,13.66,96.63,14.04,19.74,33.5,41.64,62.62,28.28,29.08,13.36,48.91-8.2,62.95-27.95,14.04-19.75,29.87-66.22,13.66-96.63-12.87-24.14-41.52-29.02-62.5-20.04-5.45,2.33-8.67,4.57-14.14,4.57-5.07,0-8.29-2.56-13.74-4.89Z"/><path id="Path_114" class="cls-2" d="m199.85,148.25c.15-7.77,2.08-26.9-13.07-37.12"/></g><path id="Path_120" class="cls-3" d="m199.8,125.08c7.44-25.68,32.99-16.54,32.99-16.54,0,0-16.49,24.2-32.99,16.54Z"/></g></g></svg>