<?xml version="1.0" encoding="UTF-8"?>
<svg width="262px" height="216px" viewBox="0 0 262 216" version="1.1" xmlns="http://www.w3.org/2000/svg" xmlns:xlink="http://www.w3.org/1999/xlink">
    <title>kiwi</title>
    <g id="Page-1" stroke="none" stroke-width="1" fill="none" fill-rule="evenodd">
        <g id="kiwi" transform="translate(3.000000, 3.000000)" fill-rule="nonzero">
            <g id="Group">
                <g id="Groupe_56-2" transform="translate(112.000000, 0.000000)" fill="#AB8755" stroke="#4B4B4B" stroke-linecap="round" stroke-linejoin="round" stroke-width="7">
                    <path d="M52.65,177.09 C22.66,166.93 0.67,133.6 0.67,94.04 C0.67,54.48 22.82,20.91 52.98,10.88 C55.45,4.95 62.76,0.65 71.39,0.65 C80.02,0.65 87.02,4.77 89.64,10.51 C120.38,20.06 143.1,53.84 143.1,94.04 C143.1,134.24 120.56,167.75 90.01,177.45 C87.76,183.64 80.28,188.19 71.4,188.19 C62.35,188.19 54.75,183.46 52.66,177.08 L52.65,177.09 Z" id="Combined_Shape-4"></path>
                </g>
                <g id="Ellipse_1100" transform="translate(0.000000, 57.000000)" fill="#B5CA4B" stroke="#4B4B4B" stroke-width="7">
                    <circle id="Oval" cx="77.07" cy="76.19" r="76.15"></circle>
                </g>
                <g id="Groupe_3370" transform="translate(25.000000, 80.000000)" fill="#4B4B4B" stroke="#4B4B4B" stroke-linejoin="round" stroke-width="7">
                    <path d="M104.67,51.97 C104.66,53.77 103.63,54.81 101.94,54.4 C99.98,53.89 98.05,53.26 96.16,52.51 C95.29,52.18 95.26,51.42 96.12,51.07 C98.01,50.25 99.97,49.58 101.97,49.06 C103.54,48.69 104.68,50.08 104.66,51.96 L104.67,51.97 Z" id="Tracé_3530-2"></path>
                    <path d="M99.45,76.88 C98.46,78.38 97.03,78.7 95.83,77.44 C94.46,75.94 93.19,74.36 92.01,72.71 C91.46,71.96 91.85,71.31 92.76,71.48 C94.8,71.83 96.8,72.33 98.76,72.98 C100.28,73.53 100.48,75.31 99.44,76.88 L99.45,76.88 Z" id="Tracé_3543-2"></path>
                    <path d="M85.52,94.69 C83.94,95.55 82.53,95.16 82.07,93.48 C81.57,91.52 81.18,89.52 80.92,87.51 C80.78,86.59 81.43,86.19 82.16,86.78 C83.8,88.04 85.33,89.43 86.75,90.92 C87.84,92.12 87.17,93.78 85.52,94.69 L85.52,94.69 Z" id="Tracé_3544-2"></path>
                    <path d="M63.21,104.91 C61.41,104.87 60.39,103.82 60.82,102.14 C61.37,100.19 62.03,98.27 62.81,96.4 C63.15,95.53 63.91,95.52 64.25,96.39 C65.04,98.3 65.68,100.26 66.16,102.27 C66.5,103.85 65.1,104.96 63.21,104.91 L63.21,104.91 Z" id="Tracé_3545-2"></path>
                    <path d="M1.21,39.95 C0.58,41.63 1.16,42.97 2.88,43.2 C4.89,43.43 6.92,43.53 8.95,43.51 C9.88,43.51 10.18,42.82 9.5,42.18 C8.02,40.74 6.44,39.41 4.76,38.21 C3.42,37.3 1.87,38.19 1.2,39.96 L1.21,39.95 Z" id="Tracé_3546-2"></path>
                    <path d="M1.4,66.91 C1.91,68.64 3.18,69.35 4.69,68.5 C6.43,67.47 8.11,66.33 9.72,65.09 C10.46,64.54 10.29,63.8 9.36,63.7 C7.31,63.44 5.25,63.33 3.19,63.38 C1.58,63.46 0.87,65.11 1.4,66.92 L1.4,66.91 Z" id="Tracé_3547-2"></path>
                    <path d="M14.8,88.48 C15.84,89.95 17.28,90.21 18.43,88.91 C19.74,87.36 20.96,85.74 22.07,84.05 C22.59,83.29 22.19,82.64 21.27,82.85 C19.25,83.27 17.26,83.84 15.33,84.56 C13.83,85.16 13.7,86.95 14.79,88.49 L14.8,88.48 Z" id="Tracé_3548-2"></path>
                    <path d="M38.23,103.03 C39.99,103.42 41.23,102.66 41.21,100.92 C41.15,98.89 40.97,96.87 40.67,94.87 C40.55,93.95 39.81,93.75 39.28,94.51 C38.06,96.17 36.96,97.92 36.01,99.75 C35.3,101.2 36.4,102.62 38.23,103.03 L38.23,103.03 Z" id="Tracé_3549-2"></path>
                    <path d="M97.21,25.16 C96.27,23.62 94.86,23.26 93.62,24.48 C92.2,25.93 90.87,27.46 89.64,29.07 C89.06,29.8 89.43,30.47 90.35,30.32 C92.4,30.05 94.42,29.62 96.4,29.03 C97.94,28.53 98.2,26.76 97.21,25.15 L97.21,25.16 Z" id="Tracé_3550-2"></path>
                    <path d="M78.78,6.81 C77.16,6.03 75.77,6.5 75.4,8.19 C75,10.18 74.72,12.19 74.57,14.21 C74.48,15.13 75.15,15.5 75.85,14.87 C77.42,13.53 78.88,12.06 80.22,10.5 C81.24,9.25 80.49,7.62 78.79,6.81 L78.78,6.81 Z" id="Tracé_3551-2"></path>
                    <path d="M52.88,0.17 C51.08,0.25 50.08,1.31 50.54,2.98 C51.12,4.92 51.82,6.83 52.63,8.69 C52.99,9.55 53.75,9.55 54.07,8.68 C54.82,6.76 55.43,4.78 55.87,2.77 C56.18,1.18 54.75,0.1 52.87,0.18 L52.88,0.17 Z" id="Tracé_3552-2"></path>
                    <path d="M10.93,20.16 C9.76,21.53 9.85,22.99 11.39,23.79 C13.21,24.69 15.08,25.48 16.99,26.15 C17.86,26.47 18.39,25.92 17.96,25.09 C17.07,23.23 16.03,21.44 14.86,19.74 C13.91,18.43 12.15,18.73 10.92,20.16 L10.93,20.16 Z" id="Tracé_3553-2"></path>
                    <path d="M28.01,6.45 C26.54,7.49 26.28,8.93 27.58,10.08 C29.13,11.39 30.75,12.61 32.44,13.73 C33.2,14.25 33.85,13.85 33.64,12.94 C33.22,10.92 32.65,8.93 31.93,7 C31.33,5.5 29.54,5.37 28.01,6.46 L28.01,6.45 Z" id="Tracé_3563"></path>
                </g>
                <circle id="Oval" fill="#FDEFC6" cx="76.53" cy="132.95" r="22.66"></circle>
                <g id="Groupe_3369" transform="translate(47.000000, 104.000000)" fill="#4B4B4B" stroke="#4B4B4B" stroke-linejoin="round" stroke-width="7">
                    <path d="M56.74,29.11 C56.72,31.23 55.52,32.45 53.53,31.97 C51.22,31.37 48.95,30.63 46.74,29.75 C45.72,29.37 45.68,28.47 46.7,28.06 C48.93,27.1 51.23,26.31 53.58,25.7 C55.43,25.27 56.77,26.9 56.75,29.12 L56.74,29.11 Z" id="Tracé_3530"></path>
                    <path d="M53.27,43.84 C52.1,45.61 50.42,45.98 49.02,44.49 C47.41,42.73 45.91,40.87 44.53,38.92 C43.88,38.04 44.34,37.27 45.42,37.47 C47.81,37.88 50.17,38.47 52.48,39.24 C54.27,39.89 54.5,41.98 53.28,43.83 L53.27,43.84 Z" id="Tracé_3543"></path>
                    <path d="M42.55,53.8 C40.69,54.81 39.03,54.35 38.49,52.38 C37.9,50.07 37.45,47.72 37.14,45.36 C36.98,44.28 37.74,43.81 38.6,44.5 C40.52,45.98 42.33,47.61 44,49.37 C45.28,50.78 44.5,52.74 42.55,53.8 L42.55,53.8 Z" id="Tracé_3544"></path>
                    <path d="M28.33,56.77 C26.22,56.61 25.08,55.32 25.7,53.37 C26.46,51.11 27.36,48.9 28.39,46.75 C28.84,45.75 29.74,45.78 30.08,46.82 C30.89,49.11 31.51,51.46 31.96,53.85 C32.26,55.73 30.54,56.94 28.33,56.77 L28.33,56.77 Z" id="Tracé_3545"></path>
                    <path d="M4.28,14.99 C3.2,16.81 3.61,18.48 5.56,19.1 C7.85,19.77 10.17,20.3 12.53,20.69 C13.61,20.89 14.1,20.14 13.44,19.26 C12.03,17.29 10.46,15.43 8.76,13.69 C7.4,12.37 5.41,13.07 4.28,14.99 L4.28,14.99 Z" id="Tracé_3546"></path>
                    <path d="M0.63,28.98 C0.72,31.09 1.97,32.27 3.94,31.73 C6.22,31.05 8.46,30.23 10.65,29.27 C11.66,28.85 11.67,27.95 10.63,27.58 C8.37,26.7 6.05,25.99 3.68,25.46 C1.82,25.09 0.54,26.77 0.63,28.98 Z" id="Tracé_3547"></path>
                    <path d="M4.49,42.97 C5.56,44.79 7.22,45.25 8.7,43.85 C10.4,42.17 11.99,40.4 13.47,38.53 C14.16,37.69 13.75,36.89 12.66,37.04 C10.25,37.32 7.86,37.79 5.52,38.43 C3.7,38.98 3.36,41.06 4.48,42.97 L4.49,42.97 Z" id="Tracé_3548"></path>
                    <path d="M14.79,53.31 C16.68,54.26 18.32,53.74 18.8,51.75 C19.31,49.42 19.68,47.06 19.9,44.69 C20.02,43.61 19.24,43.16 18.41,43.88 C16.54,45.43 14.79,47.12 13.18,48.94 C11.95,50.39 12.8,52.32 14.79,53.31 Z" id="Tracé_3549"></path>
                    <path d="M52.84,14.75 C51.74,12.94 50.07,12.52 48.62,13.95 C46.95,15.65 45.39,17.46 43.94,19.35 C43.26,20.21 43.69,20.99 44.77,20.82 C47.18,20.5 49.55,19.99 51.88,19.3 C53.69,18.72 53.99,16.63 52.84,14.74 L52.84,14.75 Z" id="Tracé_3550"></path>
                    <path d="M41.63,3.63 C39.72,2.72 38.09,3.27 37.65,5.26 C37.18,7.6 36.85,9.96 36.67,12.34 C36.57,13.43 37.35,13.86 38.17,13.12 C40.01,11.54 41.73,9.82 43.31,7.97 C44.51,6.5 43.63,4.58 41.63,3.62 L41.63,3.63 Z" id="Tracé_3551"></path>
                    <path d="M27.45,0.47 C25.34,0.56 24.15,1.81 24.7,3.78 C25.38,6.07 26.2,8.31 27.16,10.49 C27.58,11.5 28.48,11.51 28.85,10.48 C29.73,8.22 30.44,5.89 30.97,3.52 C31.34,1.66 29.66,0.38 27.44,0.47 L27.45,0.47 Z" id="Tracé_3552"></path>
                    <path d="M13.5,4.71 C11.78,5.94 11.47,7.63 13,8.98 C14.82,10.52 16.73,11.96 18.72,13.27 C19.62,13.89 20.38,13.41 20.13,12.34 C19.64,9.96 18.97,7.63 18.12,5.35 C17.41,3.59 15.31,3.43 13.5,4.71 Z" id="Tracé_3553"></path>
                </g>
            </g>
        </g>
    </g>
</svg>