<?xml version="1.0" encoding="UTF-8"?><svg id="Layer_1" xmlns="http://www.w3.org/2000/svg" xmlns:xlink="http://www.w3.org/1999/xlink" viewBox="0 0 400 400"><defs><style>.cls-1,.cls-2,.cls-3,.cls-4,.cls-5,.cls-6,.cls-7{fill:none;}.cls-8{fill:#fedf00;}.cls-9{fill:#fff;}.cls-10{fill:#e72729;}.cls-11{fill:#62bca5;}.cls-12{fill:#574192;}.cls-13{fill:#3a3a3a;}.cls-2{stroke-miterlimit:10;}.cls-2,.cls-3,.cls-4,.cls-5{stroke-linecap:round;stroke-width:7.08px;}.cls-2,.cls-3,.cls-4,.cls-5,.cls-6{stroke:#3a3a3a;}.cls-3,.cls-6{stroke-miterlimit:10;}.cls-4{stroke-miterlimit:10;}.cls-5{stroke-linejoin:round;}.cls-6{stroke-width:7px;}.cls-7{clip-path:url(#clippath);}</style><clipPath id="clippath"><rect class="cls-1" x="47.3" y="54.52" width="305.39" height="290.95"/></clipPath></defs><g class="cls-7"><g id="Groupe_7469"><path id="Tracé_4505" class="cls-12" d="m73.98,261.53c8.15,3.75,17.06,5.57,26.03,5.31,8.97.26,17.88-1.56,26.03-5.31,7.16-3.67,13.85-8.21,19.91-13.51,8.03-6.96,16.92-12.87,26.45-17.59,13.06-6.08,27.33-9.1,41.72-8.83h16.87v30.56h-16.87c-8.97-.26-17.88,1.56-26.03,5.31-7.17,3.68-13.86,8.22-19.92,13.53-8.03,6.96-16.92,12.87-26.45,17.59-13.06,6.08-27.33,9.1-41.72,8.83-14.4.27-28.67-2.75-41.72-8.83-14.94-7.11-11.13-39.82,15.69-27.05"/><path id="Tracé_4506" class="cls-11" d="m73.98,231.86c8.15,3.75,17.06,5.57,26.03,5.31,8.97.26,17.88-1.56,26.03-5.31,7.17-3.68,13.85-8.22,19.91-13.53,8.03-6.96,16.92-12.87,26.45-17.59,13.06-6.08,27.33-9.1,41.72-8.83h16.87v30.57h-16.88c-8.97-.26-17.88,1.56-26.03,5.31-7.17,3.68-13.86,8.22-19.92,13.53-8.03,6.96-16.92,12.87-26.45,17.59-13.06,6.08-27.33,9.1-41.72,8.83-14.4.27-28.67-2.75-41.72-8.83-14.92-7.11-11.12-39.82,15.71-27.05"/><path id="Tracé_4507" class="cls-8" d="m73.98,202.19c8.15,3.75,17.06,5.57,26.03,5.31,8.97.26,17.88-1.56,26.03-5.31,7.17-3.68,13.85-8.22,19.91-13.53,8.03-6.96,16.92-12.87,26.45-17.59,13.06-6.08,27.33-9.1,41.72-8.83h16.87v30.56h-16.88c-8.97-.26-17.88,1.56-26.03,5.31-7.17,3.68-13.86,8.23-19.92,13.54-8.03,6.96-16.92,12.87-26.45,17.59-13.06,6.08-27.33,9.1-41.72,8.83-14.4.27-28.67-2.75-41.72-8.83-14.92-7.11-11.12-39.82,15.71-27.05"/><path id="Tracé_4508" class="cls-10" d="m73.98,172.52c8.15,3.75,17.06,5.57,26.03,5.31,8.97.26,17.88-1.56,26.03-5.31,7.17-3.68,13.85-8.22,19.91-13.53,8.03-6.96,16.92-12.87,26.45-17.59,13.06-6.08,27.33-9.1,41.72-8.83h16.87v30.56h-16.88c-8.97-.26-17.88,1.56-26.03,5.31-7.17,3.68-13.86,8.23-19.92,13.54-8.03,6.96-16.92,12.87-26.45,17.59-13.06,6.08-27.33,9.1-41.72,8.83-14.4.27-28.67-2.75-41.72-8.83-14.92-7.11-11.12-39.83,15.71-27.05"/><path id="Tracé_4509" class="cls-9" d="m249.95,107.3c52.18-.08,94.56,42.15,94.64,94.33.08,52.18-42.15,94.56-94.33,94.64-52.18.08-94.56-42.15-94.64-94.33,0-.04,0-.09,0-.13-.05-52.15,42.19-94.46,94.34-94.5h0"/><path id="Tracé_4510" class="cls-6" d="m249.95,107.3c52.18-.08,94.56,42.15,94.64,94.33.08,52.18-42.15,94.56-94.33,94.64-52.18.08-94.56-42.15-94.64-94.33,0-.04,0-.09,0-.13-.05-52.15,42.19-94.46,94.34-94.5h0Z"/><path id="Tracé_4511" class="cls-13" d="m306.57,199.76c4.91-1.31,9.95,1.6,11.27,6.51,1.31,4.91-1.6,9.95-6.51,11.27-4.91,1.31-9.95-1.6-11.27-6.51h0c-1.31-4.91,1.6-9.95,6.51-11.27"/><path id="Tracé_4512" class="cls-5" d="m306.57,199.76c4.91-1.31,9.95,1.6,11.27,6.51,1.31,4.91-1.6,9.95-6.51,11.27-4.91,1.31-9.95-1.6-11.27-6.51h0c-1.31-4.91,1.6-9.95,6.51-11.27Z"/><path id="Tracé_4513" class="cls-13" d="m257.24,204.07c4.91-1.31,9.95,1.6,11.27,6.51,1.31,4.91-1.6,9.95-6.51,11.27-4.91,1.31-9.95-1.6-11.27-6.51h0c-1.31-4.91,1.6-9.95,6.51-11.27"/><path id="Tracé_4514" class="cls-5" d="m257.24,204.07c4.91-1.31,9.95,1.6,11.27,6.51,1.31,4.91-1.6,9.95-6.51,11.27-4.91,1.31-9.95-1.6-11.27-6.51h0c-1.31-4.91,1.6-9.95,6.51-11.27Z"/><line id="Ligne_19" class="cls-3" x1="109.17" y1="58.4" x2="109.17" y2="68.83"/><line id="Ligne_20" class="cls-4" x1="132.68" y1="75.49" x2="122.77" y2="78.71"/><line id="Ligne_21" class="cls-2" x1="123.7" y1="103.13" x2="117.57" y2="94.7"/><line id="Ligne_22" class="cls-2" x1="94.64" y1="103.13" x2="100.77" y2="94.7"/><line id="Ligne_23" class="cls-4" x1="85.66" y1="75.49" x2="95.57" y2="78.71"/><line id="Ligne_24" class="cls-3" x1="187.93" y1="308.52" x2="187.93" y2="316.23"/><line id="Ligne_25" class="cls-4" x1="205.32" y1="321.15" x2="197.99" y2="323.53"/><line id="Ligne_26" class="cls-2" x1="198.67" y1="341.6" x2="194.14" y2="335.36"/><line id="Ligne_27" class="cls-2" x1="177.19" y1="341.6" x2="181.72" y2="335.36"/><line id="Ligne_28" class="cls-4" x1="170.55" y1="321.16" x2="177.88" y2="323.54"/></g></g></svg>