<?xml version="1.0" encoding="UTF-8"?><svg xmlns="http://www.w3.org/2000/svg" viewBox="0 0 400 400"><defs><style>.cls-1{fill:#7553a2;}.cls-1,.cls-2{stroke-linecap:round;}.cls-1,.cls-2,.cls-3{stroke:#4b4b4b;stroke-miterlimit:10;stroke-width:7px;}.cls-4{fill:#ffd69f;}.cls-2{fill:none;}.cls-3{fill:#7b64ab;}</style></defs><g id="back"><rect class="cls-4" y="0" width="400" height="400"/></g><g id="Layer_1"><g id="raisin"><g id="Group_2"><circle id="Oval_38_Copy_7" class="cls-3" cx="200" cy="289.82" r="34.36"/><ellipse id="Oval_38_Copy_5" class="cls-3" cx="166.24" cy="238.58" rx="34.36" ry="33.76"/><circle id="Oval_38_Copy_6" class="cls-3" cx="234.36" cy="238.58" r="33.76"/><circle id="Oval_38_Copy_2" class="cls-3" cx="200" cy="188.54" r="34.36"/><circle id="Oval_38_Copy_4" class="cls-3" cx="131.27" cy="188.54" r="34.36"/><circle id="Oval_38_Copy_3" class="cls-3" cx="268.73" cy="188.54" r="34.36"/><ellipse id="Oval_38" class="cls-3" cx="166.24" cy="138.5" rx="34.36" ry="33.76"/><circle id="Oval_38_Copy" class="cls-3" cx="234.36" cy="138.5" r="33.76"/><path id="Oval_38-2" class="cls-1" d="m142.02,138.97c0,6.09,2.31,11.95,6.48,16.39"/><path id="Oval_38_Copy_9" class="cls-1" d="m142.02,238.96c0,6.09,2.31,11.95,6.48,16.39"/><path id="Oval_38_Copy_11" class="cls-1" d="m107.33,188.97c0,6.09,2.31,11.95,6.48,16.39"/><path id="Oval_38_Copy_8" class="cls-1" d="m210.38,138.97c0,6.09,2.31,11.95,6.48,16.39"/><path id="Oval_38_Copy_10" class="cls-1" d="m210.38,238.96c0,6.09,2.31,11.95,6.48,16.39"/><path id="Oval_38_Copy_14" class="cls-1" d="m175.69,289.98c0,6.09,2.31,11.95,6.48,16.39"/><path id="Oval_38_Copy_12" class="cls-1" d="m175.69,188.97c0,6.09,2.31,11.95,6.48,16.39"/><path id="Oval_38_Copy_13" class="cls-1" d="m245.08,188.97c0,6.09,2.31,11.95,6.48,16.39"/></g><path id="Path_109" class="cls-2" d="m200.03,123.8c-4.36-23.48,5.29-45.03,5.29-45.03"/><path id="Path_110" class="cls-2" d="m189.18,76.18c16.9-2.19,33.79,6.29,33.79,6.29"/></g></g></svg>