<?xml version="1.0" encoding="UTF-8"?><svg id="Layer_1" xmlns="http://www.w3.org/2000/svg" viewBox="0 0 400 400"><defs><style>.cls-1{fill:#fedf00;}.cls-2{fill:#fff;}.cls-3{fill:#3a3a3a;}.cls-4,.cls-5,.cls-6{stroke-miterlimit:10;}.cls-4,.cls-5,.cls-6,.cls-7{fill:none;stroke:#3a3a3a;}.cls-4,.cls-5,.cls-7{stroke-linecap:round;}.cls-4,.cls-6,.cls-7{stroke-width:8.08px;}.cls-5{stroke-width:8.4px;}.cls-7{stroke-linejoin:round;}</style></defs><line id="Ligne_16" class="cls-5" x1="285.27" y1="289.46" x2="285.27" y2="72.84"/><g id="Groupe_7417"><g id="Groupe_7416"><path id="Tracé_4450" class="cls-4" d="m285.44,73.03c9.02,29.09,77.47,72.61,22.68,110.85"/><line id="Ligne_17" class="cls-4" x1="174.66" y1="165.16" x2="174.66" y2="48.33"/><path id="Tracé_4451" class="cls-1" d="m227.9,212.79c35.39-.1,64.15,29.76,64.25,66.7.1,36.94-28.51,66.96-63.9,67.06-35.39.1-64.15-29.76-64.25-66.7,0-.06,0-.12,0-.18-.04-36.88,28.56-66.82,63.9-66.88"/><path id="Tracé_4452" class="cls-6" d="m227.9,212.79c35.39-.1,64.15,29.76,64.25,66.7.1,36.94-28.51,66.96-63.9,67.06-35.39.1-64.15-29.76-64.25-66.7,0-.06,0-.12,0-.18-.04-36.88,28.56-66.82,63.9-66.88Z"/><path id="Tracé_4453" class="cls-3" d="m248.22,280.27c3.45,0,6.25,2.91,6.25,6.51,0,3.6-2.79,6.52-6.24,6.53-3.45,0-6.25-2.91-6.25-6.51h0c0-3.61,2.8-6.53,6.25-6.53"/><ellipse id="Ellipse_915" class="cls-7" cx="248.22" cy="286.79" rx="6.25" ry="6.52"/><path id="Tracé_4454" class="cls-3" d="m205.53,280.27c3.45,0,6.24,2.92,6.24,6.52,0,3.6-2.8,6.52-6.25,6.51-3.45,0-6.24-2.92-6.24-6.52,0-3.6,2.8-6.52,6.25-6.52"/><ellipse id="Ellipse_916" class="cls-7" cx="205.53" cy="286.79" rx="6.25" ry="6.52"/><path id="Tracé_4455" class="cls-2" d="m130.95,115.94c25.63-.06,46.45,21.57,46.51,48.32.06,26.75-20.67,48.48-46.29,48.54-25.63.06-46.45-21.57-46.51-48.32,0-.04,0-.07,0-.11-.03-26.71,20.69-48.4,46.28-48.43,0,0,0,0,.01,0"/><ellipse id="Ellipse_917" class="cls-6" cx="130.95" cy="164.37" rx="46.28" ry="48.43"/><path id="Tracé_4456" class="cls-3" d="m144.66,166.88c2.48,0,4.48,2.1,4.48,4.68,0,2.58-2.01,4.68-4.49,4.67-2.48,0-4.48-2.1-4.48-4.68,0,0,0,0,0,0,0-2.58,2.01-4.68,4.48-4.68h0"/><path id="Tracé_4457" class="cls-7" d="m144.66,166.88c2.48,0,4.48,2.1,4.48,4.68,0,2.58-2.01,4.68-4.49,4.67-2.48,0-4.48-2.1-4.48-4.68,0,0,0,0,0,0,0-2.58,2.01-4.67,4.49-4.67Z"/><path id="Tracé_4458" class="cls-3" d="m115.11,166.88c2.48,0,4.48,2.1,4.48,4.68,0,2.58-2.01,4.68-4.49,4.67s-4.48-2.1-4.48-4.68c0,0,0,0,0,0,0-2.58,2.01-4.67,4.49-4.67"/><path id="Tracé_4459" class="cls-7" d="m115.11,166.88c2.48,0,4.48,2.1,4.48,4.68,0,2.58-2.01,4.68-4.49,4.67s-4.48-2.1-4.48-4.68c0,0,0,0,0,0,0-2.58,2.01-4.67,4.49-4.67Z"/></g></g></svg>