<?xml version="1.0" encoding="UTF-8"?><svg xmlns="http://www.w3.org/2000/svg" viewBox="0 0 400 400"><defs><style>.cls-1{fill:#eecec3;}.cls-2,.cls-3{fill:#ca8d6f;}.cls-4{fill:#83b7b3;}.cls-5{fill:#4b4b4b;}.cls-3,.cls-6{stroke:#4b4b4b;stroke-linecap:round;stroke-linejoin:round;stroke-width:7px;}.cls-6{fill:none;}</style></defs><g id="back"><rect class="cls-4" y="0" width="400" height="400"/></g><g id="Layer_1"><g id="_76_kangaroo"><path id="Path_283" class="cls-2" d="m329.88,119.98c2.94,2.4,3.58,6.64,1.49,9.81h0c-2.19,3.32-6.26,4.86-10.09,3.81l-8.54-2.34c-2.44-.66-4.95.77-5.62,3.21-.09.31-.14.63-.15.96l-1.73,31.95c-.51,9.43-4.76,18.27-11.81,24.55l-46.32,41.28c-2.67,2.39-4.2,5.81-4.19,9.39v62.55c0,1.89,1.53,3.43,3.43,3.43h12.94c4.77,0,9.31,2.08,12.42,5.69l1.65,1.91c.83.96.72,2.4-.24,3.23-.42.36-.95.56-1.49.56h-33.49c-6.95,0-12.58-5.63-12.58-12.58h0v-55.15l-7.97,4.99c-4.49,2.81-10.21,2.74-14.63-.18l-4.9-3.24c-1.37-.91-3.19-.72-4.34.46l-21.06,21.47c-9.24,9.42-20.43,16.71-32.79,21.34l-11.06,4.15-5.93,1.61c-9.74,2.64-19.79,3.98-29.89,3.98h-25.75s31.94-7.19,46.88-13.99l32.95-21.16c4.34-2.79,8.31-6.12,11.81-9.91l4.89-5.3c6.68-7.24,11.5-15.99,14.06-25.5l6.53-24.26c3.3-12.23,10.67-22.97,20.89-30.45h0c10.42-7.63,22.26-13.09,34.83-16.05l23.39-5.51c6.03-1.42,11.18-5.34,14.16-10.77h0c3.09-5.64,5.07-11.82,5.83-18.21l1.09-9.05c.52-4.34.28-8.75-.73-13.01h0c-.99-4.18-.59-8.56,1.13-12.5l4.71-10.74c.25-.58.92-.84,1.5-.59.25.11.45.3.57.55l5.97,12.23c2.26,4.61,5.83,8.46,10.26,11.05l.96.56c3.88,2.27,7.58,4.85,11.07,7.7l9.88,8.1Z"/><path id="Path_286" class="cls-1" d="m277.87,203.66h0c-2.96-2.73-7.5-2.78-10.52-.11l-19.74,17.41v10.2l30.26-27.5Z"/><path id="Path_283-2" class="cls-6" d="m330.04,120.78c2.94,2.4,3.58,6.64,1.49,9.81h0c-2.19,3.31-6.26,4.85-10.09,3.8l-8.54-2.33c-2.44-.66-4.95.78-5.61,3.21-.08.31-.14.63-.15.95l-1.73,31.95c-.51,9.43-4.76,18.27-11.81,24.55l-46.33,41.29c-2.68,2.39-4.21,5.8-4.21,9.39v62.53c0,1.89,1.53,3.43,3.43,3.43h12.94c4.77,0,9.31,2.08,12.42,5.69l1.65,1.91c.83.96.72,2.4-.24,3.23-.42.36-.95.56-1.49.56h-33.49c-6.95,0-12.58-5.63-12.58-12.58h0v-55.15l-7.97,4.99c-4.49,2.81-10.21,2.74-14.63-.18l-4.9-3.24c-1.37-.91-3.19-.72-4.34.46l-21.06,21.47c-9.24,9.42-20.43,16.71-32.79,21.34l-11.06,4.15-5.93,1.61c-9.74,2.64-19.79,3.98-29.89,3.98h-25.75s31.96-7.2,46.88-14l32.95-21.16c4.34-2.79,8.31-6.12,11.81-9.91l4.89-5.3c6.68-7.24,11.5-15.99,14.06-25.5l6.53-24.26c3.29-12.23,10.65-22.97,20.87-30.45h0c10.42-7.63,22.26-13.09,34.83-16.05l23.42-5.5c6.03-1.42,11.18-5.34,14.16-10.77h0c3.09-5.64,5.07-11.82,5.84-18.21l.78-6.44c.71-5.94,3.44-11.45,7.73-15.61l5.35-5.2c.71-.69,1.84-.69,2.56,0h0c.85.82,1.8,1.53,2.82,2.13l6.22,3.62c3.89,2.28,7.58,4.86,11.07,7.72l9.88,8.1Z"/><path id="Path_282" class="cls-3" d="m297.34,107.5h0c2.13-6.84,1.16-14.26-2.64-20.33l-4.95-7.92c-4.19,4.97-6.88,11.03-7.78,17.47.09,6.51,2.5,12.77,6.8,17.65"/><path id="Path_284" class="cls-2" d="m298.31,172.45c.8,1.45,1.63,2.89,2.49,4.31l15.37,25.19c3.26,5.35.61,17.92-4.6,21.41l-2.79-4.18-14.63-25.88c-1.88-2.49-4.62-4.2-7.68-4.78l-3.11-.59c-4.7-.89-8.31-4.68-8.98-9.41l-.29-2.03c-.83-5.87,2.42-11.55,7.9-13.82l2.55-1.05c3.28-.21,6.54.72,9.23,2.62l4.53,8.22Z"/><path id="Path_284-2" class="cls-6" d="m297.46,171.05l18.73,31.05c3.07,5.08,6.17,14.59-4.13,22.09-.88.64-2.13.16-2.36-.9l-.91-4.12-14.66-25.72c-1.88-2.49-4.62-4.18-7.68-4.77l-3.1-.59c-4.7-.89-8.31-4.68-8.98-9.41l-.29-2.03c-.82-5.84,2.49-11.47,7.99-13.59l3.88-1.49"/><path id="Path_287" class="cls-6" d="m243.72,238.01h0c6.41-5.3,7.42-14.75,2.27-21.27l-1.48-1.87c-5.79-7.33-16.42-8.57-23.75-2.78-.12.09-.24.19-.35.29l-1.96,1.65"/><circle id="Oval_86" class="cls-5" cx="307.02" cy="116.41" r="4"/></g></g></svg>