<?xml version="1.0" encoding="UTF-8"?><svg id="Layer_1" xmlns="http://www.w3.org/2000/svg" viewBox="0 0 400 400"><defs><style>.cls-1,.cls-2{fill:none;}.cls-3{fill:#8c76b6;}.cls-2{stroke:#67c8f2;stroke-width:6.59px;}</style></defs><g id="Groupe_7504"><path id="Tracé_2294" class="cls-3" d="m56.65,182.45c.3-1.79.62-3.74.95-5.69,1.02-5.96,2.04-11.91,3.06-17.87.14-1-.25-2-1.03-2.65-5.35-5.26-10.7-10.52-16.04-15.79-2.53-2.37-2.67-6.34-.3-8.87.75-.81,1.71-1.4,2.76-1.72,1.1-.27,2.22-.4,3.35-.4,6.59-.3,13.18-.59,19.77-.83,1.42.03,2.7-.87,3.16-2.22,3.3-7.53,6.65-15.03,9.95-22.56,1.15-2.62,3.14-4.1,5.98-4.11s4.83,1.48,5.98,4.1c3.31,7.52,6.66,15.03,9.95,22.56.48,1.37,1.79,2.27,3.24,2.23,7.16.27,14.31.58,21.46.94,2.55.03,4.81,1.67,5.61,4.09,1.01,2.38.4,5.13-1.53,6.85-4.31,4.26-8.66,8.48-12.99,12.71-1.07,1.05-2.15,2.1-3.22,3.15-.74.68-1.07,1.71-.87,2.69,1.29,7.49,2.56,14.98,3.82,22.47.51,2.47-.57,4.99-2.71,6.32-2.05,1.51-4.84,1.57-6.95.13-3.32-2.05-6.58-4.2-9.87-6.3-3.31-2.12-6.63-4.22-9.92-6.38-1.18-.91-2.82-.91-4-.02-6.53,4.22-13.08,8.42-19.64,12.6-2.89,1.99-6.84,1.26-8.83-1.63-.56-.81-.92-1.74-1.06-2.71-.05-.31-.06-.62-.1-1.1Z"/><path id="Tracé_2295" class="cls-3" d="m280.08,102.71c.3-1.79.62-3.74.95-5.69,1.02-5.96,2.04-11.91,3.06-17.87.14-1-.25-2-1.03-2.65-5.35-5.26-10.7-10.52-16.04-15.79-2.53-2.37-2.67-6.34-.3-8.87.75-.81,1.71-1.4,2.76-1.72,1.1-.27,2.22-.4,3.35-.4,6.59-.3,13.18-.59,19.77-.83,1.42.03,2.7-.87,3.16-2.22,3.3-7.53,6.65-15.03,9.95-22.56,1.15-2.62,3.14-4.1,5.98-4.11,2.84,0,4.83,1.48,5.98,4.1,3.31,7.52,6.66,15.03,9.95,22.56.48,1.37,1.79,2.27,3.24,2.23,7.16.27,14.31.58,21.46.94,2.55.03,4.81,1.67,5.61,4.09,1.01,2.38.4,5.13-1.53,6.85-4.31,4.26-8.66,8.48-12.99,12.71-1.07,1.05-2.15,2.1-3.22,3.15-.74.68-1.07,1.71-.87,2.69,1.29,7.49,2.56,14.98,3.82,22.47.51,2.47-.57,4.99-2.71,6.32-2.05,1.51-4.84,1.57-6.95.13-3.32-2.05-6.58-4.2-9.87-6.3-3.31-2.12-6.63-4.22-9.92-6.38-1.18-.91-2.82-.91-4-.02-6.53,4.22-13.08,8.42-19.64,12.6-2.89,1.99-6.84,1.26-8.83-1.63-.56-.81-.92-1.74-1.06-2.71-.05-.31-.06-.62-.1-1.1Z"/><g id="Rectangle_1135"><rect class="cls-1" x="37.21" y="11.5" width="102.16" height="102.82" rx="13.84" ry="13.84"/><rect class="cls-2" x="40.5" y="14.8" width="95.57" height="96.23" rx="10.55" ry="10.55"/></g><g id="Rectangle_1136"><rect class="cls-1" x="260.64" y="11.5" width="102.16" height="102.82" rx="13.84" ry="13.84"/><rect class="cls-2" x="263.93" y="14.8" width="95.57" height="96.23" rx="10.55" ry="10.55"/></g><g id="Rectangle_1137"><rect class="cls-1" x="166.39" y="285.68" width="102.16" height="102.82" rx="13.84" ry="13.84"/><rect class="cls-2" x="169.68" y="288.98" width="95.57" height="96.23" rx="10.55" ry="10.55"/></g><path id="Tracé_2296" class="cls-3" d="m185.83,271.43c.3-1.79.62-3.74.95-5.69,1.02-5.96,2.04-11.91,3.06-17.87.14-1-.25-2-1.03-2.65-5.35-5.26-10.7-10.52-16.04-15.79-2.53-2.37-2.67-6.34-.3-8.87.75-.81,1.71-1.4,2.76-1.72,1.1-.27,2.22-.4,3.35-.4,6.59-.3,13.18-.59,19.77-.83,1.42.03,2.7-.87,3.16-2.22,3.3-7.53,6.65-15.03,9.95-22.56,1.15-2.62,3.14-4.1,5.98-4.11s4.83,1.48,5.98,4.1c3.31,7.52,6.66,15.03,9.95,22.56.48,1.37,1.79,2.27,3.24,2.23,7.16.27,14.31.58,21.46.94,2.55.03,4.81,1.67,5.61,4.09,1.01,2.38.4,5.13-1.53,6.85-4.31,4.26-8.66,8.48-12.99,12.71-1.07,1.05-2.15,2.1-3.22,3.15-.74.68-1.07,1.71-.87,2.69,1.29,7.49,2.56,14.98,3.82,22.47.51,2.47-.57,4.99-2.71,6.32-2.05,1.51-4.84,1.57-6.95.13-3.32-2.05-6.58-4.2-9.87-6.3-3.31-2.12-6.63-4.22-9.92-6.38-1.18-.91-2.82-.91-4-.02-6.53,4.22-13.08,8.42-19.64,12.6-2.89,1.99-6.84,1.26-8.83-1.63-.56-.81-.92-1.74-1.06-2.71-.05-.31-.06-.62-.1-1.1Z"/></g></svg>