<?xml version="1.0" encoding="UTF-8"?><svg xmlns="http://www.w3.org/2000/svg" viewBox="0 0 400 400"><defs><style>.cls-1,.cls-2{fill:#e9caa2;}.cls-3,.cls-4{fill:#a8764c;}.cls-5{fill:#83b7b3;}.cls-6{fill:#4b4b4b;}.cls-4,.cls-2,.cls-7{stroke:#4b4b4b;stroke-linecap:round;stroke-linejoin:round;stroke-width:7px;}.cls-7{fill:none;}</style></defs><g id="back"><rect class="cls-5" y="0" width="400" height="400"/></g><g id="Layer_1"><g id="_112_horse"><path id="Path_7" class="cls-1" d="m204.31,149.49c17.72,3.76,26.04-3.46,44.3-22.38,18.26-18.91,26.17-17.63,38.44-15.18,4.49-3.75,9.18-7.25,14.05-10.49l.47,15.13s4.46,4.42,12.14,15.38c7.67,10.96,29.95,28.56,17.41,37.62-7.53,5.44-41.24-8.75-45.28-11.84-4.04-3.1-4.09,13.29-7.33,27.14-3.24,13.85-4.08,40.13-23.14,40.13-13.98,17.24-15.14,56.99-11.34,59.82,3.8,2.83,12.5,5.65,12.5,13.74-14.99,0-21.04-.48-21.04-.48,0,0-10.26-35.91-5.12-68.67-16.62,4.36-51.1,6.14-75.48-13.16-24.38-19.3,48.52-52.26,48.52-52.26h10.84c2.63,2.9-5.78-1.79-9.94-14.49Z"/><path id="Path_10" class="cls-3" d="m288.8,113.72c-6.1,1.01-11.67,4.07-15.77,8.69-6.46,7.36-12.44,23.16-17.36,30.05-7.43,10.41-31.34,17.78-42.27,13.62-5.85-2.23-7.43-8.2-7.81-12.11-.19-1.91,1.32-3.53,3.24-3.52,4.49.03,8.97-.48,13.34-1.53,8.19-2.13,27.46-23.25,27.46-23.25l18.11-13.24s16.47-1.67,21.06,1.27Z"/><path id="Path_9" class="cls-4" d="m105.43,159.12c-18.11-9.75-35.37,1.77-33,27.35,2.37,25.58,5.38,42.12-8.16,52,18.83,9.72,32.8-25.01,32.8-25.01"/><path id="Path_7-2" class="cls-7" d="m221.06,167.48c-8.61-1.86-13.14-4.95-16.86-13.58-.95-2.2.83-4.65,3.21-4.4,14.71,1.51,24.43-5.38,40.89-22.39,18.31-18.91,26.26-17.61,38.57-15.18,4.51-3.75,9.22-7.25,14.1-10.49l.47,15.13s3,5.67,12.25,15.38c27.86,29.26,24.38,28.56,16.02,38.31-4.9,5.72-8.79-3.36-18.81-4.18-14.44-1.19-18.67-1.25-27.17-11.15-3.31-3.86-2.18,16.07-5.43,29.92-3.25,13.85-4.09,40.13-23.22,40.13-14.03,17.24-15.19,56.99-11.37,59.82,3.82,2.83,12.54,5.65,12.54,13.74-15.04,0-21.12-.48-21.12-.48,0,0-10.27-35.92-5.14-68.67-16.68,4.36-42.4,11.22-77.92-15.25"/><path id="Path_8" class="cls-2" d="m154.44,200.94c0,14.83-2.34,26.45-21.15,38.98-3.48,3.48-9.62,11.27-10.45,13.93-3.48,11.15,3.68,25.95,3.68,28.01,0,2.34,16.9,8.99,14.11,16.65-8.37,0-24.51.05-24.51.05,0,0-8.61-18.93-10.7-44.7-.51-6.25,0-5.57,3.48-19.5,3.78-15.11-20.56-24.09-16.77-46.76,3.8-22.67,14.14-40,49.89-35.22,24.7,6.75,57.44,14.41,66.49,11.62"/><circle id="Ellipse_475" class="cls-6" cx="300.06" cy="135.71" r="3.67"/></g></g></svg>