<?xml version="1.0" encoding="UTF-8"?><svg xmlns="http://www.w3.org/2000/svg" viewBox="0 0 400 400"><defs><style>.cls-1,.cls-2{fill:#fff;}.cls-3{fill:#99d0ec;}.cls-4{fill:#4c4b4c;}.cls-2{stroke:#4c4b4c;stroke-width:7px;}.cls-2,.cls-5{stroke-linejoin:round;}.cls-5{fill:none;stroke:#f8acae;stroke-linecap:round;stroke-width:7.33px;}</style></defs><g id="back"><rect class="cls-1" y="0" width="400" height="400"/><path id="Combined_Shape_Copy_8-2" class="cls-1" d="m100.48,291.61c7.13-3.69,15.91-.89,19.6,6.24.78,1.52,1.3,3.16,1.51,4.85,4.68-.92,9.22,2.12,10.14,6.79.92,4.68-2.12,9.22-6.79,10.14-3.42.68-6.91-.77-8.85-3.67-5.53,4.29-13.33,4.03-18.57-.61-5.25,3.64-12.15,3.85-17.6.52-4.23,4.15-10.98,4.2-15.28.12-2.66,1.46-6,.48-7.46-2.18s-.48-6,2.18-7.46c.65-.36,1.36-.58,2.1-.65,1.1-5.05,5.58-8.66,10.75-8.66.27,0,.55,0,.82.03,2.81-8.44,11.94-13,20.38-10.19,2.74.91,5.18,2.54,7.07,4.72h0Z"/><path id="Combined_Shape_Copy_8-2-2" class="cls-1" d="m251.2,322.81c9.27-4.79,20.67-1.16,25.47,8.11,1.02,1.97,1.68,4.11,1.96,6.31,6.08-1.2,11.98,2.75,13.18,8.83,1.2,6.08-2.75,11.98-8.83,13.18-4.45.88-8.99-1-11.5-4.77-7.19,5.58-17.33,5.24-24.13-.8-6.82,4.73-15.78,5-22.87.68-5.5,5.39-14.27,5.46-19.85.16-3.46,1.89-7.8.62-9.69-2.84-1.89-3.46-.62-7.8,2.84-9.69.84-.46,1.77-.75,2.73-.84,1.43-6.57,7.25-11.25,13.97-11.25.36,0,.71.01,1.06.04,3.66-10.97,15.52-16.9,26.49-13.24,3.56,1.19,6.73,3.3,9.19,6.13h0Z"/><path id="Combined_Shape_Copy_8-2-3" class="cls-1" d="m301.49,97.15c7.13-3.69,15.91-.89,19.6,6.24.78,1.52,1.3,3.16,1.51,4.85,4.68-.92,9.22,2.12,10.14,6.79.92,4.68-2.12,9.22-6.79,10.14-3.42.68-6.91-.77-8.85-3.67-5.53,4.29-13.33,4.03-18.57-.61-5.25,3.64-12.15,3.85-17.6.52-4.23,4.15-10.98,4.2-15.28.12-2.66,1.46-6,.48-7.46-2.18-1.46-2.66-.48-6,2.18-7.46.65-.36,1.36-.58,2.1-.65,1.1-5.05,5.58-8.66,10.75-8.66.27,0,.55,0,.82.03,2.81-8.44,11.94-13,20.38-10.19,2.74.91,5.18,2.54,7.07,4.72h0Z"/><path id="Combined_Shape_Copy_8-2-4" class="cls-1" d="m107.06,73.47c5.64-2.91,12.57-.71,15.49,4.93.62,1.2,1.02,2.5,1.19,3.84,3.7-.73,7.28,1.67,8.02,5.37.73,3.7-1.67,7.28-5.37,8.02-2.7.53-5.46-.61-7-2.9-4.37,3.39-10.54,3.19-14.67-.48-4.15,2.88-9.6,3.04-13.91.41-3.34,3.28-8.68,3.32-12.07.1-2.1,1.15-4.74.38-5.89-1.73-1.15-2.1-.38-4.74,1.73-5.89.51-.28,1.08-.45,1.66-.51.87-3.99,4.41-6.84,8.49-6.84.22,0,.43,0,.64.02,2.22-6.67,9.44-10.28,16.11-8.05,2.16.72,4.09,2.01,5.59,3.73h0Z"/><path id="Combined_Shape_Copy_8-2-5" class="cls-1" d="m199.67,31.35c3.96-2.05,8.83-.5,10.87,3.46.44.84.72,1.75.84,2.69,2.6-.51,5.12,1.17,5.63,3.77.51,2.6-1.17,5.12-3.77,5.63-1.9.38-3.84-.43-4.91-2.04-3.07,2.38-7.4,2.24-10.3-.34-2.91,2.02-6.74,2.14-9.77.29-2.35,2.3-6.09,2.33-8.48.07-1.48.81-3.33.27-4.14-1.21-.81-1.48-.27-3.33,1.21-4.14.36-.2.76-.32,1.17-.36.61-2.81,3.09-4.81,5.96-4.8.15,0,.3,0,.45.02,1.56-4.68,6.63-7.22,11.31-5.65,1.52.51,2.87,1.41,3.92,2.62h0Z"/><rect class="cls-3" x="0" width="400" height="400"/></g><g id="Layer_1"><path id="Combined_Shape_Copy_8-2-6" class="cls-2" d="m226.25,145.7c29.81-15.41,66.46-3.74,81.87,26.07,3.28,6.34,5.41,13.2,6.31,20.28,19.54-3.86,38.51,8.85,42.38,28.39,3.86,19.54-8.85,38.51-28.39,42.38-14.3,2.83-28.89-3.23-36.99-15.35-23.11,17.93-55.71,16.85-77.58-2.56-21.91,15.22-50.75,16.08-73.52,2.18-17.67,17.32-45.89,17.55-63.83.5-11.12,6.08-25.07,2-31.16-9.13-6.08-11.12-2-25.07,9.13-31.16,2.71-1.48,5.7-2.4,8.78-2.71,4.6-21.12,23.29-36.18,44.91-36.17,1.15,0,2.28.04,3.41.12,11.76-35.27,49.89-54.33,85.16-42.57,11.43,3.81,21.63,10.62,29.53,19.72h0Z"/><g><circle id="Oval_2_Copy_3" class="cls-4" cx="165.16" cy="182.62" r="12.23"/><circle id="Oval_2_Copy_3-2" class="cls-4" cx="234.84" cy="182.62" r="12.23"/><path id="Oval_2_Copy_3-3" class="cls-5" d="m190.42,219.56c0,5.55,4.5,10.05,10.05,10.05h0c5.55,0,10.05-4.5,10.05-10.05h0"/></g></g></svg>