<?xml version="1.0" encoding="UTF-8"?><svg id="Layer_1" xmlns="http://www.w3.org/2000/svg" xmlns:xlink="http://www.w3.org/1999/xlink" viewBox="0 0 400 400"><defs><style>.cls-1,.cls-2,.cls-3,.cls-4,.cls-5,.cls-6,.cls-7,.cls-8,.cls-9{fill:none;}.cls-2{stroke:#574192;stroke-width:18.61px;}.cls-2,.cls-3,.cls-5,.cls-6,.cls-7,.cls-8{stroke-miterlimit:10;}.cls-2,.cls-4,.cls-5,.cls-6,.cls-7,.cls-8{stroke-linecap:round;}.cls-10{fill:#f8e610;}.cls-11{fill:#fff;}.cls-12{fill:#3a3a3a;}.cls-3,.cls-4{stroke:#3a3a3a;stroke-width:8.27px;}.cls-4{stroke-linejoin:round;}.cls-5{stroke:#62bca5;}.cls-5,.cls-6,.cls-7,.cls-8{stroke-width:24.81px;}.cls-6{stroke:#fedf00;}.cls-7{stroke:#e72729;}.cls-8{stroke:#2063ad;}.cls-9{clip-path:url(#clippath);}</style><clipPath id="clippath"><rect class="cls-1" x="39.72" y="82.22" width="320.56" height="235.55"/></clipPath></defs><g id="Groupe_7507"><g class="cls-9"><g id="Groupe_7430"><path id="Tracé_4460" class="cls-7" d="m327.45,236.05c0-66.96-54.28-121.25-121.25-121.25s-121.25,54.28-121.25,121.25"/><path id="Tracé_4461" class="cls-6" d="m312.9,236.06c.01-58.92-47.74-106.7-106.67-106.71-58.92-.01-106.7,47.74-106.71,106.67v.05"/><path id="Tracé_4462" class="cls-5" d="m298.35,236.05c0-50.89-41.26-92.14-92.16-92.14-50.89,0-92.13,41.25-92.14,92.14"/><path id="Tracé_4463" class="cls-8" d="m283.8,236.05c.43-42.85-33.97-77.94-76.82-78.37-42.85-.43-77.94,33.97-78.37,76.82,0,.33,0,.65,0,.98v.57"/><path id="Tracé_4464" class="cls-2" d="m269.25,236.06c0-34.82-28.23-63.05-63.05-63.05s-63.05,28.23-63.05,63.05"/><path id="Tracé_4465" class="cls-11" d="m123.49,202.44c26.57,0,48.1,21.53,48.11,48.1,0,26.57-21.53,48.1-48.1,48.11-26.57,0-48.1-21.53-48.11-48.1,0,0,0,0,0,0,0-26.56,21.53-48.1,48.1-48.1h0"/><path id="Tracé_4466" class="cls-3" d="m123.49,202.44c26.57,0,48.1,21.53,48.11,48.1,0,26.57-21.53,48.1-48.1,48.11-26.57,0-48.1-21.53-48.11-48.1,0,0,0,0,0,0,0-26.56,21.53-48.1,48.1-48.1h0Z"/><path id="Tracé_4467" class="cls-12" d="m148.72,251.6c2.59,0,4.69,2.1,4.69,4.69,0,2.59-2.1,4.69-4.69,4.69s-4.69-2.1-4.69-4.69h0c0-2.59,2.11-4.69,4.7-4.69h0"/><ellipse id="Ellipse_919" class="cls-4" cx="148.72" cy="256.28" rx="4.7" ry="4.69"/><path id="Tracé_4468" class="cls-12" d="m117.63,251.6c2.59,0,4.68,2.11,4.67,4.7,0,2.59-2.11,4.68-4.7,4.67-2.58,0-4.67-2.1-4.67-4.69,0-2.59,2.11-4.69,4.7-4.69h0"/><ellipse id="Ellipse_920" class="cls-4" cx="117.63" cy="256.28" rx="4.7" ry="4.69"/><path id="Tracé_4469" class="cls-11" d="m288.93,202.44c26.57,0,48.09,21.55,48.09,48.12,0,26.57-21.55,48.09-48.12,48.09-26.56,0-48.09-21.54-48.09-48.11,0-26.56,21.53-48.1,48.1-48.1h.02"/><path id="Tracé_4470" class="cls-3" d="m288.93,202.44c26.57,0,48.09,21.55,48.09,48.12,0,26.57-21.55,48.09-48.12,48.09-26.56,0-48.09-21.54-48.09-48.11,0-26.56,21.53-48.1,48.1-48.1h.02Z"/><path id="Tracé_4471" class="cls-12" d="m263.68,251.6c2.59,0,4.68,2.11,4.67,4.7,0,2.59-2.11,4.68-4.7,4.67-2.58,0-4.67-2.1-4.67-4.69,0-2.59,2.11-4.69,4.7-4.69h0"/><ellipse id="Ellipse_921" class="cls-4" cx="263.68" cy="256.28" rx="4.7" ry="4.69"/><path id="Tracé_4472" class="cls-12" d="m294.77,251.6c2.59,0,4.68,2.11,4.67,4.7,0,2.59-2.11,4.68-4.7,4.67-2.58,0-4.67-2.1-4.67-4.69,0-2.59,2.11-4.69,4.7-4.69h0"/><ellipse id="Ellipse_922" class="cls-4" cx="294.77" cy="256.28" rx="4.7" ry="4.69"/></g></g></g><g id="Groupe_7508"><path id="Tracé_4333" class="cls-10" d="m200,326.12c9.3,0,16.84,7.54,16.84,16.84s-7.54,16.84-16.84,16.84-16.84-7.54-16.84-16.84c0-9.3,7.54-16.84,16.84-16.84h0Z"/></g></svg>