<?xml version="1.0" encoding="UTF-8"?><svg xmlns="http://www.w3.org/2000/svg" viewBox="0 0 400 400"><defs><style>.cls-1,.cls-2,.cls-3{fill:none;}.cls-2{stroke-width:7.63px;}.cls-2,.cls-3,.cls-4,.cls-5,.cls-6,.cls-7{stroke-miterlimit:10;}.cls-2,.cls-3,.cls-5{stroke:#4c4b4c;}.cls-8,.cls-4{fill:#f8bc98;}.cls-9,.cls-6{fill:#6f4b26;}.cls-10{fill:#959cce;}.cls-11,.cls-5{fill:#2c1a13;}.cls-3{stroke-linecap:round;}.cls-3,.cls-5{stroke-width:7.74px;}.cls-4{stroke:#4d4b4d;stroke-width:7px;}.cls-6{stroke:#6f4b26;}.cls-6,.cls-7{stroke-width:3px;}.cls-7{fill:#f9b09d;stroke:#681b25;}</style></defs><g id="back"><rect class="cls-10" x="0" width="400" height="400"/></g><g id="Layer_6"><rect id="Rectangle_47" class="cls-1" x="21.42" y="16.35" width="403.51" height="379.16"/><path class="cls-5" d="m95.69,182.69c.24-.32.37-.71.37-1.11.04-4.39,1.32-31.68,25.96-53.78,26.89-24.11,19.47-31.83,54.7-34.61s37.08-6.18,60.26,1.24c12.86,4.11,21.63,4.42,26.89,3.89,3.03-.31,5.5,2.39,4.96,5.39l-.16.87c-.48,2.68.82,5.36,3.23,6.65,4.15,2.23,10.45,5.23,13.6,4.83,2.34-.29,5.23.43,7.62,1.28s4.25,2.94,4.68,5.48c2.1,12.43,19.89,47.75,5.01,58.44-14.82,10.64-20.77,18.48-22.38,20.87-.33.48-.86.78-1.44.81l-155.4,8.87c-.41.02-.82-.09-1.16-.32l-30.32-20.79c-.88-.6-1.08-1.81-.44-2.66l4.02-5.36Z"/><path id="Tracé_124" class="cls-8" d="m200.38,123.44c50.27,0,91.03,34.28,91.03,76.56s-40.75,76.56-91.03,76.56-91.03-34.28-91.03-76.56h0c0-42.28,40.75-76.56,91.03-76.56"/><ellipse id="Ellipse_85" class="cls-2" cx="200.38" cy="200" rx="91.03" ry="76.56"/><path class="cls-9" d="m169.97,190.41c-.04-1.9.14-3.76.91-5.53.39-.9.94-1.68,1.73-2.26.73-.54,1.45-.62,2.36-.2,1.45.68,2.28,1.77,2.76,3.22,1.02,3.04.87,6.05-.22,9.04-.28.77-.74,1.43-1.34,2-1.49,1.43-3.44,1.29-4.7-.36-.88-1.16-1.35-2.5-1.49-3.94-.06-.65-.01-1.31-.01-1.96Z"/><path class="cls-9" d="m225.31,190.41c-.04-1.9.14-3.76.91-5.53.39-.9.94-1.68,1.73-2.26.73-.54,1.45-.62,2.36-.2,1.45.68,2.28,1.77,2.76,3.22,1.02,3.04.87,6.05-.22,9.04-.28.77-.74,1.43-1.34,2-1.49,1.43-3.44,1.29-4.7-.36-.88-1.16-1.35-2.5-1.49-3.94-.06-.65-.01-1.31-.01-1.96Z"/><path class="cls-7" d="m200.48,244.47c-3.41.22-6.66-.36-9.83-1.36-2.89-.91-5.63-2.2-8.03-4.1-.23-.18-.44-.4-.64-.61-.61-.65-.62-1.16-.07-1.72.5-.51.84-.5,1.53.08,1.01.85,2.07,1.64,3.2,2.34,2.42,1.5,5.06,2.38,7.82,2.94,1.37.28,2.75.46,4.15.49.8.02,1.6.22,2.41.19,5.37-.21,10.5-1.32,15.23-3.95.52-.29,1.02-.59,1.54-.87.16-.09.33-.19.5-.22.31-.07.68-.19.89.18.16.29.03.58-.2.8-.34.34-.65.7-1.06.97-3.18,2.1-6.65,3.46-10.38,4.22-2.35.48-4.71.82-7.07.63Z"/><path class="cls-6" d="m200.42,212.4c-1.39-.09-2.72.15-4.01.55-1.18.37-2.29.9-3.27,1.67-.09.07-.18.16-.26.25-.25.26-.25.47-.03.7.2.21.34.2.62-.03.41-.35.84-.67,1.3-.95.99-.61,2.06-.97,3.19-1.2.56-.11,1.12-.19,1.69-.2.33,0,.65-.09.98-.08,2.19.08,4.28.54,6.21,1.61.21.12.42.24.63.36.07.04.13.08.21.09.13.03.28.08.36-.07.07-.12.01-.24-.08-.33-.14-.14-.27-.28-.43-.39-1.3-.85-2.71-1.41-4.23-1.72-.96-.19-1.92-.33-2.88-.26Z"/><circle class="cls-4" cx="302.07" cy="194.68" r="11.43"/><circle class="cls-4" cx="97.97" cy="195.53" r="11.43"/><path class="cls-11" d="m108.96,182.73c28.22-2.6,87.63-61.96,87.63-61.96l-9.75-6.63-54.57,9.12-17.78,18.79-11.58,22.95,6.05,17.73Z"/><path class="cls-3" d="m176.59,137.61s-34.73,43.93-67.47,47.44"/><polygon class="cls-11" points="203.86 107.27 297.24 154.7 288.35 177.34 253.96 159.98 243.58 148.5 228.17 151.6 192.3 143.23 176.59 135.79 203.86 107.27"/><path class="cls-3" d="m245.96,150.06s9.47,23.23,42.21,26.74"/><path class="cls-3" d="m168.38,133.33s45.68,24.95,77.58,16.73"/><g><path class="cls-11" d="m200,220.94c-18.84,0-34.11,11.76-34.11,26.28s15.27,26.28,34.11,26.28,34.11-11.76,34.11-26.28c0-5.01-1.82-9.7-4.98-13.68-1.29-1.63-2.81-3.14-4.52-4.52-6.21-4.98-14.94-8.08-24.61-8.08Zm.07,27.34c-13.11,0-20.99-6.81-23.65-9.04-3.33-2.79,9.15-9.18,22.26-9.18s27.9,6.25,25.21,9.18c-2.31,2.51-10.72,9.04-23.83,9.04Z"/><path class="cls-11" d="m113.66,206.2s42.08,42.12,54.64,31.49l27.07,34.73c-11.2,4.28-79.97-14.96-81.71-66.22Z"/><path class="cls-11" d="m287.23,206.28s-42.72,42.05-55.29,31.42l-27.07,34.73c11.2,4.28,80.62-14.89,82.35-66.15Z"/><ellipse class="cls-11" cx="193.88" cy="224.24" rx="10.17" ry="5.55"/><ellipse class="cls-11" cx="208.4" cy="224.24" rx="10.17" ry="5.55"/></g><rect id="Rectangle_47-2" class="cls-1" x="-397.22" y="16.35" width="403.51" height="379.16"/></g></svg>