<?xml version="1.0" encoding="UTF-8"?>
<svg width="400px" height="400px" viewBox="0 0 400 400" version="1.1" xmlns="http://www.w3.org/2000/svg" xmlns:xlink="http://www.w3.org/1999/xlink">
    <title>avatar_leka_astronaut</title>
    <g id="Page-1" stroke="none" stroke-width="1" fill="none" fill-rule="evenodd">
        <g id="avatar_leka_astronaut" fill-rule="nonzero">
            <rect id="Rectangle" fill="#487DAC" x="0" y="0" width="400" height="400"></rect>
            <rect id="Rectangle-Copy" fill="#0A579B" x="0" y="0" width="400" height="400"></rect>
            <g id="question_mark" transform="translate(132.000000, 82.000000)" fill="#FFFFFF">
                <path d="M63.3897,168.85275 C65.42635,168.85275 67.2859,168.0558 68.61415,166.55045 C69.9424,164.95655 70.6508,163.00845 70.56225,160.9718 L70.56225,151.49695 C70.38515,144.05875 72.51035,136.7091 76.76075,130.5106 C82.78215,122.8953 90.1318,116.3426 98.4555,111.2067 C109.6128,104.1227 119.3533,95.00205 127.1457,84.37605 C132.90145,75.2554 135.8236,64.6294 135.4694,53.91485 C135.55795,38.86135 128.65105,24.69335 116.60825,15.5727 C102.883,4.85815 85.7043,-0.5434 68.25995,0.165 C51.1698,-0.7205 34.43385,4.68105 21.0628,15.3956 C10.0826,24.2506 2.8215,36.91325 0.78485,50.90415 C0.25355,53.8263 0.07645,56.837 0.165,59.75915 C-0.0121,62.06145 0.78485,64.2752 2.2902,65.95765 C3.61845,67.2859 5.478,67.9943 7.33755,67.90575 C9.28565,67.90575 11.23375,67.37445 12.9162,66.31185 C14.42155,65.1607 15.30705,63.30115 15.2185,61.4416 L15.5727,58.16525 C16.19255,46.5652 21.5941,35.67355 30.4491,28.23535 C40.45525,18.84905 53.91485,13.8017 67.6401,14.333 C81.18825,13.53605 94.64785,17.6979 105.45095,25.93305 C114.3945,33.01705 119.5304,43.82015 119.3533,55.2431 C119.5304,63.65535 116.96245,71.97905 112.00365,78.7974 C104.4769,87.91805 95.6219,95.799 85.61575,102.08605 C76.4951,108.0189 68.61415,115.6342 62.3271,124.4892 C57.63395,132.37015 55.2431,141.40225 55.4202,150.5229 L55.4202,160.70615 C55.4202,166.19625 58.0767,168.85275 63.30115,168.85275 M62.94695,236.0622 C67.55155,236.15075 71.8905,234.2912 75.0783,231.01485 C78.2661,227.82705 80.0371,223.57665 79.94855,219.0606 C79.94855,214.6331 78.2661,210.3827 75.0783,207.28345 C71.8905,204.0071 67.463,202.2361 62.94695,202.32465 C58.4309,202.2361 54.0034,204.0071 50.8156,207.1949 C47.6278,210.29415 45.8568,214.54455 45.94535,218.97205 C45.94535,223.4881 47.6278,227.7385 50.8156,230.9263 C53.91485,234.2912 58.34235,236.0622 62.94695,235.97365" id="Tracé_4242"></path>
            </g>
        </g>
    </g>
</svg>