<svg id="Layer_1" data-name="Layer 1" xmlns="http://www.w3.org/2000/svg" viewBox="0 0 1000 1000"><defs><style>.cls-1{fill:#414243;stroke:#414243;stroke-miterlimit:10;stroke-width:1.45px;}.cls-2{fill:#e91e6b;}.cls-3{fill:#ef8e21;}.cls-4{fill:#56acd3;}.cls-5{fill:#adcb37;}</style></defs><path class="cls-1" d="M831.57,852.89C709.89,1057.76,418.64,1019.3,286.83,914.6,18.06,701.11,330.39,100.46,635.26,330.36c12.06,9.1,9.11,15.18-.25,18.67C790,442,955.55,644.12,831.57,852.89Zm-51.06-91.47c37.35-205.43-100.28-360.54-257-417.76-17.57-6.42-22.38-13.74-20.47-20.14-86.66,3.75-175.34,112.83-211.38,201.18-49.79,122.08-55.86,271.4,32.14,352C437.1,980.36,736.61,1002.86,780.51,761.42Z"/><path class="cls-2" d="M430.25,193.93c-60-44.1-87.6-114.52-121-179.14-9.88-19.15-84.5-18.37-77.75-5.28,35.19,68.16,64.79,139.87,128,186.34,14.39,10.58,36.35,13.39,53.68,12.91C419.89,208.58,444.73,204.57,430.25,193.93Z"/><path class="cls-3" d="M728,13.19C668.1,59.94,612.53,113.43,573.22,179.49c-4.67,7.84,67.42,32.69,79.53,12.35C690.67,128.11,746,76.5,803.7,31.46,812.62,24.5,745.59-.51,728,13.19Z"/><path class="cls-4" d="M972.05,260.91c-15.49-3.76-35.41-7-50.28.88-43.06,22.68-77.93,59.43-124.77,74.46-17.15,5.51,5.57,16.76,11.59,18.83,16.42,5.65,38,9.58,55.11,4.1,50.35-16.16,87.56-54.71,133.72-79C1009.79,273.65,973.73,261.32,972.05,260.91Z"/><path class="cls-5" d="M31.79,201.17c18.07-2.41,41.43-3.86,59.74,5.36,53.05,26.7,97.6,66.88,154.48,86.2,20.83,7.08-5.17,16.42-12.14,18-19,4.24-44.28,6.29-65-.76-61.14-20.77-108.62-63-165.49-91.6C-11.89,210.68,29.83,201.44,31.79,201.17Z"/><path class="cls-4" d="M459.05,528.14c-2.31-3.28-4.63-6.56-6.91-9.88-4.46-6.5-20.91-21.73-32.57-21.73a11.3,11.3,0,0,0-6,1.62c-1.3.8-2.59,1.62-3.87,2.44l-2.43,1.61c-25.68,17.16-47.71,40.33-67.18,70.62-1.07,1.68-1.88,4.53.35,8.62,5.11,9.36,24,20.87,34.17,20.87,4.26,0,6.36-1.88,7.37-3.46,15.87-24.69,32.76-43.92,51.57-58.7,6,9.75,9.78,18.35,11.94,26.87,1.85,7.32,8.89,13.94,21.52,20.22,1.1.56,9.77,4.23,15.41,4.23,2.57,0,4.46-.76,5.62-2.25a5.7,5.7,0,0,0,.84-5.17C483.45,562.68,471.05,545.12,459.05,528.14Z"/><path class="cls-4" d="M706.27,572.82c-19.46-30.28-41.49-53.45-67.18-70.62l-2.43-1.61c-1.28-.82-2.57-1.64-3.86-2.44a11.33,11.33,0,0,0-6-1.62c-11.65,0-28.1,15.23-32.56,21.73-2.27,3.31-4.58,6.57-6.88,9.84-12,17-24.43,34.57-29.85,55.95a5.76,5.76,0,0,0,.84,5.17c1.17,1.49,3.06,2.25,5.63,2.25,6.11,0,15.33-4.18,15.41-4.23C592,581,599,574.35,600.87,567c2.16-8.52,6-17.12,12-26.87,18.81,14.78,35.7,34,51.56,58.7,1,1.57,3.12,3.46,7.37,3.46,10.22,0,29.06-11.51,34.17-20.87C708.16,577.35,707.34,574.5,706.27,572.82Z"/></svg>