<?xml version="1.0" encoding="UTF-8"?><svg xmlns="http://www.w3.org/2000/svg" viewBox="0 0 400 400"><defs><style>.cls-1{opacity:.1;}.cls-1,.cls-2{fill:#fff;}.cls-3{fill:#99d0ec;}.cls-4{fill:#4c4b4c;}.cls-5{fill:#ffda5f;stroke:#4c4b4c;stroke-miterlimit:10;stroke-width:7px;}.cls-6{fill:none;stroke:#f8acae;stroke-linecap:round;stroke-linejoin:round;stroke-width:7.33px;}</style></defs><g id="back"><rect class="cls-2" y="0" width="400" height="400"/><g><circle class="cls-2" cx="37.41" cy="156.36" r="6.27"/><circle class="cls-1" cx="37.41" cy="156.36" r="6.27"/></g><g><circle class="cls-2" cx="91.74" cy="210.7" r="6.27"/><circle class="cls-1" cx="91.74" cy="210.7" r="6.27"/></g><g><circle class="cls-2" cx="215.14" cy="334.1" r="6.27"/><circle class="cls-1" cx="215.14" cy="334.1" r="6.27"/></g><g><circle class="cls-2" cx="156.29" cy="134.75" r="6.27"/><circle class="cls-1" cx="156.29" cy="134.75" r="6.27"/></g><g><circle class="cls-2" cx="159.27" cy="108.47" r="3.29"/><circle class="cls-1" cx="159.27" cy="108.47" r="3.29"/></g><g><circle class="cls-2" cx="88.77" cy="123.44" r="3.29"/><circle class="cls-1" cx="88.77" cy="123.44" r="3.29"/></g><g><circle class="cls-2" cx="186.37" cy="44.9" r="3.29"/><circle class="cls-1" cx="186.37" cy="44.9" r="3.29"/></g><g><circle class="cls-2" cx="328.58" cy="160.82" r="3.29"/><circle class="cls-1" cx="328.58" cy="160.82" r="3.29"/></g><g><circle class="cls-2" cx="260.61" cy="105.18" r="6.27"/><circle class="cls-1" cx="260.61" cy="105.18" r="6.27"/></g><g><circle class="cls-2" cx="126.73" cy="289.35" r="3.29"/><circle class="cls-1" cx="126.73" cy="289.35" r="3.29"/></g><g><circle class="cls-2" cx="325.29" cy="273.41" r="6.27"/><circle class="cls-1" cx="325.29" cy="273.41" r="6.27"/></g><g><circle class="cls-2" cx="284.27" cy="171.05" r="1.65"/><circle class="cls-1" cx="284.27" cy="171.05" r="1.65"/></g><g><circle class="cls-2" cx="307.75" cy="216.92" r="1.65"/><circle class="cls-1" cx="307.75" cy="216.92" r="1.65"/></g><g><circle class="cls-2" cx="283.84" cy="48.65" r="1.65"/><circle class="cls-1" cx="283.84" cy="48.65" r="1.65"/></g><g><circle class="cls-2" cx="205.61" cy="89.49" r="1.65"/><circle class="cls-1" cx="205.61" cy="89.49" r="1.65"/></g><g><circle class="cls-2" cx="258.78" cy="255.19" r="1.65"/><circle class="cls-1" cx="258.78" cy="255.19" r="1.65"/></g><g><circle class="cls-2" cx="212.97" cy="296.15" r="1.65"/><circle class="cls-1" cx="212.97" cy="296.15" r="1.65"/></g><g><circle class="cls-2" cx="186.77" cy="322.35" r="1.65"/><circle class="cls-1" cx="186.77" cy="322.35" r="1.65"/></g><g><circle class="cls-2" cx="264.81" cy="286.2" r="1.65"/><circle class="cls-1" cx="264.81" cy="286.2" r="1.65"/></g><rect class="cls-3" y="0" width="400" height="400"/></g><g id="Layer_1"><g id="Regular-S"><path class="cls-5" d="m134.52,299.55c2.25,1.69,4.74,2.27,7.48,1.75,2.73-.52,5.71-1.99,8.92-4.4l49.08-36.06,49.2,36.06c3.22,2.41,6.19,3.88,8.92,4.4,2.73.52,5.19-.06,7.36-1.75,2.17-1.69,3.46-3.88,3.86-6.57.4-2.69-.04-5.93-1.33-9.71l-19.42-57.77,49.57-35.58c3.22-2.25,5.49-4.6,6.81-7.06,1.33-2.45,1.55-5,.66-7.66-.88-2.57-2.55-4.46-5-5.67-2.45-1.21-5.69-1.81-9.71-1.81l-60.78.48-18.45-58.13c-1.21-3.78-2.77-6.65-4.7-8.62-1.93-1.97-4.26-2.95-6.99-2.95s-5.04.98-6.93,2.95c-1.89,1.97-3.48,4.84-4.76,8.62l-18.45,58.13-60.78-.48c-3.94,0-7.16.6-9.65,1.81-2.49,1.21-4.18,3.1-5.07,5.67-.88,2.65-.66,5.21.66,7.66,1.33,2.45,3.6,4.8,6.81,7.06l49.57,35.58-19.42,57.77c-1.29,3.78-1.73,7.01-1.33,9.71.4,2.69,1.69,4.88,3.86,6.57Z"/></g><g><circle id="Oval_2_Copy_3" class="cls-4" cx="166.66" cy="196.12" r="12.23"/><circle id="Oval_2_Copy_3-2" class="cls-4" cx="233.34" cy="196.12" r="12.23"/><path id="Oval_2_Copy_3-3" class="cls-6" d="m189.95,228.06c0,5.55,4.5,10.05,10.05,10.05h0c5.55,0,10.05-4.5,10.05-10.05h0"/></g></g></svg>