<?xml version="1.0" encoding="UTF-8"?><svg xmlns="http://www.w3.org/2000/svg" viewBox="0 0 400 400"><defs><style>.cls-1{fill:#f6917e;}.cls-2,.cls-3{fill:#114c3f;}.cls-4,.cls-5,.cls-6,.cls-7,.cls-8{stroke-miterlimit:10;}.cls-4,.cls-3,.cls-6,.cls-9{stroke:#4c4b4c;}.cls-4,.cls-3,.cls-10,.cls-11,.cls-9{stroke-linecap:round;}.cls-4,.cls-3,.cls-7,.cls-11,.cls-9{stroke-width:6.94px;}.cls-4,.cls-9{fill:none;}.cls-5{stroke-width:10.4px;}.cls-5,.cls-10,.cls-7,.cls-11,.cls-8{stroke:#000;}.cls-3,.cls-10,.cls-11,.cls-9{stroke-linejoin:round;}.cls-6{fill:#fff;stroke-width:7px;}.cls-10{stroke-width:9.71px;}.cls-7{fill:#9bcadf;}.cls-8{stroke-width:3.47px;}</style></defs><g id="back"><rect class="cls-1" y="0" width="400" height="400"/></g><g id="Layer_1"><g id="Groupe_87"><g id="discover"><ellipse id="Oval_7_Copy_4" class="cls-10" cx="248.4" cy="207.82" rx="7.79" ry="7.76"/><path id="Oval_10" class="cls-6" d="m129.53,150.54c-27.35,34.53-21.52,84.7,13.01,112.04,14.09,11.16,31.54,17.23,49.52,17.23h0c44.08-.03,79.79-35.78,79.76-79.86,0-9.73-1.79-19.38-5.27-28.46"/><path id="Line" class="cls-9" d="m190.33,208.73h17.34"/><path id="Path_22" class="cls-2" d="m112.16,178.37c-17.02,0-31.28-5.61-38.31-16.48-7.03-10.87-2.96-25.02,4.2-27.48,7.16-2.46,26.32.69,38.03,6.12,11.71,5.42,49.05,25.82,53.25,27.68,10.78,4.63,22.18,7.69,33.83,9.09,13.64,1.06,52.5.79,63.66-10.28,11.16-11.07,31.97-20.26,29.56-30.11-2.41-9.85-7.85-20.97-16.4-18.67-8.54,2.3-31.54,17.79-37,20.05-5.46,2.25-53.19,13-59.6,12.45-6.41-.55-51.87-13.81-51.87-13.81,0,0-11.23,31.29-19.35,41.45Z"/><g id="Group"><path id="Path_21" class="cls-4" d="m110.08,178.33c-24.59,4.68-49.25-22.83-35.4-40.01,13.85-17.18,48.14,6.45,72.35,18.5,24.2,12.05,45.87,21.5,75.77,21.5s70.28-19.29,72.15-44.17c1.88-24.87-36.63-15.06-50.73,4.16"/><path id="Path_24" class="cls-3" d="m180.35,152.94s76.08-1.42,63.96-23.2c-12.11-21.78-45.98-54.02-58.22-51.15-12.24,2.87-13.09,9.42-24,13.96-10.91,4.55-18.67,2.89-25.92,6.69-7.25,3.79-5.68,39.13-5.68,39.13"/></g><ellipse id="Oval_Copy" class="cls-5" cx="309.97" cy="205.61" rx="13.87" ry="19.42"/><path id="Rectangle_91" class="cls-11" d="m251.33,198.86l52.41-6.14,1.63,27.28-54.04-4.5v-16.65Z"/><path id="Rectangle_4" class="cls-11" d="m310.39,187.85l50.82-8.14v53.4l-54.71-11.24,3.89-34.02Z"/><ellipse id="Oval" class="cls-7" cx="359.62" cy="207" rx="23.17" ry="27.74"/><ellipse id="Oval_65" class="cls-8" cx="248.49" cy="207" rx="13.87" ry="13.56"/></g></g></g></svg>