<?xml version="1.0" encoding="UTF-8"?>
<svg width="88px" height="112px" viewBox="0 0 88 112" version="1.1" xmlns="http://www.w3.org/2000/svg" xmlns:xlink="http://www.w3.org/1999/xlink">
    <title>bluetooth_off</title>
    <defs>
        <rect id="path-1" x="0" y="0" width="9.186" height="16.097"></rect>
    </defs>
    <g id="Page-1" stroke="none" stroke-width="1" fill="none" fill-rule="evenodd">
        <g id="bluetooth_off" transform="translate(2.000000, 2.000000)">
            <g id="Groupe_6986" transform="translate(0.611000, 0.761000)">
                <g id="Groupe_6983" transform="translate(0.537000, 27.000000)">
                    <g id="Groupe_6959" transform="translate(0.934000, 0.000000)">
                        <g id="Group_10" transform="translate(0.992000, 0.000000)" stroke="#000000" stroke-width="4">
                            <path d="M39.575,0 C61.431669,0 79.15,17.718331 79.15,39.575 C79.15,61.431669 61.431669,79.15 39.575,79.15 C17.718331,79.15 0,61.431669 0,39.575 C0,17.718331 17.718331,0 39.575,0 Z" id="Oval_Copy_2"></path>
                        </g>
                        <circle id="Oval_2_Copy_3" fill="#000000" fill-rule="nonzero" cx="23.08" cy="35.305" r="6.141"></circle>
                        <circle id="Oval_2_Copy_3-2" fill="#000000" fill-rule="nonzero" cx="58.053" cy="35.305" r="6.141"></circle>
                        <path d="M35.759,53.843 C35.759,56.6298288 38.0181712,58.889 40.805,58.889 L40.805,58.889 C43.5914383,58.8884478 45.85,56.6294384 45.85,53.843" id="Oval_2_Copy_3-3" stroke="#FFAEAE" stroke-width="3" stroke-linecap="round" stroke-linejoin="round"></path>
                    </g>
                </g>
                <g id="Groupe_6982" transform="translate(8.389000, 0.239000)" stroke="#000000" stroke-width="4">
                    <g id="Groupe_6981">
                        <path d="M0.708,43.932 C0.708,43.932 67.5,44 67.301,43.932 C65.107,44.226 70.792,4.458 42.98,2.818 C18.623,1.382 12.157,7.01 10.387,8.75 C9.86567528,9.26856474 9.37738367,9.81931226 8.925,10.399 C7.325,12.765 3.238,14.655 0.708,43.932 Z" id="Tracé_4203" fill="#0A579B" fill-rule="nonzero"></path>
                        <path d="M3.06,42.523 C3.06,42.523 -0.122,55.939 4.17,54.26 C8.462,52.581 20.216,45.398 28.705,45.118 C37.194,44.838 45.777,46.61 48.482,48.01 C51.187,49.41 60.423,54.634 63.128,54.82 C65.833,55.006 66.02,54.82 66.113,51.369 C66.0561599,48.4925926 65.7412295,45.6270937 65.172,42.807 C65.172,42.807 48.772,33.355 31.507,34.899 C14.242,36.443 3.06,42.523 3.06,42.523 Z" id="Tracé_4204" fill="#0A579B" fill-rule="nonzero"></path>
                        <path d="M0.708,43.932 C1.20746502,44.4434775 1.8794143,44.7507562 2.593,44.794" id="Tracé_4205"></path>
                        <path d="M35.19,2.58 L31.446,2.58 C30.866101,2.58 30.396,2.10989899 30.396,1.53 C30.396,0.950101013 30.866101,0.48 31.446,0.48 L35.193,0.48 C35.772899,0.48 36.243,0.950101013 36.243,1.53 C36.243,2.10989899 35.772899,2.58 35.193,2.58 L35.19,2.58 Z" id="Tracé_4207"></path>
                    </g>
                </g>
            </g>
            <g id="Groupe_6907-Clipped" transform="translate(38.054000, 12.575000)">
                <mask id="mask-2" fill="white">
                    <use xlink:href="#path-1"></use>
                </mask>
                <g id="Rectangle_1819"></g>
                <g id="Groupe_6907" mask="url(#mask-2)" fill="#FFFFFF" fill-rule="nonzero">
                    <path d="M3.883,9.908 C3.79499772,9.96782112 3.71021319,10.032244 3.629,10.101 C2.815,10.8736667 2.00333333,11.6486667 1.194,12.426 C1.08,12.537 0.972,12.561 0.864,12.458 C0.589,12.196 0.32,11.925 0.056,11.651 C-0.031,11.56 -0.011,11.47 0.089,11.376 C1.12433333,10.392 2.158,9.40633333 3.19,8.419 C3.481,8.141 3.481,7.956 3.19,7.675 C2.162,6.69566667 1.132,5.71766667 0.1,4.741 C-0.021,4.626 -0.035,4.525 0.069,4.417 C0.318,4.157 0.569,3.895 0.838,3.656 C0.988,3.522 1.05,3.544 1.202,3.689 C2.00733333,4.45633333 2.813,5.223 3.619,5.989 C3.69657294,6.04834671 3.78000611,6.09961287 3.868,6.142 C3.88738718,6.05003962 3.90008708,5.95679559 3.906,5.863 C3.906,4.063 3.906,2.26066667 3.906,0.456 C3.88143027,0.277898721 3.98179583,0.106079504 4.149,0.04 C4.32195097,-0.038899958 4.52596054,0.00133861578 4.656,0.14 C6.11733333,1.53533333 7.578,2.93166667 9.038,4.329 C9.13454936,4.39920133 9.19092306,4.51197453 9.18917406,4.63133449 C9.18734226,4.75069445 9.12761149,4.86172609 9.029,4.929 L6.145,7.689 C6.0922017,7.73738761 6.04368757,7.79025128 6,7.847 C5.89624586,7.96282959 5.89624586,8.13817041 6,8.254 C6.04370976,8.31042163 6.0922244,8.36295128 6.145,8.411 C7.09833333,9.32633333 8.05233333,10.241 9.007,11.155 C9.11618539,11.2240919 9.18278121,11.3439305 9.18379221,11.4731362 C9.18480321,11.6023419 9.12009083,11.723208 9.012,11.794 L4.677,15.941 C4.55062143,16.079234 4.35492461,16.1305066 4.177,16.072 C3.99736937,16.0199493 3.88405359,15.8429201 3.912,15.658 C3.912,14.2186667 3.912,12.7786667 3.912,11.338 C3.912,10.938 3.912,10.538 3.912,10.144 C3.912,10.08 3.899,10.017 3.887,9.909 M5.478,13.04 C5.52559479,13.0171869 5.57081514,12.9897197 5.613,12.958 C6.045,12.547 6.479,12.136 6.905,11.718 C7.04282506,11.579827 7.04282506,11.356173 6.905,11.218 C6.499,10.823 6.087,10.435 5.673,10.049 C5.6194977,10.015316 5.56066006,9.9909694 5.499,9.977 C5.4769134,10.0315497 5.46179412,10.088667 5.454,10.147 C5.454,11.0456667 5.454,11.9456667 5.454,12.847 C5.45839831,12.9140998 5.46674611,12.9808822 5.479,13.047 M5.469,3.054 C5.46,3.16 5.452,3.218 5.451,3.277 C5.451,4.159 5.451,5.041 5.451,5.923 C5.46011724,5.9943407 5.47826256,6.06423378 5.505,6.131 C5.571,6.098 5.638,6.067 5.705,6.031 C5.72666075,6.01684533 5.74619091,5.99967225 5.763,5.98 C6.131,5.628 6.5,5.28 6.863,4.924 C6.94851032,4.85236931 6.99790911,4.74654807 6.99790911,4.635 C6.99790911,4.52345193 6.94851032,4.41763069 6.863,4.346 C6.463,3.95933333 6.063,3.57466667 5.663,3.192 C5.60201738,3.14177782 5.53824935,3.09503686 5.472,3.052" id="Tracé_4181"></path>
                </g>
            </g>
        </g>
    </g>
</svg>