<?xml version="1.0" encoding="UTF-8"?>
<svg width="47px" height="47px" viewBox="0 0 47 47" version="1.1" xmlns="http://www.w3.org/2000/svg" xmlns:xlink="http://www.w3.org/1999/xlink">
    <title>effective_1</title>
    <g id="Page-1" stroke="none" stroke-width="1" fill="none" fill-rule="evenodd">
        <g id="effective_1" transform="translate(1.000000, 1.000000)" fill-rule="nonzero">
            <path d="M22.24,0.5 C34.25,0.5 43.98,10.23 43.98,22.24 C43.98,34.25 34.25,43.98 22.24,43.98 C10.23,43.98 0.5,34.25 0.5,22.24 L0.5,22.24 C0.5,10.23 10.23,0.5 22.24,0.5 Z" id="Tracé_4244" stroke="#F7F7F7" stroke-width="3" fill="#EF7820"></path>
            <g id="Groupe_7127" transform="translate(14.000000, 14.000000)" fill="#FFFFFF" stroke="#FFFFFF" stroke-width="2">
                <g id="Groupe_7126">
                    <path d="M1.29,15.77 C1.48,15.77 1.67,15.69 1.8,15.55 L8.23,9.1 L14.68,15.55 C14.81,15.69 14.98,15.77 15.17,15.77 C15.34,15.77 15.5,15.72 15.62,15.61 C15.74,15.51 15.81,15.36 15.8,15.21 C15.8,15.02 15.72,14.85 15.58,14.72 L9.11,8.24 L15.59,1.76 C15.72,1.64 15.8,1.47 15.81,1.3 C15.81,1.14 15.75,0.98 15.63,0.87 C15.5,0.76 15.34,0.71 15.18,0.71 C14.99,0.71 14.82,0.79 14.69,0.93 L8.24,7.36 L1.81,0.93 C1.67,0.79 1.49,0.72 1.3,0.71 C1.14,0.71 0.99,0.76 0.87,0.87 C0.75,0.97 0.68,1.12 0.69,1.27 C0.69,1.46 0.77,1.63 0.91,1.76 L7.39,8.24 L0.91,14.71 C0.77,14.84 0.69,15.01 0.69,15.2 C0.69,15.35 0.76,15.5 0.87,15.6 C0.99,15.7 1.14,15.76 1.3,15.76" id="Tracé_4243"></path>
                </g>
            </g>
        </g>
    </g>
</svg>