<?xml version="1.0" encoding="UTF-8"?><svg xmlns="http://www.w3.org/2000/svg" viewBox="0 0 400 400"><defs><style>.cls-1{fill:#ffd69f;}.cls-2{fill:#4b4b4b;}.cls-3{fill:#f16465;stroke-miterlimit:10;}.cls-3,.cls-4,.cls-5{stroke:#4b4b4b;stroke-width:7px;}.cls-4{fill:#fde9e8;stroke-linecap:round;}.cls-4,.cls-5{stroke-linejoin:round;}.cls-5{fill:#86c143;}</style></defs><g id="back"><rect class="cls-1" y="0" width="400" height="400"/></g><g id="Layer_1"><g><path id="Oval_97_Copy_2" class="cls-3" d="m76.12,282.58c-2.83,4.23-1.7,9.95,2.53,12.78.61.41,1.27.74,1.96,1l238.7,2.05c4.79-1.7,7.3-6.97,5.6-11.76-.24-.68-.57-1.34-.96-1.94l-120.59-184.79c-.82-1.25-2.5-1.59-3.75-.77-.3.19-.55.45-.75.74l-122.73,182.7Z"/><path id="Combined_Shape-2" class="cls-4" d="m319.33,301.29h0l-238.73-2.08c-4.85-1.85-7.28-7.29-5.43-12.14.25-.64.56-1.26.94-1.83l11.42-17.27,225.39,2.22,11.05,17.2c2.81,4.37,1.54,10.19-2.84,13-.57.36-1.17.67-1.8.9h0Z"/><path id="Combined_Shape-3" class="cls-5" d="m319.32,301.3l-238.72-2.08c-4.85-1.85-7.28-7.29-5.43-12.14.25-.64.56-1.26.94-1.83l14.42-21.8,219.27,1.91,14.16,22.04c2.81,4.37,1.54,10.19-2.83,13-.57.36-1.17.67-1.81.9h0Z"/><g id="Rectangle_130"><path class="cls-2" d="m201.66,235.89c.79,0,1.5.47,1.82,1.19l3.72,8.42c1.63,3.7-1.08,7.86-5.12,7.86s-6.96-4.16-5.44-8l3.26-8.27c.29-.73.99-1.21,1.77-1.21Z"/></g><g id="Rectangle_130_Copy_5"><path class="cls-2" d="m200.36,149.05c.79,0,1.5.47,1.82,1.19l3.72,8.42c1.63,3.7-1.08,7.86-5.12,7.86s-6.96-4.16-5.44-8l3.26-8.27c.29-.73.99-1.21,1.77-1.21Z"/></g><g id="Rectangle_130_Copy"><path class="cls-2" d="m178.79,194.86c.77.16,1.37.77,1.53,1.54l1.88,9.01c.83,3.96-2.69,7.47-6.65,6.62-4.04-.86-5.94-5.51-3.66-8.95l4.91-7.41c.43-.65,1.22-.97,1.98-.81Z"/></g><g id="Rectangle_130_Copy_3"><path class="cls-2" d="m140.31,232.11c.75.23,1.3.88,1.39,1.67l1.09,9.14c.48,4.02-3.33,7.2-7.2,6.02-3.95-1.21-5.44-6.01-2.87-9.24l5.53-6.95c.49-.61,1.3-.86,2.05-.64Z"/></g><g id="Rectangle_130_Copy_2"><path class="cls-2" d="m221.85,195.63c.77-.16,1.57.14,2.03.78l5.39,7.46c2.37,3.28.58,7.91-3.38,8.76s-7.67-2.62-6.99-6.69l1.47-8.76c.13-.77.72-1.39,1.48-1.55Z"/></g><g id="Rectangle_130_Copy_4"><path class="cls-2" d="m265.62,232.28c.75-.23,1.57,0,2.09.6l6.02,6.97c2.65,3.06,1.27,7.83-2.6,9.02-3.95,1.21-7.87-1.94-7.54-6.06l.7-8.86c.06-.78.59-1.44,1.34-1.67Z"/></g></g></g></svg>