<?xml version="1.0" encoding="utf-8"?>
<!-- Generator: Adobe Illustrator 27.0.0, SVG Export Plug-In . SVG Version: 6.00 Build 0)  -->
<svg version="1.1" id="Groupe_6379" xmlns="http://www.w3.org/2000/svg" xmlns:xlink="http://www.w3.org/1999/xlink" x="0px"
	 y="0px" viewBox="0 0 100 100" style="enable-background:new 0 0 100 100;" xml:space="preserve">
<style type="text/css">
	.st0{clip-path:url(#SVGID_00000132083230542217598000000011064169535296926897_);}
	.st1{fill:none;stroke:#FFDF00;stroke-width:3.487;stroke-miterlimit:10;}
	.st2{fill:none;stroke:#F87F0B;stroke-width:3.487;stroke-miterlimit:10;}
	.st3{fill:none;stroke:#E82827;stroke-width:3.487;stroke-miterlimit:10;}
	.st4{fill:none;stroke:#FFC000;stroke-width:3.487;stroke-miterlimit:10;}
	.st5{fill:#050605;}
</style>
<g id="Groupe_6420" transform="translate(0 0)">
	<g>
		<defs>
			<rect id="SVGID_1_" x="5.6" y="5.5" width="88.8" height="89"/>
		</defs>
		<clipPath id="SVGID_00000037656344813477000440000005970065730242306987_">
			<use xlink:href="#SVGID_1_"  style="overflow:visible;"/>
		</clipPath>
		<g id="Groupe_6419" style="clip-path:url(#SVGID_00000037656344813477000440000005970065730242306987_);">
			<path id="Tracé_3710" class="st1" d="M50,92.7c-23.6,0-42.8-19.1-42.8-42.7S26.2,7.3,49.8,7.3s42.8,19.1,42.8,42.7
				c0,0,0,0,0,0.1v0C92.7,73.6,73.6,92.7,50,92.7C50.1,92.7,50.1,92.7,50,92.7L50,92.7z"/>
			<path id="Tracé_3711" class="st2" d="M49.8,84.4c-18.8,0-34.1-15.2-34.2-34.1s15.2-34.1,34.1-34.2s34.1,15.2,34.2,34.1
				c0,0,0,0,0,0.1v0C83.8,69.1,68.6,84.3,49.8,84.4z"/>
			<path id="Tracé_3712" class="st3" d="M49.9,75.2c-13.8,0-25.1-11.2-25.1-25.1s11.2-25.1,25.1-25.1S75,36.3,75,50.2
				c0,10-6,19.1-15.2,23C56.7,74.5,53.3,75.2,49.9,75.2z"/>
			<ellipse id="Ellipse_878" class="st4" cx="49.9" cy="50.1" rx="15.7" ry="15.7"/>
			<path id="Tracé_3713" class="st5" d="M50,41.8c4.6,0,8.3,3.7,8.3,8.2s-3.7,8.3-8.2,8.3s-8.3-3.7-8.3-8.2c0,0,0,0,0,0
				C41.8,45.4,45.4,41.8,50,41.8C50,41.8,50,41.8,50,41.8"/>
		</g>
	</g>
</g>
</svg>
