<?xml version="1.0" encoding="UTF-8"?><svg id="Layer_1" xmlns="http://www.w3.org/2000/svg" viewBox="0 0 400 400"><defs><style>.cls-1{fill:#ef473c;}.cls-1,.cls-2,.cls-3,.cls-4{stroke-width:5.09px;}.cls-1,.cls-2,.cls-3,.cls-4,.cls-5,.cls-6,.cls-7,.cls-8{stroke-miterlimit:10;}.cls-1,.cls-2,.cls-3,.cls-4,.cls-5,.cls-6,.cls-7,.cls-8,.cls-9,.cls-10{stroke:#3a3a3a;}.cls-2{fill:#4274b9;}.cls-3{fill:#b7d542;}.cls-4{fill:#f8e610;}.cls-5,.cls-6,.cls-7,.cls-8{stroke-width:7.63px;}.cls-5,.cls-6,.cls-10{fill:none;}.cls-11{fill:#d8d8d8;}.cls-6,.cls-9,.cls-10{stroke-linecap:round;}.cls-7{fill:#ef4036;}.cls-8{fill:#9b9a9a;}.cls-9{fill:#fff;stroke-width:7px;}.cls-9,.cls-10{stroke-linejoin:round;}.cls-10{stroke-width:7.63px;}</style></defs><g id="Groupe_7652"><g id="remotes-menu-button-normal"><g id="remote_logo"><path id="Combined_Shape" class="cls-9" d="m226.43,242.36c-8.92-3.15-18.25-5-27.7-5.49-8.28.36-16.48,1.9-24.32,4.58-18.68,20.98-50.82,22.84-71.8,4.16-20.98-18.68-22.84-50.82-4.16-71.8,9.65-10.84,23.47-17.04,37.99-17.04,1.33,0,2.65.05,3.95.15h119.25c1.29-.1,2.6-.15,3.93-.15,28.09,0,50.86,22.76,50.86,50.85,0,28.09-22.76,50.86-50.85,50.86-14.08,0-27.53-5.84-37.15-16.12Z"/></g></g><circle id="Oval_Copy" class="cls-8" cx="133.89" cy="207.63" r="22.88"/><g id="Rectangle_4_Copy"><path class="cls-11" d="m133.89,156.77h0c5.62,0,10.17,4.55,10.17,10.17v40.68c0,5.62-4.55,10.17-10.17,10.17h0c-5.62,0-10.17-4.55-10.17-10.17v-40.68c0-5.62,4.55-10.17,10.17-10.17Z"/><path class="cls-5" d="m133.89,160.59h0c3.51,0,6.36,2.85,6.36,6.36v40.68c0,3.51-2.85,6.36-6.36,6.36h0c-3.51,0-6.36-2.85-6.36-6.36v-40.68c0-3.51,2.85-6.36,6.36-6.36Z"/></g><circle id="Oval_4_Copy" class="cls-7" cx="133.89" cy="164.4" r="22.88"/><path id="Path_2_Copy" class="cls-10" d="m123.89,161.29c.64-3.82,3.32-6.99,6.99-8.26"/><path id="Combined_Shape-2" class="cls-2" d="m266.44,235.6h0c4.09-.17,7.31-3.54,7.3-7.63,0-4.21-3.42-7.63-7.63-7.63,7.02,0,12.7-5.7,12.71-12.71,0-4.21,3.42-7.63,7.63-7.63s7.63,3.42,7.63,7.63c.02,7.42-2.93,14.54-8.19,19.78-5.15,5.18-12.14,8.12-19.45,8.19Z"/><path id="Combined_Shape_Copy_2" class="cls-3" d="m294.08,207.3h0c-.17-4.09-3.54-7.31-7.63-7.3-4.21,0-7.63,3.42-7.63,7.63,0-7.02-5.7-12.7-12.71-12.71-4.21,0-7.63-3.42-7.63-7.63s3.42-7.63,7.63-7.63c7.42-.02,14.54,2.93,19.78,8.19,5.18,5.15,8.12,12.14,8.19,19.45Z"/><path id="Combined_Shape_Copy" class="cls-1" d="m238.14,207.96h0c.17,4.09,3.54,7.31,7.63,7.3,4.21,0,7.63-3.42,7.63-7.63,0,7.02,5.7,12.7,12.71,12.71,4.21,0,7.63,3.42,7.63,7.63s-3.42,7.63-7.63,7.63c-7.42.02-14.54-2.93-19.78-8.19-5.18-5.15-8.12-12.14-8.19-19.45Z"/><path id="Combined_Shape_Copy_3" class="cls-4" d="m265.79,179.66h0c-4.09.17-7.31,3.54-7.3,7.63,0,4.21,3.42,7.63,7.63,7.63-7.02,0-12.7,5.7-12.71,12.71,0,4.21-3.42,7.63-7.63,7.63s-7.63-3.42-7.63-7.63c-.02-7.42,2.93-14.54,8.19-19.78,5.15-5.18,12.14-8.12,19.45-8.19Z"/><path id="Line_Copy" class="cls-6" d="m210.17,215.26l-7.63,7.63"/><path id="Line_Copy_2" class="cls-6" d="m197.46,215.26l-7.63,7.63"/></g></svg>