<?xml version="1.0" encoding="UTF-8"?><svg xmlns="http://www.w3.org/2000/svg" viewBox="0 0 400 400"><defs><style>.cls-1{fill:#ffd69f;}.cls-2{fill:none;}.cls-2,.cls-3{stroke-miterlimit:10;}.cls-2,.cls-3,.cls-4{stroke:#4b4b4b;stroke-width:7px;}.cls-2,.cls-4{stroke-linecap:round;}.cls-3{fill:#efb34c;}.cls-4{fill:#a7c950;stroke-linejoin:round;}</style></defs><g id="back"><rect class="cls-1" y="0" width="400" height="400"/></g><g id="Layer_1"><g><path id="Oval" class="cls-3" d="m202.93,318.05c43.01,0,77.87-28.39,77.87-71.4,0-28.17-15.54-44.01-33.04-66.52-10.51-13.5,0-61.16-44.82-61.16s-35.32,49.62-44.24,61.16c-17.91,23.18-33.62,37.74-33.62,66.52,0,43,34.86,71.39,77.87,71.39Z"/><path id="Path_234" class="cls-2" d="m203.84,118.03s1.04-15.03,9-22.35c7.97-7.32,18.97-8.77,18.97-8.77"/><path id="Path_120" class="cls-4" d="m202.61,115.81c-27.72-56.69-83.4-25.07-83.4-25.07,0,0,48.16,49.57,83.4,25.07Z"/></g></g></svg>