<?xml version="1.0" encoding="UTF-8"?>
<svg width="48px" height="48px" viewBox="0 0 48 48" version="1.1" xmlns="http://www.w3.org/2000/svg" xmlns:xlink="http://www.w3.org/1999/xlink">
    <title>effective_2</title>
    <g id="Page-1" stroke="none" stroke-width="1" fill="none" fill-rule="evenodd">
        <g id="effective_2" transform="translate(2.000000, 2.000000)" stroke="#F7F7F7">
            <path d="M21.9853708,-4.99742333e-16 C34.1275703,-4.99742333e-16 43.9707417,9.84317136 43.9707417,21.9853708 C43.9707417,34.1275703 34.1275703,43.9707417 21.9853708,43.9707417 C9.84317136,43.9707417 0,34.1275703 0,21.9853708 C0,9.84317136 9.84317136,-4.99742333e-16 21.9853708,-4.99742333e-16 Z" id="Tracé_3692" stroke-width="3" fill="#AFCE36" fill-rule="nonzero"></path>
            <path d="M12.9423018,22.0752839 C14.3812481,23.3555601 16.1576777,24.2223939 17.633422,25.39689 C18.1039182,25.7711714 18.7410742,26.9098824 19.4403478,26.9129252 C20.1326445,26.9159591 21.2143018,25.3578414 21.6054629,24.9554271 C24.1669156,22.3288184 26.9148338,18.701913 30.2689616,17.0213606" id="Tracé_1962" stroke-width="2.9258312" stroke-linecap="round"></path>
        </g>
    </g>
</svg>