<?xml version="1.0" encoding="UTF-8"?>
<svg width="140px" height="116px" viewBox="0 0 140 116" version="1.1" xmlns="http://www.w3.org/2000/svg" xmlns:xlink="http://www.w3.org/1999/xlink">
    <title>Tracé_4232</title>
    <g id="Page-1" stroke="none" stroke-width="1" fill="none" fill-rule="evenodd">
        <g id="curriculums" fill="#08579B" fill-rule="nonzero">
            <path d="M69.93,65.565 C71.995,65.565 74.06,65.39 76.09,64.9 C78.61,64.27 81.095,63.36 83.44,62.24 L136.57,37.845 C137.55,37.425 138.39,36.76 138.985,35.885 C139.545,35.045 139.86,34.065 139.825,33.05 C139.825,32.07 139.545,31.09 138.985,30.285 C138.39,29.41 137.55,28.71 136.57,28.29 L83.44,3.825 C81.095,2.705 78.61,1.83 76.09,1.2 C72.03,0.22 67.795,0.22 63.77,1.2 C61.25,1.83 58.8,2.705 56.49,3.825 L3.29,28.29 C2.31,28.71 1.47,29.41 0.875,30.285 C0.315,31.09 0.035,32.07 0.035,33.05 C0.035,34.065 0.315,35.045 0.875,35.885 C1.47,36.76 2.31,37.425 3.29,37.845 L56.49,62.24 C58.8,63.395 61.25,64.305 63.77,64.9 C65.8,65.355 67.865,65.6 69.93,65.565 M69.93,62.52 C68.005,62.52 66.115,62.31 64.225,61.89 C61.985,61.33 59.815,60.525 57.715,59.51 L5.005,35.22 C3.815,34.87 3.08,33.645 3.43,32.42 C3.64,31.65 4.235,31.055 5.005,30.845 L57.75,6.59 C59.85,5.61 62.02,4.805 64.26,4.245 C66.115,3.79 68.04,3.58 69.93,3.58 C71.855,3.58 73.78,3.79 75.67,4.245 C77.91,4.805 80.115,5.61 82.215,6.59 L134.89,30.845 C136.08,31.16 136.815,32.42 136.465,33.61 C136.255,34.38 135.66,34.975 134.89,35.185 L82.215,59.44 C80.115,60.455 77.945,61.26 75.67,61.82 C73.78,62.24 71.855,62.45 69.93,62.45 M23.45,72.285 C23.59,75.19 24.675,77.955 26.53,80.16 C29.015,83.345 32.095,86.005 35.595,88.035 C40.145,90.73 45.045,92.76 50.19,94.055 C56.63,95.7 63.28,96.47 69.93,96.365 C76.615,96.47 83.265,95.665 89.74,94.055 C94.885,92.76 99.785,90.73 104.335,88.035 C107.8,86.005 110.88,83.31 113.365,80.16 C115.22,77.92 116.305,75.155 116.445,72.285 L116.445,46.035 L113.435,46.035 L113.435,72.285 C113.225,74.77 112.21,77.115 110.565,78.935 C108.22,81.735 105.35,84.08 102.165,85.865 C97.895,88.28 93.275,90.1 88.515,91.255 C82.46,92.76 76.23,93.46 69.965,93.39 C63.735,93.46 57.505,92.76 51.45,91.255 C46.69,90.1 42.07,88.28 37.8,85.865 C34.58,84.115 31.745,81.735 29.4,78.935 C27.755,77.08 26.74,74.77 26.565,72.285 L26.565,46.035 L23.52,46.035 L23.52,72.285 L23.45,72.285 Z M69.93,37.775 C72.45,37.88 74.97,37.355 77.21,36.2 C79.065,35.15 80.01,34.065 80.01,32.875 C80.01,31.79 79.065,30.74 77.21,29.725 C74.935,28.605 72.45,28.08 69.93,28.185 C67.41,28.08 64.89,28.605 62.65,29.725 C60.795,30.74 59.85,31.79 59.85,32.875 C59.85,34.03 60.795,35.15 62.65,36.2 C64.925,37.32 67.41,37.88 69.93,37.775 M34.93,50.62 L69.65,34.415 L68.53,32.105 L32.025,49.08 L34.93,50.62 L34.93,50.62 Z M32.025,97.835 L34.965,97.835 L34.965,50.62 L32.025,49.115 L32.025,97.835 Z M28,96.12 L28,110.365 C27.895,111.695 28.35,112.99 29.225,113.97 C30.205,114.845 31.5,115.3 32.83,115.195 L34.195,115.195 C35.49,115.265 36.785,114.845 37.765,113.97 C38.675,112.99 39.13,111.695 39.025,110.365 L39.025,96.12 C39.27,93.705 37.52,91.535 35.105,91.29 C34.79,91.29 34.51,91.29 34.195,91.29 L32.83,91.29 C31.5,91.185 30.205,91.675 29.225,92.55 C28.35,93.53 27.93,94.825 28,96.12" id="Tracé_4232"></path>
        </g>
    </g>
</svg>