<?xml version="1.0" encoding="UTF-8"?><svg xmlns="http://www.w3.org/2000/svg" viewBox="0 0 400 400"><defs><style>.cls-1,.cls-2{fill:#c77b67;}.cls-3{fill:#c87b67;}.cls-4{fill:#83b7b3;}.cls-5{fill:#4b4b4b;}.cls-6{fill:#fcd976;}.cls-6,.cls-2{stroke-miterlimit:10;}.cls-6,.cls-2,.cls-7,.cls-8{stroke:#4b4b4b;stroke-width:7px;}.cls-7{stroke-linejoin:round;}.cls-7,.cls-8{fill:none;stroke-linecap:round;}</style></defs><g id="back"><rect class="cls-4" y="0" width="400" height="400"/></g><g id="Layer_1"><g><path class="cls-6" d="m209.09,317.59c1.53,0,3.02,0,4.51,0,.44,0,.82-.05,1.2-.09.15-.02.33-.04.52-.06l2.76-.27v-5.06c0-2.21,0-4.41,0-6.62,0-6.72,0-13.67.02-20.5,0-1.24.13-2.37.38-3.38,1.32-5.44,2.69-10.96,4.02-16.3,1.17-4.71,2.38-9.58,3.55-14.37,1.35-22.82,16.77-36.39,11.84-60.44-2.83-7.55-2.64-12.57,1.37-24.2,2.96-8.56,5.06-17.4,6.16-26.39,1.06-8.76,3.43-17.72,10.97-17.27.09,0,4.9.72,5,.72.28,0,.57,0,.85,0,2.99,0,5.97-.24,8.86-.48,1.9-.15,3.86-.31,5.76-.4,3.83-.17,5.04-3.11,5.62-4.53.06-.13.11-.27.17-.4,1.16-2.67-1.5-5.22-2.04-5.71-.3-.27-.6-.54-.91-.81-3.48-3.09-7.22-5.87-11.11-8.42-5.49-3.59-4.68-5.51-8.06-8.63-2.79-2.57-5.71-3.77-9.18-3.77-.25,0-.51,0-.77.02-2.28.11-5.08.71-6.53,4.4-.42,1.07-.72,1.38-.81,1.45-.02.02-.08.07-.4.07-.41,0-1-.1-1.74-.29-1.2-.31-2.39-.53-3.54-.75-.51-.1-1-.19-1.49-.29l-1.22-.25c-.58-.12-1.17.16-1.46.68l-.6,1.09-.35.63-.65,1.17c-.25.45-.18,1.01.17,1.39l.91.98c.36.39.71.79,1.09,1.22.88,1,1.79,2.03,2.86,2.99,1.48,1.32,1.59,1.73,1.59,1.77,0,.02,1.3.42.34,2.12-9.5,23.86-28.57,40.45-43.3,64.49-1.74,2.83-4.2,5.15-7.11,6.74-2.87,1.57-4.61,2.69-9.05,4.84-5.87,2.84-11.94,5.77-17.89,8.71-3.46,1.71-6.7,3.67-9.64,5.82-6.1,4.47-9.63,9.93-10.48,16.22-.37,2.69-.35,5.36-.33,7.94.01,1.36.02,2.65-.02,3.94-.18,5.27.35,10.71,1.65,17.12.66,3.23.87,6.97.63,11.11-.22,3.79-.59,7.67-.96,11.43-.45,4.64-.91,9.43-1.1,14.2-.29,7.55-.28,15.2-.26,22.6,0,3.01.01,6.13,0,9.18,0,.65.11,1.19.2,1.59.02.09.04.18.05.27l.42,2.56h15.96v-5.48c0-2.61,0-5.22,0-7.83,0-8.02-.02-16.31.05-24.45,0-1.12.28-2.3.72-3.17,5.9-11.57,9.58-22.73,11.27-34.13.45-3.04,2.65-5.75,5.41-4.98,11.1,3.08,15.8-.24,21.59,0,2.38.1,3.73,4.12,4.32,6.17,1.18,4.15.51,8.77.56,12.37.18,13.74.15,27.73.13,41.25,0,4.86-.02,9.89-.02,14.84v5.59h5.39s2.16,0,2.16,0Z"/><path id="Tracé_3480" class="cls-8" d="m248.64,89.74v-7.33"/><path id="Tracé_3481" class="cls-8" d="m256.96,89.74v-7.33"/><path id="Path_291" class="cls-7" d="m146.71,203.92l-5.44,3.19c-6.86,4.69-10.81,12.59-10.45,20.9v14.82c.15,5.61-2.08,11.03-6.13,14.92h0"/><path id="Path_295" class="cls-3" d="m240.71,122.93l2.11,5.44c.28.73.26,1.54-.05,2.25l-4.2,9.51c-.43.98-1.36,1.65-2.43,1.74l-7.41.66c-2.4.22-4.03-2.39-2.77-4.45l9.49-15.62c1.27-2.08,4.37-1.81,5.25.46Z"/><path id="Path_295_Copy_2" class="cls-3" d="m213.53,165.04l7.01,3.02c1.14.49,1.78,1.72,1.52,2.93l-1.31,6.29c-.19.91-.85,1.65-1.73,1.94l-3.81,1.28c-.78.26-1.63.14-2.31-.32l-5.53-3.8c-1.1-.75-1.45-2.21-.82-3.39l3.63-6.79c.64-1.2,2.09-1.7,3.34-1.17Z"/><path id="Path_295_Copy_3" class="cls-3" d="m184.37,188.74l1.94,5.63c.32.92-.06,1.93-.9,2.42l-7.5,4.35c-.94.54-2.14.26-2.73-.66l-3.57-5.53c-.66-1.02-.28-2.4.82-2.93l9.12-4.46c1.1-.54,2.42,0,2.81,1.16Z"/><path id="Path_295_Copy_5" class="cls-3" d="m222.83,197.85l4.38,11.31c.43,1.12.08,2.39-.89,3.13l-9.29,7.21c-.97.75-2.33.81-3.37.14l-11.09-7.16c-1.27-.82-1.65-2.45-.87-3.72l6.98-11.36c.52-.84,1.45-1.35,2.45-1.35h9.02c1.19,0,2.26.72,2.68,1.8Z"/><path id="Path_295_Copy_6" class="cls-3" d="m187.58,219.87l1.23,2.19c.69,1.22.49,2.75-.49,3.75l-3.91,4c-1.13,1.15-2.94,1.27-4.21.27l-3.21-2.53c-1.21-.96-1.56-2.65-.81-4.01l2.03-3.67c.56-1,1.61-1.63,2.76-1.63h3.86c1.14,0,2.19.62,2.75,1.61Z"/><path id="Path_295_Copy_7" class="cls-1" d="m163.4,232.84l1.73,7.78c.42,1.9-.63,3.82-2.46,4.49l-7.87,2.86c-2.03.74-4.26-.32-4.99-2.35l-2.79-7.82c-.74-2.07.39-4.35,2.49-5.01l8.93-2.82c2.17-.69,4.47.64,4.96,2.86Z"/><path id="Path_295_Copy_4" class="cls-3" d="m150.96,209.28l3.33-.83c.51-.13,1.04.06,1.36.48l5.1,6.72c.46.6.31,1.47-.32,1.89l-5.69,3.74c-.38.25-.87.28-1.28.09l-5.33-2.54c-.61-.29-.9-1-.67-1.63l2.59-7.09c.15-.41.49-.72.91-.82Z"/><path id="Path_295_Copy" class="cls-3" d="m227.28,169.42l-3.41-2.95c-.55-.48-.86-1.19-.82-1.92l.39-7.6c.07-1.36,1.26-2.38,2.61-2.24l6.97.71c1.57.16,2.55,1.78,1.96,3.24l-3.95,9.84c-.61,1.51-2.52,1.97-3.75.91Z"/><path id="Path_295_Copy_5-2" class="cls-3" d="m221.51,242.3l-3.4,5.57c-.54.88-1.58,1.31-2.58,1.08l-5.99-1.42c-1.01-.24-1.75-1.1-1.83-2.13l-.52-6.84c-.1-1.26.82-2.38,2.07-2.54l7.11-.9c.83-.11,1.66.23,2.17.9l2.81,3.6c.61.78.67,1.86.16,2.71Z"/><path class="cls-2" d="m117.14,269.38c-.31,4.04.5,8.08,1.3,12.05,2.42-2.73,4.88-5.51,6.5-8.79,1.47-2.97,3.65-11.87-.97-13.56-4.49-1.64-6.6,7.31-6.83,10.3Z"/><circle class="cls-5" cx="257.62" cy="104.76" r="2.47"/></g></g></svg>