<?xml version="1.0" encoding="UTF-8"?><svg xmlns="http://www.w3.org/2000/svg" viewBox="0 0 400 400"><defs><style>.cls-1{fill:#ffd69f;}.cls-2{fill:#f7e613;}.cls-2,.cls-3,.cls-4{stroke:#4b4b4b;stroke-width:7px;}.cls-2,.cls-4{stroke-linecap:round;stroke-linejoin:round;}.cls-3{fill:#4b4b4b;stroke-miterlimit:10;}.cls-4{fill:none;}</style></defs><g id="back"><rect class="cls-1" y="0" width="400" height="400"/></g><g id="Layer_1"><g id="Group"><g id="banane"><path id="Path_2" class="cls-2" d="m284.98,97.24c-2.21-.3-4.25,1.24-4.55,3.45-.01.11-.03.21-.03.32l-1.63,28.9s-7.62,3.69-10.12,8.81c-2.49,5.12-12.17,69.13-66,91.32-53.83,22.19-97.54-15.11-110.67-5.24-13.13,9.87,12.18,77.54,96.74,78,84.55.46,114.15-68.5,120.28-97.16,6.13-28.66-.29-72.03-13.27-74.05l4.32-28.14c.34-2.21-1.17-4.27-3.38-4.61-.02,0-.04,0-.06,0l-11.61-1.6Z"/><path id="Path_3" class="cls-4" d="m294.39,177.62c-6.46,37.82-27.71,67.71-54.25,85.76-26.54,18.05-76.89,25.97-119.23-2.61"/></g><path id="Path_111" class="cls-3" d="m113.48,229.46c-12.96-4.08-21.45,10.75-15.68,23.79,5.78,13.04-9.67-12.1-9.11-18.77.56-6.67,3.1-11.95,6.65-11.95s31.09,11.01,18.14,6.93Z"/></g></g></svg>