<?xml version="1.0" encoding="UTF-8"?><svg id="Layer_1" xmlns="http://www.w3.org/2000/svg" viewBox="0 0 400 400"><defs><style>.cls-1{fill:#f8e610;}.cls-2{fill:#67c8f2;}.cls-3{stroke-linejoin:round;}.cls-3,.cls-4{fill:none;stroke:#282c6c;stroke-linecap:round;stroke-width:5.15px;}.cls-4{stroke-miterlimit:10;}</style></defs><g id="Groupe_7485"><path id="Path_97_Copy_2" class="cls-2" d="m102.27,84.19s-83.45,100.66,1.48,100.66-1.48-100.66-1.48-100.66Z"/><path id="Path_97_Copy_2-2" class="cls-2" d="m209.28,219.93s-83.45,100.66,1.48,100.66-1.48-100.66-1.48-100.66Z"/><g id="Groupe_2856"><path id="Line_8" class="cls-4" d="m129.53,201.18l36.83,36.5"/><path id="Path_9" class="cls-3" d="m166.37,217.29l2.56,23.25-23.08-2.96"/></g><g id="sun"><g id="Group"><path id="Line" class="cls-1" d="m273.13,86.31v95.25c.03,3.84,3.17,6.93,7.01,6.9,3.84.03,6.98-3.06,7.01-6.9v-95.25c-.03-3.84-3.17-6.93-7.01-6.9-3.84-.03-6.98,3.06-7.01,6.9Z"/><path id="Line-2" class="cls-1" d="m327.37,127.69h-95.77c-3.84-.03-6.98,3.06-7.01,6.9.03,3.84,3.17,6.93,7.01,6.9h95.77c3.84.03,6.98-3.06,7.01-6.9-.03-3.84-3.17-6.93-7.01-6.9Z"/></g><g id="Group-2"><path id="Line-3" class="cls-1" d="m241.3,104.8l67.35,67.35c2.74,2.69,7.14,2.66,9.84-.08,2.74-2.69,2.77-7.1.08-9.84l-67.35-67.35c-2.74-2.69-7.14-2.66-9.84.08-2.74,2.69-2.77,7.1-.08,9.84Z"/><path id="Line-4" class="cls-1" d="m308.91,95.7l-67.72,67.72c-2.74,2.69-2.77,7.1-.08,9.84,2.74,2.69,7.14,2.66,9.84-.08l67.72-67.72c2.74-2.69,2.77-7.1.08-9.84-2.74-2.69-7.14-2.66-9.84.08Z"/></g><ellipse id="Oval_22_Copy_2" class="cls-1" cx="279.53" cy="135.12" rx="33.9" ry="33.33"/></g></g></svg>