<?xml version="1.0" encoding="UTF-8"?><svg xmlns="http://www.w3.org/2000/svg" viewBox="0 0 400 400"><defs><style>.cls-1,.cls-2,.cls-3,.cls-4{fill:none;}.cls-5{fill:#f8bc97;}.cls-6{fill:#fff;}.cls-7{fill:#c0cedc;}.cls-8,.cls-9{fill:#6dc7b4;}.cls-10{fill:#4d4b4d;}.cls-2,.cls-9,.cls-11,.cls-3,.cls-4{stroke:#4d4b4d;stroke-width:6.99px;}.cls-2,.cls-9,.cls-11,.cls-4{stroke-miterlimit:10;}.cls-2,.cls-9,.cls-3{stroke-linecap:round;}.cls-11{fill:#f8bc96;}.cls-3{stroke-linejoin:round;}</style></defs><g id="back"><rect class="cls-7" x="0" width="400" height="400"/></g><g id="Layer_6"><rect id="Rectangle_47" class="cls-1" x="23.05" y="14.72" width="403.51" height="379.16"/><rect id="Rectangle_47-2" class="cls-1" x="66.45" y="14.72" width="403.51" height="379.16"/><rect id="Rectangle_47-3" class="cls-1" x="58.58" y="14.72" width="403.51" height="379.16"/><rect id="Rectangle_47-4" class="cls-1" x="53.34" y="14.72" width="403.51" height="379.16"/><rect id="Rectangle_47-5" class="cls-1" x="66.45" y="14.72" width="403.51" height="379.16"/><rect id="Rectangle_47-6" class="cls-1" x="58.58" y="14.72" width="403.51" height="379.16"/><rect id="Rectangle_47-7" class="cls-1" x="53.34" y="14.72" width="403.51" height="379.16"/><rect id="Rectangle_47-8" class="cls-1" x="49.85" y="14.72" width="403.51" height="379.16"/><rect id="Rectangle_47-9" class="cls-1" x="41.98" y="14.72" width="403.51" height="379.16"/><rect id="Rectangle_47-10" class="cls-1" x="36.74" y="14.72" width="403.51" height="379.16"/><g id="Group_Copy_2"><path id="Rectangle_Copy" class="cls-9" d="m192.14,260.17c0,16.75-13.58,30.33-30.33,30.33s-30.33-13.58-30.33-30.33v-86.99l30.72-5.06c13.46-2.8,26.64,5.85,29.43,19.31.42,2,.58,4.05.5,6.1"/><path id="Rectangle_Copy-2" class="cls-9" d="m211.6,260.64c0,16.75,13.57,30.33,30.32,30.33h.01c16.75,0,30.32-13.58,30.32-30.32,0,0,0,0,0,0v-86.99l-30.72-5.06c-13.46-2.8-26.64,5.85-29.43,19.31-.42,2-.58,4.05-.5,6.1"/><circle id="Oval_51" class="cls-11" cx="119.25" cy="183.16" r="9.98"/><circle id="Oval_51_Copy" class="cls-11" cx="284" cy="183.16" r="9.98"/><circle id="Oval_10" class="cls-6" cx="201.62" cy="178.17" r="72.39"/><circle id="Oval_10-2" class="cls-5" cx="201.62" cy="178.17" r="72.39"/><path id="Path_3" class="cls-8" d="m159.34,119.68c11.72-12.51,59.16-13.74,74.46-5.01,15.3,8.72,25.37,8.33,32.6,31.06,7.23,22.72,6.87,24.84,6.87,24.84,0,0-42.77-5.73-65.95-14.14-23.18-8.41-40.91-23.02-47.99-36.74Z"/><path id="Path_11" class="cls-8" d="m129.6,175.08c9.73-1.15,25.99-14.18,28.02-20.12s7.42-25.44,4.84-29.51c-1.24-2.29-3.59-3.75-6.18-3.85-6.87,4.08-12.39,10.09-15.88,17.28-5.63,11.84-8.81,14.37-10.8,36.2Z"/><circle id="Oval_10-3" class="cls-4" cx="201.62" cy="178.17" r="72.39"/><ellipse id="Oval_7_Copy_4" class="cls-10" cx="226.63" cy="185.21" rx="7.06" ry="7.04"/><ellipse id="Oval_7_Copy_5" class="cls-10" cx="177.83" cy="185.21" rx="7.06" ry="7.04"/><path id="Path_6" class="cls-3" d="m158.81,121.28s29.14,42.16,105.73,47.78"/><path id="Path_9" class="cls-2" d="m161.09,124.37c5.74,11.87-2.55,40.82-23.33,47.77"/></g><rect id="Rectangle_47-11" class="cls-1" x="-377.67" y="14.72" width="403.51" height="379.16"/><rect id="Rectangle_47-12" class="cls-1" x="-385.54" y="14.72" width="403.51" height="379.16"/><rect id="Rectangle_47-13" class="cls-1" x="-390.78" y="14.72" width="403.51" height="379.16"/><rect id="Rectangle_47-14" class="cls-1" x="-377.67" y="14.72" width="403.51" height="379.16"/><rect id="Rectangle_47-15" class="cls-1" x="-385.54" y="14.72" width="403.51" height="379.16"/><rect id="Rectangle_47-16" class="cls-1" x="-390.78" y="14.72" width="403.51" height="379.16"/></g></svg>