<?xml version="1.0" encoding="UTF-8"?><svg id="Layer_1" xmlns="http://www.w3.org/2000/svg" viewBox="0 0 400 400"><defs><style>.cls-1,.cls-2{fill:none;}.cls-1,.cls-3{isolation:isolate;}.cls-2{stroke:#08579b;stroke-linecap:round;stroke-width:9.89px;}.cls-3{fill:#08579b;font-family:SFProRounded-Regular, 'SF Pro Rounded';font-size:65.91px;}.cls-4{fill:#f8e610;}.cls-5{fill:#67c8f2;}.cls-6{fill:#8c76b6;}.cls-7{fill:#4274b9;}</style></defs><g id="Groupe_7494"><g id="Group_55-6"><g id="sun-6"><g id="Group-15"><path id="Line-29" class="cls-4" d="m253.93,142.29v95.25c.03,3.84,3.17,6.93,7.01,6.9,3.84.03,6.98-3.06,7.01-6.9v-95.25c-.03-3.84-3.17-6.93-7.01-6.9-3.84-.03-6.98,3.06-7.01,6.9Z"/><path id="Line-30" class="cls-4" d="m308.17,183.67h-95.77c-3.84-.03-6.98,3.06-7.01,6.9.03,3.84,3.17,6.93,7.01,6.9h95.76c3.84.03,6.98-3.06,7.01-6.9-.03-3.84-3.17-6.93-7.01-6.9Z"/></g><g id="Group-16"><path id="Line-31" class="cls-4" d="m222.1,160.78l67.35,67.35c2.74,2.69,7.14,2.66,9.84-.08,2.74-2.69,2.78-7.1.08-9.84l-67.35-67.35c-2.74-2.69-7.14-2.66-9.84.08-2.74,2.69-2.78,7.1-.08,9.84Z"/><path id="Line-32" class="cls-4" d="m289.71,151.69l-67.72,67.72c-2.74,2.69-2.78,7.1-.08,9.84,2.74,2.69,7.14,2.66,9.84-.08l67.72-67.72c2.74-2.69,2.78-7.1.08-9.84-2.74-2.69-7.14-2.66-9.84.08Z"/></g><ellipse id="Oval_22_Copy_2-8" class="cls-4" cx="260.33" cy="191.11" rx="33.9" ry="33.33"/></g></g><path id="Path_97_Copy_2-5" class="cls-5" d="m103.51,140.34s-83.45,100.65,1.48,100.65-1.48-100.65-1.48-100.65Z"/><path id="Tracé_2280-7" class="cls-7" d="m271.47,343.17h1.25c10.24,0,20.48.05,30.73-.04,2.43-.02,3.42,1.53,2.74,3.68-1.68,5.28-3.19,10.61-4.78,15.92-1.41,5.14-6.13,8.66-11.45,8.56-16.03,0-32.05,0-48.08,0-5.33.11-10.05-3.41-11.46-8.55-1.61-5.33-3.15-10.69-4.81-16.01-.68-2.16.43-3.61,2.64-3.6,12.47.07,24.94.04,37.41.04h1.26v-1.32c0-18.16,0-36.32,0-54.47,0-.32-.02-.65,0-.97.02-.97.66-1.82,1.58-2.11.92-.31,1.94.02,2.49.82,2.08,2.64,4.16,5.27,6.24,7.91,7.29,9.26,14.58,18.53,21.87,27.79,1.56,1.99,1.01,3.64-1.42,4.2-8.28,1.93-16.57,3.85-24.85,5.76-1.36.31-1.36.3-1.36,1.74v10.65h0Z"/><path id="Tracé_2281-7" class="cls-7" d="m245.12,334.66h-10.56c-1.91,0-2.78-.89-2.73-2.8.21-6.69,2.4-12.76,5.95-18.36,5.04-7.96,11.76-14.26,19.53-19.5.96-.8,2.39-.67,3.19.3.6.72.69,1.74.23,2.56-3.44,8.12-4.77,16.98-3.88,25.75.34,2.98.84,5.93,1.49,8.85.38,1.93-.5,3.19-2.47,3.2-3.59,0-7.17,0-10.76,0Z"/><path id="Tracé_2277-6" class="cls-6" d="m81.17,364.57c.3-1.79.62-3.74.95-5.69,1.02-5.96,2.04-11.91,3.06-17.87.14-1-.25-2-1.03-2.65-5.35-5.26-10.7-10.52-16.04-15.79-2.53-2.37-2.67-6.34-.3-8.87.75-.81,1.71-1.4,2.76-1.72,1.1-.27,2.22-.4,3.35-.4,6.59-.3,13.18-.59,19.77-.83,1.42.03,2.7-.87,3.16-2.22,3.3-7.53,6.65-15.03,9.95-22.56,1.15-2.62,3.14-4.1,5.98-4.11s4.83,1.48,5.98,4.1c3.31,7.52,6.66,15.03,9.95,22.56.48,1.37,1.79,2.27,3.24,2.23,7.16.27,14.31.58,21.46.94,2.55.03,4.81,1.67,5.61,4.09,1.01,2.38.4,5.13-1.53,6.85-4.31,4.26-8.66,8.48-12.99,12.71-1.07,1.05-2.15,2.1-3.22,3.15-.74.68-1.07,1.71-.87,2.69,1.29,7.49,2.56,14.98,3.82,22.47.51,2.47-.57,4.99-2.71,6.32-2.05,1.51-4.84,1.57-6.95.13-3.32-2.05-6.58-4.2-9.87-6.3-3.31-2.12-6.63-4.22-9.92-6.38-1.18-.91-2.82-.91-4-.02-6.53,4.22-13.08,8.42-19.64,12.6-2.89,1.99-6.84,1.26-8.83-1.63-.56-.81-.92-1.74-1.06-2.71-.05-.31-.06-.62-.1-1.1Z"/><g id="_2" class="cls-1"><text class="cls-3" transform="translate(301.63 84.87)"><tspan x="0" y="0">?</tspan></text></g><path id="Tracé_2288" class="cls-2" d="m76.22,68.86h202.33"/></g></svg>