<?xml version="1.0" encoding="UTF-8"?><svg xmlns="http://www.w3.org/2000/svg" viewBox="0 0 400 400"><defs><style>.cls-1,.cls-2,.cls-3{fill:none;}.cls-4,.cls-5{fill:#bc6e37;}.cls-6{fill:#959cce;}.cls-7,.cls-8,.cls-9{fill:#2c1a12;}.cls-8,.cls-2,.cls-5,.cls-3,.cls-10,.cls-9{stroke-miterlimit:10;}.cls-8,.cls-2,.cls-3{stroke:#4c4b4c;}.cls-8,.cls-3{stroke-width:7.82px;}.cls-2{stroke-width:7.71px;}.cls-5{stroke:#4d4b4d;stroke-width:7.07px;}.cls-3{stroke-linecap:round;}.cls-10{fill:#681b25;stroke:#681b25;}.cls-10,.cls-9{stroke-width:3.03px;}.cls-9{stroke:#2c1a12;}</style></defs><g id="back"><rect class="cls-6" x="0" width="400" height="400"/></g><g id="Layer_6"><rect id="Rectangle_47" class="cls-1" x="-1.76" y="10.42" width="403.51" height="386.68"/><g><path class="cls-8" d="m95.67,199.43c.24-.33.37-.72.37-1.13.04-4.48,1.32-32.31,25.96-54.85,26.89-24.58,19.47-32.46,54.7-35.3,35.23-2.84,37.08-6.3,60.26,1.26,12.86,4.2,21.63,4.51,26.89,3.96,3.03-.32,5.5,2.44,4.96,5.5l-.16.89c-.48,2.74.82,5.47,3.23,6.78,4.15,2.27,10.45,5.33,13.6,4.93,2.34-.3,5.23.44,7.62,1.3,2.43.88,4.25,3,4.68,5.59,2.1,12.68,19.89,48.7,5.01,59.6-14.82,10.85-20.77,18.85-22.38,21.29-.33.49-.86.8-1.44.83l-155.4,9.05c-.41.02-.82-.09-1.16-.33l-30.32-21.2c-.88-.61-1.08-1.85-.44-2.71l4.02-5.46Z"/><g><path id="Tracé_124" class="cls-4" d="m200.35,139.01c50.27,0,91.03,34.95,91.03,78.07s-40.75,78.07-91.03,78.07-91.03-34.95-91.03-78.07h0c0-43.12,40.75-78.07,91.03-78.07"/><ellipse id="Ellipse_85" class="cls-2" cx="200.35" cy="217.08" rx="91.03" ry="78.08"/><path class="cls-7" d="m169.94,207.3c-.04-1.93.14-3.84.91-5.64.39-.92.94-1.72,1.73-2.31.73-.55,1.45-.64,2.36-.2,1.45.69,2.28,1.81,2.76,3.28,1.02,3.1.87,6.17-.22,9.21-.28.79-.74,1.46-1.34,2.04-1.49,1.46-3.44,1.32-4.7-.37-.88-1.18-1.35-2.55-1.49-4.02-.06-.66-.01-1.33-.01-2Z"/><path class="cls-7" d="m225.29,207.3c-.04-1.93.14-3.84.91-5.64.39-.92.94-1.72,1.73-2.31.73-.55,1.45-.64,2.36-.2,1.45.69,2.28,1.81,2.76,3.28,1.02,3.1.87,6.17-.22,9.21-.28.79-.74,1.46-1.34,2.04-1.49,1.46-3.44,1.32-4.7-.37-.88-1.18-1.35-2.55-1.49-4.02-.06-.66-.01-1.33-.01-2Z"/><path class="cls-10" d="m200.45,262.44c-3.41.22-6.66-.37-9.83-1.38-2.89-.92-5.63-2.24-8.03-4.18-.23-.19-.44-.41-.64-.63-.61-.66-.62-1.19-.07-1.76.5-.52.84-.51,1.53.08,1.01.87,2.07,1.67,3.2,2.39,2.42,1.53,5.06,2.42,7.82,3,1.37.29,2.75.47,4.15.5.8.02,1.6.23,2.41.2,5.37-.21,10.5-1.34,15.23-4.02.52-.29,1.02-.6,1.54-.89.16-.09.33-.19.5-.23.31-.07.68-.19.89.18.16.3.03.59-.2.82-.34.34-.65.71-1.06.99-3.18,2.14-6.65,3.53-10.38,4.3-2.35.49-4.71.84-7.07.65Z"/><path class="cls-9" d="m200.4,229.73c-1.39-.09-2.72.15-4.01.56-1.18.38-2.29.91-3.27,1.7-.09.08-.18.17-.26.26-.25.27-.25.48-.03.72.2.21.34.21.62-.03.41-.35.84-.68,1.3-.97.99-.62,2.06-.99,3.19-1.22.56-.12,1.12-.19,1.69-.2.33,0,.65-.09.98-.08,2.19.09,4.28.55,6.21,1.64.21.12.42.24.63.36.07.04.13.08.21.09.13.03.28.08.36-.07.07-.12.01-.24-.08-.33-.14-.14-.27-.29-.43-.4-1.3-.87-2.71-1.44-4.23-1.75-.96-.2-1.92-.34-2.88-.26Z"/><ellipse class="cls-5" cx="302.05" cy="211.66" rx="11.43" ry="11.66"/></g><ellipse class="cls-5" cx="97.95" cy="212.52" rx="11.43" ry="11.66"/><path class="cls-7" d="m108.94,199.48c28.22-2.65,87.63-63.19,87.63-63.19l-9.75-6.76-54.57,9.3-17.78,19.16-11.58,23.4,6.05,18.09Z"/><path class="cls-3" d="m176.56,153.46s-34.73,44.8-67.47,48.38"/><polygon class="cls-7" points="203.84 122.51 297.22 170.89 288.33 193.97 253.94 176.27 243.56 164.57 228.15 167.73 192.28 159.19 176.56 151.6 203.84 122.51"/><path class="cls-3" d="m245.93,166.16s9.47,23.69,42.21,27.27"/><path class="cls-3" d="m168.36,149.09s45.68,25.44,77.58,17.06"/></g></g></svg>