<svg xmlns="http://www.w3.org/2000/svg" width="287.437" height="164.657" viewBox="0 0 287.437 164.657">
  <g id="Group_35" data-name="Group 35" transform="translate(1.437 0.582)">
    <g id="Combined_Shape_Copy_13" data-name="Combined Shape Copy 13" transform="translate(286 12)" fill="#d8d8d8" stroke-linecap="round" stroke-linejoin="round" stroke-miterlimit="10">
      <path d="M -6.499797344207764 128.4996032714844 C -9.256196975708008 128.4996032714844 -11.49870586395264 126.2571105957031 -11.49870586395264 123.5007095336914 L -11.49870586395264 77.99940490722656 L -11.49870586395264 76.49940490722656 L -12.99870586395264 76.49940490722656 L -70.99379730224609 76.49940490722656 L -72.49379730224609 76.49940490722656 L -72.49379730224609 77.99940490722656 L -72.49379730224609 123.5007095336914 C -72.49379730224609 126.2571105957031 -74.73670959472656 128.4996032714844 -77.49359893798828 128.4996032714844 C -80.25 128.4996032714844 -82.49250793457031 126.2571105957031 -82.49250793457031 123.5007095336914 L -82.49250793457031 72.49951171875 C -82.49250793457031 72.38954925537109 -82.48886871337891 72.27803802490234 -82.48170471191406 72.1680908203125 L -82.47430419921875 72.05427551269531 L -82.48417663574219 71.94063568115234 C -82.49687194824219 71.79474639892578 -82.50330352783203 71.6463623046875 -82.50330352783203 71.49960327148438 C -82.50330352783203 68.74320220947266 -80.26079559326172 66.50070953369141 -77.50439453125 66.50070953369141 L -12.99870586395264 66.50070953369141 L -11.49870586395264 66.50070953369141 L -11.49870586395264 65.00070953369141 L -11.49870586395264 6.499801635742188 C -11.49870586395264 3.742910623550415 -9.256196975708008 1.500001668930054 -6.499797344207764 1.500001668930054 C -3.742906332015991 1.500001668930054 -1.49999725818634 3.742910623550415 -1.49999725818634 6.499801635742188 L -1.49999725818634 123.5007095336914 C -1.49999725818634 126.2571105957031 -3.742906332015991 128.4996032714844 -6.499797344207764 128.4996032714844 Z" stroke="none"/>
      <path d="M -6.499794483184814 126.9996109008789 C -4.570008754730225 126.9996109008789 -3.000008821487427 125.4300155639648 -3.000008821487427 123.5007095336914 L -3.000008821487427 6.499801635742188 C -3.000008821487427 4.569992065429688 -4.570008754730225 2.99999213218689 -6.499794483184814 2.99999213218689 C -8.429103851318359 2.99999213218689 -9.998699188232422 4.569992065429688 -9.998699188232422 6.499801635742188 L -9.998699188232422 65.00070953369141 C -9.998699188232422 66.65756225585938 -11.34184265136719 68.00070953369141 -12.99869918823242 68.00070953369141 L -77.50438690185547 68.00070953369141 C -79.43370056152344 68.00070953369141 -81.0032958984375 69.57030487060547 -81.0032958984375 71.49961090087891 C -81.0032958984375 71.60327911376953 -80.99877166748047 71.70784759521484 -80.98984527587891 71.81039428710938 C -80.97665405273438 71.96196746826172 -80.97498321533203 72.11432647705078 -80.98491668701172 72.26613616943359 C -80.98995971679688 72.34332275390625 -80.99250793457031 72.42185211181641 -80.99250793457031 72.49951934814453 L -80.99250793457031 123.5007095336914 C -80.99250793457031 125.4300155639648 -79.42291259765625 126.9996109008789 -77.49360656738281 126.9996109008789 C -75.56379699707031 126.9996109008789 -73.99379730224609 125.4300155639648 -73.99379730224609 123.5007095336914 L -73.99379730224609 77.99939727783203 C -73.99379730224609 76.34253692626953 -72.65065002441406 74.99939727783203 -70.99379730224609 74.99939727783203 L -12.99869918823242 74.99939727783203 C -11.34184265136719 74.99939727783203 -9.998699188232422 76.34253692626953 -9.998699188232422 77.99939727783203 L -9.998699188232422 123.5007095336914 C -9.998699188232422 125.4300155639648 -8.429103851318359 126.9996109008789 -6.499794483184814 126.9996109008789 M -6.499794483184814 129.9996185302734 C -10.08900928497314 129.9996185302734 -12.99869918823242 127.0898971557617 -12.99869918823242 123.5007095336914 L -12.99869918823242 77.99939727783203 L -70.99379730224609 77.99939727783203 L -70.99379730224609 123.5007095336914 C -70.99379730224609 127.0898971557617 -73.90351104736328 129.9996185302734 -77.49360656738281 129.9996185302734 C -81.08279418945312 129.9996185302734 -83.99250793457031 127.0898971557617 -83.99250793457031 123.5007095336914 L -83.99250793457031 72.49951934814453 C -83.99250793457031 72.3553466796875 -83.98779296875 72.21241760253906 -83.97853088378906 72.07061004638672 C -83.99491119384766 71.88246917724609 -84.0032958984375 71.69199371337891 -84.0032958984375 71.49961090087891 C -84.0032958984375 67.910400390625 -81.09360504150391 65.00070953369141 -77.50438690185547 65.00070953369141 L -12.99869918823242 65.00070953369141 L -12.99869918823242 6.499801635742188 C -12.99869918823242 2.909706354141235 -10.08900928497314 -7.888067557360046e-06 -6.499794483184814 -7.888067557360046e-06 C -2.909699440002441 -7.888067557360046e-06 -8.906773473427165e-06 2.909706354141235 -8.906773473427165e-06 6.499801635742188 L -8.906773473427165e-06 123.5007095336914 C -8.906773473427165e-06 127.0898971557617 -2.909699440002441 129.9996185302734 -6.499794483184814 129.9996185302734 Z" stroke="none" fill="#000"/>
    </g>
    <g id="Group_17_Copy_6" data-name="Group 17 Copy 6" transform="matrix(1, 0.017, -0.017, 1, 221.414, 93.585)">
      <ellipse id="Oval_10" data-name="Oval 10" cx="23.532" cy="23.5" rx="23.532" ry="23.5" transform="translate(0.891 0)" fill="#9013fe" stroke="#000" stroke-miterlimit="10" stroke-width="3"/>
      <circle id="Oval_4" data-name="Oval 4" cx="18" cy="18" r="18" transform="translate(4 6)" fill="#fff"/>
      <ellipse id="Oval_7_Copy_4" data-name="Oval 7 Copy 4" cx="2.296" cy="2.285" rx="2.296" ry="2.285" transform="translate(8 23)" stroke="#000" stroke-linecap="round" stroke-linejoin="round" stroke-miterlimit="10" stroke-width="2.8"/>
      <ellipse id="Oval_7_Copy_5" data-name="Oval 7 Copy 5" cx="2.296" cy="2.285" rx="2.296" ry="2.285" transform="translate(20 24)" stroke="#000" stroke-linecap="round" stroke-linejoin="round" stroke-miterlimit="10" stroke-width="2.8"/>
    </g>
    <g id="Group_19_Copy_5" data-name="Group 19 Copy 5" transform="matrix(0.996, 0.087, -0.087, 0.996, 125.999, 5.227)">
      <circle id="Oval_3_Copy" data-name="Oval 3 Copy" cx="24" cy="24" r="24" transform="translate(-48)" fill="#c09390" stroke="#000" stroke-miterlimit="10" stroke-width="3"/>
      <path id="Path_51_Copy" data-name="Path 51 Copy" d="M0,8.809c-7.063-6.874-15.438-11-27.665-7.589s-16.75,18.5-15.724,26.2S-37.4,38.067-37.4,38.067s5.886-3.515,8.156-8.191,9.014-13.738,12.8-16.62S-4.675,8.042,0,8.809Z" transform="translate(-5)" fill="#462c2a"/>
      <circle id="Oval_3_Copy_2" data-name="Oval 3 Copy 2" cx="24" cy="24" r="24" transform="translate(-48)" fill="none" stroke="#000" stroke-miterlimit="10" stroke-width="3"/>
      <ellipse id="Oval_7_Copy_8" data-name="Oval 7 Copy 8" cx="2.328" cy="2.32" rx="2.328" ry="2.32" transform="translate(-10.657 22)" stroke="#000" stroke-linecap="round" stroke-linejoin="round" stroke-miterlimit="10" stroke-width="2.8"/>
      <path id="Path_50_Copy" data-name="Path 50 Copy" d="M0,.2C-8.93-.881-14.766,2.55-21.106,8.491s-8.375,20.062-17.238,20.373" transform="translate(-5 9)" fill="none" stroke="#000" stroke-miterlimit="10" stroke-width="3"/>
      <circle id="Oval_Copy_2" data-name="Oval Copy 2" cx="4.5" cy="4.5" r="4.5" transform="translate(-34 20)" fill="#c09390" stroke="#000" stroke-miterlimit="10" stroke-width="3"/>
    </g>
    <path id="Combined_Shape_Copy_14" data-name="Combined Shape Copy 14" d="M14.17,24.291H0V7.085H4.048V3.037a3.037,3.037,0,1,1,6.073,0V5.672H20.243a3.037,3.037,0,1,1,0,6.073H14.17v.4h6.073a3.037,3.037,0,1,1,0,6.073h0a3.036,3.036,0,1,1,0,6.072Z" transform="translate(128.7 109.939) rotate(49)" fill="#c09390" stroke="#000" stroke-linecap="round" stroke-linejoin="round" stroke-miterlimit="10" stroke-width="3"/>
    <path id="Oval_90_Copy_5" data-name="Oval 90 Copy 5" d="M-9,46s-9-27.792-9-34.27S-13.971,0-9,0,0,5.252,0,11.73-9,46-9,46Z" transform="translate(75 14)" fill="#462c2a" stroke="#000" stroke-linecap="round" stroke-linejoin="round" stroke-miterlimit="10" stroke-width="3"/>
    <path id="Line_3" data-name="Line 3" d="M14.5.5l-14,15" transform="translate(51 108)" fill="none" stroke="#000" stroke-linecap="square" stroke-miterlimit="10" stroke-width="3"/>
    <path id="Path_16" data-name="Path 16" d="M0,38.495,46.981,4.638A24.578,24.578,0,0,1,69.515,1.4h0a19.08,19.08,0,0,1,12.72,17.1L83.553,46.4,97,61.23,85.431,71,72.15,56.208a13,13,0,0,1-3.308-8L67.833,29.185,40.479,56.854Z" transform="translate(26 54)" fill="#f8e71c" stroke="#000" stroke-linecap="round" stroke-linejoin="round" stroke-miterlimit="10" stroke-width="3"/>
    <path id="Rectangle_8" data-name="Rectangle 8" d="M53.839,24.467,14.526,28.554A13.165,13.165,0,0,1,.095,13.884h0A15.769,15.769,0,0,1,18.339.215L66.943,8.3c5.572.8,9.744,10.563,8.962,16.175-.806,5.782-6.44,7.861-11.6,9.855L22.836,50.363a9.014,9.014,0,0,1-11.673-5.2h0a9.1,9.1,0,0,1,5.221-11.728l17.826-6.891" transform="translate(23.657 87.091) rotate(21)" fill="#c09390"/>
    <path id="Path_17" data-name="Path 17" d="M50,17.179,33.595,33S7.155,26.081,6.387,25.585A14.61,14.61,0,0,1,.392,10.074C2.544.105,19.054-.321,20.156.105S50,17.179,50,17.179Z" transform="translate(17 91)" fill="#4a4a4a"/>
    <path id="Rectangle_8-2" data-name="Rectangle 8" d="M54.065,24.472,14.523,28.566A13.167,13.167,0,0,1,.1,13.887h0A15.781,15.781,0,0,1,18.351.215L63.95,7.8c5.6.8,11.459,5.089,12.684,10.115s-.483,11.969-7.292,14.59L22.907,50.382a9.045,9.045,0,0,1-11.7-5.208h0a9.08,9.08,0,0,1,5.218-11.72l17.926-6.9" transform="translate(23.693 86.903) rotate(21)" fill="none" stroke="#000" stroke-linecap="round" stroke-linejoin="round" stroke-miterlimit="10" stroke-width="3"/>
    <path id="Path_46_Copy_30" data-name="Path 46 Copy 30" d="M-25.172.165a8.943,8.943,0,0,0-8.765,9h0A8.893,8.893,0,0,0-25.044,18H-9.2A9.1,9.1,0,0,0,0,9,9.1,9.1,0,0,0-9.2,0h-7.637Z" transform="translate(34 123)" fill="#4a4a4a" stroke="#000" stroke-linecap="round" stroke-linejoin="round" stroke-miterlimit="10" stroke-width="3"/>
  </g>
</svg>
