<?xml version="1.0" encoding="UTF-8"?><svg xmlns="http://www.w3.org/2000/svg" viewBox="0 0 400 400"><defs><style>.cls-1{fill:#c0cedc;}.cls-2,.cls-3,.cls-4,.cls-5,.cls-6,.cls-7,.cls-8,.cls-9,.cls-10,.cls-11{stroke:#4d4b4d;}.cls-2,.cls-3,.cls-4,.cls-5,.cls-6,.cls-8,.cls-11{stroke-miterlimit:10;}.cls-2,.cls-3,.cls-10,.cls-11{fill:none;}.cls-2,.cls-7,.cls-8,.cls-9,.cls-10,.cls-11{stroke-width:6.99px;}.cls-2,.cls-7,.cls-9,.cls-10{stroke-linecap:round;}.cls-3{stroke-linecap:square;stroke-width:6.49px;}.cls-4{fill:#fff;}.cls-5{fill:#ee3c25;}.cls-6,.cls-8{fill:#f8bc96;}.cls-7{fill:#d8d8d8;}.cls-7,.cls-9,.cls-10{stroke-linejoin:round;}</style></defs><g id="back"><rect class="cls-1" x="0" width="400" height="400"/></g><g id="Layer_6"><g id="Group_2"><g id="Group"><circle id="Oval_51" class="cls-8" cx="117.63" cy="204.99" r="9.98"/><circle id="Oval_51_Copy" class="cls-8" cx="282.37" cy="204.99" r="9.98"/><circle id="Oval_10" class="cls-4" cx="200" cy="200" r="72.39"/><circle id="Oval_10-2" class="cls-6" cx="200" cy="200" r="72.39"/><path id="Path_3" class="cls-5" d="m157.72,141.5c11.72-12.51,59.16-13.74,74.46-5.01,15.3,8.72,25.37,8.33,32.6,31.06,7.23,22.72,6.87,24.84,6.87,24.84,0,0-42.77-5.73-65.95-14.14-23.18-8.41-40.91-23.02-47.99-36.74Z"/><path id="Path_11" class="cls-5" d="m127.98,196.91c9.73-1.15,25.99-14.18,28.02-20.12,2.03-5.95,7.42-25.44,4.84-29.51-1.24-2.29-3.59-3.75-6.18-3.85-6.87,4.08-12.39,10.09-15.88,17.28-5.63,11.84-8.81,14.37-10.8,36.2Z"/><circle id="Oval_10-3" class="cls-11" cx="200" cy="200" r="72.39"/><ellipse id="Oval_7_Copy_4" class="cls-9" cx="225.01" cy="207.04" rx="7.06" ry="7.04"/><ellipse id="Oval_7_Copy_5" class="cls-9" cx="176.2" cy="207.04" rx="7.06" ry="7.04"/><path id="Path_6" class="cls-10" d="m157.18,143.11s29.14,42.16,105.73,47.78"/><path id="Path_9" class="cls-2" d="m159.46,146.19c5.74,11.87-2.55,40.82-23.33,47.77"/></g><g id="Group_2_Copy_3"><circle id="Oval_7_Copy_4-2" class="cls-7" cx="234.95" cy="207.49" r="22.47"/><circle id="Oval_7_Copy_5-2" class="cls-7" cx="167.55" cy="207.49" r="22.47"/><path id="Line" class="cls-3" d="m190.02,204.99c3.13-1.49,6.52-2.34,9.98-2.5,3.46.15,6.86,1,9.98,2.5"/></g></g></g></svg>