<?xml version="1.0" encoding="UTF-8"?><svg xmlns="http://www.w3.org/2000/svg" viewBox="0 0 400 400"><defs><style>.cls-1,.cls-2{fill:none;}.cls-3{fill:#f8d02b;}.cls-4{fill:#83b7b3;}.cls-5{fill:#4b4b4b;}.cls-6{fill:#f8951d;stroke-miterlimit:10;}.cls-6,.cls-2{stroke:#4b4b4b;stroke-width:7px;}.cls-2{stroke-linecap:round;stroke-linejoin:round;}</style></defs><g id="back"><rect class="cls-4" x="0" width="400" height="400"/></g><g id="Layer_1"><rect id="Rectangle_47" class="cls-1" x="-10.96" y="2.52" width="403.51" height="379.16"/><g><path id="Path_2" class="cls-3" d="m127.86,232.71c26.86,21.49,77.15,46.46,123.44,13.06,46.29-33.4,29.14-94.25,29.14-94.25l33.64-18.83-34.61-6.85s-3.59-29.18-38.42-29.18-50.52,20.86-92.3,78.07c-20.52,28.09-53.23,7.8-65.09,7.8,0,10.38,27.36,86.84,121.02,26.92"/><path id="Line" class="cls-2" d="m230.34,259.39v28.5l11.88,8.33"/><path id="Line_Copy" class="cls-2" d="m199.46,265.33v28.03l14.25,9.98"/><path id="Path_2-2" class="cls-2" d="m126.07,230.32c27.45,26.26,79.54,48.85,125.83,15.45,46.29-33.4,29.14-94.25,29.14-94.25l33.64-18.83-34.61-6.85s-8.96-29.2-38.42-29.18c-26.05.02-35,2.36-92.3,78.07-19.33,25.54-48.19,10.66-61.9,8.15-1.66-.3-3.09,1.19-2.66,2.82,4.71,17.8,40.5,82.54,108.73,15.97"/><circle id="Ellipse_480" class="cls-5" cx="240.93" cy="122.98" r="5.77"/><path id="Path_3" class="cls-6" d="m279.71,128.47l1.2,20.74c.08,1.32,1.47,2.15,2.66,1.57l31.74-15.23c1.64-.79,1.29-3.22-.5-3.52l-32.93-5.5c-1.18-.2-2.23.75-2.16,1.95Z"/></g></g></svg>