<?xml version="1.0" encoding="UTF-8"?><svg xmlns="http://www.w3.org/2000/svg" xmlns:xlink="http://www.w3.org/1999/xlink" viewBox="0 0 400 400"><defs><style>.cls-1,.cls-2,.cls-3,.cls-4,.cls-5,.cls-6,.cls-7{fill:none;}.cls-8{clip-path:url(#clippath);}.cls-9{fill:#f6917e;}.cls-10,.cls-11{fill:#fff;}.cls-12{fill:#4c4b4c;}.cls-11,.cls-2,.cls-3,.cls-6,.cls-7{stroke-width:7px;}.cls-11,.cls-3,.cls-4,.cls-7{stroke:#4c4b4c;}.cls-11,.cls-5{stroke-linejoin:round;}.cls-11,.cls-5,.cls-6,.cls-7{stroke-linecap:round;}.cls-2{stroke:#030202;}.cls-2,.cls-3{stroke-miterlimit:10;}.cls-4{stroke-width:7.37px;}.cls-5{stroke:#f8acae;stroke-width:7.33px;}.cls-6{stroke:#db2727;}</style><clipPath id="clippath"><rect class="cls-1" x="67.2" y="271.34" width="108.04" height="100.22" transform="translate(-98.05 56.98) rotate(-19)"/></clipPath></defs><g id="back"><rect class="cls-9" x="0" y="0" width="400" height="400"/></g><g id="Layer_1"><path id="Tracé_124" class="cls-10" d="m200,123.44c42.28,0,76.56,34.28,76.56,76.56s-34.28,76.56-76.56,76.56-76.56-34.28-76.56-76.56h0c0-42.28,34.28-76.56,76.56-76.56"/><circle id="Ellipse_85" class="cls-2" cx="200" cy="200" r="76.56"/><rect id="Rectangle_47" class="cls-1" x="-1.76" y="10.42" width="403.51" height="379.16"/><g><circle id="Oval_2_Copy_3" class="cls-12" cx="167.19" cy="182.27" r="12.23"/><circle id="Oval_2_Copy_3-2" class="cls-12" cx="235.34" cy="182.27" r="12.23"/><path id="Oval_2_Copy_3-3" class="cls-5" d="m191.77,219.56c0,5.55,4.5,10.05,10.05,10.05h0c5.55,0,10.05-4.5,10.05-10.05h0"/></g><circle id="Ellipse_85-2" class="cls-3" cx="200" cy="200" r="76.56"/><path id="Tracé_121" class="cls-11" d="m261.46,153.6h-121.17s-17.32-39.27,9.72-52.35,70.55-13.09,98.4,0c27.85,13.09,13.05,52.35,13.05,52.35Z"/><g id="Groupe_103"><path id="Tracé_122" class="cls-6" d="m200.11,107.83v23.59"/><path id="Tracé_123" class="cls-6" d="m211.9,119.61h-23.59"/></g><path id="Tracé_75" class="cls-7" d="m276.98,218.93s32.19,15.66,4.02,78.54"/><g id="Ellipse_28"><circle class="cls-10" cx="276.98" cy="303" r="12.9"/><circle class="cls-4" cx="276.98" cy="303" r="9.21"/></g><path id="Tracé_76" class="cls-7" d="m124.32,218.93s-32.19,11.97-4.02,60.03"/><g id="Groupe_62"><g class="cls-8"><g id="Groupe_61"><path id="Tracé_77" class="cls-12" d="m105.78,312.35c.3-2.32.61-4.64.89-6.95.04-.34-.01-.94-.2-1.02-.82-.37-.59-.97-.44-1.53.88-3.11,1.69-6.27,2.77-9.31,1.18-3.76,3.26-7.17,6.04-9.96,1.28-1.07,1.84-2.78,1.46-4.4-.2-.57,6.65-3.12,7.01-2.09.11.32.77,2.37,1.26,2.39,4.07.39,8,1.72,11.47,3.88,3.05,1.73,5.93,3.74,8.61,6,.54.43,1.09.79.78,1.72-.1.28.38.85.71,1.17,1.18,1.15,2.43,2.21,3.6,3.37,6.89,6.66,13.01,14.07,18.23,22.1,1.12,1.77,2.05,3.68,3.05,5.52.07.12.15.23.24.33l1.22,3.55c.29,1.23.36,2.51.21,3.77-.52,3.05-2.26,5.76-4.82,7.51-1.8,1.42-3.8,2.57-5.93,3.43-.48.21-.89.58-1.15,1.03-.66,1.32-1.61,2.48-2.78,3.38l-1.58.54c-.53,0-1.05.04-1.58,0-2.59,0-4.81-1.84-5.31-4.38-.78-3.07,1.07-6.19,4.14-6.97,1.11-.28,2.28-.23,3.36.16.02,0,.04.01.06.03,1.57.99,3.59.83,4.99-.38,1.25-.86,2.45-1.79,3.59-2.8,1.24-1.08,1.61-2.85.91-4.34-.71-1.86-1.55-3.66-2.51-5.4-4.84-8-10.69-15.34-17.41-21.85-1.37-1.37-2.8-2.7-4.23-4-.5-.45-1.02-.92-1.85-.5-.24.12-.78-.2-1.1-.43-1.83-1.32-3.59-2.7-5.46-3.97-2.27-1.59-4.77-2.8-7.42-3.59-2.63-1.13-5.69-.05-7.02,2.48-1.72,2.54-3.01,5.34-3.84,8.29-.56,1.78-1.02,3.61-1.5,5.42-.05.59-.48,1.08-1.05,1.22-.26.06-.53.57-.6.9-.27,1.41-.48,2.83-.69,4.25-1.23,7.93-1.63,15.98-1.17,24,.16,3.42.6,6.82,1.29,10.18.3,2.69,2.62,4.69,5.32,4.58,2.01.03,4.02-.26,5.94-.85.23-.1.41-.27.52-.49.35-.58.61-1.2.98-1.76,1.77-2.67,5.37-3.4,8.04-1.64,2.67,1.77,3.4,5.37,1.64,8.04-.48.72-1.12,1.33-1.86,1.78-.11.08-.21.16-.3.26l-1.58.54c-.06-.02-.13-.07-.19-.06-1.48.17-2.98-.13-4.28-.86-.42-.18-.88-.22-1.33-.14-.59.11-1.18.25-1.76.42-2.89.8-5.94.87-8.86.19-3.35-.75-6.1-3.13-7.3-6.35-.87-2.47-1.41-5.05-1.63-7.66-1.07-9.56-.94-19.22.38-28.75"/></g></g></g></g></svg>