<?xml version="1.0" encoding="UTF-8"?>
<svg width="106px" height="101px" viewBox="0 0 106 101" version="1.1" xmlns="http://www.w3.org/2000/svg" xmlns:xlink="http://www.w3.org/1999/xlink">
    <title>Layer_2_00000131346250561542250300000002773003339982231967_</title>
    <g id="Page-1" stroke="none" stroke-width="1" fill="none" fill-rule="evenodd">
        <g id="person.wave" transform="translate(-1400.000000, -1039.000000)">
            <g id="Layer_2_00000131346250561542250300000002773003339982231967_" transform="translate(1400.000000, 1043.000000)">
                <g id="Group">
                    <g id="Symbols_00000062888442978600910650000001832019077203544452_" transform="translate(0.000000, 28.000000)" fill="#000000" fill-rule="nonzero">
                        <g id="Regular-M_00000018931787692461435160000004006018099579925672_" transform="translate(0.480000, 0.000000)">
                            <path d="M33.8,55.6 C33,56.2 32.1,56.3 31.1,56.2 C30.1,56 29.2,55.5 28.6,54.5 C26.7,52 25.3,49.1 24.2,45.6 C23.1,42.1 22.6,38.5 22.6,34.8 C22.6,31.1 23.1,27.5 24.2,24 C25.3,20.6 26.7,17.6 28.6,15.1 C29.3,14.2 30.1,13.6 31.1,13.4 C32.1,13.2 33,13.4 33.8,14 C34.8,14.7 35.3,15.6 35.5,16.6 C35.6,17.7 35.3,18.7 34.6,19.7 C33.2,21.7 32.1,23.9 31.3,26.5 C30.5,29.1 30.2,31.8 30.2,34.6 C30.2,37.4 30.6,40.1 31.4,42.7 C32.2,45.3 33.3,47.6 34.6,49.6 C35.4,50.6 35.7,51.7 35.5,52.8 C35.3,54 34.7,54.9 33.8,55.6 Z M15.7,68.3 C14.8,68.9 13.9,69.1 12.9,68.9 C11.9,68.7 11,68.1 10.4,67.2 C7.3,62.9 4.9,58 3.1,52.3 C1.4,46.6 0.5,40.8 0.5,34.8 C0.5,28.8 1.4,22.9 3.1,17.2 C4.8,11.5 7.3,6.6 10.4,2.3 C11.1,1.4 11.9,0.8 12.9,0.6 C13.9,0.4 14.9,0.6 15.7,1.2 C16.6,1.8 17.1,2.6 17.3,3.6 C17.4,4.6 17.1,5.7 16.4,6.7 C13.7,10.4 11.6,14.7 10.2,19.6 C8.7,24.5 8,29.5 8,34.7 C8,39.9 8.7,44.9 10.2,49.8 C11.7,54.6 13.7,58.9 16.4,62.7 C17.1,63.7 17.3,64.7 17.2,65.8 C17.1,66.9 16.6,67.7 15.7,68.3 Z" id="Shape"></path>
                        </g>
                    </g>
                    <path d="M68.3,0.1 L53.7,32.1 C53.7,32.1 52.7,36.4 56.7,37.8 L66.9,37.8 L66.9,52 L82.4,52 C82.4,52 87.5,67 71.5,72.4 C71.5,72.4 73.4,84.7 85.7,84.7 L102.1,84.7" id="Path" stroke="#000000" stroke-width="7" stroke-linecap="round" stroke-linejoin="round"></path>
                </g>
                <circle id="Oval" fill="#000000" fill-rule="nonzero" cx="87.2" cy="13.1" r="5.2"></circle>
            </g>
        </g>
    </g>
</svg>