<?xml version="1.0" encoding="UTF-8"?><svg id="Layer_1" xmlns="http://www.w3.org/2000/svg" viewBox="0 0 400 400"><defs><style>.cls-1{stroke:#08579b;stroke-width:9.89px;}.cls-1,.cls-2,.cls-3{stroke-linecap:round;}.cls-1,.cls-3{fill:none;}.cls-4{fill:#f8e610;}.cls-5{fill:#67c8f2;}.cls-2{fill:#ef4036;}.cls-2,.cls-3{stroke:#ef4034;stroke-linejoin:round;stroke-width:7.91px;}</style></defs><g id="Groupe_7488"><path id="Tracé_2271" class="cls-1" d="m67.53,90.79h99.4"/><path id="Tracé_2272" class="cls-1" d="m224.39,90.79h99.4"/><g id="Group-3"><path id="Line-5" class="cls-4" d="m319.71,207.06v95.25c.03,3.84,3.17,6.93,7.01,6.9,3.84.03,6.98-3.06,7.01-6.9v-95.25c-.03-3.84-3.17-6.93-7.01-6.9-3.84-.03-6.98,3.06-7.01,6.9Z"/><path id="Line-6" class="cls-4" d="m373.95,248.44h-95.77c-3.84-.03-6.98,3.06-7.01,6.9.03,3.84,3.17,6.93,7.01,6.9h95.76c3.84.03,6.98-3.06,7.01-6.9-.03-3.84-3.17-6.93-7.01-6.9Z"/></g><g id="Group-4"><path id="Line-7" class="cls-4" d="m287.88,225.55l67.35,67.35c2.74,2.69,7.14,2.66,9.84-.08,2.74-2.69,2.78-7.1.08-9.84l-67.35-67.35c-2.74-2.69-7.14-2.66-9.84.08-2.74,2.69-2.78,7.1-.08,9.84Z"/><path id="Line-8" class="cls-4" d="m355.49,216.46l-67.72,67.72c-2.74,2.69-2.78,7.1-.08,9.84,2.74,2.69,7.14,2.66,9.84-.08l67.72-67.72c2.74-2.69,2.78-7.1.08-9.84-2.74-2.69-7.14-2.66-9.84.08Z"/></g><ellipse id="Oval_22_Copy_2-2" class="cls-4" cx="326.11" cy="255.88" rx="33.9" ry="33.33"/><path id="Oval_12-2" class="cls-2" d="m99.94,275.1c0-22.34-18.11-40.45-40.45-40.45s-40.45,18.11-40.45,40.45"/><path id="Line_7-2" class="cls-3" d="m19.04,275.1h101.14"/><path id="Path_97_Copy_2-2" class="cls-5" d="m195.66,205.12s-83.45,100.65,1.48,100.65-1.48-100.65-1.48-100.65Z"/></g></svg>