<?xml version="1.0" encoding="UTF-8"?>
<svg width="1001px" height="715px" viewBox="0 0 1001 715" version="1.1" xmlns="http://www.w3.org/2000/svg" xmlns:xlink="http://www.w3.org/1999/xlink">
    <title>Group</title>
    <g id="Page-1" stroke="none" stroke-width="1" fill="none" fill-rule="evenodd">
        <g id="leka" transform="translate(-6.000000, -1039.000000)" fill-rule="nonzero">
            <g id="Group" transform="translate(6.000000, 1039.000000)">
                <g>
                    <g>
                        <path d="M0,0 L62,0 L62,354.2 C62,368.2 69.9,375.5 85.1,375.5 L106.4,375.5 L106.4,434 L79.1,434 C34.1,434 0.1,414.5 0.1,359 L0.1,0 L0,0 Z" id="Path" fill="#ADCC36"></path>
                        <path d="M222.8,153.6 L224,153.6 C236.8,132.3 258.1,122.5 300,122.5 C368.7,122.5 408.8,163.3 408.8,217 C408.8,266.4 374.8,308.4 308.5,308.4 L222.8,308.4 L222.8,340.7 C222.8,370 241.6,380.3 286,380.3 C318.2,380.3 333.4,374.2 344.4,356.5 L393,393.7 C369.3,426.6 335.3,438.8 289.1,438.8 C213.1,438.8 160.8,413.2 160.8,337 L160.8,126.1 L222.8,126.1 L222.8,153.6 L222.8,153.6 Z M222.8,257.3 L297,257.3 C333.4,257.3 350.5,242.7 350.5,220.1 C350.5,199.4 334.1,181.1 292.2,181.1 C240.5,181.1 222.9,186.6 222.9,234.7 L222.9,257.3 L222.8,257.3 Z" id="Shape" fill="#EB1B6B"></path>
                        <rect id="Rectangle" fill="#676767" x="293.3" y="483.5" width="65.7" height="65.8"></rect>
                        <rect id="Rectangle" fill="#676767" x="186.3" y="483.5" width="65.6" height="65.8"></rect>
                        <polygon id="Path" fill="#F08E20" points="460.8 0 522.8 0 522.8 270.1 524 270.1 642.6 125 716.8 125 610.4 245.7 731.4 434.1 653.6 434.1 571.5 289.6 522.9 345.1 522.9 434.1 460.9 434.1 460.9 0"></polygon>
                        <path d="M938,406.6 L936.8,406.6 C924,427.9 902.7,437.7 860.8,437.7 C792.1,437.7 752,396.9 752,343.2 C752,293.8 786.1,251.8 852.3,251.8 L938,251.8 L938,219.5 C938,190.2 919.1,179.9 874.7,179.9 C842.5,179.9 827.3,186 816.3,203.7 L767.7,166.5 C791.4,133.6 825.5,121.4 871.6,121.4 C947.6,121.4 999.9,147 999.9,223.2 L999.9,434 L937.9,434 L937.9,406.6 L938,406.6 Z M938,303 L863.8,303 C827.3,303 810.3,317.6 810.3,340.2 C810.3,360.9 826.7,379.2 868.6,379.2 C920.3,379.2 937.9,373.7 937.9,325.5 L937.9,303 L938,303 Z" id="Shape" fill="#56ADD4"></path>
                    </g>
                    <g transform="translate(579.000000, 479.000000)" fill="#676767">
                        <path d="M19,64.4 C5,64.4 1.4,53.3 0.8,49.7 C0.6,48 1.8,46.7 2.8,46.4 C4.5,46 5.7,47 6.4,49.2 C8.9,56.2 13.2,58.6 18.9,58.6 C27.6,58.6 31.9,54 31.9,47.6 C31.9,40.2 27.7,38.2 24.2,36.4 L11.9,29.9 C6.2,26.9 3.1,22.6 3.1,15.7 C3.1,4.4 11.9,0.5 20.4,0.5 C29.2,0.5 34.2,5.8 35.3,8.7 C35.9,10.3 35.6,12.3 34,12.9 C32.3,13.5 31.1,13.1 30,11.5 C27.9,8.4 24.4,6.2 20.4,6.2 C16.6,6.2 9.5,7.2 9.5,16.2 C9.5,19.2 10.6,22.4 15.5,24.9 L28.7,31.7 C32.3,33.5 38.3,37.4 38.3,46.9 C38.5,56.4 32.7,64.4 19,64.4 Z" id="Path"></path>
                        <path d="M108.3,64 C106.7,64 105.5,62.8 105.5,61.1 L105.5,34.2 C105.5,25.6 102.8,21 94.5,21 C86.6,21 83.8,27.6 83.8,34 L83.8,61.2 C83.8,62.8 82.6,64 80.9,64 C79.3,64 78,62.8 78,61.1 L78,34.3 C78,25.7 75.4,21.1 67.1,21.1 C59.1,21.1 55.3,27.9 55.3,34.3 L55.3,61 C55.3,62.6 54,63.9 52.4,63.9 C50.7,63.9 49.5,62.6 49.5,61 L49.5,18.7 C49.5,17 50.7,15.8 52.4,15.8 C54,15.8 55.3,17 55.3,18.6 L55.3,21.6 C58.2,17.9 61.3,15.3 67.1,15.3 C74.7,15.3 79.3,18.2 81.8,23.7 C84.2,19.4 88,15.2 94.5,15.2 C106.5,15.2 111.3,20.8 111.3,35.4 L111.3,61.1 C111.3,62.8 110,64 108.3,64 Z" id="Path"></path>
                        <path d="M162.4,59.1 C163.5,60.3 163.5,62.1 162.4,63.2 C161.3,64.3 159.5,64.3 158.4,63.1 C156.2,61.3 154.5,57.2 154.5,57.2 C151.1,61.5 146.1,64.4 140.4,64.4 C130,64.4 122.1,57.2 122.1,44.1 L122.1,35.6 C122.1,22.4 130.4,15.7 140.7,15.7 C145.7,15.7 149.8,18 153.3,21.5 L153.3,19 C153.3,17.3 154.5,16 156.1,16 C157.8,16 159,17.3 159,18.9 L159,50 C158.9,55.3 161.7,58.2 162.4,59.1 L162.4,59.1 Z M153.3,34.9 C153.3,26.8 148.3,21.3 140.7,21.3 C133.1,21.3 128,26.2 128,34.2 L128,45.4 C128,53.5 132.9,58.6 140.4,58.6 C148,58.6 153.3,53.5 153.3,45.4 L153.3,34.9 L153.3,34.9 Z" id="Shape"></path>
                        <path d="M197,21.5 L189.9,21.5 C183.3,21.5 178.6,27.3 178.6,37.3 L178.6,61.2 C178.6,62.8 177.3,64.1 175.7,64.1 C174.1,64.1 172.8,62.8 172.8,61.2 L172.8,18.8 C172.8,17.2 174,16 175.7,16 C177.3,16 178.6,17.2 178.6,18.8 L178.6,22.2 C180.9,18.4 184.9,15.8 189.9,15.8 L197,15.8 C198.6,15.8 199.8,17 199.8,18.6 C199.7,20.2 198.5,21.5 197,21.5 Z" id="Path"></path>
                        <path d="M225.6,21.2 L217.1,21.2 L217.1,50 C217.1,57.1 220.8,58.4 222.7,59.5 C223.9,60.3 224,62.2 223.3,63.3 C222.4,64.6 220.9,64.8 219,63.8 C214.7,61.6 211.4,56.5 211.4,50 L211.4,21.2 L207.4,21.2 C205.8,21.2 204.6,20 204.6,18.4 C204.6,16.8 205.8,15.5 207.5,15.5 L211.4,15.5 L211.4,3.8 C211.4,2.2 212.7,0.9 214.4,0.9 C216,0.9 217.2,2.1 217.2,3.8 L217.2,15.5 L225.7,15.5 C227.3,15.5 228.6,16.8 228.6,18.4 C228.5,20 227.3,21.2 225.6,21.2 Z" id="Path"></path>
                        <path d="M294.6,6.8 L281,6.8 L281,61.3 C281,62.9 279.8,64.1 278.2,64.1 C276.6,64.1 275.2,62.9 275.2,61.3 L275.2,6.8 L261.6,6.8 C259.9,6.8 258.6,5.4 258.6,3.8 C258.6,2.2 259.9,1 261.5,1 L294.5,1 C296.1,1 297.3,2.2 297.3,3.8 C297.4,5.4 296.2,6.8 294.6,6.8 Z" id="Path"></path>
                        <path d="M317.5,64.4 C307.1,64.4 298.7,57.9 298.7,44.7 L298.7,35.4 C298.7,22.2 307.1,15.4 317.5,15.4 C327.8,15.4 336.3,22.3 336.3,35.4 L336.3,44.7 C336.3,57.8 327.8,64.4 317.5,64.4 Z M330.3,34 C330.3,25.9 325,21 317.5,21 C309.9,21 304.6,25.9 304.6,34 L304.6,46 C304.6,54.1 309.9,58.6 317.5,58.6 C325,58.6 330.3,54.1 330.3,46 L330.3,34 Z" id="Shape"></path>
                        <path d="M360.2,76.6 C359.1,79.5 356.9,79.4004162 355.2,79.4004162 L351.3,79.4004162 C349.6,79.4004162 348.4,78.2 348.4,76.6 C348.4,75 349.7,73.7 351.3,73.7 L355.3,73.7 L359.8,60.8 L344.6,19.2 C344.1,17.7 344.9,16.1 346.4,15.5 C348,15.1 349.4,15.9 350,17.4 L362.9,52.3 L375.4,17.5 C375.9,15.9 377.4,15 378.9,15.3 C380.4,15.7 381.5,17.3 381,18.9 L360.2,76.6 Z" id="Path"></path>
                        <path d="M403.3,64.4 C395.7,64.4 389.8,60.3 388.1,58.5 C387,57.3 386.9,55.6 388,54.5 C389.1,53.4 391,53.4 392.1,54.4 C393,55.2 398.1,58.8 403.5,58.8 C413.2,58.8 415,54.3 415,50.3 C415,47.2 413.2,44.9 409.8,43.8 L396.8,39.7 C392.6,38.4 388,36.2 388,28.5 C388,18.8 397.5,15.3 403.8,15.3 C410.3,15.3 415.2,18.1 417.7,20.8 C418.8,21.9 419,23.6 417.8,24.8 C416.8,25.9 414.8,25.9 413.7,24.9 C412.9,24.1 408.9,21.1 403.5,21.1 C400.9,21.1 393.8,21.6 393.8,29.1 C393.8,32.6 395.8,33.5 398.9,34.5 L410.5,38.1 C417.4,40.3 421.1,43.9 421.1,50.1 C421,58 416.3,64.4 403.3,64.4 Z" id="Path"></path>
                    </g>
                </g>
                <g transform="translate(2.000000, 594.000000)">
                    <g transform="translate(0.000000, 47.000000)" fill="#02526B">
                        <path d="M23.9,0.3 C34.2,0.3 42.2,8.3 42.2,20.7 C42.2,33.1 34.2,41.4 23.9,41.4 C17.6,41.4 13.1,38.3 10.7,35.1 L10.7,59.8 L0.6,59.8 L0.6,1 L10.7,1 L10.7,6.8 C13,3.3 17.6,0.3 23.9,0.3 Z M21.2,9.2 C15.8,9.2 10.6,13.4 10.6,20.9 C10.6,28.5 15.7,32.6 21.2,32.6 C26.7,32.6 31.8,28.3 31.8,20.7 C31.8,13.1 26.7,9.2 21.2,9.2 Z" id="Shape"></path>
                        <path d="M65.2,0.3 C71.6,0.3 76.1,3.3 78.4,6.6 L78.4,0.9 L88.6,0.9 L88.6,40.7 L78.4,40.7 L78.4,34.9 C76,38.4 71.5,41.4 65.1,41.4 C55,41.4 46.9,33.1 46.9,20.7 C46.9,8.3 55,0.3 65.2,0.3 Z M67.8,9.2 C62.4,9.2 57.2,13.2 57.2,20.8 C57.2,28.4 62.3,32.7 67.8,32.7 C73.4,32.7 78.4,28.5 78.4,21 C78.5,13.3 73.4,9.2 67.8,9.2 Z" id="Shape"></path>
                        <path d="M108.7,40.8 L98.6,40.8 L98.6,1 L108.7,1 L108.7,7.2 C111.2,3.1 115.4,0.4 121,0.4 L121,11 L118.3,11 C112.3,11 108.7,13.3 108.7,21 L108.7,40.8 L108.7,40.8 Z" id="Path"></path>
                    </g>
                    <g transform="translate(150.000000, 0.000000)">
                        <path d="M109.1,45.9 C112.2,52.9 114.8,60 117.2,67 L100.9,67 C103.3,60 106,53 109.1,45.9 M135.9,87.8 C130.5,69.5 123.7,51.4 115.6,33.5 L102.9,33.5 C94.8,51.5 88.2,69.6 82.7,87.8 L94.7,87.8 C95.7,84 96.8,80.2 97.9,76.3 L120.2,76.3 C121.3,80.2 122.5,84 123.5,87.8 L135.9,87.8 Z" id="Shape" fill="#04546B"></path>
                        <path d="M161.1,42.8 C170.6,42.8 172.6,43.9 172.6,50.1 C172.6,57.8 169.5,58.7 160.4,58.7 L153.3,58.7 L153.3,42.9 L161.1,42.9 L161.1,42.8 Z M142,87.8 L153.3,87.8 L153.3,68 L163.9,68 C174.8,68 184,66 184,50.6 C184,34.6 174.1,33.6 162.7,33.6 L142,33.6 L142,87.8 L142,87.8 Z" id="Shape" fill="#04546B"></path>
                        <polygon id="Path" fill="#04546B" points="190.3 87.8 201.6 87.8 201.6 64.9 225.4 64.9 225.4 55.5 201.6 55.5 201.6 42.8 228.8 42.8 228.8 33.5 190.3 33.5"></polygon>
                        <g transform="translate(251.000000, 33.000000)" fill="#04546B">
                            <path d="M141.4,54.8 L152,54.8 L152,30.4 C152,18.3 149.3,13.9 139,13.9 C131.6,13.9 128.5,16.2 125.5,20 L125.5,14.8 L115.4,14.8 L115.4,54.7 L126,54.7 L126,35.8 C126,26.4 126.8,22.5 134.4,22.5 C141.2,22.5 141.3,25.7 141.3,31.8 L141.3,54.8 L141.4,54.8 Z" id="Path"></path>
                            <path d="M54,54.8 L54,40 C54,30.9 54.8,24.1 63.2,24.1 C65.3,24.1 66.6,24.3 66.6,24.3 L66.6,14.2 C66.6,14.2 65.8,14 63.8,14 C58.5,14 55.8,15.7 53.4,19.8 L53.4,14.8 L43.4,14.8 L43.4,54.7 L54,54.7 L54,54.8 Z" id="Path"></path>
                            <polygon id="Path" points="0.5 54.8 11.8 54.8 11.8 31.8 35.6 31.8 35.6 22.5 11.8 22.5 11.8 9.8 39 9.8 39 0.5 0.5 0.5"></polygon>
                            <path d="M196,28.4 C194.9,18.6 190,13.9 178.3,13.9 C162.5,13.9 158.7,22.5 158.7,35.3 C158.7,46.9 161.8,55.8 177.8,55.8 C191.1,55.8 195.2,49.6 196,40.7 L185.4,40.7 C185.1,44.7 183.1,47.2 177.3,47.2 C172.1,47.2 169.6,45.2 169.6,34.9 C169.6,24.6 172.1,22.6 177.8,22.6 C183.2,22.6 184.5,24.6 185.4,28.4 L196,28.4 L196,28.4 Z" id="Path"></path>
                            <path d="M214.4,31.1 C214.8,24.7 216.4,22.5 222.6,22.5 C227.5,22.5 230.4,23.8 230.9,31.1 L214.4,31.1 Z M230.2,43.4 C229.1,46.4 226.7,47.2 222.6,47.2 C216.6,47.2 214.7,45.4 214.3,37.8 L241.4,37.8 C241.4,20.5 237.2,13.9 223.1,13.9 C206.4,13.9 203.4,23 203.4,34.4 C203.4,51.5 210.2,55.8 222.7,55.8 C233.6,55.8 239.7,52.5 241,43.4 L230.2,43.4 L230.2,43.4 Z" id="Shape"></path>
                            <path d="M99.5,14.9 L99.5,18.7 C96.7,14.6 92.8,13.4 87.2,13.4 C76.2,13.4 70.5,18.2 70.5,34.5 C70.5,48.2 74.5,55.3 87.2,55.3 C94.7,55.3 97.5,52.9 99,50.9 L99,54.8 L109.6,54.8 L109.6,14.9 L99.5,14.9 L99.5,14.9 Z M90.1,46.7 C83.1,46.7 81.4,43.1 81.4,34.6 C81.4,25.4 83.4,22.1 90.4,22.1 C97.1,22.1 99.3,25.1 99.3,34.1 C99.4,43.2 97.1,46.7 90.1,46.7 Z" id="Shape"></path>
                        </g>
                        <g transform="translate(514.000000, 30.000000)" fill="#04546B">
                            <path d="M11.4,3.5 L0.8,3.5 L0.8,57.8 L11.4,57.8 L11.4,35.9 C11.4,28.3 12.9,25.5 19.9,25.5 C26.7,25.5 26.7,28.1 26.7,37.2 L26.7,57.8 L37.3,57.8 L37.3,35.3 C37.3,22.6 34.8,16.9 22.8,16.9 C18.7,16.9 13.9,17.6 11.3,21.5 L11.3,3.5 L11.4,3.5 Z" id="Path"></path>
                            <path d="M116.7,57.8 L127.3,57.8 L127.3,33.4 C127.3,21.3 124.6,16.9 114.3,16.9 C106.9,16.9 103.7,19.2 100.8,23 L100.8,17.8 L90.7,17.8 L90.7,57.7 L101.3,57.7 L101.3,38.8 C101.3,29.4 102.1,25.5 109.7,25.5 C116.5,25.5 116.6,28.7 116.6,34.8 L116.6,57.8 L116.7,57.8 Z" id="Path"></path>
                            <path d="M163.8,37.8 C163.8,48.3 160.7,50.1 154.9,50.1 C148.7,50.1 145.9,48 145.9,37.5 C145.9,29.1 147.7,25.5 155.2,25.5 C161.2,25.5 163.8,28 163.8,37.8 M174.2,57.8 L174.2,3.5 L163.6,3.5 L163.6,21.4 C161.8,19.1 158.6,16.9 151.8,16.9 C141.4,16.9 135,22.2 135,37.7 C135,50.7 139.5,58.7 152,58.8 C157.2,58.8 161.3,58.1 164,54 L164,57.8 L174.2,57.8 Z" id="Shape"></path>
                            <rect id="Rectangle" x="184.1" y="17.9" width="10.6" height="39.9"></rect>
                            <path d="M184.8,5.4 C183.3,8.9 184.4,12.4 187.4,13.3 C190.4,14.2 194,12.1 195.5,8.7 C197,5.2 195.9,1.7 192.9,0.8 C190,-0.1 186.3,2 184.8,5.4" id="Path"></path>
                            <path d="M240,31.4 C238.9,21.6 234,16.9 222.3,16.9 C206.5,16.9 202.7,25.5 202.7,38.3 C202.7,49.9 205.8,58.8 221.8,58.8 C235.1,58.8 239.2,52.6 240,43.7 L229.4,43.7 C229.1,47.7 227.1,50.2 221.3,50.2 C216.1,50.2 213.7,48.2 213.7,37.9 C213.7,27.6 216.1,25.5 221.9,25.5 C227.3,25.5 228.6,27.5 229.5,31.3 L240,31.3 L240,31.4 Z" id="Path"></path>
                            <path d="M302.6,37.6 C302.6,28.6 304.9,25.6 311.5,25.6 C318.5,25.6 320.5,28.9 320.5,38.1 C320.5,46.6 318.8,50.2 311.8,50.2 C304.9,50.2 302.6,46.7 302.6,37.6 M292.4,17.9 L292.4,73.2 L303,73.2 L303,54.4 C304.5,56.4 307.3,58.8 314.8,58.8 C327.5,58.8 331.5,51.8 331.5,38 C331.5,21.6 325.8,16.9 314.8,16.9 C309.2,16.9 305.3,18.1 302.5,22.2 L302.5,17.9 L292.4,17.9 L292.4,17.9 Z" id="Shape"></path>
                            <path d="M71.7,17.9 L71.7,21.7 C68.9,17.6 65,16.4 59.4,16.4 C48.4,16.4 42.7,21.2 42.7,37.5 C42.7,51.2 46.7,58.3 59.4,58.3 C66.9,58.3 69.7,55.9 71.2,53.9 L71.2,57.8 L81.8,57.8 L81.8,17.9 L71.7,17.9 L71.7,17.9 Z M62.3,49.7 C55.3,49.7 53.6,46.1 53.6,37.6 C53.6,28.4 55.6,25.1 62.6,25.1 C69.2,25.1 71.5,28.1 71.5,37.1 C71.6,46.2 69.3,49.7 62.3,49.7 Z" id="Shape"></path>
                            <path d="M273.2,17.9 L273.2,21.7 C270.4,17.6 266.5,16.4 260.9,16.4 C249.9,16.4 244.2,21.2 244.2,37.5 C244.2,51.2 248.2,58.3 260.9,58.3 C268.4,58.3 271.2,55.9 272.7,53.9 L272.7,57.8 L283.3,57.8 L283.3,17.9 L273.2,17.9 L273.2,17.9 Z M263.8,49.7 C256.8,49.7 255.1,46.1 255.1,37.6 C255.1,28.4 257.1,25.1 264.1,25.1 C270.7,25.1 273,28.1 273,37.1 C273,46.2 270.7,49.7 263.8,49.7 Z" id="Shape"></path>
                        </g>
                        <path d="M36,57.1 C27.2,57.4 18.8,61.2 12.5,67.2 C51,48.7 63.4,77.8 63.8,79.4 C61.9,66.1 50.6,56.6 36,57.1" id="Path" fill="#F5A81C"></path>
                        <path d="M72.6,26.8 C68.4,25 62.7,27.3 59.8,32.1 C56.9,36.9 58,42.2 62.2,44.1 C66.4,45.9 72.1,43.6 75,38.8 C77.9,34 76.8,28.7 72.6,26.8" id="Path" fill="#F5A81C"></path>
                        <path d="M64.9,60.1 C57.9,53.5 36,27.4 37.8,19.6 C39.8,11.1 48,4.2 60.2,0.6 C58.3,0.9 56.7,1.2 55.2,1.6 C41.7,5 32.7,12.1 30.5,21.2 C28.7,28.8 35.9,37.6 43.8,45 C48.7,49.6 38.4,46.6 29.6,51.4 C29.6,51.4 29.6,51.4 29.6,51.4 C43.6,46.2 70.2,65.1 64.9,60.1" id="Path" fill="#04546B"></path>
                        <path d="M53.4,90.4 C51.8,101.7 41.3,110.8 29.9,110.8 C18.5,110.8 10.6,101.7 12.2,90.4 C13.8,79.1 24.3,70 35.7,70 C47,70 55,79.1 53.4,90.4 M63.2,82.9 C62.5,80.1 49.6,52.5 13,69.1 C6.8,74.6 2.4,82.1 1.3,90.4 C-1.1,107.3 10.8,121 27.9,121 C45,121 60.7,107.3 63.1,90.4 C63.5,87.8 63.5,85.3 63.2,82.9" id="Shape" fill="#04546B"></path>
                    </g>
                </g>
            </g>
        </g>
    </g>
</svg>