<?xml version="1.0" encoding="UTF-8"?><svg xmlns="http://www.w3.org/2000/svg" viewBox="0 0 400 400"><defs><style>.cls-1,.cls-2{fill:#f58a43;}.cls-3{fill:#98582a;}.cls-4{fill:#83b7b3;}.cls-5{fill:#4b4b4b;}.cls-2,.cls-6{stroke:#4b4b4b;stroke-linecap:round;stroke-linejoin:round;stroke-width:7px;}.cls-6{fill:none;}</style></defs><g id="back"><rect class="cls-4" x="0" width="400" height="400"/></g><g id="Layer_1"><g><g><g><g id="_130_squirrel"><path id="Path_47" class="cls-3" d="m201.31,166.71c0-7.07,6.5-27.9-4.77-44.18-11.26-16.29-27.08-24.5-44.74-24.5-27.7,0-45.89,16.15-51.23,23.35-5.34,7.2-2.56,48.16-.05,52.83,1.61,2.93,3.6,5.64,5.93,8.04,0,0-11.1,28.94-11.1,35.03s3.81,34.59,11.37,43.78c7.56,9.19,22.1,29.67,28.61,29.67s33.9-.89,33.9-.89c0,0,32.08-116.07,32.08-123.14Z"/><path id="Path_45" class="cls-6" d="m201.56,164.03c6.7-36.72-8.62-59.23-38.16-64.58-29.54-5.35-60.79,7.84-64.7,30.21-6.57,37.6,7.81,52.51,7.81,52.51"/><path id="Path_46" class="cls-6" d="m128.92,157.03c-30.87,28.98-35.96,54.41-32.75,76.19,3.21,21.78,27.4,63.48,51.9,57.09"/><path id="Path_42" class="cls-1" d="m294.48,202.4c24.73-13.14-12.15-57.13-26.98-60.49-14.82-3.36-14.82-.8-21.07-7.48-6.25-6.68-20.85-22.13-20.85,8.29-9.63,23.44-23.11,25.17-23.11,25.17,0,0-34.92,5-46.89,9.87-11.97,4.87-31.47,17.92-31.47,51.32s13.11,58.49,33.49,67.2c20.37,8.71,87.49,4.85,100.78,4.85s12.02-14.46,0-14.46h-15.38l-13.62-1.73,1.28-23.91-4.81-13.33s.29,12.76,23.66-1.51c23.37-14.27,18.01-35.73,8.88-40.69-9.13-4.97,11.37,10.05,36.1-3.09Z"/><path id="Path_42-2" class="cls-6" d="m240.17,185.13c1.52,2.87,5.7,10.2,12.6,15.35,3.47,2.6,7,4.17,7.28,4.29.51.22,3.53,1.52,7.22,2.3,3.89.81,15.56,1.51,27.21-4.68,24.73-13.14-12.15-57.13-26.98-60.49s-14.82-.8-21.07-7.48c-6.25-6.68-20.85-22.13-20.85,8.29-9.63,23.44-24.24,24.01-24.24,24.01,0,0-33.79,6.16-45.76,11.02-11.97,4.87-31.47,17.92-31.47,51.32s13.11,58.49,33.49,67.2c20.37,8.71,87.49,4.85,100.78,4.85s12.02-14.46,0-14.46c-9.6-.56-18.67-1.12-28.27-1.68"/><circle id="Oval_12" class="cls-5" cx="268.42" cy="168.9" r="3.12"/><path id="Path_44" class="cls-2" d="m257.99,222.02h21.44c11.56,0,10.73,11.98,0,11.98s-17.31,5.09-26.53,11.82c-6.79,4.33-14.55,6.89-22.59,7.44"/><path id="Path_43" class="cls-6" d="m229.84,292c0-23.56,7.56-65.17-38.28-74.98"/></g><path class="cls-2" d="m255.56,202.38s14,9.25,10.51,17.62"/></g><ellipse class="cls-5" cx="300.94" cy="187.24" rx="3.73" ry="5.59"/></g><circle id="Ellipse_792" class="cls-5" cx="268.18" cy="168.73" r="4.16"/></g></g></svg>