<?xml version="1.0" encoding="UTF-8"?><svg xmlns="http://www.w3.org/2000/svg" viewBox="0 0 400 400"><defs><style>.cls-1{fill:#c0cedc;}.cls-2{fill:#4d4b4d;}.cls-3,.cls-4,.cls-5,.cls-6,.cls-7,.cls-8,.cls-9{stroke:#4d4b4d;}.cls-3,.cls-4,.cls-5,.cls-6,.cls-7,.cls-9{stroke-miterlimit:10;}.cls-3,.cls-5{fill:#7554a3;}.cls-3,.cls-7,.cls-8,.cls-9{stroke-width:6.99px;}.cls-3,.cls-8{stroke-linecap:round;}.cls-4{fill:#fff;}.cls-6,.cls-7{fill:#f8bc96;}.cls-8{stroke-linejoin:round;}.cls-8,.cls-9{fill:none;}</style></defs><g id="back"><rect class="cls-1" x="0" width="400" height="400"/></g><g id="Layer_6"><g id="Group_2_Copy_2"><circle id="Oval_51" class="cls-7" cx="117.63" cy="182.77" r="9.98"/><circle id="Oval_51_Copy" class="cls-7" cx="282.37" cy="182.77" r="9.98"/><circle id="Oval_10" class="cls-4" cx="200" cy="177.77" r="72.39"/><path id="Rectangle_Copy" class="cls-3" d="m190.51,259.77c0,16.75-13.57,30.33-30.32,30.33h-.01c-16.75,0-30.32-13.58-30.32-30.32,0,0,0,0,0,0v-86.99h0l30.72-5.06c13.46-2.8,26.64,5.85,29.43,19.31.42,2,.58,4.05.5,6.1"/><path id="Rectangle_Copy-2" class="cls-3" d="m209.98,260.24c0,16.75,13.57,30.33,30.32,30.33h.01c16.75,0,30.32-13.58,30.32-30.32,0,0,0,0,0,0v-86.99h0l-30.72-5.06c-13.46-2.8-26.64,5.85-29.43,19.31-.42,2-.58,4.05-.5,6.1"/><circle id="Oval_10-2" class="cls-6" cx="200" cy="177.77" r="72.39"/><path id="Path_3" class="cls-5" d="m204.13,105.74c16.09.02,12.75-.21,28.05,8.52,15.3,8.72,32.24,23.3,39.48,46.03,7.23,22.72,0,17.49,0,17.49,0,0-25.92-4.67-43.27-17.48-17.35-12.81-27.94-41.28-24.26-54.55Z"/><path id="Path_3-2" class="cls-5" d="m200,105.38c-16.09.02-15.67-3.74-30.97,4.99-15.3,8.72-32.24,23.3-39.48,46.03-7.23,22.72,0,24.85,0,24.85,0,0,23.05-4.79,40.4-17.61,17.35-12.81,33.74-44.98,30.05-58.26Z"/><circle id="Oval_10-3" class="cls-9" cx="200" cy="177.77" r="72.39"/><ellipse id="Oval_7_Copy_4" class="cls-2" cx="225.01" cy="184.81" rx="7.06" ry="7.04"/><ellipse id="Oval_7_Copy_5" class="cls-2" cx="176.2" cy="184.81" rx="7.06" ry="7.04"/><path id="Path_6" class="cls-8" d="m199.37,105.39s9.98,59.59-64.02,73.89"/><path id="Path_6-2" class="cls-8" d="m200.02,105.39c2.09,0-6.53,58.63,64.61,72.39"/></g></g></svg>