<?xml version="1.0" encoding="UTF-8"?><svg id="Layer_1" xmlns="http://www.w3.org/2000/svg" viewBox="0 0 400 400"><defs><style>.cls-1{fill:#f8e610;}.cls-2{fill:#67c8f2;}.cls-3{stroke-linejoin:round;}.cls-3,.cls-4{fill:none;stroke:#282c6c;stroke-linecap:round;stroke-width:5.15px;}.cls-4{stroke-miterlimit:10;}</style></defs><g id="Groupe_2871"><g id="Groupe_2870"><path id="Path_97_Copy_2" class="cls-2" d="m84.29,84.19s-83.45,100.66,1.48,100.66-1.48-100.66-1.48-100.66Z"/><path id="Path_97_Copy_2-2" class="cls-2" d="m191.3,237.92s-83.45,100.66,1.48,100.66-1.48-100.66-1.48-100.66Z"/><g id="Groupe_2869"><path id="Line_8" class="cls-4" d="m111.55,219.16l36.28,36.13"/><path id="Path_9" class="cls-3" d="m148.38,235.28l2.56,23.25-23.08-2.96"/></g><g id="sun"><g id="Group"><path id="Line" class="cls-1" d="m291.11,183.43v95.25c.03,3.84,3.17,6.93,7.01,6.9,3.84.03,6.98-3.06,7.01-6.9v-95.25c-.03-3.84-3.17-6.93-7.01-6.9-3.84-.03-6.98,3.06-7.01,6.9Z"/><path id="Line-2" class="cls-1" d="m345.35,224.81h-95.77c-3.84-.03-6.98,3.06-7.01,6.9.03,3.84,3.17,6.93,7.01,6.9h95.77c3.84.03,6.98-3.06,7.01-6.9-.03-3.84-3.17-6.93-7.01-6.9Z"/></g><g id="Group-2"><path id="Line-3" class="cls-1" d="m259.28,201.91l67.35,67.35c2.74,2.69,7.14,2.66,9.84-.08,2.74-2.69,2.77-7.1.08-9.84l-67.35-67.35c-2.74-2.69-7.14-2.66-9.84.08-2.74,2.69-2.77,7.1-.08,9.84Z"/><path id="Line-4" class="cls-1" d="m326.9,192.82l-67.72,67.72c-2.74,2.69-2.77,7.1-.08,9.84,2.74,2.69,7.14,2.66,9.84-.08l67.72-67.72c2.74-2.69,2.77-7.1.08-9.84-2.74-2.69-7.14-2.66-9.84.08Z"/></g><ellipse id="Oval_22_Copy_2" class="cls-1" cx="297.51" cy="232.24" rx="33.9" ry="33.33"/></g><g id="sun-2"><g id="Group-3"><path id="Line-5" class="cls-1" d="m197.59,68.32v95.25c.03,3.84,3.17,6.93,7.01,6.9,3.84.03,6.98-3.06,7.01-6.9v-95.25c-.03-3.84-3.17-6.93-7.01-6.9-3.84-.03-6.98,3.06-7.01,6.9Z"/><path id="Line-6" class="cls-1" d="m251.83,109.71h-95.77c-3.84-.03-6.98,3.06-7.01,6.9.03,3.84,3.17,6.93,7.01,6.9h95.77c3.84.03,6.98-3.06,7.01-6.9-.03-3.84-3.17-6.93-7.01-6.9Z"/></g><g id="Group-4"><path id="Line-7" class="cls-1" d="m165.76,86.81l67.35,67.35c2.74,2.69,7.14,2.66,9.84-.08,2.74-2.69,2.77-7.1.08-9.84l-67.35-67.35c-2.74-2.69-7.14-2.66-9.84.08-2.74,2.69-2.77,7.1-.08,9.84Z"/><path id="Line-8" class="cls-1" d="m233.38,77.72l-67.72,67.72c-2.74,2.69-2.77,7.1-.08,9.84,2.74,2.69,7.14,2.66,9.84-.08l67.72-67.72c2.74-2.69,2.77-7.1.08-9.84-2.74-2.69-7.14-2.66-9.84.08Z"/></g><ellipse id="Oval_22_Copy_2-2" class="cls-1" cx="203.99" cy="117.14" rx="33.9" ry="33.33"/></g></g></g></svg>