<?xml version="1.0" encoding="UTF-8"?>
<svg width="135px" height="129px" viewBox="0 0 135 129" version="1.1" xmlns="http://www.w3.org/2000/svg" xmlns:xlink="http://www.w3.org/1999/xlink">
    <title>activities</title>
    <g id="Page-1" stroke="none" stroke-width="1" fill="none" fill-rule="evenodd">
        <g id="activities" fill="#08579B" fill-rule="nonzero">
            <path d="M18.2722222,102.505556 L34.2166667,102.505556 L34.2166667,98.6166667 L18.4277778,98.6166667 C14.6944444,98.8888889 10.9611111,97.6444444 8.16111111,95.1555556 C5.67222222,92.3555556 4.42777778,88.7 4.7,84.9666667 L4.7,18.4277778 C4.42777778,14.6944444 5.67222222,11 8.16111111,8.2 C11,5.71111111 14.6944444,4.46666667 18.4277778,4.73888889 L84.9277778,4.73888889 C88.5833333,4.50555556 92.2,5.75 95,8.16111111 C97.5666667,10.9222222 98.8888889,14.6166667 98.6166667,18.3888889 L98.6166667,28.3055556 L102.427778,28.3055556 L102.427778,18.1944444 C102.738889,13.4888889 101.144444,8.82222222 97.9944444,5.28333333 C94.4944444,2.09444444 89.8277778,0.461111111 85.1222222,0.811111111 L18.2722222,0.811111111 C13.5277778,0.461111111 8.82222222,2.05555556 5.28333333,5.24444444 C2.13333333,8.9 0.577777778,13.5666667 0.888888889,18.2722222 L0.888888889,85.1222222 C0.577777778,89.8666667 2.13333333,94.4944444 5.28333333,98.0722222 C8.82222222,101.261111 13.5277778,102.855556 18.2722222,102.544444" id="Tracé_4229"></path>
            <path d="M50.5111111,128.211111 L117.361111,128.211111 C125.877778,129.261111 133.616667,123.194444 134.666667,114.677778 C134.822222,113.433333 134.822222,112.15 134.666667,110.905556 L134.666667,43.9777778 C134.977778,39.2722222 133.383333,34.6444444 130.272222,31.1444444 C126.772222,27.9555556 122.105556,26.3611111 117.361111,26.7111111 L50.5111111,26.7111111 C45.7666667,26.3611111 41.1,27.9555556 37.5222222,31.1055556 C34.3722222,34.6444444 32.7777778,39.2722222 33.1277778,44.0166667 L33.1277778,110.905556 C32.7777778,115.65 34.3722222,120.316667 37.5222222,123.855556 C41.1,127.005556 45.7666667,128.561111 50.5111111,128.211111 M50.6666667,124.4 C46.9333333,124.672222 43.2388889,123.427778 40.4,120.977778 C37.8722222,118.138889 36.6277778,114.444444 36.9388889,110.672222 L36.9388889,44.25 C36.6666667,40.5166667 37.95,36.8222222 40.4,34.0222222 C43.2,31.4944444 46.8944444,30.2111111 50.6666667,30.5222222 L117.166667,30.5222222 C120.861111,30.2888889 124.477778,31.5722222 127.2,34.0222222 C129.766667,36.7833333 131.05,40.4777778 130.816667,44.25 L130.816667,110.672222 C131.088889,114.444444 129.805556,118.177778 127.2,120.977778 C124.438889,123.388889 120.822222,124.633333 117.166667,124.4 L50.6666667,124.4 Z M112.072222,57.9777778 C114.366667,58.0555556 116.583333,57.1611111 118.138889,55.4888889 C119.772222,53.8555556 120.666667,51.6 120.627778,49.2666667 C120.666667,46.9722222 119.772222,44.7555556 118.138889,43.1611111 C116.544444,41.5666667 114.366667,40.6722222 112.072222,40.7111111 C109.777778,40.7111111 107.6,41.5666667 105.966667,43.1611111 C104.294444,44.7555556 103.361111,46.9722222 103.438889,49.2666667 C103.4,51.6 104.294444,53.8166667 105.966667,55.4111111 C107.6,57.0444444 109.777778,57.9777778 112.072222,58.0166667 M112.072222,114.444444 C114.366667,114.444444 116.544444,113.588889 118.138889,111.955556 C121.483333,108.533333 121.483333,103.088889 118.138889,99.7055556 C114.833333,96.3611111 109.466667,96.3222222 106.122222,99.5888889 C106.122222,99.5888889 106.044444,99.6666667 106.005556,99.7055556 C102.661111,103.127778 102.661111,108.572222 106.005556,111.955556 C107.6,113.588889 109.777778,114.483333 112.072222,114.444444 M55.7611111,58.0166667 C58.0555556,58.0944444 60.2722222,57.2 61.8277778,55.5277778 C63.4611111,53.8944444 64.3555556,51.6388889 64.3166667,49.3055556 C64.3555556,47.0111111 63.4611111,44.7944444 61.8277778,43.2 C58.4833333,39.9333333 53.1166667,39.9333333 49.7333333,43.2 C48.0611111,44.7944444 47.1277778,47.0111111 47.2055556,49.3055556 C47.1666667,51.6388889 48.0611111,53.8555556 49.7333333,55.45 C51.3277778,57.0833333 53.5055556,58.0166667 55.7611111,58.0555556 M83.9944444,86.4055556 C86.2888889,86.4055556 88.4666667,85.4722222 90.0222222,83.8 C91.6944444,82.1666667 92.5888889,79.9111111 92.55,77.5777778 C92.55,75.3222222 91.6166667,73.1444444 90.0222222,71.5888889 C86.7944444,68.2444444 81.4277778,68.1277778 78.0833333,71.3555556 C78.0055556,71.4333333 77.9277778,71.5111111 77.85,71.5888889 C76.2555556,73.1444444 75.3222222,75.3222222 75.3611111,77.5777778 C75.3611111,79.9111111 76.2166667,82.1666667 77.85,83.8 C79.4444444,85.5111111 81.6611111,86.4444444 83.9944444,86.4055556 M55.7611111,114.483333 C58.0555556,114.483333 60.2333333,113.627778 61.8277778,111.994444 C65.1722222,108.572222 65.1722222,103.127778 61.8277778,99.7444444 C58.5611111,96.4 53.2333333,96.3611111 49.8888889,99.5888889 C49.85,99.6277778 49.8111111,99.6666667 49.7333333,99.7444444 C46.35,103.088889 46.3111111,108.533333 49.6555556,111.955556 C51.2888889,113.588889 53.4666667,114.522222 55.7611111,114.522222" id="Tracé_4230"></path>
        </g>
    </g>
</svg>