<?xml version="1.0" encoding="UTF-8"?><svg id="Layer_1" xmlns="http://www.w3.org/2000/svg" viewBox="0 0 400 400"><defs><style>.cls-1{fill:#f8e610;}.cls-2{fill:#ef4036;}.cls-3{fill:#4274b9;}</style></defs><g id="Groupe_7492"><g id="Group_55-2"><g id="sun-2"><g id="Group-7"><path id="Line-13" class="cls-1" d="m194.48,152.38v95.25c.03,3.84,3.17,6.93,7.01,6.9,3.84.03,6.98-3.06,7.01-6.9v-95.25c-.03-3.84-3.17-6.93-7.01-6.9-3.84-.03-6.98,3.06-7.01,6.9Z"/><path id="Line-14" class="cls-1" d="m248.72,193.76h-95.77c-3.84-.03-6.98,3.06-7.01,6.9.03,3.84,3.17,6.93,7.01,6.9h95.76c3.84.03,6.98-3.06,7.01-6.9-.03-3.84-3.17-6.93-7.01-6.9Z"/></g><g id="Group-8"><path id="Line-15" class="cls-1" d="m162.65,170.86l67.35,67.35c2.74,2.69,7.14,2.66,9.84-.08,2.74-2.69,2.78-7.1.08-9.84l-67.35-67.35c-2.74-2.69-7.14-2.66-9.84.08-2.74,2.69-2.78,7.1-.08,9.84Z"/><path id="Line-16" class="cls-1" d="m230.26,161.77l-67.72,67.72c-2.74,2.69-2.78,7.1-.08,9.84,2.74,2.69,7.14,2.66,9.84-.08l67.72-67.72c2.74-2.69,2.78-7.1.08-9.84-2.74-2.69-7.14-2.66-9.84.08Z"/></g><ellipse id="Oval_22_Copy_2-4" class="cls-1" cx="200.88" cy="201.19" rx="33.9" ry="33.33"/></g></g><g id="Group_55-3"><g id="sun-3"><g id="Group-9"><path id="Line-17" class="cls-3" d="m328.22,152.38v95.25c.03,3.84,3.17,6.93,7.01,6.9,3.84.03,6.98-3.06,7.01-6.9v-95.25c-.03-3.84-3.17-6.93-7.01-6.9-3.84-.03-6.98,3.06-7.01,6.9Z"/><path id="Line-18" class="cls-3" d="m382.45,193.76h-95.77c-3.84-.03-6.98,3.06-7.01,6.9.03,3.84,3.17,6.93,7.01,6.9h95.76c3.84.03,6.98-3.06,7.01-6.9-.03-3.84-3.17-6.93-7.01-6.9Z"/></g><g id="Group-10"><path id="Line-19" class="cls-3" d="m296.39,170.86l67.35,67.35c2.74,2.69,7.14,2.66,9.84-.08,2.74-2.69,2.78-7.1.08-9.84l-67.35-67.35c-2.74-2.69-7.14-2.66-9.84.08-2.74,2.69-2.78,7.1-.08,9.84Z"/><path id="Line-20" class="cls-3" d="m364,161.77l-67.72,67.72c-2.74,2.69-2.78,7.1-.08,9.84,2.74,2.69,7.14,2.66,9.84-.08l67.72-67.72c2.74-2.69,2.78-7.1.08-9.84-2.74-2.69-7.14-2.66-9.84.08Z"/></g><ellipse id="Oval_22_Copy_2-5" class="cls-3" cx="334.62" cy="201.19" rx="33.9" ry="33.33"/></g></g><g id="Group_55-4"><g id="sun-4"><g id="Group-11"><path id="Line-21" class="cls-2" d="m59.07,152.38v95.25c.03,3.84,3.17,6.93,7.01,6.9,3.84.03,6.98-3.06,7.01-6.9v-95.25c-.03-3.84-3.17-6.93-7.01-6.9-3.84-.03-6.98,3.06-7.01,6.9Z"/><path id="Line-22" class="cls-2" d="m113.31,193.76H17.55c-3.84-.03-6.98,3.06-7.01,6.9.03,3.84,3.17,6.93,7.01,6.9h95.76c3.84.03,6.98-3.06,7.01-6.9-.03-3.84-3.17-6.93-7.01-6.9Z"/></g><g id="Group-12"><path id="Line-23" class="cls-2" d="m27.24,170.86l67.35,67.35c2.74,2.69,7.14,2.66,9.84-.08,2.74-2.69,2.78-7.1.08-9.84l-67.35-67.35c-2.74-2.69-7.14-2.66-9.84.08-2.74,2.69-2.78,7.1-.08,9.84Z"/><path id="Line-24" class="cls-2" d="m94.86,161.77L27.14,229.49c-2.74,2.69-2.78,7.1-.08,9.84,2.74,2.69,7.14,2.66,9.84-.08l67.72-67.72c2.74-2.69,2.78-7.1.08-9.84-2.74-2.69-7.14-2.66-9.84.08Z"/></g><ellipse id="Oval_22_Copy_2-6" class="cls-2" cx="65.47" cy="201.19" rx="33.9" ry="33.33"/></g></g></g></svg>