<?xml version="1.0" encoding="utf-8"?>
<!-- Generator: Adobe Illustrator 27.1.0, SVG Export Plug-In . SVG Version: 6.00 Build 0)  -->
<svg version="1.1" id="Layer_1" xmlns="http://www.w3.org/2000/svg" xmlns:xlink="http://www.w3.org/1999/xlink" x="0px" y="0px"
	 viewBox="0 0 92.1 92.1" style="enable-background:new 0 0 92.1 92.1;" xml:space="preserve">
<style type="text/css">
	.st0{font-family:'ArialRoundedMTBold';}
	.st1{font-size:28px;}
	.st2{clip-path:url(#SVGID_00000035517461087959211380000013527342486278554777_);}
	.st3{stroke:#000000;stroke-width:4;}
</style>
<g id="Groupe_7031" transform="translate(-557.106 -151.464)">
	<g id="Groupe_7024" transform="translate(261.5 -31)">
		<text transform="matrix(1 0 0 1 325.4931 229.6647)" class="st0 st1">?</text>
	</g>
	<g id="Groupe_7028" transform="translate(557.106 151.464)">
		<g>
			<defs>
				<rect id="SVGID_1_" x="-2" y="0.1" width="106.9" height="95.5"/>
			</defs>
			<clipPath id="SVGID_00000044156666788042336900000001133685996771123103_">
				<use xlink:href="#SVGID_1_"  style="overflow:visible;"/>
			</clipPath>
			
				<g id="Groupe_7027" transform="translate(0 0)" style="clip-path:url(#SVGID_00000044156666788042336900000001133685996771123103_);">
				<path id="Tracé_4224" class="st3" d="M10,37.3c0,3.8,0.7,7.5,2.2,10.9c1.4,3.4,3.5,6.4,6.1,9c2.6,2.6,5.6,4.7,9,6.1
					c3.5,1.5,7.2,2.2,10.9,2.2c3.3,0,6.6-0.6,9.7-1.7c3-1.1,5.8-2.7,8.3-4.8L78,80.9c0.2,0.2,0.4,0.4,0.7,0.5
					c0.3,0.1,0.6,0.2,0.9,0.2c0.6,0,1.3-0.2,1.7-0.7c0.4-0.5,0.6-1,0.6-1.6c0-0.3-0.1-0.6-0.2-0.8c-0.1-0.3-0.3-0.5-0.5-0.7
					L59.4,55.9c2.2-2.5,4-5.4,5.2-8.5c1.2-3.2,1.9-6.6,1.9-10.1c0-3.7-0.7-7.5-2.2-10.9c-1.4-3.4-3.5-6.4-6.1-9
					c-2.6-2.6-5.6-4.7-9-6.1C45.7,9.8,42,9.1,38.3,9.1c-3.8,0-7.5,0.7-10.9,2.2c-3.4,1.4-6.4,3.5-9,6.1c-2.6,2.6-4.7,5.6-6.1,9
					C10.7,29.8,10,33.5,10,37.3 M12.2,37.3c0-3.5,0.7-6.9,2-10C16.9,21,21.9,16,28.2,13.3c3.2-1.4,6.6-2.1,10.1-2
					c3.5,0,6.9,0.7,10,2C54.5,16,59.5,21,62.2,27.2c1.4,3.2,2.1,6.6,2,10c0,3.5-0.7,6.9-2,10.1c-2.7,6.2-7.7,11.2-13.9,13.9
					c-3.2,1.4-6.6,2.1-10,2c-3.5,0-6.9-0.7-10.1-2c-6.2-2.7-11.2-7.7-13.9-13.9C12.9,44.2,12.2,40.7,12.2,37.3"/>
			</g>
		</g>
	</g>
</g>
</svg>
