<?xml version="1.0" encoding="UTF-8"?><svg id="Layer_1" xmlns="http://www.w3.org/2000/svg" viewBox="0 0 400 400"><defs><style>.cls-1{fill:#67c8f2;}.cls-2{fill:#fff;}.cls-3{fill:#8c76b6;}.cls-4{fill:#32b162;}</style></defs><g id="Groupe_7501"><g id="Group_55-7"><g id="sun-7"><g id="Group-17"><path id="Line-33" class="cls-3" d="m312.5,80.21v95.25c.03,3.84,3.17,6.93,7.01,6.9,3.84.03,6.98-3.06,7.01-6.9v-95.25c-.03-3.84-3.17-6.93-7.01-6.9-3.84-.03-6.98,3.06-7.01,6.9Z"/><path id="Line-34" class="cls-3" d="m366.74,121.59h-95.77c-3.84-.03-6.98,3.06-7.01,6.9.03,3.84,3.17,6.93,7.01,6.9h95.76c3.84.03,6.98-3.06,7.01-6.9-.03-3.84-3.17-6.93-7.01-6.9Z"/></g><g id="Group-18"><path id="Line-35" class="cls-3" d="m280.67,98.69l67.35,67.35c2.74,2.69,7.14,2.66,9.84-.08,2.74-2.69,2.78-7.1.08-9.84l-67.35-67.35c-2.74-2.69-7.14-2.66-9.84.08-2.74,2.69-2.78,7.1-.08,9.84Z"/><path id="Line-36" class="cls-3" d="m348.28,89.6l-67.72,67.72c-2.74,2.69-2.78,7.1-.08,9.84,2.74,2.69,7.14,2.66,9.84-.08l67.72-67.72c2.74-2.69,2.78-7.1.08-9.84-2.74-2.69-7.14-2.66-9.84.08Z"/></g><ellipse id="Oval_22_Copy_2-9" class="cls-3" cx="318.9" cy="129.02" rx="33.9" ry="33.33"/></g></g><g id="Group_55-8"><g id="sun-8"><g id="Group-19"><path id="Line-37" class="cls-1" d="m312.5,224.55v95.25c.03,3.84,3.17,6.93,7.01,6.9,3.84.03,6.98-3.06,7.01-6.9v-95.25c-.03-3.84-3.17-6.93-7.01-6.9-3.84-.03-6.98,3.06-7.01,6.9Z"/><path id="Line-38" class="cls-1" d="m366.74,265.93h-95.77c-3.84-.03-6.98,3.06-7.01,6.9.03,3.84,3.17,6.93,7.01,6.9h95.76c3.84.03,6.98-3.06,7.01-6.9-.03-3.84-3.17-6.93-7.01-6.9Z"/></g><g id="Group-20"><path id="Line-39" class="cls-1" d="m280.67,243.03l67.35,67.35c2.74,2.69,7.14,2.66,9.84-.08,2.74-2.69,2.78-7.1.08-9.84l-67.35-67.35c-2.74-2.69-7.14-2.66-9.84.08-2.74,2.69-2.78,7.1-.08,9.84Z"/><path id="Line-40" class="cls-1" d="m348.28,233.94l-67.72,67.72c-2.74,2.69-2.78,7.1-.08,9.84,2.74,2.69,7.14,2.66,9.84-.08l67.72-67.72c2.74-2.69,2.78-7.1.08-9.84-2.74-2.69-7.14-2.66-9.84.08Z"/></g><ellipse id="Oval_22_Copy_2-10" class="cls-1" cx="318.9" cy="273.36" rx="33.9" ry="33.33"/></g></g><g id="Group_55-9"><g id="sun-9"><g id="Group-21"><path id="Line-41" class="cls-4" d="m187.93,224.55v95.25c.03,3.84,3.17,6.93,7.01,6.9,3.84.03,6.98-3.06,7.01-6.9v-95.25c-.03-3.84-3.17-6.93-7.01-6.9-3.84-.03-6.98,3.06-7.01,6.9Z"/><path id="Line-42" class="cls-4" d="m242.17,265.93h-95.77c-3.84-.03-6.98,3.06-7.01,6.9.03,3.84,3.17,6.93,7.01,6.9h95.76c3.84.03,6.98-3.06,7.01-6.9-.03-3.84-3.17-6.93-7.01-6.9Z"/></g><g id="Group-22"><path id="Line-43" class="cls-4" d="m156.1,243.03l67.35,67.35c2.74,2.69,7.14,2.66,9.84-.08,2.74-2.69,2.78-7.1.08-9.84l-67.35-67.35c-2.74-2.69-7.14-2.66-9.84.08-2.74,2.69-2.78,7.1-.08,9.84Z"/><path id="Line-44" class="cls-4" d="m223.71,233.94l-67.72,67.72c-2.74,2.69-2.78,7.1-.08,9.84,2.74,2.69,7.14,2.66,9.84-.08l67.72-67.72c2.74-2.69,2.78-7.1.08-9.84-2.74-2.69-7.14-2.66-9.84.08Z"/></g><ellipse id="Oval_22_Copy_2-11" class="cls-4" cx="194.33" cy="273.36" rx="33.9" ry="33.33"/></g></g><path id="Tracé_2277-8" class="cls-3" d="m118.02,227.16c-.01,1.95-.83,3.82-2.25,5.15-2.85,2.83-5.7,5.67-8.55,8.51-15.59,15.53-31.18,31.06-46.78,46.58-.59.57-1.29,1.01-2.06,1.29-8.71,3.11-17.43,6.18-26.16,9.23-2.92,1.03-5.63-.52-5.96-3.45-.05-.61.03-1.23.24-1.81,3.15-9.03,6.33-18.06,9.53-27.07.21-.55.54-1.04.96-1.45,18.46-18.46,36.94-36.9,55.42-55.34,2.41-2.49,6.26-2.9,9.14-.97,6.16,3.95,11.38,9.2,15.3,15.38.79,1.16,1.2,2.54,1.16,3.94Z"/><path id="Tracé_2278-3" class="cls-2" d="m55.56,284.08l-15.68,5.55c-.65-.91-1.34-1.78-2.09-2.61-.83-.75-1.71-1.45-2.62-2.1l5.45-15.87c6.09,3.78,11.2,8.93,14.94,15.04Z"/><path id="Tracé_2277-9" class="cls-4" d="m118.02,98.64c-.01,1.95-.83,3.82-2.25,5.15-2.85,2.83-5.7,5.67-8.55,8.51-15.59,15.53-31.18,31.06-46.78,46.58-.59.57-1.29,1.01-2.06,1.29-8.71,3.11-17.43,6.18-26.16,9.23-2.92,1.03-5.63-.52-5.96-3.45-.05-.61.03-1.23.24-1.81,3.15-9.03,6.33-18.06,9.53-27.07.21-.55.54-1.04.96-1.45,18.46-18.46,36.94-36.9,55.42-55.34,2.41-2.49,6.26-2.9,9.14-.97,6.16,3.95,11.38,9.2,15.3,15.38.79,1.16,1.2,2.54,1.16,3.94Z"/><path id="Tracé_2278-4" class="cls-2" d="m55.56,155.56l-15.68,5.55c-.65-.91-1.34-1.78-2.09-2.61-.83-.75-1.71-1.45-2.62-2.1l5.45-15.87c6.09,3.78,11.2,8.93,14.94,15.04Z"/><path id="Tracé_2277-10" class="cls-1" d="m239.95,98.64c-.01,1.95-.83,3.82-2.25,5.15-2.85,2.83-5.7,5.67-8.55,8.51-15.59,15.53-31.18,31.06-46.78,46.58-.59.57-1.29,1.01-2.06,1.29-8.71,3.11-17.43,6.18-26.16,9.23-2.92,1.03-5.63-.52-5.96-3.45-.05-.61.03-1.23.24-1.81,3.15-9.03,6.33-18.06,9.53-27.07.21-.55.54-1.04.96-1.45,18.46-18.46,36.94-36.9,55.42-55.34,2.41-2.49,6.26-2.9,9.14-.97,6.16,3.95,11.38,9.2,15.3,15.38.79,1.16,1.2,2.54,1.16,3.94Z"/><path id="Tracé_2278-5" class="cls-2" d="m177.49,155.56l-15.68,5.55c-.65-.91-1.34-1.78-2.09-2.61-.83-.75-1.71-1.45-2.62-2.1l5.45-15.87c6.09,3.78,11.2,8.93,14.94,15.04Z"/></g></svg>