<?xml version="1.0" encoding="UTF-8"?><svg xmlns="http://www.w3.org/2000/svg" viewBox="0 0 400 400"><defs><style>.cls-1{fill:#ffd69f;}.cls-2{fill:none;stroke-miterlimit:10;}.cls-2,.cls-3,.cls-4{stroke:#4b4b4b;stroke-linecap:round;stroke-width:7px;}.cls-3{fill:#f1645c;}.cls-3,.cls-4{stroke-linejoin:round;}.cls-4{fill:#b8d542;}</style></defs><g id="back"><rect class="cls-1" x="-.46" y=".7" width="400" height="400"/></g><g id="Layer_1"><g id="Group_8_Copy_4"><g id="Group_4-2"><path id="Path_113-2" class="cls-3" d="m185.98,147.61c-21.1-8.53-49.92,7.12-62.86,30.05-16.3,28.89-.38,64.53,13.74,83.29,14.12,18.76,27.17,39.36,62.97,26.86,35.86,12.45,49.19-7.79,63.31-26.55,14.12-18.76,30.04-54.4,13.73-83.29-12.94-22.94-41.75-38.58-62.86-30.05-5.48,2.22-8.72,3.15-14.22,3.15-5.1-.01-8.34-1.25-13.82-3.47Z"/><path id="Path_114-3" class="cls-2" d="m199.68,148.71c.15-7.82,1.62-18.46-8.51-30.7"/></g><path id="Path_120-3" class="cls-4" d="m200.54,136.64c-3.2-26.72,24.05-28.29,24.05-28.29,0,0-5.76,28.9-24.05,28.29Z"/></g></g></svg>