<?xml version="1.0" encoding="UTF-8"?><svg xmlns="http://www.w3.org/2000/svg" viewBox="0 0 400 400"><defs><style>.cls-1,.cls-2{fill:#bd8854;}.cls-3{fill:#83b7b3;}.cls-4{fill:#4b4b4b;}.cls-5{stroke-miterlimit:10;}.cls-5,.cls-2,.cls-6,.cls-7{stroke:#4b4b4b;stroke-linecap:round;stroke-width:7px;}.cls-5,.cls-7{fill:none;}.cls-2,.cls-6,.cls-7{stroke-linejoin:round;}.cls-6{fill:#00a459;}</style></defs><g id="back"><rect class="cls-3" y="0" width="400" height="400"/></g><g id="Layer_1"><g><g id="_31_turtle"><path id="Tracé_2584" class="cls-1" d="m97.47,215.76s24.36,25.6,89.61,19.9c65.25-5.71,56.28-13.23,56.28-13.23l27.1-22.62-4.01-7.42-166.85,16.68-2.13,6.69Z"/><g id="Groupe_2506"><g id="Layer_2"><path id="Tracé_2579" class="cls-2" d="m269.25,197.53s-25.86-89.07-123.94-53.63c0,0-29.76,12.23-47.38,71.51"/><path id="Tracé_2580" class="cls-6" d="m63.88,223.33s30.47-6.22,32.54-7.34c2.07-1.12,21.69,21.69,73.85,20.1,52.16-1.6,69.44-10.12,69.44-10.12,0,0,11.4-8.94,21-17.8,9.6-8.86,25.68-25.52,44.34-28.39,18.66-2.87,36.21,19.94,29.67,31.42,0,0-7.25,19.4-25.82,9.62,0,0-7.25-5.68-17.03,2.99-4.18,3.89-8.99,7.04-14.22,9.33,0,0,16.69,11.49,4.05,24-12.64,12.51-26.82-2.68-26.82-2.68,0,0-4.21,16.97-23.61,6.64-7.46-2.82-13.97-7.71-18.76-14.09,0,0-51.46,2.13-62.12-.67,0,0-13.85,18.53-29.86,14.4,0,0-4.66-.93-8.55-9.47,0,0-7.92,11.04-18.42,9.29-10.49-1.75-16.82-11.79-13.52-18.84,2.16-4.86,5.98-8.79,10.76-11.1,0,0-24.31-.49-26.94-7.31Z"/><path id="Tracé_2581" class="cls-7" d="m223.97,145.28l.34,18.61-36.78,24.05-37.72-20.98v-23.66"/><circle id="Ellipse_37" class="cls-4" cx="319.23" cy="203.31" r="3.37"/></g><g id="Layer_3"><line id="Ligne_3" class="cls-5" x1="187.53" y1="187.94" x2="187.38" y2="233.43"/><path id="Tracé_2582" class="cls-5" d="m149.81,166.95s-32.97,46.88-33.48,58.81"/><path id="Tracé_2583" class="cls-5" d="m224.31,163.89s28.54,30.03,34.64,43.39"/></g></g></g><circle id="Ellipse_792" class="cls-4" cx="319.31" cy="202.57" r="4.16"/></g></g></svg>