<?xml version="1.0" encoding="utf-8"?>
<!-- Generator: Adobe Illustrator 27.0.0, SVG Export Plug-In . SVG Version: 6.00 Build 0)  -->
<svg version="1.1" id="Groupe_6379" xmlns="http://www.w3.org/2000/svg" xmlns:xlink="http://www.w3.org/1999/xlink" x="0px"
	 y="0px" viewBox="0 0 100 100" style="enable-background:new 0 0 100 100;" xml:space="preserve">
<style type="text/css">
	.st0{fill:#C579B1;}
	.st1{fill:none;stroke:#6DC6B3;stroke-width:3.5325;stroke-miterlimit:10;}
	.st2{fill:none;stroke:#6DC6B3;stroke-width:3.5325;stroke-linecap:round;stroke-miterlimit:10;}
</style>
<g>
	<path id="Path_Copy_5_00000127734993639049827020000006983688921756392354_" class="st0" d="M58,94.8c-0.4-1.5,0.5-2.9,2-3.3
		s2.9,0.5,3.3,2c0.4,1.5-0.5,2.9-2,3.3c-0.2,0.1-0.4,0.1-0.6,0.1C59.4,96.9,58.3,96,58,94.8z M38.7,96.8c-1.5-0.4-2.3-1.8-2-3.3
		s1.8-2.3,3.3-2c1.5,0.4,2.3,1.8,2,3.3c-0.3,1.2-1.4,2.1-2.6,2.1C39.2,96.9,38.9,96.9,38.7,96.8z M77.4,86c-1-1.1-0.9-2.8,0.2-3.8
		s2.8-0.9,3.8,0.2s0.9,2.8-0.2,3.8c-0.5,0.4-1.1,0.7-1.8,0.7C78.7,86.9,77.9,86.6,77.4,86z M18.6,86.2c-1.1-1-1.2-2.7-0.2-3.8
		c1-1.1,2.7-1.2,3.8-0.2c1.1,1,1.2,2.7,0.2,3.8c-0.5,0.6-1.3,0.9-2,0.9C19.9,86.9,19.1,86.7,18.6,86.2L18.6,86.2z M90.5,69.1
		c-1.4-0.5-2.1-2.1-1.6-3.5s2.1-2.1,3.5-1.6s2.1,2.1,1.6,3.5c-0.4,1-1.4,1.7-2.5,1.7C91.2,69.2,90.8,69.2,90.5,69.1L90.5,69.1z
		 M5.9,67.5c-0.5-1.4,0.1-3,1.5-3.5s3,0.1,3.5,1.6c0.5,1.4-0.1,3-1.5,3.5c-0.3,0.1-0.6,0.2-1,0.2C7.3,69.2,6.3,68.6,5.9,67.5z
		 M91.3,45.6c-0.2-1.5,0.9-2.9,2.4-3.1c1.5-0.2,2.9,0.9,3.1,2.4s-0.9,2.9-2.4,3.1l0,0c-0.1,0-0.2,0-0.3,0C92.8,48,91.5,47,91.3,45.6
		z M5.6,48c-1.5-0.2-2.6-1.5-2.4-3c0.2-1.5,1.5-2.6,3-2.4c1.5,0.2,2.6,1.5,2.4,3C8.4,47,7.2,48,5.9,48C5.8,48,5.7,48,5.6,48z
		 M84.3,26.8c-0.9-1.2-0.6-2.9,0.7-3.8c1.2-0.9,2.9-0.6,3.8,0.7c0.9,1.2,0.6,2.9-0.7,3.8c-0.5,0.3-1,0.5-1.6,0.5
		C85.7,28,84.8,27.5,84.3,26.8L84.3,26.8z M11.9,27.5c-1.2-0.9-1.5-2.6-0.7-3.8s2.6-1.5,3.8-0.7c1.2,0.9,1.5,2.6,0.7,3.8
		c-0.5,0.7-1.3,1.2-2.2,1.2C12.9,28,12.2,27.8,11.9,27.5z M69.3,13.4c-1.3-0.7-1.8-2.3-1.1-3.7c0.7-1.3,2.3-1.8,3.7-1.1
		c1.3,0.7,1.8,2.3,1.1,3.7c-0.5,0.9-1.4,1.4-2.4,1.4C70.2,13.8,69.8,13.7,69.3,13.4z M27,12.3c-0.7-1.3-0.2-3,1.1-3.7
		c1.3-0.7,3-0.2,3.7,1.1c0.7,1.3,0.2,3-1.1,3.7c-0.4,0.2-0.8,0.3-1.3,0.3C28.4,13.8,27.4,13.2,27,12.3z M47.3,5.9
		c0-1.5,1.2-2.7,2.7-2.7s2.7,1.2,2.7,2.7S51.5,8.6,50,8.6S47.3,7.4,47.3,5.9L47.3,5.9L47.3,5.9z"/>
	<ellipse id="Oval_16-2_00000111154035425610384040000014944164952703752869_" cx="50" cy="50.1" rx="8.6" ry="8.6"/>
	<g id="Group_3-2_00000156581438868295585130000010613666143413374593_">
		<path id="Oval_15-6_00000066490096249639520710000009196052893213084863_" class="st1" d="M50,66.6c9-0.1,16.3-7.5,16.3-16.6
			c0-3.2-1-6.4-2.8-9c-5-7.5-15.2-9.6-22.7-4.6c-4.6,3.1-7.3,8.2-7.3,13.8C33.6,59.1,41,66.5,50,66.6z"/>
	</g>
	<path id="Path_Copy_6_00000080165191955819444640000005222332827996176785_" class="st0" d="M58.8,73.8c-0.6-1.3-0.1-2.9,1.2-3.5
		s2.8-0.1,3.5,1.2c0.6,1.3,0.1,2.9-1.2,3.5c-0.2,0.1-0.4,0.2-0.6,0.2C60.5,75.5,59.3,74.9,58.8,73.8z M49.2,77.8
		c-1.4-0.1-2.6-1.3-2.5-2.7c0.1-1.4,1.3-2.6,2.7-2.5s2.6,1.3,2.5,2.7c0,1.2-0.9,2.2-2.1,2.5C49.7,77.8,49.5,77.8,49.2,77.8
		L49.2,77.8z M68.8,67c-1.2-0.9-1.4-2.5-0.6-3.7s2.5-1.4,3.6-0.6c1.2,0.9,1.4,2.5,0.6,3.7c-0.4,0.5-0.9,0.9-1.6,1
		C70.2,67.6,69.4,67.4,68.8,67L68.8,67z M36.4,74.1c-1.2-0.7-1.7-2.3-1-3.6c0.7-1.3,2.3-1.7,3.6-1c1.2,0.7,1.7,2.3,1,3.6
		c-0.4,0.6-1,1.1-1.7,1.3C37.6,74.6,36.9,74.5,36.4,74.1L36.4,74.1z M74.7,56.2c-1.4-0.2-2.4-1.6-2.2-3c0.2-1.4,1.6-2.4,3-2.2
		s2.4,1.6,2.2,3c-0.2,1.1-1,1.9-2,2.1C75.2,56.3,74.9,56.3,74.7,56.2z M26.6,64.9c-0.8-1.2-0.5-2.8,0.8-3.6s2.8-0.5,3.6,0.8
		c0.8,1.2,0.5,2.8-0.8,3.6c-0.3,0.2-0.6,0.3-0.9,0.4C28.4,66.2,27.2,65.8,26.6,64.9z M71.4,42.4c-0.5-1.4,0.2-2.9,1.6-3.3
		c1.4-0.5,2.9,0.2,3.3,1.6c0.5,1.4-0.2,2.9-1.6,3.3l0,0c-0.1,0-0.2,0.1-0.3,0.1C73.2,44.4,71.8,43.7,71.4,42.4z M25.1,54.6
		c-1.4,0.1-2.7-0.9-2.8-2.4c-0.1-1.4,0.9-2.7,2.4-2.8c1.4-0.1,2.7,0.9,2.8,2.4c0.1,1.3-0.8,2.5-2.1,2.8
		C25.4,54.6,25.2,54.6,25.1,54.6z M65.5,33.2c-1.1-1-1.1-2.6-0.1-3.7s2.6-1.1,3.7-0.1s1.1,2.6,0.1,3.7c-0.4,0.4-0.8,0.7-1.4,0.8
		C67,34.1,66.2,33.8,65.5,33.2z M25.8,42.4c-1.3-0.6-1.9-2.1-1.4-3.4s2.1-1.9,3.4-1.4c1.3,0.6,1.9,2.1,1.4,3.4
		c-0.3,0.8-1,1.4-1.9,1.5C26.8,42.6,26.2,42.6,25.8,42.4z M56.2,27.8c-1.4-0.4-2.2-1.8-1.8-3.2c0.4-1.4,1.8-2.2,3.2-1.8
		c1.4,0.4,2.2,1.8,1.8,3.2c-0.3,0.9-1,1.6-2,1.8C57,28,56.6,27.9,56.2,27.8z M32,31.9c-0.9-1.1-0.8-2.8,0.3-3.7
		c1.1-0.9,2.7-0.8,3.7,0.3c0.9,1.1,0.8,2.7-0.3,3.7c-0.3,0.3-0.7,0.5-1.1,0.5C33.6,33,32.6,32.6,32,31.9z M42.3,25.4
		c-0.3-1.4,0.6-2.8,2-3.1s2.8,0.6,3.1,2s-0.6,2.8-2,3.1C44,27.8,42.6,26.9,42.3,25.4L42.3,25.4z"/>
	<g>
		<path class="st2" d="M17,38.2c-1.6,4.1-2.5,8.5-2.4,13.1C14.6,71,30.5,87,50.1,87s35.5-16,35.5-35.7c0-10.7-4.8-20.9-13.1-27.7
			c-10.2-8.4-24.1-10.4-36.2-5.2"/>
		<line class="st2" x1="36.4" y1="18.1" x2="38.5" y2="13.1"/>
		<line class="st2" x1="41" y1="21.1" x2="36.3" y2="18.2"/>
	</g>
</g>
</svg>
