<?xml version="1.0" encoding="UTF-8"?><svg id="Layer_2" xmlns="http://www.w3.org/2000/svg" xmlns:xlink="http://www.w3.org/1999/xlink" viewBox="0 0 25.34 11.18"><defs><style>.cls-1{fill:none;}.cls-2{clip-path:url(#clippath);}.cls-3{fill:#666767;}.cls-4{fill:#d32027;}</style><clipPath id="clippath"><rect class="cls-1" width="25.34" height="11.18"/></clipPath></defs><g id="Layer_1-2"><g id="Groupe_7119"><g class="cls-2"><g id="Groupe_7106"><path id="Tracé_4244" class="cls-3" d="m4.49,11.18h14.17c.74.02,1.48-.05,2.2-.21.5-.12.96-.38,1.33-.74.37-.36.62-.82.74-1.32.15-.72.22-1.46.2-2.2v-2.22c.02-.74-.05-1.48-.2-2.2-.12-.51-.38-.97-.74-1.34-.37-.36-.83-.61-1.33-.74-.72-.16-1.45-.23-2.19-.21H4.37c-.7-.02-1.41.06-2.09.22-.5.13-.95.39-1.32.74-.35.37-.61.83-.74,1.33-.16.68-.24,1.38-.22,2.08v2.33c-.02.74.05,1.48.21,2.2.12.5.38.95.74,1.32.37.36.83.62,1.33.74.72.16,1.46.23,2.2.21m-.24-.52c-.58.01-1.17-.06-1.73-.2-.44-.11-.84-.33-1.16-.64-.3-.32-.52-.71-.62-1.14-.14-.57-.21-1.15-.2-1.73v-2.58c-.01-.61.06-1.22.2-1.82.1-.44.31-.84.61-1.17.33-.32.74-.54,1.19-.64.6-.14,1.21-.2,1.82-.19h14.54c.58-.01,1.16.06,1.73.2.43.11.83.33,1.14.64.31.32.53.71.64,1.14.14.56.21,1.14.2,1.73v2.7c.01.58-.05,1.17-.2,1.73-.11.43-.33.82-.63,1.14-.31.32-.71.54-1.14.65-.56.14-1.15.21-1.73.2H4.25Zm19.64-3.04c.24-.02.46-.12.64-.27.53-.43.82-1.07.81-1.75.01-.68-.28-1.32-.81-1.75-.18-.16-.41-.25-.64-.27v4.05Z"/><path id="Tracé_4245" class="cls-4" d="m4.22,9.91h.23c.83.1,1.66-.12,2.33-.61.48-.68.7-1.51.61-2.34v-2.75c.01-.49-.04-.98-.15-1.45-.07-.33-.23-.63-.45-.88-.68-.48-1.52-.7-2.35-.61h-.12c-.53-.01-1.05.04-1.57.15-.33.07-.63.22-.88.46-.23.26-.39.57-.46.91-.11.51-.16,1.03-.15,1.55v2.63c-.01.49.04.98.15,1.47.07.33.23.63.46.87.68.48,1.51.7,2.33.61"/></g></g></g></g></svg>