<?xml version="1.0" encoding="UTF-8"?><svg id="Layer_1" xmlns="http://www.w3.org/2000/svg" viewBox="0 0 400 400"><defs><style>.cls-1{fill:#ed2024;}.cls-2,.cls-3{fill:#fff;}.cls-4{fill:#fee800;}.cls-5{fill:#9051a0;}.cls-6{fill:#dea68a;}.cls-7{fill:#4372b8;}.cls-8{fill:#54b948;}.cls-3{stroke-miterlimit:10;}.cls-3,.cls-9,.cls-10{stroke:#3a3a3a;}.cls-9{stroke-linecap:round;}.cls-9,.cls-10{fill:none;stroke-width:6.18px;}</style></defs><g id="Groupe_7638"><g id="Groupe_7336"><g id="Rectangle_1897"><rect class="cls-8" x="45.61" y="125.12" width="55.58" height="154.39" rx="12.35" ry="12.35"/><rect class="cls-10" x="48.7" y="128.21" width="49.41" height="148.22" rx="9.26" ry="9.26"/></g><ellipse id="Ellipse_915" class="cls-6" cx="73.79" cy="167.71" rx="6.73" ry="6.58"/><circle id="Ellipse_914" class="cls-6" cx="73.79" cy="234.25" r="6.73"/></g><g id="Groupe_7337"><g id="Rectangle_1897-2"><rect class="cls-5" x="107.36" y="134.38" width="55.58" height="135.87" rx="12.35" ry="12.35"/><rect class="cls-10" x="110.45" y="137.47" width="49.41" height="129.69" rx="9.26" ry="9.26"/></g><ellipse id="Ellipse_915-2" class="cls-6" cx="135.07" cy="172.67" rx="6.73" ry="6.58"/><circle id="Ellipse_914-2" class="cls-6" cx="135.07" cy="229.84" r="6.73"/></g><g id="Groupe_7338"><g id="Rectangle_1897-3"><rect class="cls-1" x="169.12" y="143.65" width="55.58" height="114.25" rx="12.35" ry="12.35"/><rect class="cls-10" x="172.21" y="146.73" width="49.41" height="108.08" rx="9.26" ry="9.26"/></g><ellipse id="Ellipse_915-3" class="cls-6" cx="196.34" cy="177.39" rx="6.73" ry="6.58"/><circle id="Ellipse_914-3" class="cls-6" cx="196.34" cy="225.35" r="6.73"/></g><g id="Groupe_7339"><g id="Rectangle_1897-4"><rect class="cls-4" x="230.88" y="156" width="58.67" height="92.64" rx="12.35" ry="12.35"/><rect class="cls-10" x="233.97" y="159.09" width="52.49" height="86.46" rx="9.26" ry="9.26"/></g><ellipse id="Ellipse_915-4" class="cls-6" cx="260.89" cy="182.03" rx="6.73" ry="6.58"/><circle id="Ellipse_914-4" class="cls-6" cx="260.89" cy="220.62" r="6.73"/></g><g id="Groupe_7340"><g id="Rectangle_1897-5"><rect class="cls-7" x="298.81" y="165.26" width="55.58" height="74.11" rx="12.35" ry="12.35"/><rect class="cls-10" x="301.9" y="168.35" width="49.41" height="67.93" rx="9.26" ry="9.26"/></g><ellipse id="Ellipse_915-5" class="cls-6" cx="325.43" cy="186.99" rx="6.73" ry="6.58"/><circle id="Ellipse_914-5" class="cls-6" cx="325.43" cy="216.21" r="6.73"/></g></g><g id="Groupe_7640"><line id="Ligne_29" class="cls-9" x1="149.82" y1="361.34" x2="230.11" y2="281.06"/><g id="Ellipse_928"><circle class="cls-3" cx="236.28" cy="274.88" r="13.9"/><circle class="cls-10" cx="236.28" cy="274.88" r="10.81"/></g></g><g id="Groupe_7641"><line id="Ligne_29-2" class="cls-9" x1="149.82" y1="38.66" x2="230.11" y2="118.94"/><g id="Ellipse_928-2"><circle class="cls-2" cx="236.28" cy="125.12" r="13.9"/><circle class="cls-10" cx="236.28" cy="125.12" r="10.81"/></g></g></svg>