<?xml version="1.0" encoding="UTF-8"?>
<svg width="400px" height="400px" viewBox="0 0 400 400" version="1.1" xmlns="http://www.w3.org/2000/svg" xmlns:xlink="http://www.w3.org/1999/xlink">
    <title>avatars_pictograms-animals-forest-hedgehog_brown-0062</title>
    <g id="Page-1" stroke="none" stroke-width="1" fill="none" fill-rule="evenodd">
        <g id="avatars_pictograms-animals-forest-hedgehog_brown-0062" fill-rule="nonzero">
            <g id="back" fill="#83B7B3">
                <rect id="Rectangle" x="0" y="0" width="400" height="400"></rect>
            </g>
            <g id="Group" transform="translate(83.000000, 120.000000)">
                <g>
                    <g transform="translate(13.000000, 52.000000)">
                        <path d="M163.03,47.05 C166.4,47.05 169.12,49.78 169.12,53.15 C169.12,56.52 166.39,59.24 163.02,59.24 C159.66,59.24 156.93,56.51 156.93,53.14 C156.93,49.77 159.66,47.04 163.03,47.04 L163.03,47.04 L163.03,47.05 Z" id="Tracé_3778" fill="#4B4B4B"></path>
                        <path d="M124.57,0.33 L18.53,37.58 L1.94,87.49 C2.38,88.55 3.22,89.39 4.28,89.82 C4.64,89.95 5.01,90.04 5.39,90.07 L5.44,90.09 L23.82,90.09 C28.75,92.7 35.99,94.69 46.52,95.39 C47.18,95.43 47.63,96.05 47.48,96.69 C47.27,97.55 47.08,98.42 46.91,99.3 L46.91,106.72 C46.91,108.68 48.23,110.28 49.87,110.28 L77.91,110.28 C81.32,110.28 83.56,106.75 82.15,103.65 C80.85,100.82 79.12,98.35 77.06,96.35 C76.72,96.02 76.95,95.44 77.42,95.42 C84.02,95.11 104.93,95.18 121.99,95.3 C121.96,95.59 121.94,95.89 121.94,96.2 L121.94,105.01 C121.94,106.97 123.26,108.57 124.9,108.57 L153.71,108.57 L153.71,108.45 C156.66,108.45 158.66,105.44 157.51,102.71 C156.58,100.49 155.38,98.48 153.98,96.73 C153.31,95.9 153.8,94.65 154.85,94.46 C176.41,90.46 196.35,76.77 211.35,60.72 C201.18,55.89 192.06,49.11 184.49,40.78 C179.76,35.52 175.91,29.54 173.08,23.08 C172.76,22.36 173.04,21.51 173.72,21.1 L124.57,0.33 Z" id="Path" stroke="#4B4B4B" stroke-width="7" fill="#EACAA2" stroke-linecap="round" stroke-linejoin="round"></path>
                        <path d="M1.18,80.24 C1.15,80.35 1.13,80.47 1.11,80.59 C1.13,80.47 1.15,80.36 1.18,80.24 Z" id="Tracé_3791" fill="#010101"></path>
                        <path d="M210.88,52.95 C215.75,52.95 219.69,56.9 219.69,61.77 C219.69,66.64 215.74,70.58 210.87,70.58 C206,70.58 202.06,66.63 202.06,61.76 L202.06,61.76 C202.06,56.9 206,52.95 210.87,52.95 L210.87,52.95 L210.88,52.95 Z" id="Tracé_3807" fill="#4B4B4B"></path>
                    </g>
                    <circle id="Oval_12" fill="#4B4B4B" cx="172.62" cy="96.93" r="2.87"></circle>
                    <path d="M187.25,29.75 C185.04,24.1 182.07,28.83 180.91,30.72 C177.72,35.9 174.21,40.25 170.41,45 C168.58,47.29 165.9,50.54 162.75,49.18 C160.66,48.27 159.96,49.18 157.18,35.94 C154.95,25.33 153.7,15.74 145.48,4.33 C144.85,3.45 143.47,3.69 143.07,4.7 C140.77,10.44 134.72,25.49 134.2,26.06 C130.56,30.04 125.35,27.51 122.7,24.06 C114.99,14.04 107.58,3.32 94.62,0.07 C93.94,-0.1 93.29,0.46 93.38,1.15 C94.32,8.81 94.49,18.89 95.28,28.3 C95.4,29.75 94.75,31.16 93.53,31.95 C92.14,32.85 90.55,33.28 88.65,32.9 C85.58,32.27 83.09,29.44 80.6,27.54 C69.29,18.9 56,11.59 40.22,12.83 C39.39,12.89 38.85,13.73 39.11,14.52 C39.91,16.92 42.45,19.87 43.58,22.08 C47.82,30.38 48.9,36.1 46.61,38.06 C44.34,40.01 41.01,39.15 38.02,39.1 C26.57,38.93 14.41,42.83 4.75,49.04 C4.16,49.42 4.16,50.28 4.75,50.66 C8.05,52.8 11.47,54.46 15.06,56.02 C17.25,56.98 18.8,58.14 20.13,60.17 C21.92,62.89 21.89,63.78 19.95,66.36 C18.09,68.83 6.02,80.53 2.86,88.13 C1.66,90.13 -0.15,94.36 1.58,95.94 C2.48,96.76 4.53,96.14 5.74,96.01 C8.27,95.73 10.68,94.77 13.2,94.42 C16.68,93.95 20.83,94.98 21.36,99.48 C21.53,100.95 21.17,102.44 20.44,103.72 C12.08,118.37 10.49,128.31 14.49,139.37 C14.94,140.63 16.15,141.45 17.49,141.43 C24.05,141.33 35.34,142.12 36.53,141.48 C38.34,140.51 41.68,136.76 41.17,134.78 C36.68,117.46 54.09,84.72 95.89,93.08 C135.6,101.02 139.77,77.76 164.88,70.87 C173.7,68.45 178.78,75.67 185.05,72.19 C188.01,70.55 189.23,68.01 189.93,60.35 C190.85,50.26 190.95,39.21 187.26,29.78 L187.25,29.75 Z" id="Path" stroke="#4B4B4B" stroke-width="7" fill="#A96F3D"></path>
                </g>
                <circle id="Ellipse_792" fill="#4B4B4B" cx="172.67" cy="96.7" r="4.16"></circle>
            </g>
        </g>
    </g>
</svg>