<?xml version="1.0" encoding="UTF-8"?><svg xmlns="http://www.w3.org/2000/svg" viewBox="0 0 400 400"><defs><style>.cls-1{fill:#ffd69f;}.cls-2{fill:#e2e046;}.cls-3{fill:#a7c850;}.cls-3,.cls-4{stroke:#4b4b4b;stroke-miterlimit:10;stroke-width:7px;}.cls-4{fill:#ab752a;}</style></defs><g id="back"><rect class="cls-1" y="0" width="400" height="400"/></g><g id="Layer_1"><g><path id="Combined_Shape" class="cls-3" d="m199.71,317.56h-.58c-45.14-.47-81.59-36.67-81.59-81.25,0-17.33,7.25-54.96,17.1-73.93,25.32-60.34,30.6-79.94,64.94-79.94s42.62,31.73,63.31,82.65c9.9,19.72,19.59,55.13,19.59,71.22,0,44.88-36.92,81.25-82.47,81.25h-.29Z"/><path id="Combined_Shape-2" class="cls-2" d="m200.74,301.07h-.48c-37.28-.39-67.39-30.29-67.39-67.12,0-14.31,5.99-45.39,14.12-61.06,20.91-49.84,25.28-66.03,53.64-66.03s35.2,26.21,52.29,68.27c8.18,16.29,16.18,45.54,16.18,58.82,0,37.07-30.5,67.12-68.12,67.12h-.24Z"/><path id="Oval_2" class="cls-4" d="m201.22,275.89c19.63.05,35.59-15.82,35.64-35.45,0-19.58-17.81-61.55-35.64-61.55s-35.64,41.97-35.64,61.55c.05,19.63,16,35.5,35.64,35.45Z"/></g></g></svg>