<?xml version="1.0" encoding="UTF-8"?><svg id="Layer_1" xmlns="http://www.w3.org/2000/svg" viewBox="0 0 143.09 92.84"><defs><style>.cls-1,.cls-2,.cls-3,.cls-4,.cls-5,.cls-6,.cls-7,.cls-8,.cls-9{fill:none;}.cls-10,.cls-11,.cls-12{fill:#f18f21;}.cls-10,.cls-2,.cls-13,.cls-4,.cls-12,.cls-5,.cls-6{stroke-linecap:round;}.cls-10,.cls-13,.cls-12,.cls-5{stroke-linejoin:round;}.cls-10,.cls-4,.cls-12,.cls-8,.cls-9{stroke:#f18f21;}.cls-14,.cls-15,.cls-13,.cls-16{fill:#fff;}.cls-17{fill:#08579b;}.cls-2,.cls-3,.cls-15,.cls-13,.cls-5,.cls-6,.cls-7,.cls-8,.cls-16{stroke-width:2px;}.cls-2,.cls-3,.cls-15,.cls-13,.cls-5,.cls-6,.cls-7,.cls-16{stroke:#08579b;}.cls-15,.cls-4,.cls-6,.cls-7,.cls-8{stroke-miterlimit:10;}.cls-12{stroke-width:1px;}.cls-9{stroke-miterlimit:10;stroke-width:2px;}</style></defs><g id="Groupe_7016"><g id="Groupe_7008"><path id="Tracé_4218" class="cls-13" d="m46.94,84.44v-14.21c0-10.75-8.34-19.54-18.53-19.54s-18.53,8.79-18.53,19.54v14.21h37.07Z"/><g id="Groupe_7005"><g id="Groupe_1353"><circle id="Oval_51" class="cls-15" cx="7.61" cy="36.96" r="2.52"/><circle id="Oval_51_Copy" class="cls-15" cx="49.2" cy="36.96" r="2.52"/><circle id="Oval_10" class="cls-15" cx="28.41" cy="35.7" r="18.27"/><ellipse id="Oval_7_Copy_4" class="cls-17" cx="34.72" cy="37.48" rx="1.78" ry="1.78"/><ellipse id="Oval_7_Copy_5" class="cls-17" cx="22.4" cy="37.48" rx="1.78" ry="1.78"/><path id="Path_6" class="cls-5" d="m26.6,18.68s3.21,13.08,19.11,15.02"/><path id="Path_9" class="cls-6" d="m26.57,18.68c4.03,7.07-4.66,13.73-15.82,15.96"/></g></g></g><g id="Groupe_6994"><g id="Groupe_1132"><g id="Groupe_1129"><g id="Ellipse_464"><circle class="cls-14" cx="81.4" cy="25" r="4.11"/><circle class="cls-3" cx="81.4" cy="25" r="3.11"/></g><g id="Ellipse_465"><circle class="cls-14" cx="132.9" cy="25" r="4.11"/><circle class="cls-3" cx="132.9" cy="25" r="3.11"/></g><g id="Tracé_4209"><path class="cls-14" d="m107.15,46.77c-3.09,0-6.09-.6-8.91-1.8-2.72-1.15-5.17-2.8-7.27-4.9-2.1-2.1-3.75-4.55-4.9-7.27-1.19-2.82-1.8-5.82-1.8-8.91s.6-6.09,1.8-8.91c1.15-2.72,2.8-5.17,4.9-7.27,2.1-2.1,4.55-3.75,7.27-4.9,2.82-1.19,5.82-1.8,8.91-1.8s6.09.6,8.91,1.8c2.72,1.15,5.17,2.8,7.27,4.9,2.1,2.1,3.75,4.55,4.9,7.27,1.19,2.82,1.8,5.82,1.8,8.91s-.6,6.09-1.8,8.91c-1.15,2.72-2.8,5.17-4.9,7.27-2.1,2.1-4.55,3.75-7.27,4.9-2.82,1.19-5.82,1.8-8.91,1.8Z"/><path class="cls-17" d="m107.15,2c-2.96,0-5.82.58-8.52,1.72-2.61,1.1-4.95,2.68-6.96,4.69-2.01,2.01-3.59,4.35-4.69,6.96-1.14,2.7-1.72,5.56-1.72,8.52s.58,5.82,1.72,8.52c1.1,2.61,2.68,4.95,4.69,6.96,2.01,2.01,4.35,3.59,6.96,4.69,2.7,1.14,5.56,1.72,8.52,1.72s5.82-.58,8.52-1.72c2.61-1.1,4.95-2.68,6.96-4.69,2.01-2.01,3.59-4.35,4.69-6.96,1.14-2.7,1.72-5.56,1.72-8.52s-.58-5.82-1.72-8.52c-1.1-2.61-2.68-4.95-4.69-6.96-2.01-2.01-4.35-3.59-6.96-4.69-2.7-1.14-5.56-1.72-8.52-1.72m0-2c13.19,0,23.88,10.69,23.88,23.88s-10.69,23.88-23.88,23.88-23.88-10.69-23.88-23.88S93.96,0,107.15,0Z"/></g><path id="Tracé_1793" class="cls-5" d="m88.83,19.86s8.29-8.74,15.75-4.58,7.65-2.31,7.65-2.31c0,0,1.68,5.54,7.01,2.31s9.57,2.03,9.57,2.03"/><g id="Ellipse_888"><circle class="cls-17" cx="115.23" cy="25" r="2.76"/><circle class="cls-5" cx="115.23" cy="25" r="1.76"/></g><g id="Ellipse_889"><circle class="cls-17" cx="100.42" cy="25" r="2.76"/><circle class="cls-5" cx="100.42" cy="25" r="1.76"/></g></g><path id="Tracé_1797" class="cls-13" d="m131.47,84.44v-15.97c0-11.94-10.94-21.72-24.32-21.72s-24.33,9.77-24.33,21.72v15.8l48.65.17Z"/></g></g><circle id="Ellipse_890" class="cls-7" cx="115.35" cy="25.02" r="5.32"/><circle id="Ellipse_891" class="cls-7" cx="99.91" cy="25.05" r="5.32"/><line id="Ligne_2" class="cls-7" x1="120.68" y1="24.75" x2="130.8" y2="21.5"/><path id="Tracé_4210" class="cls-7" d="m105.16,25.48c.73-1.35,2.43-1.86,3.78-1.12.45.24.83.61,1.08,1.05"/><path id="Tracé_4211" class="cls-3" d="m94.33,24.97l-10.53-2.73"/><g id="activités"><g id="Group_11"><g id="Group_9"><g id="Rectangle_42_Copy_2"><rect class="cls-11" x="110.39" y="71.45" width="15.17" height="15.17" rx="3" ry="3" transform="translate(-16.14 125.68) rotate(-53)"/><rect class="cls-9" x="111.39" y="72.45" width="13.17" height="13.17" rx="2" ry="2" transform="translate(-16.14 125.68) rotate(-53)"/></g></g></g><g id="Group_12"><g id="Rectangle_42"><rect class="cls-11" x="123.83" y="59.84" width="15.25" height="15.25" rx="3" ry="3"/><rect class="cls-8" x="124.83" y="60.84" width="13.25" height="13.25" rx="2" ry="2"/></g></g><g id="Group_12-2"><g id="Rectangle_42-2"><path class="cls-11" d="m140.09,89.1h-9.25c-1.1,0-2-.9-2-2v-9.25c0-1.1.9-2,2-2h9.25c1.1,0,2,.9,2,2v9.25c0,1.1-.9,2-2,2Z"/><path class="cls-11" d="m130.83,76.84c-.55,0-1,.45-1,1v9.25c0,.55.45,1,1,1h9.25c.55,0,1-.45,1-1v-9.25c0-.55-.45-1-1-1h-9.25m0-2h9.25c1.66,0,3,1.34,3,3v9.25c0,1.66-1.34,3-3,3h-9.25c-1.66,0-3-1.34-3-3v-9.25c0-1.66,1.34-3,3-3Z"/></g></g></g><g id="Groupe_6992"><g id="Groupe_3020"><g id="Groupe_3019"><g id="Ellipse_843"><circle class="cls-14" cx="46.71" cy="36.7" r="4.14"/><circle class="cls-5" cx="46.71" cy="36.7" r="3.14"/></g><g id="Ellipse_844"><circle class="cls-14" cx="90.89" cy="36.7" r="4.14"/><circle class="cls-5" cx="90.89" cy="36.7" r="3.14"/></g><circle id="Oval_14" class="cls-13" cx="68.67" cy="10.97" r="7.95"/><g id="Ellipse_845"><ellipse class="cls-14" cx="68.8" cy="35.32" rx="20.71" ry="22.09"/><ellipse class="cls-5" cx="68.8" cy="35.32" rx="19.71" ry="21.09"/></g><path id="Tracé_3114" class="cls-2" d="m50.93,26.9s16.83,9.53,34.61-.69"/><g id="Ellipse_846"><circle class="cls-17" cx="75.7" cy="38.08" r="2.76"/><circle class="cls-5" cx="75.7" cy="38.08" r="1.76"/></g><g id="Ellipse_847"><circle class="cls-17" cx="61.9" cy="38.08" r="2.76"/><circle class="cls-5" cx="61.9" cy="38.08" r="1.76"/></g><path id="Tracé_3115" class="cls-13" d="m89.53,91.84v-14.69c-.13-11.24-9.31-20.26-20.55-20.19-11.24-.06-20.42,8.96-20.54,20.19v14.69h41.09Z"/><path id="Tracé_3116" class="cls-5" d="m58.88,67.34c.02-5.73,4.66-10.37,10.38-10.38,5.73.02,10.37,4.65,10.39,10.38v7.55"/><path id="Tracé_3117" class="cls-5" d="m53,76.81v-3.97c0-3.01,2.44-5.45,5.45-5.46,3.01,0,5.44,2.44,5.45,5.45v4.01"/><g id="Tracé_3118"><path class="cls-14" d="m64.09,80.75c-.89,0-1.61-.72-1.61-1.61s.72-1.61,1.61-1.61,1.61.72,1.61,1.61-.72,1.61-1.61,1.61Z"/><path class="cls-17" d="m64.09,78.53c-.34,0-.61.27-.61.61s.27.61.61.61.61-.27.61-.61-.27-.61-.61-.61m0-2c1.44,0,2.61,1.17,2.61,2.61s-1.17,2.61-2.61,2.61-2.61-1.17-2.61-2.61,1.17-2.61,2.61-2.61Z"/></g><g id="Tracé_3119"><path class="cls-1" d="m79.28,74.23c2.2,0,3.99,1.79,3.99,3.99s-1.79,3.99-3.99,3.99-3.99-1.79-3.99-3.99h0c0-2.2,1.79-3.99,3.99-3.99Z"/><path class="cls-17" d="m79.28,76.23c-1.1,0-1.99.89-1.99,1.99s.89,1.99,1.99,1.99,1.99-.89,1.99-1.99-.89-1.99-1.99-1.99m0-2c2.2,0,3.99,1.79,3.99,3.99s-1.79,3.99-3.99,3.99-3.99-1.79-3.99-3.99,1.79-3.99,3.99-3.99Z"/></g><g id="Tracé_3120"><path class="cls-14" d="m53.05,80.75c-.89,0-1.61-.72-1.61-1.61s.72-1.61,1.61-1.61,1.61.72,1.61,1.61-.72,1.61-1.61,1.61Z"/><path class="cls-17" d="m53.05,78.53c-.34,0-.61.27-.61.61s.27.61.61.61.61-.27.61-.61-.27-.61-.61-.61m0-2c1.44,0,2.61,1.17,2.61,2.61s-1.17,2.61-2.61,2.61-2.61-1.17-2.61-2.61,1.17-2.61,2.61-2.61Z"/></g></g></g></g><path id="Tracé_4221" class="cls-16" d="m1.01,75.33v-6.57c-.1-1.45.99-2.72,2.45-2.82.11,0,.23,0,.34,0,4.4,0,8.81,0,13.21,0,1.46-.09,2.71,1.03,2.79,2.49,0,.11,0,.22,0,.34v13.14c.1,1.46-1,2.73-2.47,2.83-.13,0-.26,0-.39,0-4.36,0-8.72,0-13.08,0-1.46.12-2.74-.97-2.86-2.44-.01-.15-.01-.3,0-.45,0-2.17,0-4.34,0-6.5Z"/><g id="Group_8_Copy_4"><g id="Group_4"><path id="Path_113" class="cls-10" d="m9.56,72.2c-1.28-.52-3.02.43-3.81,1.82-.99,1.75-.02,3.91.83,5.04.86,1.14,1.64,2.38,3.81,1.63,2.17.76,2.98-.47,3.84-1.61s1.82-3.3.83-5.05c-.78-1.39-2.53-2.34-3.81-1.82-.27.13-.56.19-.86.19-.29,0-.58-.08-.84-.21Z"/><path id="Path_114" class="cls-4" d="m10.39,72.27c.1-.66-.09-1.34-.52-1.86"/></g><path id="Path_120" class="cls-12" d="m10.44,71.53c-.11-.82.46-1.58,1.28-1.69.06,0,.12-.01.18-.01,0,0-.35,1.75-1.46,1.71Z"/></g><g id="Groupe_7014"><path id="Tracé_1882" class="cls-11" d="m90.43,29.26c3.7-.05,6.92,2.53,7.67,6.16.8,4.06-1.77,8.02-5.8,8.95-1.87.45-3.84.15-5.5-.82-.1-.07-.23-.08-.35-.03-1.07.39-2.15.78-3.23,1.17-.41.17-.88.05-1.15-.3-.27-.35-.28-.83-.02-1.19.56-.85,1.13-1.71,1.69-2.56.07-.08.08-.2.02-.29-1.9-3.77-.38-8.37,3.39-10.27.49-.25,1.01-.44,1.54-.58.24-.06.47-.11.72-.14.39-.04.79-.07,1.01-.09Z"/></g></g></svg>