<?xml version="1.0" encoding="UTF-8"?><svg xmlns="http://www.w3.org/2000/svg" xmlns:xlink="http://www.w3.org/1999/xlink" viewBox="0 0 400 400"><defs><style>.cls-1,.cls-2,.cls-3,.cls-4,.cls-5,.cls-6,.cls-7,.cls-8{fill:none;}.cls-9{clip-path:url(#clippath);}.cls-10{fill:#f1635c;}.cls-10,.cls-2,.cls-3,.cls-11,.cls-4,.cls-12,.cls-13,.cls-6,.cls-7{stroke:#4c4b4c;}.cls-10,.cls-3,.cls-11,.cls-12,.cls-5,.cls-6,.cls-7{stroke-width:7px;}.cls-14{fill:#f6917e;}.cls-15{fill:#e7e7e7;}.cls-16,.cls-12{fill:#fff;}.cls-17,.cls-13{fill:#bcbcbc;}.cls-18{fill:#4c4b4c;}.cls-2{stroke-width:7.07px;}.cls-3,.cls-11,.cls-12,.cls-13,.cls-7,.cls-8{stroke-linecap:round;}.cls-3,.cls-5,.cls-6{stroke-miterlimit:10;}.cls-11{fill:#77bc76;}.cls-11,.cls-12,.cls-13,.cls-7,.cls-8{stroke-linejoin:round;}.cls-19{clip-path:url(#clippath-1);}.cls-20{clip-path:url(#clippath-2);}.cls-4{stroke-miterlimit:4;}.cls-4,.cls-13{stroke-width:7.07px;}.cls-5{stroke:#030202;}.cls-8{stroke:#f8acae;stroke-width:7.33px;}</style><clipPath id="clippath"><rect class="cls-1" x="102.61" y="-9.23" width="188.41" height="175.28"/></clipPath><clipPath id="clippath-1"><rect class="cls-1" x="221.74" y="228.89" width="91.94" height="82.24"/></clipPath><clipPath id="clippath-2"><rect class="cls-1" x="249.25" y="133.29" width="105.66" height="176" transform="translate(-26.14 401.55) rotate(-65)"/></clipPath></defs><g id="back"><rect class="cls-14" y="0" width="400" height="400"/></g><g id="Layer_1"><g id="Groupe_71"><g class="cls-9"><g id="Groupe_70"><path id="Tracé_82" class="cls-12" d="m152.58,83.37c-14.4,1.89-25.13-2.42-31.1-14.63-4.21-9.11-1.83-19.92,5.82-26.42,4.38-4.04,10.01-6.47,15.95-6.9,5.97-.58,11.97.75,17.14,3.81,12.69-26.82,53.61-30,70.64-4.32,12.46-9.04,29.88-6.27,38.92,6.18.74,1.02,1.41,2.08,2,3.19,3.7,7.38,2.94,16.21-1.96,22.85-4.97,6.98-12.96,11.19-21.53,11.36-.19,6.13-.4,11.99-.56,17.85-.38,14.1-.73,28.2-1.07,42.3,0,1.56.13,3.12.42,4.66.43,1.49-.43,3.04-1.92,3.47-.24.07-.49.11-.75.11-.66.07-1.33.09-2,.06l-82.08-.06c-5.04,0-7.09-1.8-7.16-6.45-.25-17.17-.48-34.35-.69-51.52-.03-1.81-.06-3.61-.09-5.54Z"/></g></g></g><path id="Rectangle_29" class="cls-15" d="m219.25,83.52h0c2.05,0,3.71,1.66,3.71,3.71v40.81c0,2.05-1.66,3.71-3.71,3.71h0c-2.05,0-3.71-1.66-3.71-3.71v-40.81c0-2.05,1.66-3.71,3.71-3.71Z"/><path id="Rectangle_30" class="cls-15" d="m200.7,83.52h0c2.05,0,3.71,1.66,3.71,3.71v40.81c0,2.05-1.66,3.71-3.71,3.71h0c-2.05,0-3.71-1.66-3.71-3.71v-40.81c0-2.05,1.66-3.71,3.71-3.71Z"/><path id="Rectangle_31" class="cls-15" d="m182.15,83.52h0c2.05,0,3.71,1.66,3.71,3.71v40.81c0,2.05-1.66,3.71-3.71,3.71h0c-2.05,0-3.71-1.66-3.71-3.71v-40.81c0-2.05,1.66-3.71,3.71-3.71Z"/><g id="Rectangle_33"><path class="cls-17" d="m219.43,303.07h123.64c4.88,0,8.83,3.95,8.83,8.83h0c0,4.88-3.95,8.83-8.83,8.83h-123.64c-4.88,0-8.83-3.95-8.83-8.83h0c0-4.88,3.95-8.83,8.83-8.83Z"/><path class="cls-2" d="m219.43,306.6h123.64c2.93,0,5.3,2.37,5.3,5.3h0c0,2.93-2.37,5.3-5.3,5.3h-123.64c-2.93,0-5.3-2.37-5.3-5.3h0c0-2.93,2.37-5.3,5.3-5.3Z"/></g><g id="Groupe_83"><g class="cls-19"><g id="Groupe_82"><path id="Tracé_104" class="cls-10" d="m261.43,259.37c-6.8-2.75-16.09,2.3-20.27,9.69-5.26,9.32-.12,20.81,4.43,26.85,4.55,6.04,8.76,12.69,20.31,8.66,11.56,4.02,15.86-2.51,20.41-8.56,4.55-6.05,9.69-17.54,4.43-26.85-4.17-7.4-13.46-12.44-20.27-9.69-1.44.68-3,1.02-4.59,1.02-1.55-.05-3.07-.43-4.46-1.12"/><path id="Tracé_105" class="cls-7" d="m261.43,259.37c-6.8-2.75-16.09,2.3-20.27,9.69-5.26,9.32-.12,20.81,4.43,26.85,4.55,6.04,8.76,12.69,20.31,8.66,11.56,4.02,15.86-2.51,20.41-8.56,4.55-6.05,9.69-17.54,4.43-26.85-4.17-7.4-13.46-12.44-20.27-9.69-1.44.68-3,1.02-4.59,1.02-1.55-.05-3.06-.43-4.45-1.12Z"/><path id="Tracé_106" class="cls-3" d="m265.84,259.72c.52-3.54-.48-7.13-2.74-9.89"/><path id="Tracé_108" class="cls-11" d="m254.77,254.77c3.41-14.08-25.57-14.91-25.57-14.91,4.69,9.71,14.81,15.61,25.57,14.91Z"/></g></g></g><g id="Groupe_84"><g id="Groupe_73"><g class="cls-20"><g id="Groupe_72"><path id="Tracé_83" class="cls-13" d="m315.45,192.62c-31.67-14.77-69.32-1.07-84.08,30.6h0s114.69,53.48,114.69,53.48c14.77-31.67,1.07-69.32-30.6-84.08,0,0,0,0,0,0"/></g></g></g><g id="Ellipse_32"><circle class="cls-17" cx="317.84" cy="181.87" r="14.13"/><circle class="cls-4" cx="317.84" cy="181.87" r="10.6"/></g></g><g><path id="Tracé_124" class="cls-16" d="m200,123.44c42.28,0,76.56,34.28,76.56,76.56s-34.28,76.56-76.56,76.56-76.56-34.28-76.56-76.56h0c0-42.28,34.28-76.56,76.56-76.56"/><circle id="Ellipse_85" class="cls-5" cx="200" cy="200" r="76.56"/><rect id="Rectangle_47" class="cls-1" x="-1.76" y="10.42" width="403.51" height="379.16"/><g><circle id="Oval_2_Copy_3" class="cls-18" cx="167.19" cy="182.27" r="12.23"/><circle id="Oval_2_Copy_3-2" class="cls-18" cx="235.34" cy="182.27" r="12.23"/><path id="Oval_2_Copy_3-3" class="cls-8" d="m191.77,219.56c0,5.55,4.5,10.05,10.05,10.05h0c5.55,0,10.05-4.5,10.05-10.05h0"/></g><circle id="Ellipse_85-2" class="cls-6" cx="200" cy="200" r="76.56"/></g></g></svg>