<?xml version="1.0" encoding="UTF-8"?><svg id="Layer_1" xmlns="http://www.w3.org/2000/svg" viewBox="0 0 400 400"><defs><style>.cls-1{fill:#f8e610;}.cls-2{fill:#67c8f2;}.cls-3{fill:#ef4036;}.cls-3,.cls-4{stroke:#ef4034;stroke-linecap:round;stroke-linejoin:round;stroke-width:7.73px;}.cls-4{fill:none;}</style></defs><g id="Groupe_2874"><g id="Group_55"><g id="sun"><g id="Group"><path id="Line" class="cls-1" d="m313.12,102.86v90.35c.03,3.64,3.01,6.57,6.65,6.54,3.64.03,6.62-2.9,6.65-6.54v-90.35c-.03-3.64-3.01-6.57-6.65-6.54-3.64-.03-6.62,2.9-6.65,6.54Z"/><path id="Line-2" class="cls-1" d="m364.57,142.12h-90.85c-3.64-.03-6.62,2.9-6.65,6.54.03,3.64,3.01,6.57,6.65,6.54h90.85c3.64.03,6.62-2.9,6.65-6.54-.03-3.64-3.01-6.57-6.65-6.54Z"/></g><g id="Group-2"><path id="Line-3" class="cls-1" d="m282.92,120.4l63.89,63.89c2.6,2.55,6.77,2.52,9.33-.08,2.6-2.55,2.63-6.73.08-9.33l-63.89-63.89c-2.6-2.55-6.77-2.52-9.33.08-2.6,2.55-2.63,6.73-.08,9.33Z"/><path id="Line-4" class="cls-1" d="m347.06,111.77l-64.24,64.24c-2.6,2.55-2.63,6.73-.08,9.33,2.6,2.55,6.77,2.52,9.33-.08l64.24-64.24c2.6-2.55,2.63-6.73.08-9.33-2.6-2.55-6.77-2.52-9.33.08Z"/></g><ellipse id="Oval_22_Copy_2" class="cls-1" cx="319.19" cy="149.17" rx="32.16" ry="31.62"/></g></g></g><g id="Groupe_2875"><g id="Group_55-2"><g id="sun-2"><g id="Group-3"><path id="Line-5" class="cls-1" d="m74.83,218.87v90.35c.03,3.64,3.01,6.57,6.65,6.54,3.64.03,6.62-2.9,6.65-6.54v-90.35c-.03-3.64-3.01-6.57-6.65-6.54-3.64-.03-6.62,2.9-6.65,6.54Z"/><path id="Line-6" class="cls-1" d="m126.28,258.13H35.43c-3.64-.03-6.62,2.9-6.65,6.54.03,3.64,3.01,6.57,6.65,6.54h90.85c3.64.03,6.62-2.9,6.65-6.54-.03-3.64-3.01-6.57-6.65-6.54Z"/></g><g id="Group-4"><path id="Line-7" class="cls-1" d="m44.63,236.41l63.89,63.89c2.6,2.55,6.77,2.52,9.33-.08,2.6-2.55,2.63-6.73.08-9.33l-63.89-63.89c-2.6-2.55-6.77-2.52-9.33.08-2.6,2.55-2.63,6.73-.08,9.33Z"/><path id="Line-8" class="cls-1" d="m108.77,227.78l-64.24,64.24c-2.6,2.55-2.63,6.73-.08,9.33,2.6,2.55,6.77,2.52,9.33-.08l64.24-64.24c2.6-2.55,2.63-6.73.08-9.33-2.6-2.55-6.77-2.52-9.33.08Z"/></g><ellipse id="Oval_22_Copy_2-2" class="cls-1" cx="80.9" cy="265.18" rx="32.16" ry="31.62"/></g></g></g><g id="Group_56"><path id="Oval_12" class="cls-3" d="m108.76,166.92c0-21.19-17.18-38.38-38.38-38.38s-38.38,17.18-38.38,38.38"/><path id="Line_7" class="cls-4" d="m32.01,166.92h95.94"/></g><g id="Group_56-2"><path id="Oval_12-2" class="cls-3" d="m346.98,286.34c0-21.19-17.18-38.38-38.38-38.38s-38.38,17.18-38.38,38.38"/><path id="Line_7-2" class="cls-4" d="m270.23,286.34h95.94"/></g><path id="Path_97_Copy_2" class="cls-2" d="m197.69,84.02s-79.16,95.48,1.4,95.48-1.4-95.48-1.4-95.48Z"/><path id="Path_97_Copy_2-2" class="cls-2" d="m196.78,220.5s-79.16,95.48,1.4,95.48-1.4-95.48-1.4-95.48Z"/></svg>