<?xml version="1.0" encoding="UTF-8"?><svg id="Layer_1" xmlns="http://www.w3.org/2000/svg" viewBox="0 0 400 400"><defs><style>.cls-1{fill:#67c8f2;}.cls-2{fill:#9b3434;}</style></defs><g id="Groupe_7502"><path id="Path_97_Copy_2-13" class="cls-1" d="m112.24,149.67s-83.45,100.65,1.48,100.65-1.48-100.65-1.48-100.65Z"/><path id="Path_97_Copy_2-14" class="cls-1" d="m285.57,149.67s-83.45,100.65,1.48,100.65-1.48-100.65-1.48-100.65Z"/><path id="Tracé_2291" class="cls-2" d="m295.27,205.13c1-.58,6.27-9.69,13.2-5.56s11.23,6.55,11.91,8.05.66,9.41.66,9.41c0,0,5.47,19.04-1.89,17.19-7.35-1.85-18.34-6.41-25.7-5.32-7.36,1.09-16.44-6.14-9.34-9.81,7.09-3.67,7.85-7.36,6.07-10.22-1.78-2.87,5.1-3.74,5.1-3.74Z"/><path id="Tracé_2292" class="cls-2" d="m261.14,217.53s6.81,2.27,5.27,4.76-3.04.64-4.39-.48c-1.35-1.12-3.96,1.88-2.18,3.01s2.48,4.33.63,3.7-4.09-5-4.44-2.59,4.55,2.93,1.84,4.6-7.18-7.55-7.18-7.55c0,0,1.11-13.58,4.85-11.72,3.74,1.86,5.59,6.27,5.59,6.27Z"/></g></svg>