<?xml version="1.0" encoding="UTF-8"?><svg xmlns="http://www.w3.org/2000/svg" viewBox="0 0 400 400"><defs><style>.cls-1{fill:#c0cedc;}.cls-2,.cls-3,.cls-4,.cls-5,.cls-6,.cls-7,.cls-8,.cls-9,.cls-10,.cls-11,.cls-12{stroke:#4d4b4d;}.cls-2,.cls-3,.cls-4,.cls-5,.cls-6,.cls-7,.cls-9,.cls-12{stroke-miterlimit:10;}.cls-2,.cls-3,.cls-8,.cls-9,.cls-10,.cls-11,.cls-12{stroke-width:6.99px;}.cls-2,.cls-3,.cls-8,.cls-10,.cls-11{stroke-linecap:round;}.cls-2,.cls-4,.cls-11,.cls-12{fill:none;}.cls-3,.cls-6{fill:#6dc7b4;}.cls-4{stroke-linecap:square;stroke-width:6.49px;}.cls-5{fill:#fff;}.cls-7,.cls-9{fill:#f8bc96;}.cls-8{fill:#d8d8d8;}.cls-8,.cls-10,.cls-11{stroke-linejoin:round;}</style></defs><g id="back"><rect class="cls-1" x="0" width="400" height="400"/></g><g id="Layer_6"><g id="Group"><g id="Group_2"><path id="Rectangle_53_Copy" class="cls-6" d="m180.03,264.81v12.57c0,6.89-5.59,12.47-12.48,12.48h0c-6.89,0-12.48-5.59-12.48-12.48,0,0,0-.01,0-.02v-67.35h0c0-6.9,5.58-12.49,12.48-12.5h0c6.89,0,12.48,5.59,12.48,12.48,0,0,0,.01,0,.02"/><path id="Rectangle_53" class="cls-3" d="m155.07,249.83v12.57c0,6.89-5.59,12.47-12.48,12.48h0c-6.89,0-12.48-5.59-12.48-12.48,0,0,0-.01,0-.02v-67.35h0c0-6.9,5.58-12.49,12.48-12.5h0c6.89,0,12.48,5.59,12.48,12.48,0,0,0,.01,0,.02"/><path id="Rectangle_53_Copy-2" class="cls-2" d="m180.03,264.81v12.56c0,6.89-5.59,12.48-12.49,12.47-6.89,0-12.48-5.59-12.47-12.49v-22.93"/></g><g id="Group_2-2"><path id="Rectangle_53_Copy-3" class="cls-6" d="m220.44,264.81v12.57c0,6.89,5.59,12.47,12.48,12.48h0c6.89,0,12.48-5.59,12.48-12.48,0,0,0-.01,0-.02v-67.35h0c0-6.9-5.58-12.49-12.48-12.5h0c-6.89,0-12.48,5.59-12.48,12.48,0,0,0,.01,0,.02"/><path id="Rectangle_53-2" class="cls-3" d="m245.4,249.83v12.57c0,6.89,5.59,12.47,12.48,12.48h0c6.89,0,12.48-5.59,12.48-12.48,0,0,0-.01,0-.02v-67.35h0c0-6.9-5.58-12.49-12.48-12.5h0c-6.89,0-12.48,5.59-12.48,12.48,0,0,0,.01,0,.02"/><path id="Rectangle_53_Copy-4" class="cls-2" d="m220.44,264.81v12.56c0,6.89,5.59,12.47,12.48,12.48,6.89,0,12.48-5.59,12.48-12.48,0,0,0,0,0-.01v-22.93"/></g><circle id="Oval_51" class="cls-9" cx="117.63" cy="187.52" r="9.98"/><circle id="Oval_51_Copy" class="cls-9" cx="282.37" cy="187.52" r="9.98"/><circle id="Oval_10" class="cls-5" cx="200" cy="182.53" r="72.39"/><circle id="Oval_10-2" class="cls-7" cx="200" cy="182.53" r="72.39"/><path id="Path_3" class="cls-6" d="m157.72,124.03c11.72-12.51,59.16-13.74,74.46-5.01,15.3,8.72,25.37,8.33,32.6,31.06,7.23,22.72,6.87,24.84,6.87,24.84,0,0-42.77-5.73-65.95-14.14-23.18-8.41-40.91-23.02-47.99-36.74Z"/><path id="Path_11" class="cls-6" d="m127.98,179.43c9.73-1.15,25.99-14.18,28.02-20.12s7.42-25.44,4.84-29.51c-1.24-2.29-3.59-3.75-6.18-3.85-6.87,4.08-12.39,10.09-15.88,17.28-5.63,11.84-8.81,14.37-10.8,36.2Z"/><circle id="Oval_10-3" class="cls-12" cx="200" cy="182.53" r="72.39"/><ellipse id="Oval_7_Copy_4" class="cls-10" cx="225.01" cy="189.57" rx="7.06" ry="7.04"/><ellipse id="Oval_7_Copy_5" class="cls-10" cx="176.2" cy="189.57" rx="7.06" ry="7.04"/><path id="Path_6" class="cls-11" d="m157.18,125.64s29.14,42.16,105.73,47.78"/><path id="Path_9" class="cls-2" d="m159.46,128.72c5.74,11.87-2.55,40.82-23.33,47.77"/><g id="Group_2_Copy_3"><ellipse id="Oval_7_Copy_4-2" class="cls-8" cx="235.29" cy="187.52" rx="22.13" ry="22.47"/><ellipse id="Oval_7_Copy_5-2" class="cls-8" cx="167.21" cy="187.52" rx="22.13" ry="22.47"/><path id="Line" class="cls-4" d="m191.04,186.83c3.05-2,6.57-3.19,10.21-3.45,3.64.26,7.16,1.45,10.21,3.45"/></g></g></g></svg>