<svg xmlns="http://www.w3.org/2000/svg" xmlns:xlink="http://www.w3.org/1999/xlink" width="1194" height="834" viewBox="0 0 1194 834">
  <defs>
    <clipPath id="clip-interface_cloud">
      <rect width="1194" height="834"/>
    </clipPath>
  </defs>
  <g id="interface_cloud" clip-path="url(#clip-interface_cloud)">
    <rect width="1194" height="834" fill="#efeff4"/>
    <rect id="Background" width="1194" height="834" fill="#cfebfc"/>
    <path id="Combined_Shape_Copy_7" data-name="Combined Shape Copy 7" d="M333.428,299.561A154.221,154.221,0,0,1,109.5,181.686a91.722,91.722,0,1,1,58.4-140.911,154.13,154.13,0,0,1,197.006,6.512,170.887,170.887,0,0,1,186.709-5.54,116.627,116.627,0,0,1,162.1-1.278A58.36,58.36,0,1,1,747.375,149.8a116.721,116.721,0,0,1-114.041,91.987q-4.371,0-8.661-.317a170.841,170.841,0,0,1-291.245,58.095Z" transform="translate(1370 742.506) rotate(180)" fill="#fff"/>
    <path id="Combined_Shape_Copy_8" data-name="Combined Shape Copy 8" d="M333.428,299.561A154.221,154.221,0,0,1,109.5,181.686a91.722,91.722,0,1,1,58.4-140.911,154.13,154.13,0,0,1,197.006,6.512,170.887,170.887,0,0,1,186.709-5.54,116.627,116.627,0,0,1,162.1-1.278A58.36,58.36,0,1,1,747.375,149.8a116.721,116.721,0,0,1-114.041,91.987q-4.371,0-8.661-.317a170.841,170.841,0,0,1-291.245,58.095Z" transform="translate(512 505.506) rotate(180)" fill="#fff"/>
    <path id="Combined_Shape_Copy_7-2" data-name="Combined Shape Copy 7" d="M333.428,299.561A154.221,154.221,0,0,1,109.5,181.686a91.722,91.722,0,1,1,58.4-140.911,154.13,154.13,0,0,1,197.006,6.512,170.887,170.887,0,0,1,186.709-5.54,116.627,116.627,0,0,1,162.1-1.278A58.36,58.36,0,1,1,747.375,149.8a116.721,116.721,0,0,1-114.041,91.987q-4.371,0-8.661-.317a170.841,170.841,0,0,1-291.245,58.095Z" transform="translate(1370 742.506) rotate(180)" fill="#fff"/>
    <path id="Combined_Shape_Copy_8-2" data-name="Combined Shape Copy 8" d="M333.428,299.561A154.221,154.221,0,0,1,109.5,181.686a91.722,91.722,0,1,1,58.4-140.911,154.13,154.13,0,0,1,197.006,6.512,170.887,170.887,0,0,1,186.709-5.54,116.627,116.627,0,0,1,162.1-1.278A58.36,58.36,0,1,1,747.375,149.8a116.721,116.721,0,0,1-114.041,91.987q-4.371,0-8.661-.317a170.841,170.841,0,0,1-291.245,58.095Z" transform="translate(512 505.506) rotate(180)" fill="#fff"/>
  </g>
</svg>
