<?xml version="1.0" encoding="UTF-8"?><svg xmlns="http://www.w3.org/2000/svg" viewBox="0 0 400 400"><defs><style>.cls-1{fill:#ffd69f;}.cls-2{stroke-miterlimit:10;}.cls-2,.cls-3,.cls-4{fill:none;stroke-linecap:round;}.cls-2,.cls-3,.cls-4,.cls-5{stroke:#4b4b4b;stroke-width:7px;}.cls-3,.cls-5{stroke-miterlimit:10;}.cls-4{stroke-miterlimit:10;}.cls-5{fill:#ffca32;}</style></defs><g id="back"><rect class="cls-1" y="0" width="400" height="400"/></g><g id="Layer_1"><g id="Group_9"><g id="patate_copy_2"><path id="Path_118" class="cls-5" d="m224.61,76.03c59.2,13.86,99.11,116.54,72.8,171.42s-80.51,76.83-118.14,78.25c-37.63,1.42-63.17-19.62-76.5-45.14-13.33-25.52-12.26-74.33,13.38-111.31,25.65-36.98,49.26-107.07,108.46-93.21Z"/><path id="Path_119" class="cls-4" d="m233.39,255.55c-2.75-9.37-13.06-9.75-13.06-9.75"/><path id="Path_119_Copy" class="cls-2" d="m192.32,170.75c-2.78-4.07-7.83-5.93-12.59-4.64"/><path id="Path_119_Copy_3" class="cls-3" d="m247.35,134.9c-4.04-7.56-12.82-3.47-12.82-3.47"/><path id="Path_119_Copy_2" class="cls-3" d="m155.69,266.59c-3.51-5.89-10.86-8.23-17.13-5.46"/></g></g></g></svg>