<?xml version="1.0" encoding="UTF-8" standalone="no"?>
<!DOCTYPE svg PUBLIC "-//W3C//DTD SVG 1.1//EN" "http://www.w3.org/Graphics/SVG/1.1/DTD/svg11.dtd">
<!-- Created with Vectornator (http://vectornator.io/) -->
<svg height="100%" stroke-miterlimit="10" style="fill-rule:nonzero;clip-rule:evenodd;stroke-linecap:round;stroke-linejoin:round;" version="1.1" viewBox="0 0 28 28" width="100%" xml:space="preserve" xmlns="http://www.w3.org/2000/svg" xmlns:vectornator="http://vectornator.io" xmlns:xlink="http://www.w3.org/1999/xlink">
<defs/>
<g id="Page-1" vectornator:layerName="Page-1">
<g opacity="1" vectornator:layerName="button_notification">
<path d="M14 0C21.732 0 28 6.26801 28 14C28 21.732 21.732 28 14 28C6.26801 28 0 21.732 0 14C0 6.26801 6.26801 0 14 0" fill="#f41e1e" fill-rule="nonzero" opacity="1" stroke="none" vectornator:layerName="path"/>
<path d="M13.405 19.0794C13.111 18.7945 13.0602 18.3413 13.2838 17.9984C13.5074 17.6555 13.9426 17.5192 14.3219 17.6733C14.7011 17.8275 14.9179 18.2287 14.8389 18.6304C14.7599 19.0321 14.4073 19.3214 13.998 19.3204C13.7756 19.325 13.5611 19.2379 13.405 19.0794M13.339 8.67941L14.657 8.67941L14.569 15.7404L13.427 15.7404L13.339 8.67941Z" fill="#ffffff" fill-rule="nonzero" opacity="0" stroke="none" vectornator:layerName="path"/>
<path d="M14.0432 15.6202C14.27 15.6202 14.4488 15.554 14.5798 15.4218C14.7108 15.2896 14.7779 15.1077 14.781 14.876L14.859 8.01635C14.8598 8.00009 14.8606 7.9838 14.8614 7.96751C14.8622 7.95121 14.8626 7.93645 14.8626 7.92322C14.8626 7.67765 14.7852 7.48231 14.6305 7.3372C14.4758 7.1921 14.2791 7.11955 14.0404 7.11955C13.8044 7.11955 13.6078 7.1921 13.4506 7.3372C13.2934 7.48231 13.2148 7.67765 13.2148 7.92322C13.2148 7.93645 13.2152 7.95121 13.2159 7.96751C13.2167 7.9838 13.2175 8.00009 13.2183 8.01635L13.3067 14.876C13.3133 15.1077 13.3819 15.2896 13.5125 15.4218C13.6431 15.554 13.82 15.6202 14.0432 15.6202ZM14.0381 19.2155C14.2345 19.2155 14.4121 19.1693 14.5708 19.0768C14.7295 18.9844 14.8562 18.8593 14.951 18.7016C15.0457 18.5439 15.0931 18.3698 15.0931 18.1791C15.0931 17.9892 15.0457 17.8156 14.951 17.6583C14.8562 17.501 14.7295 17.3762 14.5708 17.2837C14.4121 17.1913 14.2345 17.1451 14.0381 17.1451C13.8444 17.1451 13.6681 17.1913 13.5095 17.2837C13.3508 17.3762 13.2234 17.501 13.1273 17.6583C13.0311 17.8156 12.9831 17.9892 12.9831 18.1791C12.9831 18.3698 13.0311 18.5439 13.1273 18.7016C13.2234 18.8593 13.3508 18.9844 13.5095 19.0768C13.6681 19.1693 13.8444 19.2155 14.0381 19.2155Z" fill="#ffffff" opacity="1" stroke="none" vectornator:layerName="Text 1"/>
</g>
</g>
<g id="Layer-1" vectornator:layerName="Layer 1"/>
</svg>
