<?xml version="1.0" encoding="UTF-8"?><svg xmlns="http://www.w3.org/2000/svg" viewBox="0 0 400 400"><defs><style>.cls-1,.cls-2,.cls-3{fill:none;}.cls-4{fill:#fff;}.cls-5{fill:#c0cedc;}.cls-6,.cls-7{fill:#7553a2;}.cls-8{fill:#4d4b4d;}.cls-7,.cls-9,.cls-10,.cls-2,.cls-3{stroke-width:6.99px;}.cls-7,.cls-9,.cls-10,.cls-3{stroke-miterlimit:10;}.cls-7,.cls-9,.cls-2,.cls-3{stroke:#4d4b4d;}.cls-9,.cls-10{fill:#f8bc96;}.cls-10{stroke:#000;}.cls-2{stroke-linecap:round;stroke-linejoin:round;}</style></defs><g id="back"><rect class="cls-5" x="0" width="400" height="400"/></g><g id="Layer_6"><rect id="Rectangle_47" class="cls-1" x="21.42" y="16.35" width="403.51" height="379.16"/><rect id="Rectangle_47-2" class="cls-1" x="30.62" y="16.35" width="403.51" height="379.16"/><rect id="Rectangle_47-3" class="cls-1" x="40.36" y="16.35" width="403.51" height="379.16"/><g id="Group_6_Copy"><g id="Group_3"><circle id="Oval_51" class="cls-9" cx="117.63" cy="226.21" r="9.98"/><circle id="Oval_51_Copy" class="cls-9" cx="282.37" cy="226.21" r="9.98"/><circle id="Oval_10" class="cls-4" cx="200" cy="221.22" r="72.39"/><circle id="Oval_10-2" class="cls-4" cx="200" cy="221.22" r="72.39"/><circle id="Oval_52" class="cls-7" cx="200" cy="136.35" r="29.95"/><path id="Path_3" class="cls-4" d="m137.25,190.06c7.08-15.97,31.25-33.82,51.78-38.74,20.54-4.92,36.42-1.87,56.28,14.37,19.86,16.24,22.14,26.71,22.14,26.71,0,0-32.73,14.61-58.27,14.6-25.54,0-64.84-3.22-71.93-16.95Z"/><circle id="Oval_10-3" class="cls-10" cx="200" cy="221.22" r="72.39"/><ellipse id="Oval_7_Copy_4" class="cls-8" cx="224.54" cy="228.26" rx="7.06" ry="7.04"/><ellipse id="Oval_7_Copy_5" class="cls-8" cx="177.11" cy="228.26" rx="7.06" ry="7.04"/><path id="Path_71" class="cls-6" d="m260.28,180.69c-11.7,6.46-41.69,19.01-70.85,16.06-16.97-1.51-33.18-7.71-46.83-17.89,0,0,25.03-30.85,57.16-30,32.13.85,58.56,25.39,60.53,31.83Z"/><circle id="Oval_10-4" class="cls-3" cx="200" cy="221.22" r="72.39"/><path id="Path_6" class="cls-2" d="m145.09,181.28c30.08,23.4,97.65,14.23,111.72,1.75"/></g></g><rect id="Rectangle_47-4" class="cls-1" x="-401.29" y="16.35" width="403.51" height="379.16"/></g></svg>