<?xml version="1.0" encoding="UTF-8"?>
<svg width="1001px" height="559px" viewBox="0 0 1001 559" version="1.1" xmlns="http://www.w3.org/2000/svg" xmlns:xlink="http://www.w3.org/1999/xlink">
    <title>Group</title>
    <g id="Page-1" stroke="none" stroke-width="1" fill="none" fill-rule="evenodd">
        <g id="leka" transform="translate(-6.000000, -1039.000000)" fill-rule="nonzero">
            <g id="Group" transform="translate(6.000000, 1039.000000)">
                <g>
                    <path d="M0,0 L62,0 L62,354.2 C62,368.2 69.9,375.5 85.1,375.5 L106.4,375.5 L106.4,434 L79.1,434 C34.1,434 0.1,414.5 0.1,359 L0.1,0 L0,0 Z" id="Path" fill="#ADCC36"></path>
                    <path d="M222.8,153.6 L224,153.6 C236.8,132.3 258.1,122.5 300,122.5 C368.7,122.5 408.8,163.3 408.8,217 C408.8,266.4 374.8,308.4 308.5,308.4 L222.8,308.4 L222.8,340.7 C222.8,370 241.6,380.3 286,380.3 C318.2,380.3 333.4,374.2 344.4,356.5 L393,393.7 C369.3,426.6 335.3,438.8 289.1,438.8 C213.1,438.8 160.8,413.2 160.8,337 L160.8,126.1 L222.8,126.1 L222.8,153.6 L222.8,153.6 Z M222.8,257.3 L297,257.3 C333.4,257.3 350.5,242.7 350.5,220.1 C350.5,199.4 334.1,181.1 292.2,181.1 C240.5,181.1 222.9,186.6 222.9,234.7 L222.9,257.3 L222.8,257.3 Z" id="Shape" fill="#EB1B6B"></path>
                    <rect id="Rectangle" fill="#676767" x="293.3" y="483.5" width="65.7" height="65.8"></rect>
                    <rect id="Rectangle" fill="#676767" x="186.3" y="483.5" width="65.6" height="65.8"></rect>
                    <polygon id="Path" fill="#F08E20" points="460.8 0 522.8 0 522.8 270.1 524 270.1 642.6 125 716.8 125 610.4 245.7 731.4 434.1 653.6 434.1 571.5 289.6 522.9 345.1 522.9 434.1 460.9 434.1 460.9 0"></polygon>
                    <path d="M938,406.6 L936.8,406.6 C924,427.9 902.7,437.7 860.8,437.7 C792.1,437.7 752,396.9 752,343.2 C752,293.8 786.1,251.8 852.3,251.8 L938,251.8 L938,219.5 C938,190.2 919.1,179.9 874.7,179.9 C842.5,179.9 827.3,186 816.3,203.7 L767.7,166.5 C791.4,133.6 825.5,121.4 871.6,121.4 C947.6,121.4 999.9,147 999.9,223.2 L999.9,434 L937.9,434 L937.9,406.6 L938,406.6 Z M938,303 L863.8,303 C827.3,303 810.3,317.6 810.3,340.2 C810.3,360.9 826.7,379.2 868.6,379.2 C920.3,379.2 937.9,373.7 937.9,325.5 L937.9,303 L938,303 Z" id="Shape" fill="#56ADD4"></path>
                </g>
                <g transform="translate(579.000000, 479.000000)" fill="#676767">
                    <path d="M19,64.4 C5,64.4 1.4,53.3 0.8,49.7 C0.6,48 1.8,46.7 2.8,46.4 C4.5,46 5.7,47 6.4,49.2 C8.9,56.2 13.2,58.6 18.9,58.6 C27.6,58.6 31.9,54 31.9,47.6 C31.9,40.2 27.7,38.2 24.2,36.4 L11.9,29.9 C6.2,26.9 3.1,22.6 3.1,15.7 C3.1,4.4 11.9,0.5 20.4,0.5 C29.2,0.5 34.2,5.8 35.3,8.7 C35.9,10.3 35.6,12.3 34,12.9 C32.3,13.5 31.1,13.1 30,11.5 C27.9,8.4 24.4,6.2 20.4,6.2 C16.6,6.2 9.5,7.2 9.5,16.2 C9.5,19.2 10.6,22.4 15.5,24.9 L28.7,31.7 C32.3,33.5 38.3,37.4 38.3,46.9 C38.5,56.4 32.7,64.4 19,64.4 Z" id="Path"></path>
                    <path d="M108.3,64 C106.7,64 105.5,62.8 105.5,61.1 L105.5,34.2 C105.5,25.6 102.8,21 94.5,21 C86.6,21 83.8,27.6 83.8,34 L83.8,61.2 C83.8,62.8 82.6,64 80.9,64 C79.3,64 78,62.8 78,61.1 L78,34.3 C78,25.7 75.4,21.1 67.1,21.1 C59.1,21.1 55.3,27.9 55.3,34.3 L55.3,61 C55.3,62.6 54,63.9 52.4,63.9 C50.7,63.9 49.5,62.6 49.5,61 L49.5,18.7 C49.5,17 50.7,15.8 52.4,15.8 C54,15.8 55.3,17 55.3,18.6 L55.3,21.6 C58.2,17.9 61.3,15.3 67.1,15.3 C74.7,15.3 79.3,18.2 81.8,23.7 C84.2,19.4 88,15.2 94.5,15.2 C106.5,15.2 111.3,20.8 111.3,35.4 L111.3,61.1 C111.3,62.8 110,64 108.3,64 Z" id="Path"></path>
                    <path d="M162.4,59.1 C163.5,60.3 163.5,62.1 162.4,63.2 C161.3,64.3 159.5,64.3 158.4,63.1 C156.2,61.3 154.5,57.2 154.5,57.2 C151.1,61.5 146.1,64.4 140.4,64.4 C130,64.4 122.1,57.2 122.1,44.1 L122.1,35.6 C122.1,22.4 130.4,15.7 140.7,15.7 C145.7,15.7 149.8,18 153.3,21.5 L153.3,19 C153.3,17.3 154.5,16 156.1,16 C157.8,16 159,17.3 159,18.9 L159,50 C158.9,55.3 161.7,58.2 162.4,59.1 L162.4,59.1 Z M153.3,34.9 C153.3,26.8 148.3,21.3 140.7,21.3 C133.1,21.3 128,26.2 128,34.2 L128,45.4 C128,53.5 132.9,58.6 140.4,58.6 C148,58.6 153.3,53.5 153.3,45.4 L153.3,34.9 L153.3,34.9 Z" id="Shape"></path>
                    <path d="M197,21.5 L189.9,21.5 C183.3,21.5 178.6,27.3 178.6,37.3 L178.6,61.2 C178.6,62.8 177.3,64.1 175.7,64.1 C174.1,64.1 172.8,62.8 172.8,61.2 L172.8,18.8 C172.8,17.2 174,16 175.7,16 C177.3,16 178.6,17.2 178.6,18.8 L178.6,22.2 C180.9,18.4 184.9,15.8 189.9,15.8 L197,15.8 C198.6,15.8 199.8,17 199.8,18.6 C199.7,20.2 198.5,21.5 197,21.5 Z" id="Path"></path>
                    <path d="M225.6,21.2 L217.1,21.2 L217.1,50 C217.1,57.1 220.8,58.4 222.7,59.5 C223.9,60.3 224,62.2 223.3,63.3 C222.4,64.6 220.9,64.8 219,63.8 C214.7,61.6 211.4,56.5 211.4,50 L211.4,21.2 L207.4,21.2 C205.8,21.2 204.6,20 204.6,18.4 C204.6,16.8 205.8,15.5 207.5,15.5 L211.4,15.5 L211.4,3.8 C211.4,2.2 212.7,0.9 214.4,0.9 C216,0.9 217.2,2.1 217.2,3.8 L217.2,15.5 L225.7,15.5 C227.3,15.5 228.6,16.8 228.6,18.4 C228.5,20 227.3,21.2 225.6,21.2 Z" id="Path"></path>
                    <path d="M294.6,6.8 L281,6.8 L281,61.3 C281,62.9 279.8,64.1 278.2,64.1 C276.6,64.1 275.2,62.9 275.2,61.3 L275.2,6.8 L261.6,6.8 C259.9,6.8 258.6,5.4 258.6,3.8 C258.6,2.2 259.9,1 261.5,1 L294.5,1 C296.1,1 297.3,2.2 297.3,3.8 C297.4,5.4 296.2,6.8 294.6,6.8 Z" id="Path"></path>
                    <path d="M317.5,64.4 C307.1,64.4 298.7,57.9 298.7,44.7 L298.7,35.4 C298.7,22.2 307.1,15.4 317.5,15.4 C327.8,15.4 336.3,22.3 336.3,35.4 L336.3,44.7 C336.3,57.8 327.8,64.4 317.5,64.4 Z M330.3,34 C330.3,25.9 325,21 317.5,21 C309.9,21 304.6,25.9 304.6,34 L304.6,46 C304.6,54.1 309.9,58.6 317.5,58.6 C325,58.6 330.3,54.1 330.3,46 L330.3,34 Z" id="Shape"></path>
                    <path d="M360.2,76.6 C359.1,79.5 356.9,79.4004162 355.2,79.4004162 L351.3,79.4004162 C349.6,79.4004162 348.4,78.2 348.4,76.6 C348.4,75 349.7,73.7 351.3,73.7 L355.3,73.7 L359.8,60.8 L344.6,19.2 C344.1,17.7 344.9,16.1 346.4,15.5 C348,15.1 349.4,15.9 350,17.4 L362.9,52.3 L375.4,17.5 C375.9,15.9 377.4,15 378.9,15.3 C380.4,15.7 381.5,17.3 381,18.9 L360.2,76.6 Z" id="Path"></path>
                    <path d="M403.3,64.4 C395.7,64.4 389.8,60.3 388.1,58.5 C387,57.3 386.9,55.6 388,54.5 C389.1,53.4 391,53.4 392.1,54.4 C393,55.2 398.1,58.8 403.5,58.8 C413.2,58.8 415,54.3 415,50.3 C415,47.2 413.2,44.9 409.8,43.8 L396.8,39.7 C392.6,38.4 388,36.2 388,28.5 C388,18.8 397.5,15.3 403.8,15.3 C410.3,15.3 415.2,18.1 417.7,20.8 C418.8,21.9 419,23.6 417.8,24.8 C416.8,25.9 414.8,25.9 413.7,24.9 C412.9,24.1 408.9,21.1 403.5,21.1 C400.9,21.1 393.8,21.6 393.8,29.1 C393.8,32.6 395.8,33.5 398.9,34.5 L410.5,38.1 C417.4,40.3 421.1,43.9 421.1,50.1 C421,58 416.3,64.4 403.3,64.4 Z" id="Path"></path>
                </g>
            </g>
        </g>
    </g>
</svg>