<?xml version="1.0" encoding="UTF-8"?><svg xmlns="http://www.w3.org/2000/svg" viewBox="0 0 400 400"><defs><style>.cls-1{fill:#7553a2;stroke-miterlimit:10;}.cls-1,.cls-2{stroke:#4b4b4b;stroke-linecap:round;stroke-width:7px;}.cls-3{fill:#ffd69f;}.cls-2{fill:#f3d94c;stroke-linejoin:round;}</style></defs><g id="back"><rect class="cls-3" y="0" width="400" height="400"/></g><g id="Layer_1"><g id="Groupe_56"><path id="Combined_Shape" class="cls-2" d="m180.15,302.14c0-.77.06-1.54.17-2.3-37.09-10.73-64.67-51.14-64.67-99.34s27.66-88.73,64.84-99.39c-.22-1.07-.34-2.15-.34-3.24,0-9.58,8.66-17.35,19.35-17.35s19.35,7.77,19.35,17.35c0,1-.09,2-.28,2.98,37.65,10.24,65.78,50.97,65.78,99.65s-28.05,89.3-65.62,99.61c.09.67.13,1.35.13,2.03,0,9.58-8.67,17.35-19.35,17.35s-19.35-7.77-19.35-17.35Z"/><path id="Oval_38" class="cls-1" d="m253.7,148.15c-4.55-11.31-13.24-20.45-24.31-25.56"/></g></g></svg>