<?xml version="1.0" encoding="utf-8"?>
<!-- Generator: Adobe Illustrator 27.2.0, SVG Export Plug-In . SVG Version: 6.00 Build 0)  -->
<svg version="1.1" id="Layer_2_00000150785036498534028920000011363695363350237056_"
	 xmlns="http://www.w3.org/2000/svg" xmlns:xlink="http://www.w3.org/1999/xlink" x="0px" y="0px" viewBox="0 0 25.3 13.1"
	 style="enable-background:new 0 0 25.3 13.1;" xml:space="preserve">
<style type="text/css">
	.st0{clip-path:url(#SVGID_00000138538278375583433270000018217358104002603693_);}
	.st1{fill:#666767;}
	.st2{fill:#FAC510;}
</style>
<g id="Layer_1-2">
	<g id="Groupe_7123">
		<g>
			<defs>
				<rect id="SVGID_1_" width="25.3" height="13.1"/>
			</defs>
			<clipPath id="SVGID_00000021828589959439802860000011586644949640976515_">
				<use xlink:href="#SVGID_1_"  style="overflow:visible;"/>
			</clipPath>
			<g style="clip-path:url(#SVGID_00000021828589959439802860000011586644949640976515_);">
				<g id="Groupe_7114">
					<path id="Tracé_4254" class="st1" d="M4.5,12.1h4.4c0-0.1,0-0.1,0.1-0.2s0-0.1,0.1-0.2s0-0.1,0.1-0.2H4.2
						c-0.6,0-1.2-0.1-1.7-0.2c-0.4-0.1-0.8-0.3-1.2-0.6C1.1,10.4,0.8,10,0.7,9.6C0.6,9,0.5,8.5,0.5,7.9V5.3c0-0.6,0.1-1.2,0.2-1.8
						C0.8,3,1,2.6,1.3,2.3C1.7,2,2.1,1.8,2.5,1.7c0.6-0.1,1.2-0.2,1.8-0.2h6.9l0.4-0.5H4.4C3.7,0.9,3,1,2.3,1.2
						C1.8,1.3,1.3,1.5,1,1.9C0.6,2.3,0.3,2.7,0.2,3.2C0.1,3.9,0,4.6,0,5.3v2.3C0,8.4,0,9.1,0.2,9.8c0.1,0.5,0.4,0.9,0.7,1.3
						c0.4,0.4,0.8,0.6,1.3,0.7C3,12.1,3.7,12.1,4.5,12.1 M11.6,12.1h7.1c0.7,0,1.5-0.1,2.2-0.2c0.5-0.1,1-0.4,1.3-0.7
						s0.6-0.8,0.7-1.3c0.1-0.7,0.2-1.5,0.2-2.2V5.4c0-0.7,0-1.5-0.2-2.2c-0.1-0.5-0.4-1-0.7-1.3c-0.4-0.4-0.8-0.6-1.3-0.7
						c-0.7-0.2-1.5-0.2-2.2-0.2h-4.2c0,0.1,0,0.1-0.1,0.2c0,0.1,0,0.1-0.1,0.2s0,0.1-0.1,0.2h4.7c0.6,0,1.2,0.1,1.7,0.2
						c0.4,0.1,0.8,0.3,1.1,0.6c0.3,0.3,0.5,0.7,0.6,1.1c0.1,0.6,0.2,1.1,0.2,1.7v2.7c0,0.6,0,1.2-0.2,1.7c-0.1,0.4-0.3,0.8-0.6,1.1
						c-0.3,0.3-0.7,0.5-1.1,0.6c-0.6,0.1-1.1,0.2-1.7,0.2H12L11.6,12.1L11.6,12.1z M23.9,8.5c0.2,0,0.5-0.1,0.6-0.3
						c1-0.8,1.1-2.2,0.3-3.2c-0.1-0.1-0.2-0.2-0.3-0.3c-0.2-0.2-0.4-0.2-0.6-0.3V8.5L23.9,8.5z"/>
					<path id="Tracé_4255" class="st2" d="M4.2,10.9h5.1l0.9-2.5H7.9c-0.3,0-0.5-0.1-0.7-0.3C7,7.9,6.9,7.6,6.9,7.4
						c0-0.3,0.1-0.5,0.3-0.7l3.5-4.4H4.3c-0.5,0-1,0-1.6,0.2C2.4,2.4,2.1,2.6,1.9,2.8C1.6,3.1,1.5,3.4,1.4,3.7
						c-0.1,0.5-0.2,1-0.1,1.6v2.6c0,0.5,0,1,0.1,1.5c0.1,0.3,0.2,0.6,0.5,0.9C2.6,10.7,3.4,10.9,4.2,10.9 M12.6,10.8h6.3
						c0.8,0.1,1.6-0.1,2.3-0.6c0.5-0.7,0.7-1.5,0.6-2.3V5.1c0-0.5,0-1-0.1-1.5c-0.1-0.3-0.2-0.6-0.5-0.9c-0.7-0.5-1.5-0.7-2.3-0.6
						h-5L13,4.7h2.4c0.3,0,0.5,0.1,0.7,0.3c0.2,0.2,0.3,0.4,0.3,0.7c0,0.3-0.1,0.5-0.3,0.7L12.6,10.8L12.6,10.8z"/>
					<path id="Tracé_4256" class="st1" d="M7.7,7.4c0,0.1,0,0.1,0.1,0.2c0.1,0.1,0.1,0.1,0.2,0.1h3.4l-1.9,5
						c-0.1,0.1-0.1,0.2,0,0.3c0.1,0.1,0.1,0.1,0.2,0.1c0.1,0,0.2-0.1,0.3-0.2L15.5,6c0.1-0.1,0.1-0.2,0.1-0.3c0-0.1,0-0.1-0.1-0.2
						c-0.1,0-0.1-0.1-0.2-0.1H12l1.9-5c0.1-0.1,0.1-0.2,0-0.3C13.8,0,13.7,0,13.6,0c-0.1,0-0.2,0.1-0.3,0.2L7.8,7.1
						C7.7,7.2,7.7,7.2,7.7,7.4"/>
				</g>
			</g>
		</g>
	</g>
</g>
</svg>
