<?xml version="1.0" encoding="UTF-8"?><svg id="Layer_1" xmlns="http://www.w3.org/2000/svg" viewBox="0 0 382.05 281.21"><defs><style>.cls-1{fill:#ccb7a5;}</style></defs><g id="basket"><path id="Combined_Shape" class="cls-1" d="m286.54,281.21H95.43c-44.65,0-81.92-34.07-85.91-78.54L.1,97.84c-1.16-12.8,8.27-24.12,21.07-25.28.01,0,.02,0,.04,0,.7-.06,1.4-.09,2.08-.09h94.43c.03-4.91.55-9.81,1.55-14.61,1.95-9.28,5.7-18.08,11.04-25.92,7.92-11.65,19.04-20.76,32.02-26.24,4.4-1.85,8.97-3.26,13.64-4.22,9.66-1.96,19.62-1.96,29.28,0,9.29,1.9,18.12,5.6,25.99,10.89,11.69,7.86,20.86,18.93,26.41,31.87,1.87,4.38,3.31,8.94,4.29,13.61,1.01,4.81,1.53,9.7,1.55,14.61h95.27c12.85,0,23.28,10.4,23.29,23.25v.04c0,.71-.03,1.41-.1,2.1l-9.51,104.89c-4.03,44.44-41.29,78.47-85.91,78.47h0ZM190.17,18.11c-11-.02-21.75,3.27-30.87,9.43-8.88,5.99-15.82,14.43-20,24.29-2.88,6.8-4.35,14.11-4.34,21.49h110.41c.02-11-3.27-21.75-9.43-30.87-5.99-8.88-14.43-15.82-24.29-20-6.8-2.88-14.11-4.35-21.49-4.34h0Z"/></g></svg>