<?xml version="1.0" encoding="UTF-8"?><svg xmlns="http://www.w3.org/2000/svg" viewBox="0 0 400 400"><defs><style>.cls-1{fill:#68c9f2;}.cls-2{fill:#a3d9d0;}.cls-3{fill:#83b7b3;}.cls-4{fill:#4b4b4b;}.cls-4,.cls-5{stroke:#4b4b4b;stroke-linecap:round;stroke-linejoin:round;stroke-width:7px;}.cls-5{fill:none;}</style></defs><g id="back"><rect class="cls-3" y="0" width="400" height="400"/></g><g id="Layer_1"><g><path id="Path_77" class="cls-2" d="m320.51,202.83l6.2,26.87-104.97,22.91-12.67-20.74,111.43-29.03Z"/><path id="Path_76" class="cls-2" d="m168.47,258.28c-11.15-5.57-36.46-33.53-36.46-33.53,0,0-11.45,28.62-27.66,40.07l-1.78-48.63-36.46-52.97s29.09-10.12,59.49,23.68c8.99-4.26,16.5-11.11,21.57-19.66,5.83-11.04,4.54-26.75-1.7-36.98-1.75-2.87-.28-6.6,2.97-7.46,15.5-4.13,53.05-12.42,85.14-6.03,41.61,8.29,81.87,33.56,87.28,88.36l-152.39,53.17Z"/><path id="Path_78" class="cls-1" d="m278.82,138.31c-35.37-22.45-103.8-2.4-131.57,33.91,12.07-17.8-5.25-44.9-5.25-44.9,19.36-8.6,38.22-12.39,59.4-12.13,32.81,1.16,13.65.17,13.65.17,0,0,55.01,2.92,63.77,22.95Z"/><circle id="Oval_19" class="cls-4" cx="274.22" cy="208.6" r="3.88"/><path id="Path_75" class="cls-2" d="m293.59,231.36c14.43-1.2,29.17-8.03,36.09-11.63,1.98-1.03,4.31.47,4.2,2.7-.36,7.24-3.31,21.14-19.13,32.66-22.49,16.39-56.13,23.51-75.81,23.18-19.67-.33-45.37-11.13-45.37-11.13l-22.06,16.05c-2.54,1.85-6.06-.25-5.64-3.36l6.09-45.37"/><path id="Path_79" class="cls-1" d="m102.31,217.71c.08-1.12-.24-2.22-.89-3.13l-32.56-45.09c-2.21-3.06-.18-7.36,3.59-7.57,6.12-.35,14.15-.29,19.06,1.79,7.96,3.38,20.64,14.07,30.43,23.08,1.54,1.42,2.03,3.69,1.08,5.56-3.82,7.52-1.24,18.38,8.24,29.68,1.24,1.48,1.31,3.45.65,5.26-4.83,13.27-25.07,37.91-26.92,36.47l-2.68-18.01"/><path id="Path_76-2" class="cls-5" d="m166.38,259.67c-13.57-7.58-34.37-33.48-34.37-33.48,0,0-9.93,24.88-24.43,37.54-1.29,1.13-3.31.26-3.37-1.45l-1.63-44.66-35.01-50.89c-.72-1.05-.15-2.5,1.1-2.75,7.73-1.55,31.88-3.51,56.93,24.35,8.99-4.26,16.49-11.11,21.56-19.67,6.15-11.64,4.37-28.49-2.77-38.61-1.36-1.93-.45-4.61,1.83-5.25,13.86-3.84,53.6-13.34,87.32-6.61,41.61,8.3,86.1,34.92,90.28,101.8"/><path id="Path_75-2" class="cls-5" d="m302.07,224.28c8.85,4.06,20.82-.88,27.2-4.21,2.17-1.13,4.73.57,4.57,3.02-.51,7.4-3.74,20.82-19.09,32.01-22.49,16.39-56.13,23.51-75.81,23.18-19.67-.33-45.37-11.13-45.37-11.13l-24.63,18.02c-1.57,1.15-3.75-.16-3.48-2.08l5.86-41.67"/></g></g></svg>